<svg width="25" height="33" viewBox="0 0 25 33" fill="none" xmlns="http://www.w3.org/2000/svg">
<g clip-path="url(#clip0_585_4303)">
<path d="M12.3739 7.5625C9.57236 7.5625 7.26924 8.83437 5.50322 10.4715C3.84893 12.0098 2.70596 13.8359 2.12158 15.125C2.70596 16.4141 3.84893 18.2402 5.49893 19.7785C7.26924 21.4156 9.57236 22.6875 12.3739 22.6875C15.1755 22.6875 17.4786 21.4156 19.2446 19.7785C20.8989 18.2402 22.0419 16.4141 22.6263 15.125C22.0419 13.8359 20.8989 12.0098 19.2489 10.4715C17.4786 8.83437 15.1755 7.5625 12.3739 7.5625ZM4.09814 8.96328C6.12197 7.08125 8.90205 5.5 12.3739 5.5C15.8458 5.5 18.6259 7.08125 20.6497 8.96328C22.6606 10.8324 24.0056 13.0625 24.6458 14.5965C24.7876 14.9359 24.7876 15.3141 24.6458 15.6535C24.0056 17.1875 22.6606 19.4219 20.6497 21.2867C18.6259 23.1687 15.8458 24.75 12.3739 24.75C8.90205 24.75 6.12197 23.1687 4.09814 21.2867C2.08721 19.4219 0.742285 17.1875 0.106348 15.6535C-0.0354492 15.3141 -0.0354492 14.9359 0.106348 14.5965C0.742285 13.0625 2.08721 10.8281 4.09814 8.96328ZM12.3739 18.5625C14.2731 18.5625 15.8114 17.0242 15.8114 15.125C15.8114 13.2258 14.2731 11.6875 12.3739 11.6875C12.3438 11.6875 12.3181 11.6875 12.288 11.6875C12.3438 11.9066 12.3739 12.1387 12.3739 12.375C12.3739 13.8918 11.1407 15.125 9.62393 15.125C9.3876 15.125 9.15557 15.0949 8.93643 15.0391C8.93643 15.0691 8.93643 15.0949 8.93643 15.125C8.93643 17.0242 10.4747 18.5625 12.3739 18.5625ZM12.3739 9.625C13.8326 9.625 15.2316 10.2045 16.263 11.2359C17.2945 12.2674 17.8739 13.6663 17.8739 15.125C17.8739 16.5837 17.2945 17.9826 16.263 19.0141C15.2316 20.0455 13.8326 20.625 12.3739 20.625C10.9152 20.625 9.51629 20.0455 8.48484 19.0141C7.45339 17.9826 6.87393 16.5837 6.87393 15.125C6.87393 13.6663 7.45339 12.2674 8.48484 11.2359C9.51629 10.2045 10.9152 9.625 12.3739 9.625Z" fill="currentColor"/>
</g>
<defs>
<clipPath id="clip0_585_4303">
<path d="M0 5.5H24.75V27.5H0V5.5Z" fill="white"/>
</clipPath>
</defs>
</svg>
