<svg width="66" height="66" viewBox="0 0 66 66" fill="none" xmlns="http://www.w3.org/2000/svg">
<rect width="66" height="66" rx="16.5" fill="#10B981" fill-opacity="0.094"/>
<rect x="0.6875" y="0.6875" width="64.625" height="64.625" rx="15.8125" stroke="#10B981" stroke-opacity="0.19" stroke-width="1.375"/>
<path d="M38.0416 44.3437V41.8229C38.0416 40.4858 37.5104 39.2034 36.5649 38.2579C35.6194 37.3124 34.337 36.7813 32.9999 36.7812H25.4374C24.1003 36.7812 22.8179 37.3124 21.8724 38.2579C20.9269 39.2034 20.3957 40.4858 20.3957 41.8229V44.3437" stroke="#10B981" stroke-width="2.52083" stroke-linecap="round" stroke-linejoin="round"/>
<path d="M38.0421 21.8177C39.1232 22.098 40.0806 22.7294 40.7641 23.6127C41.4477 24.496 41.8185 25.5812 41.8185 26.6981C41.8185 27.815 41.4477 28.9002 40.7641 29.7835C40.0806 30.6668 39.1232 31.2981 38.0421 31.5784" stroke="#10B981" stroke-width="2.52083" stroke-linecap="round" stroke-linejoin="round"/>
<path d="M45.6043 44.3438V41.8229C45.6034 40.7059 45.2316 39.6207 44.5472 38.7378C43.8629 37.855 42.9046 37.2244 41.823 36.9451" stroke="#10B981" stroke-width="2.52083" stroke-linecap="round" stroke-linejoin="round"/>
<path d="M29.2189 31.7397C32.0033 31.7397 34.2605 29.4825 34.2605 26.698C34.2605 23.9136 32.0033 21.6564 29.2189 21.6564C26.4344 21.6564 24.1772 23.9136 24.1772 26.698C24.1772 29.4825 26.4344 31.7397 29.2189 31.7397Z" stroke="#10B981" stroke-width="2.52083" stroke-linecap="round" stroke-linejoin="round"/>
</svg>
