<svg width="66" height="66" viewBox="0 0 66 66" fill="none" xmlns="http://www.w3.org/2000/svg">
<rect width="66" height="66" rx="16.5" fill="#F59E0B" fill-opacity="0.094"/>
<rect x="0.6875" y="0.6875" width="64.625" height="64.625" rx="15.8125" stroke="#F59E0B" stroke-opacity="0.19" stroke-width="1.375"/>
<path d="M31.7392 27.4553L24.1843 37.7781C24.0065 38.021 23.9215 38.3194 23.9446 38.6195C23.9678 38.9195 24.0975 39.2014 24.3103 39.4142L25.3401 40.4452C25.5561 40.6609 25.843 40.7909 26.1476 40.8111C26.4522 40.8313 26.7538 40.7402 26.9963 40.5548L36.8943 32.9999" stroke="#F59E0B" stroke-width="2.52083" stroke-linecap="round" stroke-linejoin="round"/>
<path d="M38.6715 44.5632C37.4111 43.7137 35.9893 43.0835 34.2601 43.0835C31.6661 43.0835 29.3091 46.053 26.6976 45.6043C24.086 45.1556 23.1999 41.358 24.8069 39.9324" stroke="#F59E0B" stroke-width="2.52083" stroke-linecap="round" stroke-linejoin="round"/>
<path d="M38.0415 33C41.522 33 44.3435 30.1785 44.3435 26.698C44.3435 23.2174 41.522 20.3959 38.0415 20.3959C34.5609 20.3959 31.7394 23.2174 31.7394 26.698C31.7394 30.1785 34.5609 33 38.0415 33Z" stroke="#F59E0B" stroke-width="2.52083" stroke-linecap="round" stroke-linejoin="round"/>
</svg>
