<svg width="121" height="50" viewBox="0 0 121 50" fill="none" xmlns="http://www.w3.org/2000/svg">
<path d="M25.094 29.0469L29.3909 24.75L25.094 20.4531" stroke="#4A5565" stroke-width="1.71875" stroke-linecap="round" stroke-linejoin="round"/>
<path d="M29.3905 24.75H19.078" stroke="#4A5565" stroke-width="1.71875" stroke-linecap="round" stroke-linejoin="round"/>
<path d="M29.3905 17.0159H32.828C33.2838 17.0159 33.721 17.197 34.0433 17.5193C34.3657 17.8416 34.5468 18.2788 34.5468 18.7346V30.7659C34.5468 31.2217 34.3657 31.6589 34.0433 31.9812C33.721 32.3035 33.2838 32.4846 32.828 32.4846H29.3905" stroke="#4A5565" stroke-width="1.71875" stroke-linecap="round" stroke-linejoin="round"/>
<path d="M49.9175 31.375V17.375H54.8121C55.7873 17.375 56.5917 17.5436 57.2252 17.8809C57.8586 18.2135 58.3303 18.6624 58.6402 19.2275C58.9501 19.7881 59.105 20.4102 59.105 21.0938C59.105 21.6953 58.9979 22.1921 58.7837 22.584C58.5741 22.9759 58.2961 23.2858 57.9498 23.5137C57.608 23.7415 57.2365 23.9102 56.8355 24.0195V24.1563C57.2639 24.1836 57.6946 24.334 58.1275 24.6074C58.5604 24.8809 58.9227 25.2728 59.2144 25.7832C59.5061 26.2936 59.6519 26.918 59.6519 27.6563C59.6519 28.3581 59.4924 28.9893 59.1734 29.5498C58.8544 30.1104 58.3508 30.5547 57.6627 30.8828C56.9745 31.2109 56.079 31.375 54.9761 31.375H49.9175ZM51.6129 29.8711H54.9761C56.0836 29.8711 56.8697 29.6569 57.3345 29.2285C57.8039 28.7956 58.0386 28.2715 58.0386 27.6563C58.0386 27.1823 57.9179 26.7448 57.6763 26.3438C57.4348 25.9382 57.0907 25.6146 56.6441 25.373C56.1975 25.127 55.6688 25.0039 55.0582 25.0039H51.6129V29.8711ZM51.6129 23.5273H54.7574C55.2678 23.5273 55.7281 23.4271 56.1382 23.2266C56.553 23.026 56.8811 22.7435 57.1226 22.3789C57.3687 22.0143 57.4918 21.5859 57.4918 21.0938C57.4918 20.4785 57.2776 19.9567 56.8492 19.5283C56.4208 19.0954 55.7418 18.8789 54.8121 18.8789H51.6129V23.5273ZM66.4844 31.5937C65.5365 31.5937 64.7048 31.3682 63.9893 30.917C63.2784 30.4658 62.7224 29.8346 62.3213 29.0234C61.9249 28.2122 61.7266 27.2643 61.7266 26.1797C61.7266 25.0859 61.9249 24.1312 62.3213 23.3154C62.7224 22.4997 63.2784 21.8662 63.9893 21.415C64.7048 20.9639 65.5365 20.7383 66.4844 20.7383C67.4323 20.7383 68.2618 20.9639 68.9727 21.415C69.6882 21.8662 70.2442 22.4997 70.6407 23.3154C71.0417 24.1312 71.2422 25.0859 71.2422 26.1797C71.2422 27.2643 71.0417 28.2122 70.6407 29.0234C70.2442 29.8346 69.6882 30.4658 68.9727 30.917C68.2618 31.3682 67.4323 31.5937 66.4844 31.5937ZM66.4844 30.1445C67.2045 30.1445 67.7969 29.96 68.2618 29.5908C68.7266 29.2217 69.0707 28.7363 69.294 28.1348C69.5173 27.5332 69.629 26.8815 69.629 26.1797C69.629 25.4779 69.5173 24.8239 69.294 24.2178C69.0707 23.6117 68.7266 23.1217 68.2618 22.748C67.7969 22.3743 67.2045 22.1875 66.4844 22.1875C65.7644 22.1875 65.1719 22.3743 64.7071 22.748C64.2422 23.1217 63.8982 23.6117 63.6749 24.2178C63.4516 24.8239 63.3399 25.4779 63.3399 26.1797C63.3399 26.8815 63.4516 27.5332 63.6749 28.1348C63.8982 28.7363 64.2422 29.2217 64.7071 29.5908C65.1719 29.96 65.7644 30.1445 66.4844 30.1445ZM75.3182 28.9961L80.3768 20.875H82.2361V31.375H80.6229V23.2539L75.5916 31.375H73.7049V20.875H75.3182V28.9961ZM79.3104 17.375H80.8143C80.8143 18.1133 80.5591 18.7171 80.0486 19.1865C79.5382 19.6559 78.8455 19.8906 77.9705 19.8906C77.1092 19.8906 76.4233 19.6559 75.9129 19.1865C75.407 18.7171 75.1541 18.1133 75.1541 17.375H76.658C76.658 17.7305 76.756 18.0426 76.952 18.3115C77.1525 18.5804 77.492 18.7148 77.9705 18.7148C78.449 18.7148 78.7908 18.5804 78.9959 18.3115C79.2055 18.0426 79.3104 17.7305 79.3104 17.375ZM83.7623 22.3789V20.875H92.2935V22.3789H88.8482V31.375H87.2349V22.3789H83.7623ZM96.2601 28.9961L101.319 20.875H103.178V31.375H101.565V23.2539L96.5335 31.375H94.6468V20.875H96.2601V28.9961Z" fill="#4A5565"/>
</svg>
