<svg width="1221" height="605" viewBox="0 0 1221 605" fill="none" xmlns="http://www.w3.org/2000/svg">
<g filter="url(#filter0_d_132_113)">
<rect x="82.5" y="55" width="1056" height="440" rx="33" fill="url(#paint0_linear_132_113)" shape-rendering="crispEdges"/>
<path d="M601.334 171.417C606.396 171.417 610.5 167.313 610.5 162.25C610.5 157.187 606.396 153.083 601.334 153.083C596.271 153.083 592.167 157.187 592.167 162.25C592.167 167.313 596.271 171.417 601.334 171.417Z" stroke="white" stroke-opacity="0.8" stroke-width="4.58333" stroke-linecap="round" stroke-linejoin="round"/>
<path d="M610.5 162.25V125.583L626.542 134.75" stroke="white" stroke-opacity="0.8" stroke-width="4.58333" stroke-linecap="round" stroke-linejoin="round"/>
<path d="M337.7 296.125H335.52C335.391 295.498 335.166 294.947 334.844 294.473C334.527 293.998 334.141 293.6 333.683 293.277C333.232 292.949 332.731 292.703 332.181 292.539C331.63 292.375 331.056 292.293 330.458 292.293C329.368 292.293 328.381 292.568 327.496 293.119C326.617 293.67 325.917 294.481 325.395 295.554C324.88 296.626 324.622 297.941 324.622 299.5C324.622 301.059 324.88 302.374 325.395 303.446C325.917 304.519 326.617 305.33 327.496 305.881C328.381 306.432 329.368 306.707 330.458 306.707C331.056 306.707 331.63 306.625 332.181 306.461C332.731 306.297 333.232 306.054 333.683 305.731C334.141 305.403 334.527 305.002 334.844 304.527C335.166 304.047 335.391 303.496 335.52 302.875H337.7C337.536 303.795 337.237 304.618 336.804 305.345C336.37 306.071 335.831 306.689 335.186 307.199C334.542 307.703 333.818 308.087 333.016 308.351C332.219 308.614 331.366 308.746 330.458 308.746C328.923 308.746 327.557 308.371 326.362 307.621C325.167 306.871 324.226 305.805 323.541 304.422C322.855 303.039 322.513 301.398 322.513 299.5C322.513 297.602 322.855 295.961 323.541 294.578C324.226 293.195 325.167 292.129 326.362 291.379C327.557 290.629 328.923 290.254 330.458 290.254C331.366 290.254 332.219 290.386 333.016 290.649C333.818 290.913 334.542 291.3 335.186 291.81C335.831 292.313 336.37 292.929 336.804 293.655C337.237 294.376 337.536 295.199 337.7 296.125ZM346.425 308.781C345.207 308.781 344.137 308.491 343.217 307.911C342.303 307.331 341.589 306.52 341.073 305.477C340.563 304.434 340.308 303.215 340.308 301.82C340.308 300.414 340.563 299.187 341.073 298.138C341.589 297.089 342.303 296.274 343.217 295.694C344.137 295.114 345.207 294.824 346.425 294.824C347.644 294.824 348.711 295.114 349.625 295.694C350.545 296.274 351.259 297.089 351.769 298.138C352.285 299.187 352.543 300.414 352.543 301.82C352.543 303.215 352.285 304.434 351.769 305.477C351.259 306.52 350.545 307.331 349.625 307.911C348.711 308.491 347.644 308.781 346.425 308.781ZM346.425 306.918C347.351 306.918 348.113 306.681 348.711 306.206C349.308 305.731 349.751 305.107 350.038 304.334C350.325 303.561 350.468 302.723 350.468 301.82C350.468 300.918 350.325 300.077 350.038 299.298C349.751 298.519 349.308 297.889 348.711 297.408C348.113 296.928 347.351 296.687 346.425 296.687C345.5 296.687 344.738 296.928 344.14 297.408C343.543 297.889 343.1 298.519 342.813 299.298C342.526 300.077 342.382 300.918 342.382 301.82C342.382 302.723 342.526 303.561 342.813 304.334C343.1 305.107 343.543 305.731 344.14 306.206C344.738 306.681 345.5 306.918 346.425 306.918ZM354.865 305.055H357.08C357.127 305.664 357.402 306.127 357.906 306.443C358.416 306.76 359.078 306.918 359.892 306.918C360.724 306.918 361.436 306.748 362.028 306.408C362.62 306.062 362.916 305.506 362.916 304.738C362.916 304.287 362.805 303.895 362.582 303.561C362.359 303.221 362.046 302.957 361.641 302.77C361.237 302.582 360.76 302.488 360.209 302.488H357.889V300.625H360.209C361.035 300.625 361.644 300.438 362.037 300.062C362.435 299.687 362.635 299.219 362.635 298.656C362.635 298.053 362.421 297.569 361.993 297.206C361.565 296.837 360.959 296.652 360.174 296.652C359.383 296.652 358.724 296.831 358.196 297.188C357.669 297.54 357.391 297.994 357.361 298.551H355.182C355.205 297.824 355.428 297.183 355.849 296.626C356.271 296.063 356.846 295.624 357.572 295.308C358.299 294.985 359.131 294.824 360.068 294.824C361.017 294.824 361.841 294.991 362.538 295.325C363.241 295.653 363.783 296.102 364.164 296.67C364.551 297.232 364.744 297.871 364.744 298.586C364.744 299.348 364.53 299.963 364.102 300.432C363.675 300.9 363.139 301.234 362.494 301.434V301.574C363.004 301.609 363.446 301.773 363.821 302.066C364.202 302.354 364.498 302.731 364.709 303.2C364.92 303.663 365.025 304.176 365.025 304.738C365.025 305.559 364.806 306.273 364.366 306.883C363.927 307.486 363.323 307.955 362.556 308.289C361.788 308.617 360.912 308.781 359.928 308.781C358.973 308.781 358.117 308.626 357.361 308.315C356.605 307.999 356.005 307.562 355.559 307.006C355.12 306.443 354.889 305.793 354.865 305.055ZM366.497 312.367V306.566H367.622C367.898 306.279 368.135 305.969 368.334 305.635C368.534 305.301 368.706 304.905 368.853 304.448C369.005 303.985 369.134 303.423 369.24 302.761C369.345 302.093 369.439 301.287 369.521 300.344L369.978 295H378.556V306.566H380.63V312.367H378.556V308.5H368.572V312.367H366.497ZM369.978 306.566H376.482V296.934H371.911L371.56 300.344C371.413 301.756 371.232 302.989 371.015 304.044C370.798 305.099 370.453 305.939 369.978 306.566ZM387.356 308.816C386.501 308.816 385.724 308.655 385.027 308.333C384.33 308.005 383.776 307.533 383.366 306.918C382.956 306.297 382.751 305.547 382.751 304.668C382.751 303.895 382.903 303.268 383.208 302.787C383.512 302.301 383.92 301.92 384.429 301.645C384.939 301.369 385.502 301.164 386.117 301.029C386.738 300.889 387.362 300.777 387.989 300.695C388.809 300.59 389.474 300.511 389.984 300.458C390.5 300.399 390.875 300.303 391.109 300.168C391.349 300.033 391.469 299.799 391.469 299.465V299.395C391.469 298.527 391.232 297.854 390.757 297.373C390.289 296.893 389.577 296.652 388.622 296.652C387.631 296.652 386.855 296.869 386.293 297.303C385.73 297.736 385.335 298.199 385.106 298.691L383.137 297.988C383.489 297.168 383.958 296.529 384.544 296.072C385.135 295.609 385.78 295.287 386.477 295.105C387.18 294.918 387.872 294.824 388.551 294.824C388.985 294.824 389.483 294.877 390.046 294.982C390.614 295.082 391.162 295.29 391.689 295.606C392.222 295.923 392.665 296.4 393.016 297.039C393.368 297.678 393.544 298.533 393.544 299.605V308.5H391.469V306.672H391.364C391.223 306.965 390.989 307.278 390.661 307.612C390.333 307.946 389.896 308.23 389.351 308.465C388.806 308.699 388.141 308.816 387.356 308.816ZM387.672 306.953C388.493 306.953 389.184 306.792 389.747 306.47C390.315 306.147 390.743 305.731 391.03 305.222C391.323 304.712 391.469 304.176 391.469 303.613V301.715C391.381 301.82 391.188 301.917 390.889 302.005C390.596 302.087 390.256 302.16 389.87 302.225C389.489 302.283 389.117 302.336 388.754 302.383C388.396 302.424 388.106 302.459 387.883 302.488C387.344 302.559 386.84 302.673 386.372 302.831C385.909 302.983 385.534 303.215 385.247 303.525C384.965 303.83 384.825 304.246 384.825 304.773C384.825 305.494 385.091 306.039 385.625 306.408C386.164 306.771 386.846 306.953 387.672 306.953ZM399.404 305.441L405.908 295H408.298V308.5H406.224V298.059L399.755 308.5H397.329V295H399.404V305.441ZM404.536 290.5H406.47C406.47 291.449 406.142 292.226 405.486 292.829C404.829 293.433 403.939 293.734 402.814 293.734C401.706 293.734 400.825 293.433 400.168 292.829C399.518 292.226 399.193 291.449 399.193 290.5H401.126C401.126 290.957 401.252 291.358 401.504 291.704C401.762 292.05 402.199 292.223 402.814 292.223C403.429 292.223 403.869 292.05 404.132 291.704C404.402 291.358 404.536 290.957 404.536 290.5ZM410.26 296.934V295H421.229V296.934H416.799V308.5H414.725V296.934H410.26ZM429.214 308.781C427.913 308.781 426.791 308.494 425.848 307.92C424.91 307.34 424.187 306.531 423.677 305.494C423.173 304.451 422.921 303.238 422.921 301.855C422.921 300.473 423.173 299.254 423.677 298.199C424.187 297.139 424.896 296.312 425.804 295.721C426.718 295.123 427.784 294.824 429.003 294.824C429.706 294.824 430.401 294.941 431.086 295.176C431.772 295.41 432.396 295.791 432.958 296.318C433.521 296.84 433.969 297.531 434.303 298.393C434.637 299.254 434.804 300.314 434.804 301.574V302.453H424.398V300.66H432.694C432.694 299.898 432.542 299.219 432.237 298.621C431.939 298.023 431.511 297.552 430.954 297.206C430.403 296.86 429.753 296.687 429.003 296.687C428.177 296.687 427.462 296.893 426.859 297.303C426.261 297.707 425.801 298.234 425.479 298.885C425.156 299.535 424.995 300.232 424.995 300.977V302.172C424.995 303.191 425.171 304.056 425.523 304.765C425.88 305.468 426.375 306.004 427.008 306.373C427.641 306.736 428.376 306.918 429.214 306.918C429.759 306.918 430.251 306.842 430.691 306.689C431.136 306.531 431.52 306.297 431.842 305.986C432.164 305.67 432.413 305.277 432.589 304.809L434.593 305.371C434.382 306.051 434.027 306.648 433.529 307.164C433.031 307.674 432.416 308.072 431.684 308.359C430.951 308.641 430.128 308.781 429.214 308.781ZM444.92 308.5V295H455.537V308.5H453.463V296.934H446.994V308.5H444.92ZM464.985 308.781C463.685 308.781 462.563 308.494 461.619 307.92C460.682 307.34 459.958 306.531 459.448 305.494C458.944 304.451 458.693 303.238 458.693 301.855C458.693 300.473 458.944 299.254 459.448 298.199C459.958 297.139 460.667 296.312 461.575 295.721C462.489 295.123 463.556 294.824 464.775 294.824C465.478 294.824 466.172 294.941 466.858 295.176C467.543 295.41 468.167 295.791 468.73 296.318C469.292 296.84 469.74 297.531 470.074 298.393C470.408 299.254 470.575 300.314 470.575 301.574V302.453H460.169V300.66H468.466C468.466 299.898 468.314 299.219 468.009 298.621C467.71 298.023 467.282 297.552 466.726 297.206C466.175 296.86 465.525 296.687 464.775 296.687C463.948 296.687 463.234 296.893 462.63 297.303C462.032 297.707 461.572 298.234 461.25 298.885C460.928 299.535 460.767 300.232 460.767 300.977V302.172C460.767 303.191 460.943 304.056 461.294 304.765C461.651 305.468 462.147 306.004 462.779 306.373C463.412 306.736 464.148 306.918 464.985 306.918C465.53 306.918 466.023 306.842 466.462 306.689C466.907 306.531 467.291 306.297 467.613 305.986C467.936 305.67 468.185 305.277 468.36 304.809L470.364 305.371C470.153 306.051 469.799 306.648 469.301 307.164C468.803 307.674 468.188 308.072 467.455 308.359C466.723 308.641 465.9 308.781 464.985 308.781ZM473.731 313.563V295H475.734V297.145H475.981C476.133 296.91 476.344 296.611 476.613 296.248C476.889 295.879 477.281 295.551 477.791 295.264C478.307 294.971 479.004 294.824 479.883 294.824C481.02 294.824 482.022 295.108 482.889 295.677C483.756 296.245 484.433 297.051 484.919 298.094C485.405 299.137 485.649 300.367 485.649 301.785C485.649 303.215 485.405 304.454 484.919 305.503C484.433 306.546 483.759 307.354 482.898 307.929C482.036 308.497 481.043 308.781 479.918 308.781C479.051 308.781 478.357 308.638 477.835 308.351C477.314 308.058 476.912 307.727 476.631 307.357C476.35 306.982 476.133 306.672 475.981 306.426H475.805V313.563H473.731ZM475.77 301.75C475.77 302.77 475.919 303.669 476.218 304.448C476.517 305.222 476.953 305.828 477.527 306.268C478.102 306.701 478.805 306.918 479.637 306.918C480.504 306.918 481.228 306.689 481.808 306.232C482.394 305.77 482.833 305.148 483.126 304.369C483.425 303.584 483.574 302.711 483.574 301.75C483.574 300.801 483.428 299.945 483.135 299.184C482.848 298.416 482.411 297.81 481.825 297.364C481.245 296.913 480.516 296.687 479.637 296.687C478.793 296.687 478.084 296.901 477.51 297.329C476.936 297.751 476.502 298.343 476.209 299.104C475.916 299.86 475.77 300.742 475.77 301.75ZM488.813 308.5V295H494.332C495.785 295 496.94 295.328 497.795 295.984C498.651 296.641 499.078 297.508 499.078 298.586C499.078 299.406 498.835 300.042 498.349 300.493C497.862 300.938 497.238 301.24 496.477 301.398C496.975 301.469 497.458 301.645 497.927 301.926C498.401 302.207 498.794 302.594 499.105 303.086C499.415 303.572 499.57 304.17 499.57 304.879C499.57 305.57 499.395 306.188 499.043 306.733C498.692 307.278 498.188 307.709 497.531 308.025C496.875 308.342 496.09 308.5 495.176 308.5H488.813ZM490.781 306.602H495.176C495.891 306.602 496.45 306.432 496.855 306.092C497.259 305.752 497.461 305.289 497.461 304.703C497.461 304.006 497.259 303.458 496.855 303.06C496.45 302.655 495.891 302.453 495.176 302.453H490.781V306.602ZM490.781 300.66H494.332C494.889 300.66 495.366 300.584 495.765 300.432C496.163 300.273 496.468 300.051 496.679 299.764C496.896 299.471 497.004 299.125 497.004 298.727C497.004 298.158 496.767 297.713 496.292 297.391C495.818 297.062 495.164 296.898 494.332 296.898H490.781V300.66ZM504.046 313.563C503.695 313.563 503.381 313.533 503.106 313.475C502.83 313.422 502.64 313.369 502.535 313.316L503.062 311.488C503.566 311.617 504.011 311.664 504.398 311.629C504.785 311.594 505.127 311.421 505.426 311.11C505.731 310.806 506.009 310.311 506.261 309.625L506.648 308.57L501.656 295H503.906L507.632 305.758H507.773L511.499 295H513.749L508.019 310.469C507.761 311.166 507.442 311.743 507.061 312.2C506.68 312.663 506.238 313.006 505.734 313.229C505.236 313.451 504.673 313.563 504.046 313.563ZM522.956 300.906V302.84H515.819V300.906H522.956ZM517.577 295V308.5H515.503V295H517.577ZM527.104 308.781C525.886 308.781 524.816 308.491 523.896 307.911C522.982 307.331 522.267 306.52 521.752 305.477C521.242 304.434 520.987 303.215 520.987 301.82C520.987 300.414 521.242 299.187 521.752 298.138C522.267 297.089 522.982 296.274 523.896 295.694C524.816 295.114 525.886 294.824 527.104 294.824C528.323 294.824 529.39 295.114 530.304 295.694C531.224 296.274 531.938 297.089 532.448 298.138C532.964 299.187 533.222 300.414 533.222 301.82C533.222 303.215 532.964 304.434 532.448 305.477C531.938 306.52 531.224 307.331 530.304 307.911C529.39 308.491 528.323 308.781 527.104 308.781ZM527.104 306.918C528.03 306.918 528.792 306.681 529.39 306.206C529.987 305.731 530.43 305.107 530.717 304.334C531.004 303.561 531.147 302.723 531.147 301.82C531.147 300.918 531.004 300.077 530.717 299.298C530.43 298.519 529.987 297.889 529.39 297.408C528.792 296.928 528.03 296.687 527.104 296.687C526.179 296.687 525.417 296.928 524.819 297.408C524.222 297.889 523.779 298.519 523.492 299.298C523.205 300.077 523.061 300.918 523.061 301.82C523.061 302.723 523.205 303.561 523.492 304.334C523.779 305.107 524.222 305.731 524.819 306.206C525.417 306.681 526.179 306.918 527.104 306.918ZM545.632 305.441L552.136 295H554.526V308.5H552.452V298.059L545.983 308.5H543.557V295H545.632V305.441ZM566.657 295V296.934H560.4V308.5H558.325V295H566.657ZM569.685 313.563V295H571.689V297.145H571.935C572.088 296.91 572.298 296.611 572.568 296.248C572.843 295.879 573.236 295.551 573.746 295.264C574.261 294.971 574.959 294.824 575.838 294.824C576.974 294.824 577.976 295.108 578.843 295.677C579.711 296.245 580.387 297.051 580.874 298.094C581.36 299.137 581.603 300.367 581.603 301.785C581.603 303.215 581.36 304.454 580.874 305.503C580.387 306.546 579.714 307.354 578.852 307.929C577.991 308.497 576.998 308.781 575.873 308.781C575.005 308.781 574.311 308.638 573.79 308.351C573.268 308.058 572.867 307.727 572.586 307.357C572.304 306.982 572.088 306.672 571.935 306.426H571.759V313.563H569.685ZM571.724 301.75C571.724 302.77 571.874 303.669 572.172 304.448C572.471 305.222 572.908 305.828 573.482 306.268C574.056 306.701 574.759 306.918 575.591 306.918C576.459 306.918 577.182 306.689 577.762 306.232C578.348 305.77 578.788 305.148 579.081 304.369C579.38 303.584 579.529 302.711 579.529 301.75C579.529 300.801 579.382 299.945 579.089 299.184C578.802 298.416 578.366 297.81 577.78 297.364C577.2 296.913 576.47 296.687 575.591 296.687C574.748 296.687 574.039 296.901 573.464 297.329C572.89 297.751 572.457 298.343 572.164 299.104C571.871 299.86 571.724 300.742 571.724 301.75ZM585.62 313.563C585.268 313.563 584.955 313.533 584.679 313.475C584.404 313.422 584.214 313.369 584.108 313.316L584.635 311.488C585.139 311.617 585.585 311.664 585.971 311.629C586.358 311.594 586.701 311.421 587 311.11C587.304 310.806 587.583 310.311 587.835 309.625L588.221 308.57L583.229 295H585.479L589.206 305.758H589.346L593.073 295H595.323L589.592 310.469C589.335 311.166 589.015 311.743 588.634 312.2C588.254 312.663 587.811 313.006 587.307 313.229C586.809 313.451 586.247 313.563 585.62 313.563ZM604.178 305.055H606.393C606.44 305.664 606.715 306.127 607.219 306.443C607.729 306.76 608.391 306.918 609.205 306.918C610.037 306.918 610.749 306.748 611.341 306.408C611.933 306.062 612.229 305.506 612.229 304.738C612.229 304.287 612.117 303.895 611.895 303.561C611.672 303.221 611.359 302.957 610.954 302.77C610.55 302.582 610.072 302.488 609.522 302.488H607.201V300.625H609.522C610.348 300.625 610.957 300.438 611.35 300.062C611.748 299.687 611.947 299.219 611.947 298.656C611.947 298.053 611.734 297.569 611.306 297.206C610.878 296.837 610.272 296.652 609.486 296.652C608.695 296.652 608.036 296.831 607.509 297.188C606.982 297.54 606.703 297.994 606.674 298.551H604.494C604.518 297.824 604.74 297.183 605.162 296.626C605.584 296.063 606.158 295.624 606.885 295.308C607.611 294.985 608.443 294.824 609.381 294.824C610.33 294.824 611.153 294.991 611.851 295.325C612.554 295.653 613.096 296.102 613.477 296.67C613.863 297.232 614.057 297.871 614.057 298.586C614.057 299.348 613.843 299.963 613.415 300.432C612.987 300.9 612.451 301.234 611.807 301.434V301.574C612.317 301.609 612.759 301.773 613.134 302.066C613.515 302.354 613.811 302.731 614.022 303.2C614.233 303.663 614.338 304.176 614.338 304.738C614.338 305.559 614.118 306.273 613.679 306.883C613.239 307.486 612.636 307.955 611.868 308.289C611.101 308.617 610.225 308.781 609.24 308.781C608.285 308.781 607.43 308.626 606.674 308.315C605.918 307.999 605.318 307.562 604.872 307.006C604.433 306.443 604.201 305.793 604.178 305.055ZM621.224 308.816C620.369 308.816 619.592 308.655 618.895 308.333C618.198 308.005 617.644 307.533 617.234 306.918C616.824 306.297 616.619 305.547 616.619 304.668C616.619 303.895 616.771 303.268 617.076 302.787C617.38 302.301 617.788 301.92 618.297 301.645C618.807 301.369 619.37 301.164 619.985 301.029C620.606 300.889 621.23 300.777 621.857 300.695C622.677 300.59 623.342 300.511 623.852 300.458C624.368 300.399 624.743 300.303 624.977 300.168C625.217 300.033 625.338 299.799 625.338 299.465V299.395C625.338 298.527 625.1 297.854 624.626 297.373C624.157 296.893 623.445 296.652 622.49 296.652C621.5 296.652 620.723 296.869 620.161 297.303C619.598 297.736 619.203 298.199 618.974 298.691L617.005 297.988C617.357 297.168 617.826 296.529 618.412 296.072C619.004 295.609 619.648 295.287 620.345 295.105C621.048 294.918 621.74 294.824 622.42 294.824C622.853 294.824 623.351 294.877 623.914 294.982C624.482 295.082 625.03 295.29 625.557 295.606C626.09 295.923 626.533 296.4 626.884 297.039C627.236 297.678 627.412 298.533 627.412 299.605V308.5H625.338V306.672H625.232C625.091 306.965 624.857 307.278 624.529 307.612C624.201 307.946 623.764 308.23 623.219 308.465C622.674 308.699 622.009 308.816 621.224 308.816ZM621.541 306.953C622.361 306.953 623.052 306.792 623.615 306.47C624.183 306.147 624.611 305.731 624.898 305.222C625.191 304.712 625.338 304.176 625.338 303.613V301.715C625.25 301.82 625.056 301.917 624.757 302.005C624.464 302.087 624.125 302.16 623.738 302.225C623.357 302.283 622.985 302.336 622.622 302.383C622.264 302.424 621.974 302.459 621.752 302.488C621.213 302.559 620.709 302.673 620.24 302.831C619.777 302.983 619.402 303.215 619.115 303.525C618.834 303.83 618.693 304.246 618.693 304.773C618.693 305.494 618.96 306.039 619.493 306.408C620.032 306.771 620.714 306.953 621.541 306.953ZM638.123 308.5V306.918L644.065 300.414C644.762 299.652 645.336 298.99 645.787 298.428C646.239 297.859 646.573 297.326 646.789 296.828C647.012 296.324 647.123 295.797 647.123 295.246C647.123 294.613 646.971 294.065 646.666 293.603C646.368 293.14 645.957 292.782 645.436 292.53C644.914 292.278 644.328 292.152 643.678 292.152C642.987 292.152 642.383 292.296 641.868 292.583C641.358 292.864 640.962 293.26 640.681 293.77C640.406 294.279 640.268 294.877 640.268 295.562H638.194C638.194 294.508 638.437 293.582 638.923 292.785C639.41 291.988 640.072 291.367 640.91 290.922C641.753 290.477 642.7 290.254 643.748 290.254C644.803 290.254 645.738 290.477 646.552 290.922C647.367 291.367 648.005 291.968 648.468 292.724C648.931 293.479 649.162 294.32 649.162 295.246C649.162 295.908 649.042 296.556 648.802 297.188C648.568 297.815 648.158 298.516 647.572 299.289C646.992 300.057 646.186 300.994 645.155 302.102L641.112 306.426V306.566H649.479V308.5H638.123ZM667.488 305.687L672.199 295H674.167L668.331 308.5H666.644L660.913 295H662.847L667.488 305.687ZM662.179 295V308.5H660.105V295H662.179ZM672.796 308.5V295H674.87V308.5H672.796ZM680.742 305.441L687.245 295H689.636V308.5H687.562V298.059L681.093 308.5H678.667V295H680.742V305.441ZM702.47 300.801V302.734H695.017V300.801H702.47ZM695.509 295V308.5H693.435V295H695.509ZM704.052 295V308.5H701.978V295H704.052ZM708.693 313.563C708.341 313.563 708.028 313.533 707.753 313.475C707.477 313.422 707.287 313.369 707.181 313.316L707.709 311.488C708.213 311.617 708.658 311.664 709.045 311.629C709.431 311.594 709.774 311.421 710.073 311.11C710.378 310.806 710.656 310.311 710.908 309.625L711.295 308.57L706.302 295H708.552L712.279 305.758H712.42L716.146 295H718.396L712.666 310.469C712.408 311.166 712.089 311.743 711.708 312.2C711.327 312.663 710.884 313.006 710.38 313.229C709.882 313.451 709.32 313.563 708.693 313.563ZM720.36 296.934V295H731.329V296.934H726.9V308.5H724.825V296.934H720.36ZM736.148 299.887H740.015C741.597 299.887 742.807 300.288 743.645 301.091C744.483 301.894 744.902 302.91 744.902 304.141C744.902 304.949 744.714 305.685 744.339 306.347C743.964 307.003 743.413 307.527 742.687 307.92C741.96 308.307 741.07 308.5 740.015 308.5H734.355V295H736.429V306.566H740.015C740.835 306.566 741.509 306.35 742.036 305.916C742.564 305.482 742.828 304.926 742.828 304.246C742.828 303.531 742.564 302.948 742.036 302.497C741.509 302.046 740.835 301.82 740.015 301.82H736.148V299.887ZM747.046 308.5V295H749.12V308.5H747.046ZM754.429 308.641C753.995 308.641 753.623 308.485 753.313 308.175C753.002 307.864 752.847 307.492 752.847 307.059C752.847 306.625 753.002 306.253 753.313 305.942C753.623 305.632 753.995 305.477 754.429 305.477C754.863 305.477 755.235 305.632 755.545 305.942C755.856 306.253 756.011 306.625 756.011 307.059C756.011 307.346 755.938 307.609 755.791 307.85C755.651 308.09 755.46 308.283 755.22 308.43C754.986 308.57 754.722 308.641 754.429 308.641ZM766.975 308.5V290.5H777.839V292.434H769.155V298.059H773.725C775.015 298.059 776.101 298.27 776.986 298.691C777.877 299.113 778.551 299.708 779.008 300.476C779.471 301.243 779.702 302.148 779.702 303.191C779.702 304.234 779.471 305.154 779.008 305.951C778.551 306.748 777.877 307.372 776.986 307.823C776.101 308.274 775.015 308.5 773.725 308.5H766.975ZM769.155 306.602H773.725C774.546 306.602 775.24 306.437 775.808 306.109C776.383 305.775 776.816 305.348 777.109 304.826C777.408 304.299 777.557 303.742 777.557 303.156C777.557 302.295 777.226 301.554 776.564 300.933C775.902 300.306 774.956 299.992 773.725 299.992H769.155V306.602ZM788.669 308.781C787.368 308.781 786.246 308.494 785.303 307.92C784.365 307.34 783.642 306.531 783.132 305.494C782.628 304.451 782.376 303.238 782.376 301.855C782.376 300.473 782.628 299.254 783.132 298.199C783.642 297.139 784.351 296.312 785.259 295.721C786.173 295.123 787.239 294.824 788.458 294.824C789.161 294.824 789.856 294.941 790.541 295.176C791.227 295.41 791.851 295.791 792.413 296.318C792.976 296.84 793.424 297.531 793.758 298.393C794.092 299.254 794.259 300.314 794.259 301.574V302.453H783.853V300.66H792.15C792.15 299.898 791.997 299.219 791.693 298.621C791.394 298.023 790.966 297.552 790.409 297.206C789.859 296.86 789.208 296.687 788.458 296.687C787.632 296.687 786.917 296.893 786.314 297.303C785.716 297.707 785.256 298.234 784.934 298.885C784.611 299.535 784.45 300.232 784.45 300.977V302.172C784.45 303.191 784.626 304.056 784.978 304.765C785.335 305.468 785.83 306.004 786.463 306.373C787.096 306.736 787.831 306.918 788.669 306.918C789.214 306.918 789.706 306.842 790.146 306.689C790.591 306.531 790.975 306.297 791.297 305.986C791.619 305.67 791.868 305.277 792.044 304.809L794.048 305.371C793.837 306.051 793.483 306.648 792.984 307.164C792.486 307.674 791.871 308.072 791.139 308.359C790.406 308.641 789.583 308.781 788.669 308.781ZM802.899 308.781C801.633 308.781 800.543 308.482 799.629 307.885C798.715 307.287 798.012 306.464 797.52 305.415C797.027 304.366 796.781 303.168 796.781 301.82C796.781 300.449 797.033 299.239 797.537 298.19C798.047 297.136 798.756 296.312 799.664 295.721C800.578 295.123 801.645 294.824 802.863 294.824C803.813 294.824 804.668 295 805.43 295.352C806.192 295.703 806.816 296.195 807.302 296.828C807.788 297.461 808.09 298.199 808.207 299.043H806.133C805.975 298.428 805.623 297.883 805.078 297.408C804.539 296.928 803.813 296.687 802.899 296.687C802.09 296.687 801.381 296.898 800.772 297.32C800.168 297.736 799.696 298.325 799.357 299.087C799.023 299.843 798.856 300.73 798.856 301.75C798.856 302.793 799.02 303.701 799.348 304.475C799.682 305.248 800.151 305.849 800.754 306.276C801.363 306.704 802.078 306.918 802.899 306.918C803.438 306.918 803.927 306.824 804.366 306.637C804.806 306.449 805.178 306.18 805.483 305.828C805.787 305.477 806.004 305.055 806.133 304.563H808.207C808.09 305.359 807.8 306.077 807.337 306.716C806.88 307.349 806.274 307.853 805.518 308.228C804.768 308.597 803.895 308.781 802.899 308.781ZM811.239 308.5V295H821.857V308.5H819.782V296.934H813.314V308.5H811.239ZM824.449 308.5V306.566H824.942C825.346 306.566 825.683 306.487 825.952 306.329C826.222 306.165 826.439 305.881 826.603 305.477C826.773 305.066 826.901 304.498 826.989 303.771C827.083 303.039 827.151 302.107 827.192 300.977L827.438 295H836.438V308.5H834.363V296.934H829.406L829.195 301.75C829.149 302.857 829.049 303.833 828.897 304.677C828.75 305.515 828.525 306.218 828.22 306.786C827.921 307.354 827.523 307.782 827.025 308.069C826.526 308.356 825.902 308.5 825.152 308.5H824.449ZM844.216 308.816C843.36 308.816 842.584 308.655 841.887 308.333C841.19 308.005 840.636 307.533 840.226 306.918C839.816 306.297 839.61 305.547 839.61 304.668C839.61 303.895 839.763 303.268 840.067 302.787C840.372 302.301 840.779 301.92 841.289 301.645C841.799 301.369 842.361 301.164 842.977 301.029C843.598 300.889 844.222 300.777 844.849 300.695C845.669 300.59 846.334 300.511 846.844 300.458C847.359 300.399 847.734 300.303 847.969 300.168C848.209 300.033 848.329 299.799 848.329 299.465V299.395C848.329 298.527 848.092 297.854 847.617 297.373C847.149 296.893 846.437 296.652 845.482 296.652C844.491 296.652 843.715 296.869 843.152 297.303C842.59 297.736 842.194 298.199 841.966 298.691L839.997 297.988C840.349 297.168 840.817 296.529 841.403 296.072C841.995 295.609 842.64 295.287 843.337 295.105C844.04 294.918 844.732 294.824 845.411 294.824C845.845 294.824 846.343 294.877 846.905 294.982C847.474 295.082 848.022 295.29 848.549 295.606C849.082 295.923 849.525 296.4 849.876 297.039C850.228 297.678 850.403 298.533 850.403 299.605V308.5H848.329V306.672H848.224C848.083 306.965 847.849 307.278 847.521 307.612C847.192 307.946 846.756 308.23 846.211 308.465C845.666 308.699 845.001 308.816 844.216 308.816ZM844.532 306.953C845.353 306.953 846.044 306.792 846.607 306.47C847.175 306.147 847.603 305.731 847.89 305.222C848.183 304.712 848.329 304.176 848.329 303.613V301.715C848.241 301.82 848.048 301.917 847.749 302.005C847.456 302.087 847.116 302.16 846.73 302.225C846.349 302.283 845.977 302.336 845.613 302.383C845.256 302.424 844.966 302.459 844.743 302.488C844.204 302.559 843.7 302.673 843.232 302.831C842.769 302.983 842.394 303.215 842.107 303.525C841.825 303.83 841.685 304.246 841.685 304.773C841.685 305.494 841.951 306.039 842.484 306.408C843.024 306.771 843.706 306.953 844.532 306.953ZM852.352 296.934V295H863.321V296.934H858.891V308.5H856.817V296.934H852.352ZM875.382 300.801V302.734H867.929V300.801H875.382ZM868.421 295V308.5H866.347V295H868.421ZM876.964 295V308.5H874.89V295H876.964ZM886.236 308.781C885.018 308.781 883.948 308.491 883.028 307.911C882.114 307.331 881.4 306.52 880.884 305.477C880.374 304.434 880.119 303.215 880.119 301.82C880.119 300.414 880.374 299.187 880.884 298.138C881.4 297.089 882.114 296.274 883.028 295.694C883.948 295.114 885.018 294.824 886.236 294.824C887.455 294.824 888.522 295.114 889.436 295.694C890.356 296.274 891.07 297.089 891.58 298.138C892.096 299.187 892.354 300.414 892.354 301.82C892.354 303.215 892.096 304.434 891.58 305.477C891.07 306.52 890.356 307.331 889.436 307.911C888.522 308.491 887.455 308.781 886.236 308.781ZM886.236 306.918C887.162 306.918 887.924 306.681 888.522 306.206C889.119 305.731 889.562 305.107 889.849 304.334C890.136 303.561 890.279 302.723 890.279 301.82C890.279 300.918 890.136 300.077 889.849 299.298C889.562 298.519 889.119 297.889 888.522 297.408C887.924 296.928 887.162 296.687 886.236 296.687C885.311 296.687 884.549 296.928 883.951 297.408C883.354 297.889 882.911 298.519 882.624 299.298C882.337 300.077 882.193 300.918 882.193 301.82C882.193 302.723 882.337 303.561 882.624 304.334C882.911 305.107 883.354 305.731 883.951 306.206C884.549 306.681 885.311 306.918 886.236 306.918ZM897.032 308.641C896.598 308.641 896.226 308.485 895.915 308.175C895.605 307.864 895.45 307.492 895.45 307.059C895.45 306.625 895.605 306.253 895.915 305.942C896.226 305.632 896.598 305.477 897.032 305.477C897.465 305.477 897.837 305.632 898.148 305.942C898.458 306.253 898.614 306.625 898.614 307.059C898.614 307.346 898.54 307.609 898.394 307.85C898.253 308.09 898.063 308.283 897.823 308.43C897.588 308.57 897.325 308.641 897.032 308.641Z" fill="#DBEAFE"/>
</g>
<defs>
<filter id="filter0_d_132_113" x="0" y="-1.90735e-06" width="1221" height="605" filterUnits="userSpaceOnUse" color-interpolation-filters="sRGB">
<feFlood flood-opacity="0" result="BackgroundImageFix"/>
<feColorMatrix in="SourceAlpha" type="matrix" values="0 0 0 0 0 0 0 0 0 0 0 0 0 0 0 0 0 0 127 0" result="hardAlpha"/>
<feOffset dy="27.5"/>
<feGaussianBlur stdDeviation="41.25"/>
<feComposite in2="hardAlpha" operator="out"/>
<feColorMatrix type="matrix" values="0 0 0 0 0.180392 0 0 0 0 0.407843 0 0 0 0 0.960784 0 0 0 0.35 0"/>
<feBlend mode="normal" in2="BackgroundImageFix" result="effect1_dropShadow_132_113"/>
<feBlend mode="normal" in="SourceGraphic" in2="effect1_dropShadow_132_113" result="shape"/>
</filter>
<linearGradient id="paint0_linear_132_113" x1="236.5" y1="-99" x2="984.5" y2="649" gradientUnits="userSpaceOnUse">
<stop stop-color="#2E68F5"/>
<stop offset="1" stop-color="#3D7AF7"/>
</linearGradient>
</defs>
</svg>
