<svg width="1980" height="104" viewBox="0 0 1980 104" fill="none" xmlns="http://www.w3.org/2000/svg">
<g filter="url(#filter0_d_132_128)">
<rect x="110" y="23.375" width="49.5" height="49.5" rx="11" fill="url(#paint0_linear_132_128)"/>
<path d="M130.625 58.4375C132.903 58.4375 134.75 56.5907 134.75 54.3125C134.75 52.0343 132.903 50.1875 130.625 50.1875C128.347 50.1875 126.5 52.0343 126.5 54.3125C126.5 56.5907 128.347 58.4375 130.625 58.4375Z" stroke="white" stroke-width="2.0625" stroke-linecap="round" stroke-linejoin="round"/>
<path d="M134.75 54.3125V37.8125L141.969 41.9375" stroke="white" stroke-width="2.0625" stroke-linecap="round" stroke-linejoin="round"/>
<path d="M181.712 57.1211C180.787 57.1152 179.893 56.96 179.032 56.6553C178.176 56.3506 177.409 55.8555 176.729 55.1699C176.049 54.4844 175.51 53.5762 175.112 52.4453C174.719 51.3145 174.523 49.9258 174.523 48.2793C174.529 46.7676 174.702 45.417 175.041 44.2275C175.387 43.0322 175.879 42.0186 176.518 41.1865C177.163 40.3545 177.933 39.7217 178.83 39.2881C179.726 38.8486 180.731 38.6289 181.844 38.6289C183.045 38.6289 184.106 38.8633 185.026 39.332C185.946 39.7949 186.684 40.4248 187.241 41.2217C187.803 42.0186 188.143 42.9121 188.26 43.9023H184.507C184.361 43.2754 184.053 42.7832 183.584 42.4258C183.116 42.0684 182.536 41.8896 181.844 41.8896C180.672 41.8896 179.782 42.3994 179.172 43.4189C178.569 44.4385 178.261 45.8242 178.249 47.5762H178.373C178.642 47.043 179.005 46.5889 179.462 46.2139C179.925 45.833 180.45 45.543 181.036 45.3437C181.627 45.1387 182.251 45.0361 182.908 45.0361C183.974 45.0361 184.923 45.2881 185.755 45.792C186.587 46.29 187.244 46.9756 187.724 47.8486C188.205 48.7217 188.445 49.7207 188.445 50.8457C188.445 52.0645 188.161 53.1484 187.592 54.0977C187.03 55.0469 186.242 55.791 185.228 56.3301C184.22 56.8633 183.048 57.127 181.712 57.1211ZM181.695 54.1328C182.281 54.1328 182.805 53.9922 183.268 53.7109C183.731 53.4297 184.094 53.0488 184.358 52.5684C184.622 52.0879 184.753 51.5488 184.753 50.9512C184.753 50.3535 184.622 49.8174 184.358 49.3428C184.1 48.8682 183.743 48.4902 183.286 48.209C182.829 47.9277 182.307 47.7871 181.721 47.7871C181.282 47.7871 180.874 47.8691 180.499 48.0332C180.13 48.1973 179.805 48.4258 179.524 48.7187C179.248 49.0117 179.032 49.3516 178.873 49.7383C178.715 50.1191 178.636 50.5264 178.636 50.96C178.636 51.54 178.768 52.0703 179.032 52.5508C179.301 53.0312 179.664 53.415 180.122 53.7021C180.584 53.9893 181.109 54.1328 181.695 54.1328ZM198.051 57.1211C197.125 57.1152 196.232 56.96 195.371 56.6553C194.515 56.3506 193.748 55.8555 193.068 55.1699C192.388 54.4844 191.849 53.5762 191.451 52.4453C191.058 51.3145 190.862 49.9258 190.862 48.2793C190.868 46.7676 191.04 45.417 191.38 44.2275C191.726 43.0322 192.218 42.0186 192.857 41.1865C193.501 40.3545 194.272 39.7217 195.168 39.2881C196.065 38.8486 197.07 38.6289 198.183 38.6289C199.384 38.6289 200.445 38.8633 201.365 39.332C202.285 39.7949 203.023 40.4248 203.58 41.2217C204.142 42.0186 204.482 42.9121 204.599 43.9023H200.846C200.7 43.2754 200.392 42.7832 199.923 42.4258C199.455 42.0684 198.874 41.8896 198.183 41.8896C197.011 41.8896 196.121 42.3994 195.511 43.4189C194.908 44.4385 194.6 45.8242 194.588 47.5762H194.711C194.981 47.043 195.344 46.5889 195.801 46.2139C196.264 45.833 196.789 45.543 197.374 45.3437C197.966 45.1387 198.59 45.0361 199.247 45.0361C200.313 45.0361 201.262 45.2881 202.094 45.792C202.926 46.29 203.582 46.9756 204.063 47.8486C204.543 48.7217 204.784 49.7207 204.784 50.8457C204.784 52.0645 204.499 53.1484 203.931 54.0977C203.369 55.0469 202.581 55.791 201.567 56.3301C200.559 56.8633 199.387 57.127 198.051 57.1211ZM198.034 54.1328C198.62 54.1328 199.144 53.9922 199.607 53.7109C200.07 53.4297 200.433 53.0488 200.697 52.5684C200.96 52.0879 201.092 51.5488 201.092 50.9512C201.092 50.3535 200.96 49.8174 200.697 49.3428C200.439 48.8682 200.081 48.4902 199.624 48.209C199.167 47.9277 198.646 47.7871 198.06 47.7871C197.621 47.7871 197.213 47.8691 196.838 48.0332C196.469 48.1973 196.144 48.4258 195.863 48.7187C195.587 49.0117 195.371 49.3516 195.212 49.7383C195.054 50.1191 194.975 50.5264 194.975 50.96C194.975 51.54 195.107 52.0703 195.371 52.5508C195.64 53.0312 196.003 53.415 196.46 53.7021C196.923 53.9893 197.448 54.1328 198.034 54.1328ZM207.587 56.875V38.875H211.331V45.6426H211.446C211.61 45.2793 211.847 44.9102 212.158 44.5352C212.474 44.1543 212.884 43.8379 213.388 43.5859C213.898 43.3281 214.531 43.1992 215.287 43.1992C216.271 43.1992 217.179 43.457 218.011 43.9727C218.843 44.4824 219.508 45.2529 220.006 46.2842C220.504 47.3096 220.753 48.5957 220.753 50.1426C220.753 51.6484 220.51 52.9199 220.024 53.957C219.543 54.9883 218.887 55.7705 218.055 56.3037C217.229 56.8311 216.303 57.0947 215.278 57.0947C214.551 57.0947 213.933 56.9746 213.423 56.7344C212.919 56.4941 212.506 56.1924 212.184 55.8291C211.862 55.46 211.616 55.0879 211.446 54.7129H211.279V56.875H207.587ZM211.252 50.125C211.252 50.9277 211.364 51.6279 211.586 52.2256C211.809 52.8232 212.131 53.2891 212.553 53.623C212.975 53.9512 213.488 54.1152 214.091 54.1152C214.701 54.1152 215.216 53.9482 215.638 53.6143C216.06 53.2744 216.379 52.8057 216.596 52.208C216.819 51.6045 216.93 50.9102 216.93 50.125C216.93 49.3457 216.822 48.6602 216.605 48.0684C216.388 47.4766 216.069 47.0137 215.647 46.6797C215.225 46.3457 214.706 46.1787 214.091 46.1787C213.482 46.1787 212.966 46.3398 212.544 46.6621C212.128 46.9844 211.809 47.4414 211.586 48.0332C211.364 48.625 211.252 49.3223 211.252 50.125ZM223.252 56.875V43.375H226.996V56.875H223.252ZM225.133 41.6348C224.576 41.6348 224.098 41.4502 223.7 41.0811C223.307 40.7061 223.111 40.2578 223.111 39.7363C223.111 39.2207 223.307 38.7783 223.7 38.4092C224.098 38.0342 224.576 37.8467 225.133 37.8467C225.689 37.8467 226.164 38.0342 226.556 38.4092C226.955 38.7783 227.154 39.2207 227.154 39.7363C227.154 40.2578 226.955 40.7061 226.556 41.0811C226.164 41.4502 225.689 41.6348 225.133 41.6348ZM237.176 43.375V46.1875H229.046V43.375H237.176ZM230.892 40.1406H234.636V52.7266C234.636 53.0723 234.688 53.3418 234.794 53.5352C234.899 53.7227 235.046 53.8545 235.233 53.9307C235.427 54.0068 235.649 54.0449 235.901 54.0449C236.077 54.0449 236.253 54.0303 236.429 54.001C236.604 53.9658 236.739 53.9395 236.833 53.9219L237.422 56.708C237.234 56.7666 236.971 56.834 236.631 56.9102C236.291 56.9922 235.878 57.042 235.392 57.0596C234.489 57.0947 233.698 56.9746 233.018 56.6992C232.345 56.4238 231.82 55.9961 231.445 55.416C231.07 54.8359 230.886 54.1035 230.892 53.2187V40.1406Z" fill="#111827"/>
<path d="M1511.96 52.4219L1516.26 48.125L1511.96 43.8281" stroke="#4A5565" stroke-width="1.71875" stroke-linecap="round" stroke-linejoin="round"/>
<path d="M1516.26 48.125H1505.95" stroke="#4A5565" stroke-width="1.71875" stroke-linecap="round" stroke-linejoin="round"/>
<path d="M1516.26 40.3909H1519.7C1520.15 40.3909 1520.59 40.572 1520.91 40.8943C1521.24 41.2166 1521.42 41.6538 1521.42 42.1096V54.1409C1521.42 54.5967 1521.24 55.0339 1520.91 55.3562C1520.59 55.6785 1520.15 55.8596 1519.7 55.8596H1516.26" stroke="#4A5565" stroke-width="1.71875" stroke-linecap="round" stroke-linejoin="round"/>
<path d="M1536.79 54.75V40.75H1541.68C1542.66 40.75 1543.46 40.9186 1544.1 41.2559C1544.73 41.5885 1545.2 42.0374 1545.51 42.6025C1545.82 43.1631 1545.98 43.7852 1545.98 44.4688C1545.98 45.0703 1545.87 45.5671 1545.65 45.959C1545.44 46.3509 1545.17 46.6608 1544.82 46.8887C1544.48 47.1165 1544.11 47.2852 1543.71 47.3945V47.5313C1544.13 47.5586 1544.56 47.709 1545 47.9824C1545.43 48.2559 1545.79 48.6478 1546.08 49.1582C1546.38 49.6686 1546.52 50.293 1546.52 51.0313C1546.52 51.7331 1546.36 52.3643 1546.04 52.9248C1545.72 53.4854 1545.22 53.9297 1544.53 54.2578C1543.84 54.5859 1542.95 54.75 1541.85 54.75H1536.79ZM1538.48 53.2461H1541.85C1542.95 53.2461 1543.74 53.0319 1544.2 52.6035C1544.67 52.1706 1544.91 51.6465 1544.91 51.0313C1544.91 50.5573 1544.79 50.1198 1544.55 49.7188C1544.3 49.3132 1543.96 48.9896 1543.51 48.748C1543.07 48.502 1542.54 48.3789 1541.93 48.3789H1538.48V53.2461ZM1538.48 46.9023H1541.63C1542.14 46.9023 1542.6 46.8021 1543.01 46.6016C1543.42 46.401 1543.75 46.1185 1543.99 45.7539C1544.24 45.3893 1544.36 44.9609 1544.36 44.4688C1544.36 43.8535 1544.15 43.3317 1543.72 42.9033C1543.29 42.4704 1542.61 42.2539 1541.68 42.2539H1538.48V46.9023ZM1553.35 54.9687C1552.41 54.9687 1551.57 54.7432 1550.86 54.292C1550.15 53.8408 1549.59 53.2096 1549.19 52.3984C1548.79 51.5872 1548.6 50.6393 1548.6 49.5547C1548.6 48.4609 1548.79 47.5062 1549.19 46.6904C1549.59 45.8747 1550.15 45.2412 1550.86 44.79C1551.57 44.3389 1552.41 44.1133 1553.35 44.1133C1554.3 44.1133 1555.13 44.3389 1555.84 44.79C1556.56 45.2412 1557.11 45.8747 1557.51 46.6904C1557.91 47.5062 1558.11 48.4609 1558.11 49.5547C1558.11 50.6393 1557.91 51.5872 1557.51 52.3984C1557.11 53.2096 1556.56 53.8408 1555.84 54.292C1555.13 54.7432 1554.3 54.9687 1553.35 54.9687ZM1553.35 53.5195C1554.07 53.5195 1554.67 53.335 1555.13 52.9658C1555.6 52.5967 1555.94 52.1113 1556.16 51.5098C1556.39 50.9082 1556.5 50.2565 1556.5 49.5547C1556.5 48.8529 1556.39 48.1989 1556.16 47.5928C1555.94 46.9867 1555.6 46.4967 1555.13 46.123C1554.67 45.7493 1554.07 45.5625 1553.35 45.5625C1552.63 45.5625 1552.04 45.7493 1551.58 46.123C1551.11 46.4967 1550.77 46.9867 1550.54 47.5928C1550.32 48.1989 1550.21 48.8529 1550.21 49.5547C1550.21 50.2565 1550.32 50.9082 1550.54 51.5098C1550.77 52.1113 1551.11 52.5967 1551.58 52.9658C1552.04 53.335 1552.63 53.5195 1553.35 53.5195ZM1562.19 52.3711L1567.25 44.25H1569.11V54.75H1567.49V46.6289L1562.46 54.75H1560.57V44.25H1562.19V52.3711ZM1566.18 40.75H1567.68C1567.68 41.4883 1567.43 42.0921 1566.92 42.5615C1566.41 43.0309 1565.72 43.2656 1564.84 43.2656C1563.98 43.2656 1563.29 43.0309 1562.78 42.5615C1562.28 42.0921 1562.02 41.4883 1562.02 40.75H1563.53C1563.53 41.1055 1563.63 41.4176 1563.82 41.6865C1564.02 41.9554 1564.36 42.0898 1564.84 42.0898C1565.32 42.0898 1565.66 41.9554 1565.87 41.6865C1566.08 41.4176 1566.18 41.1055 1566.18 40.75ZM1570.63 45.7539V44.25H1579.16V45.7539H1575.72V54.75H1574.1V45.7539H1570.63ZM1583.13 52.3711L1588.19 44.25H1590.05V54.75H1588.43V46.6289L1583.4 54.75H1581.52V44.25H1583.13V52.3711Z" fill="#4A5565"/>
<g filter="url(#filter1_d_132_128)">
<rect x="1637.93" y="17.875" width="232.072" height="60.5" rx="8.25" fill="#2E68F5" shape-rendering="crispEdges"/>
<path d="M1690.18 55.8594V54.1406C1690.18 53.2289 1689.82 52.3546 1689.17 51.7099C1688.53 51.0653 1687.65 50.7031 1686.74 50.7031H1681.58C1680.67 50.7031 1679.8 51.0653 1679.15 51.7099C1678.51 52.3546 1678.15 53.2289 1678.15 54.1406V55.8594" stroke="white" stroke-width="1.71875" stroke-linecap="round" stroke-linejoin="round"/>
<path d="M1684.16 47.2659C1686.06 47.2659 1687.6 45.7268 1687.6 43.8284C1687.6 41.9299 1686.06 40.3909 1684.16 40.3909C1682.26 40.3909 1680.72 41.9299 1680.72 43.8284C1680.72 45.7268 1682.26 47.2659 1684.16 47.2659Z" stroke="white" stroke-width="1.71875" stroke-linecap="round" stroke-linejoin="round"/>
<path d="M1692.76 44.6875V49.8437" stroke="white" stroke-width="1.71875" stroke-linecap="round" stroke-linejoin="round"/>
<path d="M1695.33 47.2656H1690.18" stroke="white" stroke-width="1.71875" stroke-linecap="round" stroke-linejoin="round"/>
<path d="M1709.47 54.75V40.75H1714.72C1715.79 40.75 1716.7 40.9505 1717.42 41.3516C1718.16 41.7526 1718.71 42.304 1719.09 43.0059C1719.46 43.7031 1719.65 44.4961 1719.65 45.3848C1719.65 46.2826 1719.46 47.0801 1719.09 47.7773C1718.71 48.4746 1718.15 49.0238 1717.41 49.4248C1716.67 49.8213 1715.76 50.0195 1714.68 50.0195H1711.2V47.9346H1714.34C1714.97 47.9346 1715.49 47.8252 1715.89 47.6064C1716.29 47.3877 1716.58 47.0869 1716.78 46.7041C1716.97 46.3213 1717.07 45.8815 1717.07 45.3848C1717.07 44.888 1716.97 44.4505 1716.78 44.0723C1716.58 43.694 1716.29 43.4001 1715.88 43.1904C1715.48 42.9762 1714.96 42.8691 1714.33 42.8691H1712V54.75H1709.47ZM1726.24 54.9551C1725.19 54.9551 1724.28 54.7363 1723.52 54.2988C1722.76 53.8568 1722.17 53.2324 1721.76 52.4258C1721.35 51.6146 1721.15 50.6598 1721.15 49.5615C1721.15 48.4814 1721.35 47.5335 1721.76 46.7178C1722.18 45.8975 1722.75 45.2594 1723.5 44.8037C1724.24 44.3434 1725.11 44.1133 1726.12 44.1133C1726.76 44.1133 1727.37 44.2181 1727.95 44.4277C1728.53 44.6328 1729.04 44.9518 1729.48 45.3848C1729.92 45.8177 1730.28 46.3691 1730.53 47.0391C1730.79 47.7044 1730.91 48.4974 1730.91 49.418V50.1768H1722.31V48.5088H1728.54C1728.54 48.0348 1728.43 47.6133 1728.23 47.2441C1728.03 46.8704 1727.75 46.5765 1727.39 46.3623C1727.04 46.1481 1726.62 46.041 1726.15 46.041C1725.64 46.041 1725.2 46.1641 1724.82 46.4102C1724.43 46.6517 1724.13 46.9707 1723.92 47.3672C1723.71 47.7591 1723.6 48.1898 1723.6 48.6592V50.1152C1723.6 50.7259 1723.71 51.25 1723.93 51.6875C1724.16 52.1204 1724.47 52.4531 1724.87 52.6855C1725.27 52.9134 1725.74 53.0273 1726.28 53.0273C1726.64 53.0273 1726.97 52.9772 1727.26 52.877C1727.55 52.7721 1727.8 52.6195 1728.02 52.4189C1728.23 52.2184 1728.39 51.9701 1728.5 51.6738L1730.81 51.9336C1730.67 52.5443 1730.39 53.0775 1729.98 53.5332C1729.57 53.9844 1729.05 54.3353 1728.42 54.5859C1727.79 54.832 1727.06 54.9551 1726.24 54.9551ZM1739.95 44.25V46.2803H1735.43V54.75H1733.01V44.25H1739.95ZM1744.32 51.4004L1748.53 44.25H1751.07V54.75H1748.68V47.5928L1744.49 54.75H1741.94V44.25H1744.32V51.4004ZM1758.19 54.9551C1757.14 54.9551 1756.24 54.7249 1755.49 54.2646C1754.74 53.8044 1754.17 53.1686 1753.76 52.3574C1753.36 51.5417 1753.16 50.6029 1753.16 49.541C1753.16 48.4746 1753.36 47.5335 1753.78 46.7178C1754.19 45.8975 1754.76 45.2594 1755.51 44.8037C1756.26 44.3434 1757.15 44.1133 1758.18 44.1133C1759.03 44.1133 1759.78 44.2705 1760.44 44.585C1761.1 44.8949 1761.63 45.3346 1762.02 45.9043C1762.41 46.4694 1762.63 47.1302 1762.69 47.8867H1760.32C1760.23 47.3809 1760 46.9593 1759.64 46.6221C1759.28 46.2803 1758.81 46.1094 1758.21 46.1094C1757.71 46.1094 1757.26 46.2461 1756.88 46.5195C1756.5 46.7884 1756.2 47.1758 1755.98 47.6816C1755.77 48.1875 1755.67 48.7936 1755.67 49.5C1755.67 50.2155 1755.77 50.8307 1755.98 51.3457C1756.19 51.8561 1756.49 52.2503 1756.86 52.5283C1757.25 52.8018 1757.7 52.9385 1758.21 52.9385C1758.58 52.9385 1758.9 52.8701 1759.19 52.7334C1759.48 52.5921 1759.72 52.3893 1759.92 52.125C1760.12 51.8607 1760.25 51.5394 1760.32 51.1611H1762.69C1762.63 51.904 1762.41 52.5625 1762.03 53.1367C1761.65 53.7064 1761.14 54.153 1760.49 54.4766C1759.84 54.7956 1759.07 54.9551 1758.19 54.9551ZM1763.96 46.2803V44.25H1773.15V46.2803H1769.75V54.75H1767.36V46.2803H1763.96ZM1775.12 58.6875V44.25H1777.55V45.9863H1777.69C1777.82 45.7311 1778 45.46 1778.23 45.1729C1778.47 44.8812 1778.78 44.6328 1779.18 44.4277C1779.57 44.2181 1780.08 44.1133 1780.69 44.1133C1781.51 44.1133 1782.24 44.3206 1782.89 44.7354C1783.55 45.1455 1784.07 45.7539 1784.45 46.5605C1784.84 47.3626 1785.03 48.347 1785.03 49.5137C1785.03 50.6667 1784.84 51.6465 1784.46 52.4531C1784.08 53.2598 1783.57 53.875 1782.92 54.2988C1782.26 54.7227 1781.53 54.9346 1780.7 54.9346C1780.1 54.9346 1779.6 54.8343 1779.2 54.6338C1778.81 54.4333 1778.49 54.1917 1778.25 53.9092C1778.01 53.6221 1777.83 53.3509 1777.69 53.0957H1777.59V58.6875H1775.12ZM1777.54 49.5C1777.54 50.179 1777.64 50.7738 1777.83 51.2842C1778.03 51.7946 1778.31 52.1934 1778.67 52.4805C1779.04 52.763 1779.49 52.9043 1780.01 52.9043C1780.56 52.9043 1781.02 52.7585 1781.39 52.4668C1781.75 52.1706 1782.03 51.7673 1782.22 51.2568C1782.41 50.7419 1782.51 50.1563 1782.51 49.5C1782.51 48.8483 1782.41 48.2695 1782.23 47.7637C1782.04 47.2578 1781.76 46.8613 1781.39 46.5742C1781.02 46.2871 1780.56 46.1436 1780.01 46.1436C1779.48 46.1436 1779.03 46.2826 1778.66 46.5605C1778.3 46.8385 1778.02 47.2282 1777.82 47.7295C1777.64 48.2308 1777.54 48.821 1777.54 49.5ZM1790.17 54.9619C1789.5 54.9619 1788.9 54.8434 1788.37 54.6064C1787.84 54.3649 1787.42 54.0094 1787.11 53.54C1786.81 53.0706 1786.66 52.4919 1786.66 51.8037C1786.66 51.2113 1786.77 50.7214 1786.98 50.334C1787.2 49.9466 1787.5 49.6367 1787.88 49.4043C1788.26 49.1719 1788.68 48.9964 1789.16 48.8779C1789.64 48.7549 1790.13 48.666 1790.64 48.6113C1791.26 48.5475 1791.76 48.4906 1792.14 48.4404C1792.52 48.3857 1792.8 48.3037 1792.97 48.1943C1793.15 48.0804 1793.24 47.9049 1793.24 47.668V47.627C1793.24 47.112 1793.09 46.7132 1792.78 46.4307C1792.48 46.1481 1792.04 46.0068 1791.46 46.0068C1790.86 46.0068 1790.37 46.139 1790.02 46.4033C1789.67 46.6676 1789.43 46.9798 1789.31 47.3398L1787 47.0117C1787.18 46.3737 1787.48 45.8405 1787.9 45.4121C1788.32 44.9792 1788.83 44.6556 1789.44 44.4414C1790.04 44.2227 1790.71 44.1133 1791.45 44.1133C1791.95 44.1133 1792.46 44.1725 1792.96 44.291C1793.46 44.4095 1793.92 44.6055 1794.33 44.8789C1794.75 45.1478 1795.08 45.5146 1795.33 45.9795C1795.59 46.4443 1795.71 47.0254 1795.71 47.7227V54.75H1793.33V53.3076H1793.25C1793.1 53.5993 1792.89 53.8727 1792.62 54.1279C1792.35 54.3786 1792.01 54.5814 1791.6 54.7363C1791.19 54.8867 1790.72 54.9619 1790.17 54.9619ZM1790.81 53.1436C1791.31 53.1436 1791.74 53.0456 1792.1 52.8496C1792.47 52.6491 1792.75 52.3848 1792.94 52.0566C1793.15 51.7285 1793.25 51.3708 1793.25 50.9834V49.7461C1793.17 49.8099 1793.04 49.8691 1792.85 49.9238C1792.67 49.9785 1792.46 50.0264 1792.23 50.0674C1792.01 50.1084 1791.78 50.1449 1791.56 50.1768C1791.33 50.2087 1791.14 50.236 1790.98 50.2588C1790.61 50.3089 1790.28 50.391 1789.98 50.5049C1789.69 50.6188 1789.46 50.7783 1789.29 50.9834C1789.13 51.1839 1789.04 51.4437 1789.04 51.7627C1789.04 52.2184 1789.21 52.5625 1789.54 52.7949C1789.87 53.0273 1790.3 53.1436 1790.81 53.1436ZM1807.07 44.25V52.9043H1808.67V58.127H1806.25V54.75H1798.2V44.25H1800.59V52.7197H1804.7V44.25H1807.07ZM1813.09 51.4004L1817.29 44.25H1819.84V54.75H1817.44V47.5928L1813.25 54.75H1810.7V44.25H1813.09V51.4004ZM1828.58 54.75V46.2598H1826.34C1825.77 46.2598 1825.33 46.3919 1825.03 46.6563C1824.72 46.9206 1824.57 47.2487 1824.58 47.6406C1824.57 48.0326 1824.72 48.3561 1825.01 48.6113C1825.3 48.8665 1825.72 48.9941 1826.26 48.9941H1829.36V50.7988H1826.26C1825.42 50.7988 1824.7 50.6667 1824.09 50.4023C1823.48 50.138 1823.01 49.7643 1822.68 49.2813C1822.35 48.7982 1822.19 48.2331 1822.19 47.5859C1822.19 46.9115 1822.35 46.3258 1822.68 45.8291C1823.02 45.3278 1823.5 44.9404 1824.12 44.667C1824.74 44.389 1825.49 44.25 1826.34 44.25H1830.9V54.75H1828.58ZM1821.8 54.75L1824.74 49.3633H1827.18L1824.24 54.75H1821.8Z" fill="white"/>
</g>
</g>
<defs>
<filter id="filter0_d_132_128" x="-19.25" y="-13.75" width="2018.5" height="134.75" filterUnits="userSpaceOnUse" color-interpolation-filters="sRGB">
<feFlood flood-opacity="0" result="BackgroundImageFix"/>
<feColorMatrix in="SourceAlpha" type="matrix" values="0 0 0 0 0 0 0 0 0 0 0 0 0 0 0 0 0 0 127 0" result="hardAlpha"/>
<feOffset dy="5.5"/>
<feGaussianBlur stdDeviation="9.625"/>
<feComposite in2="hardAlpha" operator="out"/>
<feColorMatrix type="matrix" values="0 0 0 0 0.180392 0 0 0 0 0.407843 0 0 0 0 0.960784 0 0 0 0.12 0"/>
<feBlend mode="normal" in2="BackgroundImageFix" result="effect1_dropShadow_132_128"/>
<feBlend mode="normal" in="SourceGraphic" in2="effect1_dropShadow_132_128" result="shape"/>
</filter>
<filter id="filter1_d_132_128" x="1618.68" y="4.125" width="270.573" height="99" filterUnits="userSpaceOnUse" color-interpolation-filters="sRGB">
<feFlood flood-opacity="0" result="BackgroundImageFix"/>
<feColorMatrix in="SourceAlpha" type="matrix" values="0 0 0 0 0 0 0 0 0 0 0 0 0 0 0 0 0 0 127 0" result="hardAlpha"/>
<feOffset dy="5.5"/>
<feGaussianBlur stdDeviation="9.625"/>
<feComposite in2="hardAlpha" operator="out"/>
<feColorMatrix type="matrix" values="0 0 0 0 0.180392 0 0 0 0 0.407843 0 0 0 0 0.960784 0 0 0 0.3 0"/>
<feBlend mode="normal" in2="BackgroundImageFix" result="effect1_dropShadow_132_128"/>
<feBlend mode="normal" in="SourceGraphic" in2="effect1_dropShadow_132_128" result="shape"/>
</filter>
<linearGradient id="paint0_linear_132_128" x1="110" y1="23.375" x2="159.5" y2="72.875" gradientUnits="userSpaceOnUse">
<stop stop-color="#2E68F5"/>
<stop offset="1" stop-color="#5B8AF7"/>
</linearGradient>
</defs>
</svg>
