<svg width="21" height="21" viewBox="0 0 21 21" fill="none" xmlns="http://www.w3.org/2000/svg">
<path d="M13.7499 18.0469V16.3281C13.7499 15.4164 13.3877 14.5421 12.7431 13.8974C12.0984 13.2528 11.2241 12.8906 10.3124 12.8906H5.15613C4.24445 12.8906 3.3701 13.2528 2.72545 13.8974C2.08079 14.5421 1.71863 15.4164 1.71863 16.3281V18.0469" stroke="white" stroke-width="1.71875" stroke-linecap="round" stroke-linejoin="round"/>
<path d="M7.73438 9.45337C9.63285 9.45337 11.1719 7.91435 11.1719 6.01587C11.1719 4.11739 9.63285 2.57837 7.73438 2.57837C5.8359 2.57837 4.29688 4.11739 4.29688 6.01587C4.29688 7.91435 5.8359 9.45337 7.73438 9.45337Z" stroke="white" stroke-width="1.71875" stroke-linecap="round" stroke-linejoin="round"/>
<path d="M16.3282 6.875V12.0312" stroke="white" stroke-width="1.71875" stroke-linecap="round" stroke-linejoin="round"/>
<path d="M18.9062 9.45312H13.75" stroke="white" stroke-width="1.71875" stroke-linecap="round" stroke-linejoin="round"/>
</svg>
