<svg width="428" height="77" viewBox="0 0 428 77" fill="none" xmlns="http://www.w3.org/2000/svg">
<rect width="427.116" height="77" rx="11" fill="#2563EB"/>
<path d="M46.8088 47.0627V29.0627H53.4006C54.6779 29.0627 55.7355 29.2737 56.5734 29.6956C57.4113 30.1116 58.0383 30.677 58.4543 31.3918C58.8703 32.1008 59.0783 32.9006 59.0783 33.7913C59.0783 34.5413 58.9406 35.1741 58.6652 35.6897C58.3898 36.1995 58.0207 36.6096 57.5578 36.9202C57.1008 37.2249 56.5968 37.4475 56.0461 37.5881V37.7639C56.6437 37.7932 57.2267 37.9866 57.7951 38.344C58.3693 38.6956 58.8439 39.1965 59.2189 39.8469C59.5939 40.4973 59.7814 41.2883 59.7814 42.22C59.7814 43.1399 59.5646 43.9661 59.131 44.6985C58.7033 45.425 58.0412 46.0022 57.1447 46.4299C56.2482 46.8518 55.1027 47.0627 53.7082 47.0627H46.8088ZM49.5246 44.7336H53.4445C54.7453 44.7336 55.6769 44.4817 56.2394 43.9778C56.8019 43.4739 57.0832 42.844 57.0832 42.0881C57.0832 41.5198 56.9396 40.9983 56.6525 40.5237C56.3654 40.0491 55.9552 39.6711 55.422 39.3899C54.8947 39.1086 54.2677 38.968 53.5412 38.968H49.5246V44.7336ZM49.5246 36.8499H53.1633C53.7726 36.8499 54.3205 36.7327 54.8068 36.4983C55.299 36.2639 55.6886 35.9358 55.9758 35.5139C56.2687 35.0862 56.4152 34.5823 56.4152 34.0022C56.4152 33.2581 56.1545 32.634 55.633 32.1301C55.1115 31.6262 54.3117 31.3743 53.2336 31.3743H49.5246V36.8499ZM68.4782 47.3352C67.2126 47.3352 66.1081 47.0452 65.1647 46.4651C64.2214 45.885 63.4889 45.0735 62.9675 44.0305C62.446 42.9875 62.1852 41.7688 62.1852 40.3743C62.1852 38.9739 62.446 37.7493 62.9675 36.7004C63.4889 35.6516 64.2214 34.8372 65.1647 34.2571C66.1081 33.677 67.2126 33.387 68.4782 33.387C69.7438 33.387 70.8483 33.677 71.7917 34.2571C72.735 34.8372 73.4675 35.6516 73.9889 36.7004C74.5104 37.7493 74.7712 38.9739 74.7712 40.3743C74.7712 41.7688 74.5104 42.9875 73.9889 44.0305C73.4675 45.0735 72.735 45.885 71.7917 46.4651C70.8483 47.0452 69.7438 47.3352 68.4782 47.3352ZM68.487 45.1292C69.3073 45.1292 69.987 44.9124 70.526 44.4788C71.0651 44.0452 71.4635 43.468 71.7214 42.7473C71.985 42.0266 72.1169 41.2327 72.1169 40.3655C72.1169 39.5042 71.985 38.7131 71.7214 37.9924C71.4635 37.2659 71.0651 36.6829 70.526 36.2434C69.987 35.804 69.3073 35.5842 68.487 35.5842C67.6608 35.5842 66.9753 35.804 66.4303 36.2434C65.8913 36.6829 65.4899 37.2659 65.2262 37.9924C64.9684 38.7131 64.8395 39.5042 64.8395 40.3655C64.8395 41.2327 64.9684 42.0266 65.2262 42.7473C65.4899 43.468 65.8913 44.0452 66.4303 44.4788C66.9753 44.9124 67.6608 45.1292 68.487 45.1292ZM80.2797 43.3801L86.2299 33.5627H89.06V47.0627H86.4848V37.2366L80.561 47.0627H77.7045V33.5627H80.2797V43.3801ZM85.1049 28.9924H87.267C87.267 29.9827 86.9155 30.7883 86.2123 31.4094C85.5151 32.0247 84.5717 32.3323 83.3822 32.3323C82.1987 32.3323 81.2582 32.0247 80.561 31.4094C79.8637 30.7883 79.5151 29.9827 79.5151 28.9924H81.6684C81.6684 29.4319 81.7973 29.8215 82.0551 30.1614C82.3129 30.4954 82.7553 30.6624 83.3822 30.6624C83.9975 30.6624 84.4369 30.4954 84.7006 30.1614C84.9701 29.8274 85.1049 29.4377 85.1049 28.9924ZM90.9189 35.8303V33.5627H102.309V35.8303H97.9062V47.0627H95.3398V35.8303H90.9189ZM107.664 43.3801L113.614 33.5627H116.445V47.0627H113.869V37.2366L107.945 47.0627H105.089V33.5627H107.664V43.3801ZM126.528 47.0627V33.5627H132.126C133.65 33.5627 134.857 33.8879 135.747 34.5383C136.638 35.1829 137.083 36.0588 137.083 37.1663C137.083 37.9573 136.831 38.5842 136.328 39.0471C135.824 39.51 135.156 39.8206 134.324 39.9788C134.927 40.0491 135.481 40.2307 135.985 40.5237C136.489 40.8108 136.893 41.1975 137.198 41.6838C137.508 42.1702 137.663 42.7502 137.663 43.4241C137.663 44.1389 137.479 44.7717 137.11 45.3225C136.741 45.8674 136.205 46.2952 135.501 46.6057C134.804 46.9104 133.963 47.0627 132.979 47.0627H126.528ZM128.997 44.8655H132.979C133.629 44.8655 134.139 44.7102 134.508 44.3997C134.877 44.0891 135.062 43.6672 135.062 43.134C135.062 42.5071 134.877 42.0149 134.508 41.6575C134.139 41.2942 133.629 41.1125 132.979 41.1125H128.997V44.8655ZM128.997 39.1877H132.153C132.645 39.1877 133.067 39.1174 133.418 38.9768C133.776 38.8362 134.048 38.637 134.236 38.3792C134.429 38.1155 134.526 37.8049 134.526 37.4475C134.526 36.926 134.312 36.5188 133.884 36.2258C133.456 35.9329 132.871 35.7864 132.126 35.7864H128.997V39.1877ZM147.096 47.0627V33.5627H158.109V47.0627H155.534V35.8303H149.654V47.0627H147.096ZM165.551 47.3616C164.696 47.3616 163.922 47.2034 163.231 46.887C162.539 46.5647 161.992 46.0989 161.587 45.4895C161.189 44.8801 160.99 44.1331 160.99 43.2483C160.99 42.4866 161.136 41.8596 161.429 41.3674C161.722 40.8752 162.118 40.4856 162.616 40.1985C163.114 39.9114 163.67 39.6946 164.286 39.5481C164.901 39.4016 165.528 39.2903 166.166 39.2141C166.975 39.1204 167.631 39.0442 168.135 38.9856C168.639 38.9211 169.005 38.8186 169.234 38.678C169.462 38.5374 169.577 38.3088 169.577 37.9924V37.9309C169.577 37.1633 169.36 36.5686 168.926 36.1467C168.498 35.7249 167.86 35.5139 167.01 35.5139C166.125 35.5139 165.428 35.7102 164.918 36.1028C164.414 36.4895 164.066 36.9202 163.872 37.3948L161.403 36.8323C161.696 36.012 162.123 35.3499 162.686 34.8459C163.254 34.3362 163.908 33.967 164.646 33.7385C165.384 33.5042 166.161 33.387 166.975 33.387C167.514 33.387 168.085 33.4514 168.689 33.5803C169.298 33.7034 169.867 33.9319 170.394 34.2659C170.927 34.5999 171.364 35.0774 171.704 35.6985C172.043 36.3137 172.213 37.1135 172.213 38.0979V47.0627H169.647V45.217H169.541C169.372 45.5569 169.117 45.8909 168.777 46.219C168.437 46.5471 168 46.8196 167.467 47.0364C166.934 47.2532 166.295 47.3616 165.551 47.3616ZM166.122 45.2522C166.849 45.2522 167.47 45.1086 167.986 44.8215C168.507 44.5344 168.903 44.1594 169.172 43.6965C169.448 43.2278 169.585 42.7268 169.585 42.1936V40.4534C169.492 40.5471 169.31 40.635 169.04 40.717C168.777 40.7932 168.475 40.8606 168.135 40.9192C167.795 40.9719 167.464 41.0217 167.142 41.0686C166.82 41.1096 166.55 41.1448 166.333 41.1741C165.824 41.2385 165.358 41.3469 164.936 41.4993C164.52 41.6516 164.186 41.8713 163.934 42.1584C163.688 42.4397 163.565 42.8147 163.565 43.2834C163.565 43.9338 163.805 44.426 164.286 44.76C164.766 45.0881 165.378 45.2522 166.122 45.2522ZM184.863 39.179V41.4553H177.55V39.179H184.863ZM178.289 33.5627V47.0627H175.714V33.5627H178.289ZM186.7 33.5627V47.0627H184.133V33.5627H186.7ZM196.034 47.3352C194.704 47.3352 193.558 47.051 192.597 46.4827C191.642 45.9084 190.904 45.1028 190.382 44.0657C189.867 43.0227 189.609 41.801 189.609 40.4006C189.609 39.0178 189.867 37.7991 190.382 36.7444C190.904 35.6897 191.631 34.8665 192.562 34.2747C193.5 33.6829 194.595 33.387 195.849 33.387C196.611 33.387 197.349 33.5129 198.064 33.7649C198.779 34.0168 199.421 34.4124 199.989 34.9514C200.557 35.4905 201.006 36.1907 201.334 37.052C201.662 37.9075 201.826 38.9475 201.826 40.1721V41.1038H191.094V39.135H199.251C199.251 38.4436 199.11 37.8313 198.829 37.2981C198.548 36.759 198.152 36.3342 197.642 36.0237C197.138 35.7131 196.547 35.5579 195.867 35.5579C195.129 35.5579 194.484 35.7395 193.933 36.1028C193.388 36.4602 192.966 36.929 192.668 37.509C192.375 38.0833 192.228 38.7073 192.228 39.3811V40.9192C192.228 41.8215 192.386 42.5891 192.703 43.2219C193.025 43.8547 193.473 44.3381 194.048 44.6721C194.622 45.0002 195.293 45.1643 196.06 45.1643C196.558 45.1643 197.012 45.094 197.423 44.9534C197.833 44.8069 198.187 44.5901 198.486 44.303C198.785 44.0159 199.013 43.6614 199.172 43.2395L201.659 43.6877C201.46 44.4202 201.102 45.0618 200.587 45.6125C200.077 46.1575 199.435 46.5823 198.662 46.887C197.894 47.1858 197.018 47.3352 196.034 47.3352ZM203.678 47.0627L203.669 44.7864H204.153C204.528 44.7864 204.841 44.7073 205.093 44.5491C205.351 44.385 205.562 44.1096 205.726 43.7229C205.89 43.3362 206.016 42.803 206.104 42.1233C206.192 41.4377 206.256 40.5764 206.297 39.5393L206.535 33.5627H215.956V47.0627H213.381V35.8303H208.969L208.758 40.4182C208.705 41.5315 208.591 42.5042 208.415 43.3362C208.246 44.1682 207.997 44.8625 207.668 45.4192C207.34 45.97 206.918 46.3831 206.403 46.6584C205.887 46.928 205.26 47.0627 204.522 47.0627H203.678ZM221.439 38.2034H225.359C227.011 38.2034 228.282 38.6135 229.173 39.4338C230.064 40.2541 230.509 41.3118 230.509 42.6067C230.509 43.4504 230.31 44.2092 229.911 44.8831C229.513 45.5569 228.93 46.0901 228.162 46.4827C227.395 46.8694 226.46 47.0627 225.359 47.0627H219.461V33.5627H222.036V44.7952H225.359C226.114 44.7952 226.736 44.5989 227.222 44.2063C227.708 43.8079 227.951 43.301 227.951 42.6858C227.951 42.0354 227.708 41.5051 227.222 41.095C226.736 40.679 226.114 40.4709 225.359 40.4709H221.439V38.2034ZM241.667 52.1252C241.274 52.1252 240.917 52.093 240.594 52.0286C240.272 51.97 240.032 51.9055 239.874 51.8352L240.507 49.6819C240.987 49.8108 241.415 49.8665 241.79 49.8489C242.165 49.8313 242.496 49.6907 242.783 49.427C243.076 49.1633 243.334 48.7327 243.556 48.135L243.882 47.2385L238.942 33.5627H241.755L245.174 44.0393H245.314L248.733 33.5627H251.554L245.991 48.8645C245.733 49.5676 245.405 50.1624 245.007 50.6487C244.608 51.1409 244.133 51.51 243.583 51.7561C243.032 52.0022 242.393 52.1252 241.667 52.1252ZM254.024 47.0627V33.5627H265.037V47.0627H262.462V35.8303H256.582V47.0627H254.024ZM268.55 52.1252V33.5627H271.117V35.7512H271.336C271.489 35.47 271.708 35.1448 271.996 34.7756C272.283 34.4065 272.681 34.0842 273.191 33.8088C273.701 33.5276 274.374 33.387 275.212 33.387C276.302 33.387 277.275 33.6624 278.13 34.2131C278.986 34.7639 279.657 35.5579 280.143 36.595C280.635 37.6321 280.881 38.8801 280.881 40.3391C280.881 41.7981 280.638 43.0491 280.152 44.092C279.665 45.1292 278.997 45.929 278.148 46.4915C277.298 47.0481 276.329 47.3264 275.239 47.3264C274.418 47.3264 273.747 47.1887 273.226 46.9133C272.71 46.6379 272.306 46.3157 272.013 45.9465C271.72 45.5774 271.495 45.2493 271.336 44.9622H271.178V52.1252H268.55ZM271.125 40.3127C271.125 41.262 271.263 42.094 271.538 42.8088C271.814 43.5237 272.212 44.0833 272.734 44.4875C273.255 44.886 273.894 45.0852 274.65 45.0852C275.435 45.0852 276.091 44.8772 276.619 44.4612C277.146 44.0393 277.544 43.468 277.814 42.7473C278.089 42.0266 278.227 41.2151 278.227 40.3127C278.227 39.4221 278.092 38.6223 277.823 37.9133C277.559 37.2043 277.161 36.6448 276.627 36.2346C276.1 35.8245 275.441 35.6194 274.65 35.6194C273.888 35.6194 273.244 35.8157 272.716 36.2083C272.195 36.6008 271.799 37.1487 271.53 37.8518C271.26 38.5549 271.125 39.3752 271.125 40.3127ZM287.754 47.3616C286.899 47.3616 286.125 47.2034 285.434 46.887C284.743 46.5647 284.195 46.0989 283.79 45.4895C283.392 44.8801 283.193 44.1331 283.193 43.2483C283.193 42.4866 283.339 41.8596 283.632 41.3674C283.925 40.8752 284.321 40.4856 284.819 40.1985C285.317 39.9114 285.873 39.6946 286.489 39.5481C287.104 39.4016 287.731 39.2903 288.37 39.2141C289.178 39.1204 289.834 39.0442 290.338 38.9856C290.842 38.9211 291.208 38.8186 291.437 38.678C291.665 38.5374 291.78 38.3088 291.78 37.9924V37.9309C291.78 37.1633 291.563 36.5686 291.129 36.1467C290.702 35.7249 290.063 35.5139 289.213 35.5139C288.329 35.5139 287.631 35.7102 287.122 36.1028C286.618 36.4895 286.269 36.9202 286.076 37.3948L283.606 36.8323C283.899 36.012 284.327 35.3499 284.889 34.8459C285.457 34.3362 286.111 33.967 286.849 33.7385C287.587 33.5042 288.364 33.387 289.178 33.387C289.717 33.387 290.288 33.4514 290.892 33.5803C291.501 33.7034 292.07 33.9319 292.597 34.2659C293.13 34.5999 293.567 35.0774 293.907 35.6985C294.247 36.3137 294.416 37.1135 294.416 38.0979V47.0627H291.85V45.217H291.745C291.575 45.5569 291.32 45.8909 290.98 46.219C290.64 46.5471 290.204 46.8196 289.67 47.0364C289.137 47.2532 288.498 47.3616 287.754 47.3616ZM288.326 45.2522C289.052 45.2522 289.673 45.1086 290.189 44.8215C290.71 44.5344 291.106 44.1594 291.375 43.6965C291.651 43.2278 291.788 42.7268 291.788 42.1936V40.4534C291.695 40.5471 291.513 40.635 291.244 40.717C290.98 40.7932 290.678 40.8606 290.338 40.9192C289.998 40.9719 289.667 41.0217 289.345 41.0686C289.023 41.1096 288.753 41.1448 288.537 41.1741C288.027 41.2385 287.561 41.3469 287.139 41.4993C286.723 41.6516 286.389 41.8713 286.137 42.1584C285.891 42.4397 285.768 42.8147 285.768 43.2834C285.768 43.9338 286.008 44.426 286.489 44.76C286.969 45.0881 287.581 45.2522 288.326 45.2522ZM297.917 47.0627V33.5627H303.515C305.039 33.5627 306.246 33.8879 307.136 34.5383C308.027 35.1829 308.472 36.0588 308.472 37.1663C308.472 37.9573 308.22 38.5842 307.716 39.0471C307.213 39.51 306.545 39.8206 305.713 39.9788C306.316 40.0491 306.87 40.2307 307.374 40.5237C307.878 40.8108 308.282 41.1975 308.587 41.6838C308.897 42.1702 309.052 42.7502 309.052 43.4241C309.052 44.1389 308.868 44.7717 308.499 45.3225C308.13 45.8674 307.593 46.2952 306.89 46.6057C306.193 46.9104 305.352 47.0627 304.368 47.0627H297.917ZM300.386 44.8655H304.368C305.018 44.8655 305.528 44.7102 305.897 44.3997C306.266 44.0891 306.451 43.6672 306.451 43.134C306.451 42.5071 306.266 42.0149 305.897 41.6575C305.528 41.2942 305.018 41.1125 304.368 41.1125H300.386V44.8655ZM300.386 39.1877H303.542C304.034 39.1877 304.456 39.1174 304.807 38.9768C305.165 38.8362 305.437 38.637 305.625 38.3792C305.818 38.1155 305.915 37.8049 305.915 37.4475C305.915 36.926 305.701 36.5188 305.273 36.2258C304.845 35.9329 304.259 35.7864 303.515 35.7864H300.386V39.1877ZM310.872 47.0627L310.863 44.7864H311.346C311.721 44.7864 312.035 44.7073 312.287 44.5491C312.545 44.385 312.756 44.1096 312.92 43.7229C313.084 43.3362 313.21 42.803 313.298 42.1233C313.385 41.4377 313.45 40.5764 313.491 39.5393L313.728 33.5627H323.15V47.0627H320.575V35.8303H316.163L315.952 40.4182C315.899 41.5315 315.785 42.5042 315.609 43.3362C315.439 44.1682 315.19 44.8625 314.862 45.4192C314.534 45.97 314.112 46.3831 313.596 46.6584C313.081 46.928 312.454 47.0627 311.716 47.0627H310.872ZM332.473 47.3352C331.143 47.3352 329.997 47.051 329.037 46.4827C328.081 45.9084 327.343 45.1028 326.822 44.0657C326.306 43.0227 326.048 41.801 326.048 40.4006C326.048 39.0178 326.306 37.7991 326.822 36.7444C327.343 35.6897 328.07 34.8665 329.001 34.2747C329.939 33.6829 331.035 33.387 332.289 33.387C333.05 33.387 333.789 33.5129 334.503 33.7649C335.218 34.0168 335.86 34.4124 336.428 34.9514C336.997 35.4905 337.445 36.1907 337.773 37.052C338.101 37.9075 338.265 38.9475 338.265 40.1721V41.1038H327.534V39.135H335.69C335.69 38.4436 335.549 37.8313 335.268 37.2981C334.987 36.759 334.591 36.3342 334.081 36.0237C333.578 35.7131 332.986 35.5579 332.306 35.5579C331.568 35.5579 330.923 35.7395 330.372 36.1028C329.828 36.4602 329.406 36.929 329.107 37.509C328.814 38.0833 328.667 38.7073 328.667 39.3811V40.9192C328.667 41.8215 328.826 42.5891 329.142 43.2219C329.464 43.8547 329.913 44.3381 330.487 44.6721C331.061 45.0002 331.732 45.1643 332.499 45.1643C332.997 45.1643 333.452 45.094 333.862 44.9534C334.272 44.8069 334.626 44.5901 334.925 44.303C335.224 44.0159 335.453 43.6614 335.611 43.2395L338.098 43.6877C337.899 44.4202 337.541 45.0618 337.026 45.6125C336.516 46.1575 335.874 46.5823 335.101 46.887C334.333 47.1858 333.457 47.3352 332.473 47.3352ZM350.33 39.179V41.4553H343.018V39.179H350.33ZM343.756 33.5627V47.0627H341.181V33.5627H343.756ZM352.167 33.5627V47.0627H349.601V33.5627H352.167ZM358.258 43.3801L364.208 33.5627H367.038V47.0627H364.463V37.2366L358.539 47.0627H355.683V33.5627H358.258V43.3801ZM378.622 47.0627V35.804H375.388C374.62 35.804 374.023 35.9827 373.595 36.3401C373.167 36.6975 372.953 37.1663 372.953 37.7463C372.953 38.3206 373.15 38.7834 373.542 39.135C373.941 39.4807 374.497 39.6536 375.212 39.6536H379.387V41.7805H375.212C374.216 41.7805 373.355 41.6165 372.628 41.2883C371.907 40.9543 371.351 40.4827 370.958 39.8733C370.571 39.2639 370.378 38.5432 370.378 37.7112C370.378 36.8616 370.577 36.1291 370.976 35.5139C371.38 34.8928 371.957 34.4124 372.707 34.0725C373.463 33.7327 374.357 33.5627 375.388 33.5627H381.092V47.0627H378.622ZM369.763 47.0627L373.569 40.2424H376.258L372.452 47.0627H369.763Z" fill="white"/>
</svg>
