<svg width="366" height="273" viewBox="0 0 366 273" fill="none" xmlns="http://www.w3.org/2000/svg">
<g filter="url(#filter0_d_132_105)">
<rect x="19.25" y="13.75" width="327.25" height="233.75" rx="22" fill="white" fill-opacity="0.72" shape-rendering="crispEdges"/>
<rect x="19.9375" y="14.4375" width="325.875" height="232.375" rx="21.3125" stroke="white" stroke-opacity="0.6" stroke-width="1.375" shape-rendering="crispEdges"/>
<path d="M170.197 88.9453C167.472 88.9355 165.118 88.3056 163.136 87.0556C161.154 85.8056 159.625 84.0039 158.551 81.6504C157.477 79.2968 156.945 76.4746 156.954 73.1836C156.964 69.8828 157.501 67.08 158.566 64.7754C159.64 62.4707 161.163 60.7177 163.136 59.5166C165.118 58.3154 167.472 57.7148 170.197 57.7148C172.921 57.7148 175.275 58.3203 177.257 59.5312C179.24 60.7324 180.768 62.4853 181.842 64.79C182.916 67.0947 183.449 69.8925 183.439 73.1836C183.439 76.4941 182.902 79.3261 181.827 81.6797C180.753 84.0332 179.225 85.8349 177.242 87.0849C175.27 88.3252 172.921 88.9453 170.197 88.9453ZM170.197 82.3242C171.603 82.3242 172.755 81.5918 173.654 80.1269C174.562 78.6523 175.011 76.3379 175.001 73.1836C175.001 71.123 174.796 69.4384 174.386 68.1299C173.976 66.8213 173.409 65.8545 172.687 65.2295C171.964 64.5947 171.134 64.2773 170.197 64.2773C168.79 64.2773 167.643 64.9902 166.754 66.416C165.865 67.8418 165.411 70.0976 165.392 73.1836C165.382 75.2832 165.582 77.0117 165.992 78.3691C166.403 79.7168 166.969 80.7129 167.692 81.3574C168.424 82.0019 169.259 82.3242 170.197 82.3242ZM198.981 88.5351C196.617 88.5351 194.518 88.1299 192.682 87.3193C190.856 86.499 189.42 85.3711 188.375 83.9355C187.33 82.5 186.803 80.8496 186.793 78.9843H194.996C195.006 79.5605 195.182 80.0781 195.524 80.5371C195.875 80.9863 196.354 81.3379 196.959 81.5918C197.565 81.8457 198.258 81.9726 199.039 81.9726C199.791 81.9726 200.455 81.8408 201.032 81.5771C201.608 81.3037 202.057 80.9277 202.379 80.4492C202.701 79.9707 202.858 79.4238 202.848 78.8086C202.858 78.2031 202.672 77.666 202.291 77.1972C201.92 76.7285 201.398 76.3623 200.724 76.0986C200.05 75.8349 199.274 75.7031 198.395 75.7031H195.348V70.0781H198.395C199.205 70.0781 199.918 69.9463 200.533 69.6826C201.158 69.4189 201.642 69.0527 201.984 68.584C202.335 68.1152 202.506 67.5781 202.496 66.9726C202.506 66.3867 202.365 65.8691 202.072 65.4199C201.779 64.9707 201.368 64.6191 200.841 64.3652C200.324 64.1113 199.723 63.9843 199.039 63.9843C198.297 63.9843 197.633 64.1162 197.047 64.3799C196.471 64.6435 196.017 65.0097 195.685 65.4785C195.353 65.9472 195.182 66.4843 195.172 67.0898H187.379C187.389 65.2539 187.892 63.6328 188.888 62.2265C189.894 60.8203 191.271 59.7168 193.019 58.916C194.767 58.1152 196.774 57.7148 199.039 57.7148C201.256 57.7148 203.214 58.0908 204.913 58.8427C206.622 59.5947 207.955 60.6299 208.912 61.9482C209.879 63.2568 210.358 64.7558 210.348 66.4453C210.367 68.125 209.791 69.5019 208.619 70.5761C207.457 71.6504 205.983 72.2851 204.196 72.4804V72.7148C206.617 72.9785 208.439 73.7207 209.659 74.9414C210.88 76.1523 211.481 77.6758 211.461 79.5117C211.471 81.2695 210.944 82.8271 209.879 84.1845C208.824 85.542 207.355 86.6064 205.47 87.3779C203.595 88.1494 201.432 88.5351 198.981 88.5351Z" fill="url(#paint0_linear_132_105)"/>
<path d="M69.7068 122.125V124.914H62.4724V138.125H59.0896V122.125H69.7068ZM75.5388 138.359C74.3044 138.359 73.2419 138.109 72.3513 137.609C71.4659 137.104 70.7836 136.39 70.3044 135.469C69.8253 134.542 69.5857 133.445 69.5857 132.18C69.5857 130.945 69.8253 129.862 70.3044 128.93C70.7836 127.997 71.4581 127.271 72.3279 126.75C73.2029 126.229 74.2289 125.969 75.406 125.969C76.1977 125.969 76.9346 126.096 77.6169 126.351C78.3044 126.601 78.9034 126.979 79.4138 127.484C79.9294 127.989 80.3305 128.625 80.6169 129.39C80.9034 130.151 81.0466 131.042 81.0466 132.062V132.976H70.9138V130.914H77.9138C77.9138 130.435 77.8096 130.01 77.6013 129.64C77.393 129.271 77.1039 128.982 76.7341 128.773C76.3695 128.56 75.9451 128.453 75.4607 128.453C74.9555 128.453 74.5076 128.57 74.1169 128.805C73.7315 129.034 73.4294 129.344 73.2107 129.734C72.9919 130.12 72.88 130.549 72.8747 131.023V132.984C72.8747 133.578 72.9841 134.091 73.2029 134.523C73.4268 134.956 73.7419 135.289 74.1482 135.523C74.5544 135.758 75.0362 135.875 75.5935 135.875C75.9633 135.875 76.3018 135.823 76.6091 135.719C76.9164 135.614 77.1794 135.458 77.3982 135.25C77.6169 135.042 77.7836 134.786 77.8982 134.484L80.9763 134.687C80.8201 135.427 80.4997 136.073 80.0154 136.625C79.5362 137.172 78.9164 137.599 78.156 137.906C77.4008 138.208 76.5284 138.359 75.5388 138.359ZM91.5701 130.797V133.414H85.3044V130.797H91.5701ZM86.3982 126.125V138.125H83.2185V126.125H86.3982ZM93.656 126.125V138.125H90.4997V126.125H93.656ZM101.707 138.359C100.472 138.359 99.4099 138.109 98.5193 137.609C97.6339 137.104 96.9516 136.39 96.4724 135.469C95.9932 134.542 95.7537 133.445 95.7537 132.18C95.7537 130.945 95.9932 129.862 96.4724 128.93C96.9516 127.997 97.6261 127.271 98.4958 126.75C99.3708 126.229 100.397 125.969 101.574 125.969C102.366 125.969 103.103 126.096 103.785 126.351C104.472 126.601 105.071 126.979 105.582 127.484C106.097 127.989 106.498 128.625 106.785 129.39C107.071 130.151 107.215 131.042 107.215 132.062V132.976H97.0818V130.914H104.082C104.082 130.435 103.978 130.01 103.769 129.64C103.561 129.271 103.272 128.982 102.902 128.773C102.538 128.56 102.113 128.453 101.629 128.453C101.123 128.453 100.676 128.57 100.285 128.805C99.8995 129.034 99.5974 129.344 99.3787 129.734C99.1599 130.12 99.0479 130.549 99.0427 131.023V132.984C99.0427 133.578 99.1521 134.091 99.3708 134.523C99.5948 134.956 99.9099 135.289 100.316 135.523C100.722 135.758 101.204 135.875 101.761 135.875C102.131 135.875 102.47 135.823 102.777 135.719C103.084 135.614 103.347 135.458 103.566 135.25C103.785 135.042 103.952 134.786 104.066 134.484L107.144 134.687C106.988 135.427 106.668 136.073 106.183 136.625C105.704 137.172 105.084 137.599 104.324 137.906C103.569 138.208 102.696 138.359 101.707 138.359ZM109.386 142.625V126.125H112.668V128.14H112.816C112.962 127.818 113.173 127.489 113.449 127.156C113.73 126.818 114.095 126.536 114.543 126.312C114.996 126.083 115.558 125.969 116.23 125.969C117.105 125.969 117.913 126.198 118.652 126.656C119.392 127.109 119.983 127.794 120.426 128.711C120.868 129.622 121.09 130.765 121.09 132.14C121.09 133.479 120.873 134.609 120.441 135.531C120.014 136.448 119.431 137.143 118.691 137.617C117.957 138.086 117.134 138.32 116.222 138.32C115.577 138.32 115.027 138.213 114.574 138C114.126 137.786 113.759 137.518 113.472 137.195C113.186 136.867 112.967 136.536 112.816 136.203H112.715V142.625H109.386ZM112.644 132.125C112.644 132.838 112.743 133.461 112.941 133.992C113.139 134.523 113.426 134.937 113.801 135.234C114.176 135.526 114.631 135.672 115.168 135.672C115.709 135.672 116.168 135.523 116.543 135.226C116.918 134.924 117.202 134.508 117.394 133.976C117.592 133.44 117.691 132.823 117.691 132.125C117.691 131.432 117.595 130.823 117.402 130.297C117.209 129.771 116.926 129.359 116.551 129.062C116.176 128.765 115.715 128.617 115.168 128.617C114.626 128.617 114.168 128.76 113.793 129.047C113.423 129.333 113.139 129.739 112.941 130.265C112.743 130.792 112.644 131.411 112.644 132.125ZM126.488 133.734L130.808 126.125H134.09V138.125H130.918V130.492L126.613 138.125H123.308V126.125H126.488V133.734ZM136.758 142.625V126.125H140.039V128.14H140.187C140.333 127.818 140.544 127.489 140.82 127.156C141.101 126.818 141.466 126.536 141.914 126.312C142.367 126.083 142.929 125.969 143.601 125.969C144.476 125.969 145.284 126.198 146.023 126.656C146.763 127.109 147.354 127.794 147.797 128.711C148.239 129.622 148.461 130.765 148.461 132.14C148.461 133.479 148.245 134.609 147.812 135.531C147.385 136.448 146.802 137.143 146.062 137.617C145.328 138.086 144.505 138.32 143.593 138.32C142.948 138.32 142.398 138.213 141.945 138C141.497 137.786 141.13 137.518 140.843 137.195C140.557 136.867 140.338 136.536 140.187 136.203H140.086V142.625H136.758ZM140.015 132.125C140.015 132.838 140.114 133.461 140.312 133.992C140.51 134.523 140.797 134.937 141.172 135.234C141.547 135.526 142.002 135.672 142.539 135.672C143.08 135.672 143.539 135.523 143.914 135.226C144.289 134.924 144.573 134.508 144.765 133.976C144.963 133.44 145.062 132.823 145.062 132.125C145.062 131.432 144.966 130.823 144.773 130.297C144.58 129.771 144.297 129.359 143.922 129.062C143.547 128.765 143.086 128.617 142.539 128.617C141.997 128.617 141.539 128.76 141.164 129.047C140.794 129.333 140.51 129.739 140.312 130.265C140.114 130.792 140.015 131.411 140.015 132.125ZM152.347 142.625C151.926 142.625 151.53 142.591 151.16 142.523C150.795 142.461 150.493 142.38 150.254 142.281L151.004 139.797C151.394 139.917 151.746 139.982 152.058 139.992C152.376 140.002 152.649 139.93 152.879 139.773C153.113 139.617 153.303 139.351 153.449 138.976L153.644 138.469L149.34 126.125H152.84L155.324 134.937H155.449L157.957 126.125H161.48L156.816 139.422C156.592 140.068 156.288 140.63 155.902 141.109C155.522 141.594 155.04 141.966 154.457 142.226C153.873 142.492 153.17 142.625 152.347 142.625ZM166.363 133.734L170.683 126.125H173.965V138.125H170.793V130.492L166.488 138.125H163.183V126.125H166.363V133.734ZM170.113 121.937H172.433C172.428 122.885 172.077 123.648 171.379 124.226C170.686 124.805 169.748 125.094 168.566 125.094C167.379 125.094 166.439 124.805 165.746 124.226C165.053 123.648 164.707 122.885 164.707 121.937H167.011C167.006 122.297 167.121 122.62 167.355 122.906C167.595 123.193 167.998 123.336 168.566 123.336C169.118 123.336 169.514 123.195 169.754 122.914C169.993 122.633 170.113 122.307 170.113 121.937ZM175.427 128.742V126.125H186.302V128.742H182.435V138.125H179.263V128.742H175.427ZM193.359 138.359C192.125 138.359 191.062 138.109 190.172 137.609C189.286 137.104 188.604 136.39 188.125 135.469C187.646 134.542 187.406 133.445 187.406 132.18C187.406 130.945 187.646 129.862 188.125 128.93C188.604 127.997 189.278 127.271 190.148 126.75C191.023 126.229 192.049 125.969 193.226 125.969C194.018 125.969 194.755 126.096 195.437 126.351C196.125 126.601 196.724 126.979 197.234 127.484C197.75 127.989 198.151 128.625 198.437 129.39C198.724 130.151 198.867 131.042 198.867 132.062V132.976H188.734V130.914H195.734C195.734 130.435 195.63 130.01 195.422 129.64C195.213 129.271 194.924 128.982 194.554 128.773C194.19 128.56 193.765 128.453 193.281 128.453C192.776 128.453 192.328 128.57 191.937 128.805C191.552 129.034 191.25 129.344 191.031 129.734C190.812 130.12 190.7 130.549 190.695 131.023V132.984C190.695 133.578 190.804 134.091 191.023 134.523C191.247 134.956 191.562 135.289 191.969 135.523C192.375 135.758 192.857 135.875 193.414 135.875C193.784 135.875 194.122 135.823 194.429 135.719C194.737 135.614 195 135.458 195.219 135.25C195.437 135.042 195.604 134.786 195.719 134.484L198.797 134.687C198.64 135.427 198.32 136.073 197.836 136.625C197.357 137.172 196.737 137.599 195.976 137.906C195.221 138.208 194.349 138.359 193.359 138.359ZM206.131 138.125V126.125H209.459V130.781H210.396L213.662 126.125H217.568L213.326 132.078L217.615 138.125H213.662L210.701 133.867H209.459V138.125H206.131ZM222.443 138.351C221.677 138.351 220.995 138.219 220.396 137.953C219.797 137.682 219.323 137.284 218.974 136.758C218.631 136.226 218.459 135.565 218.459 134.773C218.459 134.107 218.581 133.547 218.826 133.094C219.071 132.64 219.404 132.276 219.826 132C220.248 131.724 220.727 131.515 221.263 131.375C221.805 131.234 222.373 131.135 222.967 131.078C223.664 131.005 224.227 130.937 224.654 130.875C225.081 130.807 225.391 130.708 225.584 130.578C225.776 130.448 225.873 130.255 225.873 130V129.953C225.873 129.458 225.717 129.075 225.404 128.805C225.097 128.534 224.659 128.398 224.092 128.398C223.493 128.398 223.016 128.531 222.662 128.797C222.308 129.057 222.073 129.385 221.959 129.781L218.881 129.531C219.037 128.802 219.344 128.172 219.802 127.64C220.261 127.104 220.852 126.693 221.576 126.406C222.305 126.114 223.149 125.969 224.107 125.969C224.774 125.969 225.412 126.047 226.021 126.203C226.636 126.359 227.18 126.601 227.654 126.93C228.133 127.258 228.511 127.68 228.787 128.195C229.063 128.706 229.201 129.318 229.201 130.031V138.125H226.045V136.461H225.951C225.758 136.836 225.5 137.167 225.177 137.453C224.855 137.734 224.467 137.956 224.013 138.117C223.56 138.273 223.037 138.351 222.443 138.351ZM223.396 136.055C223.886 136.055 224.318 135.958 224.693 135.765C225.068 135.568 225.362 135.302 225.576 134.969C225.789 134.635 225.896 134.258 225.896 133.836V132.562C225.792 132.63 225.649 132.693 225.467 132.75C225.289 132.802 225.089 132.851 224.865 132.898C224.641 132.94 224.417 132.979 224.193 133.015C223.969 133.047 223.766 133.075 223.584 133.101C223.193 133.159 222.852 133.25 222.56 133.375C222.269 133.5 222.042 133.669 221.881 133.883C221.719 134.091 221.638 134.351 221.638 134.664C221.638 135.117 221.802 135.463 222.131 135.703C222.464 135.937 222.886 136.055 223.396 136.055ZM231.783 142.625V126.125H235.064V128.14H235.213C235.358 127.818 235.569 127.489 235.845 127.156C236.127 126.818 236.491 126.536 236.939 126.312C237.392 126.083 237.955 125.969 238.627 125.969C239.502 125.969 240.309 126.198 241.049 126.656C241.788 127.109 242.379 127.794 242.822 128.711C243.265 129.622 243.486 130.765 243.486 132.14C243.486 133.479 243.27 134.609 242.838 135.531C242.411 136.448 241.827 137.143 241.088 137.617C240.353 138.086 239.53 138.32 238.619 138.32C237.973 138.32 237.424 138.213 236.97 138C236.523 137.786 236.155 137.518 235.869 137.195C235.582 136.867 235.364 136.536 235.213 136.203H235.111V142.625H231.783ZM235.041 132.125C235.041 132.838 235.14 133.461 235.338 133.992C235.536 134.523 235.822 134.937 236.197 135.234C236.572 135.526 237.028 135.672 237.564 135.672C238.106 135.672 238.564 135.523 238.939 135.226C239.314 134.924 239.598 134.508 239.791 133.976C239.989 133.44 240.088 132.823 240.088 132.125C240.088 131.432 239.991 130.823 239.799 130.297C239.606 129.771 239.322 129.359 238.947 129.062C238.572 128.765 238.111 128.617 237.564 128.617C237.023 128.617 236.564 128.76 236.189 129.047C235.819 129.333 235.536 129.739 235.338 130.265C235.14 130.792 235.041 131.411 235.041 132.125ZM244.543 128.742V126.125H255.418V128.742H251.551V138.125H248.379V128.742H244.543ZM262.427 138.359C261.214 138.359 260.164 138.101 259.279 137.586C258.399 137.065 257.719 136.341 257.24 135.414C256.761 134.482 256.521 133.401 256.521 132.172C256.521 130.932 256.761 129.849 257.24 128.922C257.719 127.989 258.399 127.265 259.279 126.75C260.164 126.229 261.214 125.969 262.427 125.969C263.641 125.969 264.688 126.229 265.568 126.75C266.454 127.265 267.136 127.989 267.615 128.922C268.094 129.849 268.334 130.932 268.334 132.172C268.334 133.401 268.094 134.482 267.615 135.414C267.136 136.341 266.454 137.065 265.568 137.586C264.688 138.101 263.641 138.359 262.427 138.359ZM262.443 135.781C262.995 135.781 263.456 135.625 263.826 135.312C264.196 134.995 264.474 134.562 264.662 134.015C264.855 133.469 264.951 132.846 264.951 132.148C264.951 131.45 264.855 130.828 264.662 130.281C264.474 129.734 264.196 129.302 263.826 128.984C263.456 128.667 262.995 128.508 262.443 128.508C261.886 128.508 261.417 128.667 261.037 128.984C260.662 129.302 260.378 129.734 260.185 130.281C259.998 130.828 259.904 131.45 259.904 132.148C259.904 132.846 259.998 133.469 260.185 134.015C260.378 134.562 260.662 134.995 261.037 135.312C261.417 135.625 261.886 135.781 262.443 135.781ZM280.912 126.125V138.125H277.756V126.125H280.912ZM279.373 131.39V134.015C279.118 134.13 278.8 134.239 278.42 134.344C278.039 134.443 277.641 134.523 277.224 134.586C276.808 134.648 276.417 134.68 276.052 134.68C274.329 134.68 272.972 134.325 271.982 133.617C270.993 132.903 270.498 131.765 270.498 130.203V126.109H273.638V130.203C273.638 130.667 273.717 131.034 273.873 131.305C274.034 131.575 274.289 131.771 274.638 131.89C274.993 132.005 275.464 132.062 276.052 132.062C276.599 132.062 277.136 132.005 277.662 131.89C278.188 131.776 278.758 131.609 279.373 131.39ZM283.496 138.125V126.125H286.824V130.781H287.761L291.027 126.125H294.933L290.691 132.078L294.98 138.125H291.027L288.066 133.867H286.824V138.125H283.496ZM299.566 133.734L303.886 126.125H307.168V138.125H303.996V130.492L299.691 138.125H296.386V126.125H299.566V133.734Z" fill="#111827"/>
<path d="M70.9966 178.691V177.105H71.8716C72.2089 177.105 72.4914 177.039 72.7193 176.907C72.9517 176.775 73.1431 176.604 73.2935 176.394C73.4485 176.185 73.5761 175.966 73.6763 175.738L73.8951 175.219L69.0552 164.5H70.8873L74.7427 173.195L78.2701 164.5H80.0748L75.2349 176.23C75.0435 176.668 74.8248 177.073 74.5787 177.447C74.3371 177.821 74.0067 178.122 73.5875 178.349C73.1727 178.577 72.6099 178.691 71.899 178.691H70.9966ZM88.3087 172.512V174.015H82.5118V172.512H88.3087ZM82.8946 168V178.5H81.2813V168H82.8946ZM89.5391 168V178.5H87.9258V168H89.5391ZM94.0987 176.121L99.1573 168H101.017V178.5H99.4034V170.379L94.3721 178.5H92.4854V168H94.0987V176.121ZM103.971 178.5V168H105.585V172.566H106.651L110.425 168H112.503L108.264 173.058L112.557 178.5H110.479L107.034 174.07H105.585V178.5H103.971ZM117.401 178.746C116.735 178.746 116.131 178.621 115.589 178.37C115.047 178.115 114.616 177.748 114.297 177.269C113.978 176.786 113.819 176.203 113.819 175.519C113.819 174.918 113.937 174.43 114.174 174.056C114.411 173.678 114.728 173.382 115.124 173.168C115.521 172.954 115.958 172.794 116.437 172.689C116.92 172.58 117.405 172.493 117.893 172.43C118.531 172.348 119.048 172.286 119.445 172.245C119.846 172.199 120.137 172.124 120.32 172.019C120.506 171.915 120.6 171.732 120.6 171.473V171.418C120.6 170.743 120.415 170.219 120.046 169.846C119.682 169.472 119.128 169.285 118.385 169.285C117.615 169.285 117.011 169.454 116.574 169.791C116.136 170.128 115.828 170.488 115.651 170.871L114.119 170.324C114.393 169.686 114.757 169.189 115.213 168.834C115.673 168.474 116.175 168.223 116.717 168.082C117.264 167.936 117.802 167.863 118.33 167.863C118.668 167.863 119.055 167.904 119.492 167.986C119.935 168.064 120.361 168.225 120.771 168.472C121.186 168.718 121.53 169.089 121.803 169.586C122.076 170.083 122.213 170.748 122.213 171.582V178.5H120.6V177.078H120.518C120.409 177.306 120.226 177.55 119.971 177.809C119.716 178.069 119.376 178.29 118.952 178.473C118.529 178.655 118.011 178.746 117.401 178.746ZM117.647 177.297C118.285 177.297 118.823 177.171 119.26 176.921C119.702 176.67 120.035 176.347 120.258 175.95C120.486 175.554 120.6 175.137 120.6 174.699V173.223C120.532 173.305 120.381 173.38 120.149 173.448C119.921 173.512 119.657 173.569 119.356 173.619C119.06 173.665 118.77 173.706 118.488 173.742C118.21 173.774 117.984 173.801 117.811 173.824C117.392 173.879 117 173.968 116.635 174.091C116.275 174.209 115.983 174.389 115.76 174.631C115.541 174.868 115.432 175.191 115.432 175.601C115.432 176.162 115.639 176.586 116.054 176.873C116.473 177.155 117.004 177.297 117.647 177.297ZM124.228 178.5V176.996H124.611C124.925 176.996 125.187 176.934 125.397 176.811C125.607 176.684 125.775 176.463 125.903 176.148C126.035 175.829 126.135 175.387 126.204 174.822C126.277 174.252 126.329 173.528 126.361 172.648L126.552 168H133.552V178.5H131.939V169.504H128.084L127.919 173.25C127.883 174.111 127.806 174.87 127.687 175.526C127.573 176.178 127.398 176.725 127.161 177.167C126.928 177.609 126.618 177.942 126.231 178.165C125.844 178.388 125.358 178.5 124.775 178.5H124.228ZM137.907 171.801H140.915C142.145 171.801 143.086 172.113 143.738 172.737C144.39 173.362 144.715 174.152 144.715 175.109C144.715 175.738 144.57 176.31 144.278 176.825C143.986 177.335 143.558 177.743 142.993 178.049C142.428 178.349 141.735 178.5 140.915 178.5H136.512V168H138.126V176.996H140.915C141.553 176.996 142.077 176.827 142.487 176.49C142.897 176.153 143.102 175.72 143.102 175.191C143.102 174.635 142.897 174.182 142.487 173.831C142.077 173.48 141.553 173.305 140.915 173.305H137.907V171.801ZM154.199 172.512V174.015H148.402V172.512H154.199ZM148.784 168V178.5H147.171V168H148.784ZM155.429 168V178.5H153.816V168H155.429ZM159.77 171.801H162.778C164.008 171.801 164.949 172.113 165.601 172.737C166.253 173.362 166.578 174.152 166.578 175.109C166.578 175.738 166.433 176.31 166.141 176.825C165.849 177.335 165.421 177.743 164.856 178.049C164.291 178.349 163.598 178.5 162.778 178.5H158.375V168H159.989V176.996H162.778C163.416 176.996 163.94 176.827 164.35 176.49C164.76 176.153 164.965 175.72 164.965 175.191C164.965 174.635 164.76 174.182 164.35 173.831C163.94 173.48 163.416 173.305 162.778 173.305H159.77V171.801ZM168.246 178.5V168H169.86V178.5H168.246ZM177.215 178.719C176.203 178.719 175.331 178.495 174.597 178.049C173.868 177.598 173.305 176.969 172.909 176.162C172.517 175.351 172.321 174.407 172.321 173.332C172.321 172.256 172.517 171.308 172.909 170.488C173.305 169.663 173.856 169.021 174.563 168.56C175.274 168.096 176.103 167.863 177.051 167.863C177.598 167.863 178.138 167.954 178.671 168.137C179.204 168.319 179.69 168.615 180.127 169.025C180.565 169.431 180.913 169.969 181.173 170.639C181.433 171.308 181.563 172.133 181.563 173.113V173.797H173.469V172.402H179.922C179.922 171.81 179.804 171.281 179.567 170.816C179.334 170.351 179.002 169.985 178.569 169.716C178.14 169.447 177.634 169.312 177.051 169.312C176.409 169.312 175.853 169.472 175.383 169.791C174.918 170.105 174.561 170.515 174.31 171.021C174.059 171.527 173.934 172.07 173.934 172.648V173.578C173.934 174.371 174.071 175.043 174.344 175.595C174.622 176.141 175.007 176.558 175.499 176.846C175.992 177.128 176.563 177.269 177.215 177.269C177.639 177.269 178.022 177.21 178.364 177.092C178.71 176.969 179.008 176.786 179.259 176.545C179.51 176.299 179.703 175.993 179.84 175.629L181.399 176.066C181.235 176.595 180.959 177.06 180.572 177.461C180.184 177.857 179.706 178.167 179.136 178.39C178.566 178.609 177.926 178.719 177.215 178.719ZM193.779 178.691C192.977 178.691 192.254 178.532 191.612 178.213C190.969 177.894 190.454 177.456 190.067 176.9C189.679 176.344 189.467 175.711 189.431 175H191.072C191.135 175.633 191.422 176.157 191.933 176.572C192.448 176.982 193.063 177.187 193.779 177.187C194.353 177.187 194.863 177.053 195.31 176.784C195.761 176.515 196.114 176.146 196.369 175.677C196.629 175.203 196.759 174.667 196.759 174.07C196.759 173.459 196.625 172.915 196.356 172.436C196.091 171.953 195.727 171.573 195.262 171.295C194.797 171.017 194.266 170.875 193.669 170.871C193.241 170.866 192.801 170.932 192.35 171.069C191.899 171.201 191.527 171.372 191.236 171.582L189.65 171.39L190.497 164.5H197.771V166.004H191.919L191.427 170.133H191.509C191.796 169.905 192.156 169.716 192.589 169.565C193.022 169.415 193.473 169.34 193.943 169.34C194.799 169.34 195.563 169.545 196.233 169.955C196.907 170.361 197.436 170.917 197.819 171.623C198.206 172.329 198.4 173.136 198.4 174.043C198.4 174.936 198.199 175.734 197.798 176.435C197.402 177.133 196.855 177.684 196.158 178.09C195.46 178.491 194.667 178.691 193.779 178.691ZM209.346 175.984L201.635 168.273L202.674 167.234L210.385 174.945L209.346 175.984ZM202.674 175.984L201.635 174.945L209.346 167.234L210.385 168.273L202.674 175.984ZM218.179 178.691C217.377 178.691 216.655 178.532 216.012 178.213C215.37 177.894 214.855 177.456 214.468 176.9C214.08 176.344 213.868 175.711 213.832 175H215.472C215.536 175.633 215.823 176.157 216.334 176.572C216.849 176.982 217.464 177.187 218.179 177.187C218.754 177.187 219.264 177.053 219.711 176.784C220.162 176.515 220.515 176.146 220.77 175.677C221.03 175.203 221.16 174.667 221.16 174.07C221.16 173.459 221.026 172.915 220.757 172.436C220.492 171.953 220.128 171.573 219.663 171.295C219.198 171.017 218.667 170.875 218.07 170.871C217.642 170.866 217.202 170.932 216.751 171.069C216.3 171.201 215.928 171.372 215.637 171.582L214.051 171.39L214.898 164.5H222.172V166.004H216.32L215.828 170.133H215.91C216.197 169.905 216.557 169.716 216.99 169.565C217.423 169.415 217.874 169.34 218.344 169.34C219.2 169.34 219.964 169.545 220.634 169.955C221.308 170.361 221.837 170.917 222.22 171.623C222.607 172.329 222.801 173.136 222.801 174.043C222.801 174.936 222.6 175.734 222.199 176.435C221.803 177.133 221.256 177.684 220.558 178.09C219.861 178.491 219.068 178.691 218.179 178.691ZM238.751 164.062L239.571 165.047C239.252 165.357 238.883 165.573 238.463 165.696C238.044 165.819 237.57 165.894 237.042 165.922C236.513 165.949 235.925 165.976 235.278 166.004C234.549 166.031 233.945 166.209 233.466 166.537C232.988 166.865 232.619 167.339 232.359 167.959C232.099 168.579 231.933 169.34 231.86 170.242H231.997C232.352 169.586 232.844 169.103 233.473 168.793C234.102 168.483 234.777 168.328 235.497 168.328C236.317 168.328 237.055 168.519 237.711 168.902C238.368 169.285 238.887 169.852 239.27 170.604C239.653 171.356 239.844 172.284 239.844 173.387C239.844 174.485 239.648 175.433 239.256 176.23C238.869 177.028 238.324 177.643 237.623 178.076C236.925 178.504 236.107 178.719 235.169 178.719C234.23 178.719 233.407 178.498 232.701 178.056C231.994 177.609 231.445 176.948 231.053 176.073C230.661 175.194 230.465 174.107 230.465 172.812V171.691C230.465 169.353 230.862 167.581 231.655 166.373C232.452 165.165 233.651 164.541 235.251 164.5C235.816 164.482 236.319 164.477 236.761 164.486C237.203 164.495 237.588 164.475 237.917 164.425C238.245 164.375 238.523 164.254 238.751 164.062ZM235.169 177.269C235.802 177.269 236.347 177.11 236.802 176.791C237.263 176.472 237.616 176.023 237.862 175.444C238.108 174.861 238.231 174.175 238.231 173.387C238.231 172.621 238.106 171.969 237.855 171.431C237.609 170.894 237.256 170.484 236.795 170.201C236.335 169.918 235.784 169.777 235.141 169.777C234.672 169.777 234.25 169.857 233.877 170.016C233.503 170.176 233.184 170.411 232.919 170.721C232.655 171.03 232.45 171.409 232.304 171.855C232.163 172.302 232.088 172.812 232.079 173.387C232.079 174.562 232.354 175.503 232.906 176.21C233.457 176.916 234.211 177.269 235.169 177.269ZM243.925 176.121L248.984 168H250.843V178.5H249.23V170.379L244.199 178.5H242.312V168H243.925V176.121ZM252.868 178.5V176.996H253.251C253.566 176.996 253.828 176.934 254.037 176.811C254.247 176.684 254.416 176.463 254.543 176.148C254.675 175.829 254.776 175.387 254.844 174.822C254.917 174.252 254.969 173.528 255.001 172.648L255.193 168H262.193V178.5H260.579V169.504H256.724L256.56 173.25C256.523 174.111 256.446 174.87 256.327 175.526C256.214 176.178 256.038 176.725 255.801 177.167C255.569 177.609 255.259 177.942 254.871 178.165C254.484 178.388 253.999 178.5 253.415 178.5H252.868ZM269.555 178.719C268.543 178.719 267.671 178.495 266.937 178.049C266.208 177.598 265.645 176.969 265.248 176.162C264.856 175.351 264.66 174.407 264.66 173.332C264.66 172.256 264.856 171.308 265.248 170.488C265.645 169.663 266.196 169.021 266.903 168.56C267.614 168.096 268.443 167.863 269.391 167.863C269.938 167.863 270.478 167.954 271.011 168.137C271.544 168.319 272.03 168.615 272.467 169.025C272.905 169.431 273.253 169.969 273.513 170.639C273.773 171.308 273.903 172.133 273.903 173.113V173.797H265.809V172.402H272.262C272.262 171.81 272.144 171.281 271.907 170.816C271.674 170.351 271.341 169.985 270.908 169.716C270.48 169.447 269.974 169.312 269.391 169.312C268.748 169.312 268.192 169.472 267.723 169.791C267.258 170.105 266.9 170.515 266.65 171.021C266.399 171.527 266.274 172.07 266.274 172.648V173.578C266.274 174.371 266.41 175.043 266.684 175.595C266.962 176.141 267.347 176.558 267.839 176.846C268.331 177.128 268.903 177.269 269.555 177.269C269.979 177.269 270.362 177.21 270.703 177.092C271.05 176.969 271.348 176.786 271.599 176.545C271.85 176.299 272.043 175.993 272.18 175.629L273.739 176.066C273.575 176.595 273.299 177.06 272.911 177.461C272.524 177.857 272.046 178.167 271.476 178.39C270.906 178.609 270.266 178.719 269.555 178.719ZM275.379 169.504V168H283.91V169.504H280.465V178.5H278.852V169.504H275.379ZM287.658 171.801H290.666C291.897 171.801 292.838 172.113 293.489 172.737C294.141 173.362 294.467 174.152 294.467 175.109C294.467 175.738 294.321 176.31 294.029 176.825C293.738 177.335 293.309 177.743 292.744 178.049C292.179 178.349 291.486 178.5 290.666 178.5H286.264V168H287.877V176.996H290.666C291.304 176.996 291.828 176.827 292.238 176.49C292.648 176.153 292.854 175.72 292.854 175.191C292.854 174.635 292.648 174.182 292.238 173.831C291.828 173.48 291.304 173.305 290.666 173.305H287.658V171.801ZM296.135 178.5V168H297.748V178.5H296.135ZM124.262 208.508V203.996H125.137C125.351 203.773 125.536 203.531 125.691 203.271C125.846 203.012 125.98 202.704 126.094 202.348C126.213 201.988 126.313 201.551 126.395 201.036C126.477 200.516 126.55 199.89 126.614 199.156L126.969 195H133.641V203.996H135.254V208.508H133.641V205.5H125.876V208.508H124.262ZM126.969 203.996H132.028V196.504H128.473L128.2 199.156C128.086 200.254 127.945 201.214 127.776 202.034C127.607 202.854 127.338 203.508 126.969 203.996ZM136.466 205.5V203.996H136.849C137.163 203.996 137.425 203.934 137.635 203.811C137.845 203.684 138.013 203.463 138.141 203.148C138.273 202.829 138.373 202.387 138.442 201.822C138.515 201.252 138.567 200.528 138.599 199.648L138.79 195H145.79V205.5H144.177V196.504H140.322L140.158 200.25C140.121 201.111 140.044 201.87 139.925 202.526C139.811 203.178 139.636 203.725 139.399 204.167C139.166 204.609 138.856 204.942 138.469 205.165C138.082 205.388 137.596 205.5 137.013 205.5H136.466ZM155.067 205.5V196.476H152.278C151.649 196.476 151.154 196.622 150.794 196.914C150.434 197.206 150.254 197.607 150.254 198.117C150.254 198.618 150.416 199.013 150.74 199.3C151.068 199.587 151.517 199.73 152.086 199.73H155.477V201.234H152.086C151.375 201.234 150.762 201.109 150.247 200.858C149.732 200.608 149.336 200.25 149.058 199.785C148.78 199.316 148.641 198.76 148.641 198.117C148.641 197.47 148.787 196.914 149.078 196.449C149.37 195.984 149.787 195.626 150.329 195.376C150.876 195.125 151.526 195 152.278 195H156.598V205.5H155.067ZM148.067 205.5L151.047 200.277H152.797L149.817 205.5H148.067ZM164.974 205.5V195H166.587V199.566H167.653L171.427 195H173.505L169.267 200.058L173.56 205.5H171.481L168.036 201.07H166.587V205.5H164.974ZM178.403 205.746C177.738 205.746 177.134 205.621 176.591 205.37C176.049 205.115 175.618 204.748 175.299 204.269C174.98 203.786 174.821 203.203 174.821 202.519C174.821 201.918 174.939 201.43 175.176 201.056C175.413 200.678 175.73 200.382 176.127 200.168C176.523 199.954 176.961 199.794 177.439 199.689C177.922 199.58 178.407 199.493 178.895 199.43C179.533 199.348 180.05 199.286 180.447 199.245C180.848 199.199 181.14 199.124 181.322 199.019C181.509 198.915 181.602 198.732 181.602 198.473V198.418C181.602 197.743 181.418 197.219 181.048 196.846C180.684 196.472 180.13 196.285 179.387 196.285C178.617 196.285 178.013 196.454 177.576 196.791C177.138 197.128 176.831 197.488 176.653 197.871L175.122 197.324C175.395 196.686 175.76 196.189 176.215 195.834C176.676 195.474 177.177 195.223 177.719 195.082C178.266 194.936 178.804 194.863 179.333 194.863C179.67 194.863 180.057 194.904 180.495 194.986C180.937 195.064 181.363 195.225 181.773 195.472C182.188 195.718 182.532 196.089 182.805 196.586C183.079 197.083 183.215 197.748 183.215 198.582V205.5H181.602V204.078H181.52C181.411 204.306 181.228 204.55 180.973 204.809C180.718 205.069 180.378 205.29 179.955 205.473C179.531 205.655 179.014 205.746 178.403 205.746ZM178.649 204.297C179.287 204.297 179.825 204.171 180.262 203.921C180.704 203.67 181.037 203.347 181.26 202.95C181.488 202.554 181.602 202.137 181.602 201.699V200.223C181.534 200.305 181.383 200.38 181.151 200.448C180.923 200.512 180.659 200.569 180.358 200.619C180.062 200.665 179.772 200.706 179.49 200.742C179.212 200.774 178.986 200.801 178.813 200.824C178.394 200.879 178.002 200.968 177.637 201.091C177.277 201.209 176.986 201.389 176.762 201.631C176.544 201.868 176.434 202.191 176.434 202.601C176.434 203.162 176.641 203.586 177.056 203.873C177.475 204.155 178.006 204.297 178.649 204.297ZM185.504 205.5L189.769 200.168L185.558 195H187.472L190.972 199.484H191.847V195H193.461V199.484H194.308L197.808 195H199.722L195.539 200.168L199.777 205.5H197.836L194.281 200.988H193.461V205.5H191.847V200.988H191.027L187.445 205.5H185.504ZM200.961 208.508V203.996H201.836C202.051 203.773 202.235 203.531 202.39 203.271C202.545 203.012 202.68 202.704 202.794 202.348C202.912 201.988 203.012 201.551 203.094 201.036C203.176 200.516 203.249 199.89 203.313 199.156L203.669 195H210.34V203.996H211.954V208.508H210.34V205.5H202.575V208.508H200.961ZM203.669 203.996H208.727V196.504H205.172L204.899 199.156C204.785 200.254 204.644 201.214 204.475 202.034C204.307 202.854 204.038 203.508 203.669 203.996ZM218.361 205.719C217.413 205.719 216.581 205.493 215.866 205.042C215.155 204.591 214.599 203.959 214.198 203.148C213.801 202.337 213.603 201.389 213.603 200.305C213.603 199.211 213.801 198.256 214.198 197.44C214.599 196.625 215.155 195.991 215.866 195.54C216.581 195.089 217.413 194.863 218.361 194.863C219.309 194.863 220.138 195.089 220.849 195.54C221.564 195.991 222.12 196.625 222.517 197.44C222.918 198.256 223.118 199.211 223.118 200.305C223.118 201.389 222.918 202.337 222.517 203.148C222.12 203.959 221.564 204.591 220.849 205.042C220.138 205.493 219.309 205.719 218.361 205.719ZM218.361 204.269C219.081 204.269 219.673 204.085 220.138 203.716C220.603 203.347 220.947 202.861 221.17 202.26C221.394 201.658 221.505 201.006 221.505 200.305C221.505 199.603 221.394 198.949 221.17 198.343C220.947 197.737 220.603 197.247 220.138 196.873C219.673 196.499 219.081 196.312 218.361 196.312C217.641 196.312 217.048 196.499 216.583 196.873C216.118 197.247 215.774 197.737 215.551 198.343C215.328 198.949 215.216 199.603 215.216 200.305C215.216 201.006 215.328 201.658 215.551 202.26C215.774 202.861 216.118 203.347 216.583 203.716C217.048 204.085 217.641 204.269 218.361 204.269ZM232.062 195V196.504H227.194V205.5H225.581V195H232.062ZM238.137 205.719C237.189 205.719 236.357 205.493 235.642 205.042C234.931 204.591 234.375 203.959 233.974 203.148C233.577 202.337 233.379 201.389 233.379 200.305C233.379 199.211 233.577 198.256 233.974 197.44C234.375 196.625 234.931 195.991 235.642 195.54C236.357 195.089 237.189 194.863 238.137 194.863C239.085 194.863 239.914 195.089 240.625 195.54C241.341 195.991 241.897 196.625 242.293 197.44C242.694 198.256 242.895 199.211 242.895 200.305C242.895 201.389 242.694 202.337 242.293 203.148C241.897 203.959 241.341 204.591 240.625 205.042C239.914 205.493 239.085 205.719 238.137 205.719ZM238.137 204.269C238.857 204.269 239.45 204.085 239.914 203.716C240.379 203.347 240.723 202.861 240.947 202.26C241.17 201.658 241.282 201.006 241.282 200.305C241.282 199.603 241.17 198.949 240.947 198.343C240.723 197.737 240.379 197.247 239.914 196.873C239.45 196.499 238.857 196.312 238.137 196.312C237.417 196.312 236.825 196.499 236.36 196.873C235.895 197.247 235.551 197.737 235.327 198.343C235.104 198.949 234.992 199.603 234.992 200.305C234.992 201.006 235.104 201.658 235.327 202.26C235.551 202.861 235.895 203.347 236.36 203.716C236.825 204.085 237.417 204.269 238.137 204.269Z" fill="#64748B"/>
</g>
<defs>
<filter id="filter0_d_132_105" x="1.90735e-06" y="1.90735e-06" width="365.75" height="272.25" filterUnits="userSpaceOnUse" color-interpolation-filters="sRGB">
<feFlood flood-opacity="0" result="BackgroundImageFix"/>
<feColorMatrix in="SourceAlpha" type="matrix" values="0 0 0 0 0 0 0 0 0 0 0 0 0 0 0 0 0 0 127 0" result="hardAlpha"/>
<feOffset dy="5.5"/>
<feGaussianBlur stdDeviation="9.625"/>
<feComposite in2="hardAlpha" operator="out"/>
<feColorMatrix type="matrix" values="0 0 0 0 0.180392 0 0 0 0 0.407843 0 0 0 0 0.960784 0 0 0 0.12 0"/>
<feBlend mode="normal" in2="BackgroundImageFix" result="effect1_dropShadow_132_105"/>
<feBlend mode="normal" in="SourceGraphic" in2="effect1_dropShadow_132_105" result="shape"/>
</filter>
<linearGradient id="paint0_linear_132_105" x1="166.808" y1="-4.12503" x2="232.731" y2="10.6984" gradientUnits="userSpaceOnUse">
<stop stop-color="#2E68F5"/>
<stop offset="1" stop-color="#5B8AF7"/>
</linearGradient>
</defs>
</svg>
