<svg width="545" height="465" viewBox="0 0 545 465" fill="none" xmlns="http://www.w3.org/2000/svg">
<g filter="url(#filter0_d_132_43)">
<rect x="19.25" y="13.75" width="506" height="426.25" rx="22" fill="white" fill-opacity="0.72" shape-rendering="crispEdges"/>
<rect x="19.9375" y="14.4375" width="504.625" height="424.875" rx="21.3125" stroke="white" stroke-opacity="0.6" stroke-width="1.375" shape-rendering="crispEdges"/>
<rect x="59.1248" y="53.625" width="66" height="66" rx="16.5" fill="#10B981" fill-opacity="0.094"/>
<rect x="59.8123" y="54.3125" width="64.625" height="64.625" rx="15.8125" stroke="#10B981" stroke-opacity="0.19" stroke-width="1.375"/>
<path d="M97.1664 97.9687V95.4479C97.1664 94.1108 96.6352 92.8284 95.6897 91.8829C94.7442 90.9374 93.4619 90.4062 92.1247 90.4062H84.5622C83.2251 90.4062 81.9427 90.9374 80.9972 91.8829C80.0517 92.8284 79.5206 94.1108 79.5206 95.4479V97.9687" stroke="#10B981" stroke-width="2.52083" stroke-linecap="round" stroke-linejoin="round"/>
<path d="M97.1669 75.4427C98.248 75.723 99.2055 76.3544 99.889 77.2377C100.573 78.121 100.943 79.2062 100.943 80.3231C100.943 81.44 100.573 82.5252 99.889 83.4085C99.2055 84.2918 98.248 84.9231 97.1669 85.2034" stroke="#10B981" stroke-width="2.52083" stroke-linecap="round" stroke-linejoin="round"/>
<path d="M104.729 97.9688V95.4479C104.728 94.3309 104.356 93.2457 103.672 92.3628C102.988 91.48 102.029 90.8494 100.948 90.5701" stroke="#10B981" stroke-width="2.52083" stroke-linecap="round" stroke-linejoin="round"/>
<path d="M88.3437 85.3647C91.1282 85.3647 93.3854 83.1075 93.3854 80.323C93.3854 77.5386 91.1282 75.2814 88.3437 75.2814C85.5593 75.2814 83.3021 77.5386 83.3021 80.323C83.3021 83.1075 85.5593 85.3647 88.3437 85.3647Z" stroke="#10B981" stroke-width="2.52083" stroke-linecap="round" stroke-linejoin="round"/>
<path d="M59.7137 179.467V172.093H60.9354C61.3514 171.794 61.7323 171.372 62.078 170.827C62.4237 170.276 62.7196 169.518 62.9657 168.551C63.2118 167.578 63.3875 166.307 63.493 164.736L64.0028 157.125H75.912V172.093H77.8807V179.449H74.2245V175.125H63.37V179.467H59.7137ZM65.3299 172.093H72.2557V160.263H67.4305L67.1493 164.736C67.0731 165.926 66.9471 166.98 66.7713 167.9C66.6014 168.82 66.3934 169.626 66.1473 170.317C65.9071 171.003 65.6346 171.595 65.3299 172.093ZM79.3331 175.125L79.3155 172.154H79.7638C80.0802 172.154 80.3526 172.078 80.5811 171.926C80.8155 171.768 81.0089 171.513 81.1612 171.161C81.3136 170.81 81.4337 170.344 81.5216 169.764C81.6095 169.178 81.6681 168.457 81.6974 167.602L81.9171 161.625H92.1827V175.125H88.6143V164.569H85.2833L85.0724 168.691C85.0196 169.822 84.8819 170.795 84.6593 171.609C84.4425 172.424 84.1407 173.092 83.754 173.613C83.3673 174.129 82.9015 174.51 82.3565 174.756C81.8116 175.002 81.1788 175.125 80.4581 175.125H79.3331ZM102.995 175.125V164.561H100.464C99.7787 164.561 99.2572 164.719 98.8997 165.035C98.5423 165.352 98.3665 165.727 98.3724 166.16C98.3665 166.6 98.5365 166.972 98.8822 167.276C99.2337 167.575 99.7494 167.725 100.429 167.725H104.244V170.256H100.429C99.2747 170.256 98.2757 170.08 97.432 169.729C96.5882 169.377 95.9378 168.888 95.4808 168.261C95.0238 167.628 94.7982 166.893 94.804 166.055C94.7982 165.176 95.0238 164.405 95.4808 163.743C95.9378 163.075 96.5912 162.557 97.4408 162.187C98.2962 161.812 99.304 161.625 100.464 161.625H106.485V175.125H102.995ZM94.4173 175.125L98.1703 168.094H101.747L98.0033 175.125H94.4173ZM115.122 175.125V161.625H118.866V166.863H119.921L123.595 161.625H127.989L123.217 168.322L128.042 175.125H123.595L120.264 170.335H118.866V175.125H115.122ZM135.168 175.389C133.803 175.389 132.622 175.099 131.626 174.519C130.636 173.933 129.871 173.118 129.332 172.075C128.793 171.026 128.523 169.811 128.523 168.428C128.523 167.033 128.793 165.814 129.332 164.771C129.871 163.723 130.636 162.908 131.626 162.328C132.622 161.742 133.803 161.449 135.168 161.449C136.533 161.449 137.711 161.742 138.701 162.328C139.697 162.908 140.465 163.723 141.004 164.771C141.543 165.814 141.812 167.033 141.812 168.428C141.812 169.811 141.543 171.026 141.004 172.075C140.465 173.118 139.697 173.933 138.701 174.519C137.711 175.099 136.533 175.389 135.168 175.389ZM135.185 172.488C135.806 172.488 136.325 172.312 136.741 171.961C137.157 171.604 137.471 171.117 137.681 170.502C137.898 169.887 138.007 169.187 138.007 168.401C138.007 167.616 137.898 166.916 137.681 166.301C137.471 165.686 137.157 165.199 136.741 164.842C136.325 164.484 135.806 164.306 135.185 164.306C134.558 164.306 134.031 164.484 133.603 164.842C133.181 165.199 132.862 165.686 132.645 166.301C132.434 166.916 132.329 167.616 132.329 168.401C132.329 169.187 132.434 169.887 132.645 170.502C132.862 171.117 133.181 171.604 133.603 171.961C134.031 172.312 134.558 172.488 135.185 172.488ZM144.247 180.188V161.625H147.938V163.893H148.105C148.269 163.529 148.507 163.16 148.817 162.785C149.134 162.404 149.544 162.088 150.048 161.836C150.557 161.578 151.19 161.449 151.946 161.449C152.931 161.449 153.839 161.707 154.671 162.223C155.503 162.732 156.168 163.503 156.666 164.534C157.164 165.56 157.413 166.846 157.413 168.393C157.413 169.898 157.17 171.17 156.683 172.207C156.203 173.238 155.547 174.021 154.715 174.554C153.889 175.081 152.963 175.345 151.937 175.345C151.211 175.345 150.593 175.225 150.083 174.984C149.579 174.744 149.166 174.442 148.844 174.079C148.521 173.71 148.275 173.338 148.105 172.963H147.991V180.188H144.247ZM147.912 168.375C147.912 169.178 148.023 169.878 148.246 170.476C148.469 171.073 148.791 171.539 149.213 171.873C149.635 172.201 150.147 172.365 150.751 172.365C151.36 172.365 151.876 172.198 152.298 171.864C152.72 171.524 153.039 171.056 153.256 170.458C153.478 169.854 153.59 169.16 153.59 168.375C153.59 167.596 153.481 166.91 153.264 166.318C153.048 165.727 152.728 165.264 152.306 164.93C151.885 164.596 151.366 164.429 150.751 164.429C150.141 164.429 149.626 164.59 149.204 164.912C148.788 165.234 148.469 165.691 148.246 166.283C148.023 166.875 147.912 167.572 147.912 168.375ZM159.909 175.125V161.625H171.713V175.125H168.136V164.569H163.442V175.125H159.909ZM180.801 175.389C179.435 175.389 178.255 175.099 177.259 174.519C176.268 173.933 175.504 173.118 174.965 172.075C174.426 171.026 174.156 169.811 174.156 168.428C174.156 167.033 174.426 165.814 174.965 164.771C175.504 163.723 176.268 162.908 177.259 162.328C178.255 161.742 179.435 161.449 180.801 161.449C182.166 161.449 183.344 161.742 184.334 162.328C185.33 162.908 186.098 163.723 186.637 164.771C187.176 165.814 187.445 167.033 187.445 168.428C187.445 169.811 187.176 171.026 186.637 172.075C186.098 173.118 185.33 173.933 184.334 174.519C183.344 175.099 182.166 175.389 180.801 175.389ZM180.818 172.488C181.439 172.488 181.958 172.312 182.374 171.961C182.79 171.604 183.103 171.117 183.314 170.502C183.531 169.887 183.639 169.187 183.639 168.401C183.639 167.616 183.531 166.916 183.314 166.301C183.103 165.686 182.79 165.199 182.374 164.842C181.958 164.484 181.439 164.306 180.818 164.306C180.191 164.306 179.664 164.484 179.236 164.842C178.814 165.199 178.495 165.686 178.278 166.301C178.067 166.916 177.962 167.616 177.962 168.401C177.962 169.187 178.067 169.887 178.278 170.502C178.495 171.117 178.814 171.604 179.236 171.961C179.664 172.312 180.191 172.488 180.818 172.488ZM189.88 180.188V161.625H193.571V163.893H193.738C193.902 163.529 194.139 163.16 194.45 162.785C194.766 162.404 195.177 162.088 195.681 161.836C196.19 161.578 196.823 161.449 197.579 161.449C198.563 161.449 199.472 161.707 200.304 162.223C201.136 162.732 201.801 163.503 202.299 164.534C202.797 165.56 203.046 166.846 203.046 168.393C203.046 169.898 202.803 171.17 202.316 172.207C201.836 173.238 201.18 174.021 200.348 174.554C199.521 175.081 198.596 175.345 197.57 175.345C196.844 175.345 196.225 175.225 195.716 174.984C195.212 174.744 194.799 174.442 194.476 174.079C194.154 173.71 193.908 173.338 193.738 172.963H193.624V180.188H189.88ZM193.545 168.375C193.545 169.178 193.656 169.878 193.879 170.476C194.101 171.073 194.424 171.539 194.846 171.873C195.267 172.201 195.78 172.365 196.384 172.365C196.993 172.365 197.509 172.198 197.931 171.864C198.352 171.524 198.672 171.056 198.889 170.458C199.111 169.854 199.223 169.16 199.223 168.375C199.223 167.596 199.114 166.91 198.897 166.318C198.681 165.727 198.361 165.264 197.939 164.93C197.517 164.596 196.999 164.429 196.384 164.429C195.774 164.429 195.259 164.59 194.837 164.912C194.421 165.234 194.101 165.691 193.879 166.283C193.656 166.875 193.545 167.572 193.545 168.375ZM209.391 175.38C208.53 175.38 207.763 175.23 207.089 174.932C206.415 174.627 205.882 174.179 205.489 173.587C205.102 172.989 204.909 172.245 204.909 171.354C204.909 170.604 205.047 169.975 205.322 169.465C205.598 168.955 205.973 168.545 206.447 168.234C206.922 167.924 207.461 167.689 208.064 167.531C208.674 167.373 209.312 167.262 209.98 167.197C210.765 167.115 211.398 167.039 211.879 166.969C212.359 166.893 212.708 166.781 212.925 166.635C213.141 166.488 213.25 166.271 213.25 165.984V165.932C213.25 165.375 213.074 164.944 212.723 164.64C212.377 164.335 211.885 164.183 211.246 164.183C210.572 164.183 210.036 164.332 209.638 164.631C209.239 164.924 208.975 165.293 208.847 165.738L205.384 165.457C205.559 164.637 205.905 163.928 206.421 163.33C206.936 162.727 207.601 162.264 208.416 161.941C209.236 161.613 210.185 161.449 211.264 161.449C212.014 161.449 212.731 161.537 213.417 161.713C214.108 161.889 214.721 162.161 215.254 162.53C215.793 162.899 216.218 163.374 216.528 163.954C216.839 164.528 216.994 165.217 216.994 166.02V175.125H213.443V173.253H213.338C213.121 173.675 212.831 174.047 212.468 174.369C212.104 174.686 211.668 174.935 211.158 175.116C210.648 175.292 210.059 175.38 209.391 175.38ZM210.464 172.796C211.014 172.796 211.501 172.687 211.923 172.471C212.345 172.248 212.676 171.949 212.916 171.574C213.156 171.199 213.276 170.774 213.276 170.3V168.867C213.159 168.943 212.998 169.014 212.793 169.078C212.594 169.137 212.368 169.192 212.116 169.245C211.864 169.292 211.612 169.336 211.36 169.377C211.108 169.412 210.88 169.444 210.675 169.474C210.235 169.538 209.851 169.641 209.523 169.781C209.195 169.922 208.94 170.112 208.759 170.353C208.577 170.587 208.486 170.88 208.486 171.231C208.486 171.741 208.671 172.131 209.04 172.4C209.415 172.664 209.889 172.796 210.464 172.796ZM218.543 164.569V161.625H230.777V164.569H226.427V175.125H222.858V164.569H218.543ZM236.624 170.186L241.485 161.625H245.176V175.125H241.608V166.538L236.765 175.125H233.047V161.625H236.624V170.186ZM248.178 175.125V161.625H253.934C255.598 161.625 256.914 161.941 257.881 162.574C258.848 163.207 259.331 164.106 259.331 165.272C259.331 166.005 259.058 166.614 258.514 167.101C257.969 167.587 257.213 167.915 256.246 168.085C257.055 168.144 257.743 168.328 258.311 168.639C258.886 168.943 259.322 169.339 259.621 169.825C259.926 170.312 260.078 170.851 260.078 171.442C260.078 172.21 259.873 172.869 259.463 173.42C259.058 173.971 258.464 174.393 257.679 174.686C256.899 174.979 255.947 175.125 254.822 175.125H248.178ZM251.667 172.321H254.822C255.344 172.321 255.751 172.198 256.044 171.952C256.343 171.7 256.492 171.357 256.492 170.924C256.492 170.443 256.343 170.065 256.044 169.79C255.751 169.515 255.344 169.377 254.822 169.377H251.667V172.321ZM251.667 167.18H254.014C254.389 167.18 254.708 167.127 254.972 167.021C255.241 166.91 255.446 166.752 255.587 166.547C255.733 166.342 255.806 166.099 255.806 165.817C255.806 165.401 255.639 165.076 255.306 164.842C254.972 164.607 254.514 164.49 253.934 164.49H251.667V167.18ZM271.833 166.881V169.825H264.785V166.881H271.833ZM266.015 161.625V175.125H262.438V161.625H266.015ZM274.18 161.625V175.125H270.629V161.625H274.18ZM279.431 165.773H283.466C285.253 165.773 286.647 166.201 287.649 167.057C288.651 167.906 289.152 169.043 289.152 170.467C289.152 171.393 288.927 172.207 288.475 172.91C288.024 173.607 287.374 174.152 286.524 174.545C285.675 174.932 284.655 175.125 283.466 175.125H277.085V161.625H280.662V172.181H283.466C284.093 172.181 284.608 172.022 285.013 171.706C285.417 171.39 285.622 170.985 285.628 170.493C285.622 169.972 285.417 169.547 285.013 169.219C284.608 168.885 284.093 168.718 283.466 168.718H279.431V165.773ZM290.602 175.125V161.625H294.347V175.125H290.602ZM300.468 161.625L302.947 166.345L305.487 161.625H309.327L305.416 168.375L309.433 175.125H305.61L302.947 170.458L300.327 175.125H296.46L300.468 168.375L296.601 161.625H300.468ZM317.279 175.125V161.625H321.024V166.863H322.078L325.752 161.625H330.147L325.374 168.322L330.199 175.125H325.752L322.421 170.335H321.024V175.125H317.279ZM330.99 175.125L330.973 172.154H331.421C331.737 172.154 332.01 172.078 332.238 171.926C332.473 171.768 332.666 171.513 332.818 171.161C332.971 170.81 333.091 170.344 333.179 169.764C333.267 169.178 333.325 168.457 333.355 167.602L333.574 161.625H343.84V175.125H340.272V164.569H336.941L336.73 168.691C336.677 169.822 336.539 170.795 336.316 171.609C336.1 172.424 335.798 173.092 335.411 173.613C335.025 174.129 334.559 174.51 334.014 174.756C333.469 175.002 332.836 175.125 332.115 175.125H330.99ZM350.32 170.186L355.18 161.625H358.871V175.125H355.303V166.538L350.46 175.125H346.743V161.625H350.32V170.186ZM368.025 175.389C366.637 175.389 365.441 175.107 364.439 174.545C363.443 173.977 362.676 173.174 362.137 172.137C361.598 171.094 361.328 169.86 361.328 168.437C361.328 167.048 361.598 165.829 362.137 164.78C362.676 163.731 363.434 162.914 364.413 162.328C365.397 161.742 366.552 161.449 367.876 161.449C368.766 161.449 369.596 161.593 370.363 161.88C371.137 162.161 371.81 162.586 372.385 163.154C372.965 163.723 373.416 164.437 373.738 165.299C374.06 166.154 374.222 167.156 374.222 168.305V169.333H362.822V167.013H370.697C370.697 166.474 370.58 165.996 370.346 165.58C370.111 165.164 369.786 164.839 369.37 164.604C368.96 164.364 368.482 164.244 367.937 164.244C367.369 164.244 366.865 164.376 366.426 164.64C365.992 164.897 365.652 165.246 365.406 165.686C365.16 166.119 365.034 166.603 365.028 167.136V169.342C365.028 170.01 365.151 170.587 365.397 171.073C365.649 171.56 366.004 171.935 366.461 172.198C366.918 172.462 367.46 172.594 368.087 172.594C368.503 172.594 368.884 172.535 369.229 172.418C369.575 172.301 369.871 172.125 370.117 171.891C370.363 171.656 370.551 171.369 370.68 171.029L374.142 171.258C373.967 172.09 373.606 172.816 373.061 173.437C372.522 174.053 371.825 174.533 370.97 174.879C370.12 175.219 369.139 175.389 368.025 175.389ZM386.06 166.881V169.825H379.012V166.881H386.06ZM380.242 161.625V175.125H376.665V161.625H380.242ZM388.407 161.625V175.125H384.856V161.625H388.407ZM389.956 164.569V161.625H402.191V164.569H397.84V175.125H394.272V164.569H389.956ZM410.077 175.389C408.711 175.389 407.531 175.099 406.535 174.519C405.544 173.933 404.78 173.118 404.241 172.075C403.702 171.026 403.432 169.811 403.432 168.428C403.432 167.033 403.702 165.814 404.241 164.771C404.78 163.723 405.544 162.908 406.535 162.328C407.531 161.742 408.711 161.449 410.077 161.449C411.442 161.449 412.619 161.742 413.61 162.328C414.606 162.908 415.373 163.723 415.912 164.771C416.452 165.814 416.721 167.033 416.721 168.428C416.721 169.811 416.452 171.026 415.912 172.075C415.373 173.118 414.606 173.933 413.61 174.519C412.619 175.099 411.442 175.389 410.077 175.389ZM410.094 172.488C410.715 172.488 411.234 172.312 411.65 171.961C412.066 171.604 412.379 171.117 412.59 170.502C412.807 169.887 412.915 169.187 412.915 168.401C412.915 167.616 412.807 166.916 412.59 166.301C412.379 165.686 412.066 165.199 411.65 164.842C411.234 164.484 410.715 164.306 410.094 164.306C409.467 164.306 408.94 164.484 408.512 164.842C408.09 165.199 407.771 165.686 407.554 166.301C407.343 166.916 407.238 167.616 407.238 168.401C407.238 169.187 407.343 169.887 407.554 170.502C407.771 171.117 408.09 171.604 408.512 171.961C408.94 172.312 409.467 172.488 410.094 172.488ZM419.156 175.125V161.625H424.912C426.577 161.625 427.892 161.941 428.859 162.574C429.826 163.207 430.309 164.106 430.309 165.272C430.309 166.005 430.036 166.614 429.492 167.101C428.947 167.587 428.191 167.915 427.224 168.085C428.033 168.144 428.721 168.328 429.289 168.639C429.864 168.943 430.3 169.339 430.599 169.825C430.904 170.312 431.056 170.851 431.056 171.442C431.056 172.21 430.851 172.869 430.441 173.42C430.036 173.971 429.442 174.393 428.657 174.686C427.877 174.979 426.925 175.125 425.8 175.125H419.156ZM422.645 172.321H425.8C426.322 172.321 426.729 172.198 427.022 171.952C427.321 171.7 427.47 171.357 427.47 170.924C427.47 170.443 427.321 170.065 427.022 169.79C426.729 169.515 426.322 169.377 425.8 169.377H422.645V172.321ZM422.645 167.18H424.992C425.367 167.18 425.686 167.127 425.95 167.021C426.219 166.91 426.424 166.752 426.565 166.547C426.711 166.342 426.785 166.099 426.785 165.817C426.785 165.401 426.618 165.076 426.284 164.842C425.95 164.607 425.493 164.49 424.912 164.49H422.645V167.18Z" fill="#111827"/>
<path d="M60.0545 202.379V200.875H70.5545V202.379H66.1522V214.875H64.4569V202.379H60.0545ZM73.4752 212.496L78.5338 204.375H80.3932V214.875H78.7799V206.754L73.7486 214.875H71.8619V204.375H73.4752V212.496ZM89.0902 212.688L92.7542 204.375H94.2855L89.7464 214.875H88.4339L83.9769 204.375H85.4808L89.0902 212.688ZM84.9613 204.375V214.875H83.348V204.375H84.9613ZM93.2191 214.875V204.375H94.8324V214.875H93.2191ZM105.578 200.438L106.399 201.422C106.08 201.732 105.711 201.948 105.291 202.071C104.872 202.194 104.398 202.27 103.869 202.297C103.341 202.324 102.753 202.352 102.106 202.379C101.377 202.406 100.773 202.584 100.294 202.912C99.8158 203.24 99.4466 203.714 99.1869 204.334C98.9271 204.954 98.7607 205.715 98.6878 206.617H98.8246C99.18 205.961 99.6722 205.478 100.301 205.168C100.93 204.858 101.604 204.703 102.325 204.703C103.145 204.703 103.883 204.895 104.539 205.277C105.196 205.66 105.715 206.228 106.098 206.98C106.481 207.732 106.672 208.659 106.672 209.762C106.672 210.86 106.476 211.808 106.084 212.606C105.697 213.403 105.152 214.018 104.451 214.451C103.753 214.88 102.935 215.094 101.996 215.094C101.058 215.094 100.235 214.873 99.5287 214.431C98.8223 213.984 98.2731 213.323 97.8812 212.448C97.4893 211.569 97.2933 210.482 97.2933 209.188V208.066C97.2933 205.729 97.6898 203.956 98.4828 202.748C99.2803 201.54 100.479 200.916 102.078 200.875C102.644 200.857 103.147 200.852 103.589 200.861C104.031 200.871 104.416 200.85 104.744 200.8C105.073 200.75 105.351 200.629 105.578 200.438ZM101.996 213.645C102.63 213.645 103.174 213.485 103.63 213.166C104.091 212.847 104.444 212.398 104.69 211.819C104.936 211.236 105.059 210.55 105.059 209.762C105.059 208.996 104.934 208.344 104.683 207.807C104.437 207.269 104.084 206.859 103.623 206.576C103.163 206.294 102.612 206.152 101.969 206.152C101.5 206.152 101.078 206.232 100.704 206.392C100.331 206.551 100.012 206.786 99.7474 207.096C99.4831 207.406 99.278 207.784 99.1322 208.231C98.9909 208.677 98.9157 209.188 98.9066 209.762C98.9066 210.938 99.1823 211.879 99.7337 212.585C100.285 213.291 101.039 213.645 101.996 213.645ZM110.753 212.496L115.812 204.375H117.671V214.875H116.058V206.754L111.027 214.875H109.14V204.375H110.753V212.496ZM119.696 214.875V213.371H120.079C120.394 213.371 120.656 213.31 120.865 213.187C121.075 213.059 121.244 212.838 121.371 212.523C121.503 212.204 121.604 211.762 121.672 211.197C121.745 210.628 121.797 209.903 121.829 209.023L122.021 204.375H129.021V214.875H127.407V205.879H123.552L123.388 209.625C123.351 210.486 123.274 211.245 123.155 211.901C123.041 212.553 122.866 213.1 122.629 213.542C122.397 213.984 122.087 214.317 121.699 214.54C121.312 214.763 120.827 214.875 120.243 214.875H119.696ZM130.859 217.883V213.371H131.734C131.949 213.148 132.133 212.906 132.288 212.647C132.443 212.387 132.578 212.079 132.691 211.724C132.81 211.364 132.91 210.926 132.992 210.411C133.074 209.892 133.147 209.265 133.211 208.531L133.566 204.375H140.238V213.371H141.852V217.883H140.238V214.875H132.473V217.883H130.859ZM133.566 213.371H138.625V205.879H135.07L134.797 208.531C134.683 209.63 134.542 210.589 134.373 211.409C134.205 212.23 133.936 212.884 133.566 213.371ZM145.606 212.496L150.665 204.375H152.524V214.875H150.911V206.754L145.88 214.875H143.993V204.375H145.606V212.496ZM162.506 208.887V210.391H156.71V208.887H162.506ZM157.092 204.375V214.875H155.479V204.375H157.092ZM163.737 204.375V214.875H162.124V204.375H163.737ZM173.164 204.375V205.879H168.296V214.875H166.683V204.375H173.164ZM182.546 212.496L187.605 204.375H189.464V214.875H187.851V206.754L182.819 214.875H180.933V204.375H182.546V212.496ZM197.833 214.875V204.375H206.091V214.875H204.477V205.879H199.446V214.875H197.833ZM209.037 218.813V204.375H210.596V206.043H210.787C210.905 205.861 211.069 205.628 211.279 205.346C211.493 205.059 211.799 204.803 212.195 204.58C212.596 204.352 213.139 204.238 213.822 204.238C214.706 204.238 215.486 204.459 216.16 204.901C216.834 205.343 217.361 205.97 217.739 206.781C218.117 207.593 218.306 208.55 218.306 209.652C218.306 210.764 218.117 211.728 217.739 212.544C217.361 213.355 216.837 213.984 216.167 214.431C215.497 214.873 214.724 215.094 213.849 215.094C213.175 215.094 212.635 214.982 212.229 214.759C211.824 214.531 211.512 214.273 211.293 213.986C211.074 213.695 210.905 213.453 210.787 213.262H210.65V218.813H209.037ZM210.623 209.625C210.623 210.418 210.739 211.118 210.972 211.724C211.204 212.325 211.543 212.797 211.99 213.139C212.437 213.476 212.984 213.645 213.631 213.645C214.305 213.645 214.868 213.467 215.319 213.111C215.775 212.751 216.117 212.268 216.345 211.662C216.577 211.051 216.693 210.372 216.693 209.625C216.693 208.887 216.579 208.221 216.351 207.629C216.128 207.032 215.789 206.56 215.333 206.214C214.882 205.863 214.314 205.688 213.631 205.688C212.974 205.688 212.423 205.854 211.976 206.187C211.53 206.515 211.193 206.975 210.965 207.567C210.737 208.155 210.623 208.841 210.623 209.625ZM223.857 215.121C223.192 215.121 222.588 214.996 222.046 214.745C221.503 214.49 221.073 214.123 220.754 213.645C220.435 213.162 220.275 212.578 220.275 211.895C220.275 211.293 220.394 210.805 220.631 210.432C220.868 210.053 221.184 209.757 221.581 209.543C221.977 209.329 222.415 209.169 222.893 209.065C223.376 208.955 223.862 208.869 224.349 208.805C224.987 208.723 225.505 208.661 225.901 208.62C226.302 208.575 226.594 208.499 226.776 208.395C226.963 208.29 227.056 208.107 227.056 207.848V207.793C227.056 207.119 226.872 206.594 226.503 206.221C226.138 205.847 225.584 205.66 224.842 205.66C224.071 205.66 223.468 205.829 223.03 206.166C222.593 206.503 222.285 206.863 222.107 207.246L220.576 206.699C220.849 206.061 221.214 205.565 221.67 205.209C222.13 204.849 222.631 204.598 223.174 204.457C223.721 204.311 224.258 204.238 224.787 204.238C225.124 204.238 225.512 204.279 225.949 204.361C226.391 204.439 226.817 204.601 227.227 204.847C227.642 205.093 227.986 205.464 228.26 205.961C228.533 206.458 228.67 207.123 228.67 207.957V214.875H227.056V213.453H226.974C226.865 213.681 226.683 213.925 226.428 214.185C226.172 214.444 225.833 214.665 225.409 214.848C224.985 215.03 224.468 215.121 223.857 215.121ZM224.103 213.672C224.741 213.672 225.279 213.547 225.717 213.296C226.159 213.045 226.491 212.722 226.715 212.325C226.943 211.929 227.056 211.512 227.056 211.074V209.598C226.988 209.68 226.838 209.755 226.605 209.823C226.377 209.887 226.113 209.944 225.812 209.994C225.516 210.04 225.227 210.081 224.944 210.117C224.666 210.149 224.441 210.176 224.267 210.199C223.848 210.254 223.456 210.343 223.092 210.466C222.732 210.584 222.44 210.764 222.217 211.006C221.998 211.243 221.889 211.566 221.889 211.977C221.889 212.537 222.096 212.961 222.511 213.248C222.93 213.531 223.461 213.672 224.103 213.672ZM230.958 212.195H232.681C232.717 212.669 232.931 213.029 233.323 213.275C233.72 213.522 234.235 213.645 234.868 213.645C235.515 213.645 236.069 213.512 236.529 213.248C236.99 212.979 237.22 212.546 237.22 211.949C237.22 211.598 237.133 211.293 236.96 211.033C236.787 210.769 236.543 210.564 236.229 210.418C235.914 210.272 235.543 210.199 235.114 210.199H233.31V208.75H235.114C235.757 208.75 236.231 208.604 236.536 208.313C236.846 208.021 237.001 207.656 237.001 207.219C237.001 206.749 236.835 206.373 236.502 206.091C236.169 205.804 235.698 205.66 235.087 205.66C234.472 205.66 233.959 205.799 233.549 206.077C233.139 206.351 232.922 206.704 232.899 207.137H231.204C231.222 206.572 231.396 206.073 231.724 205.64C232.052 205.202 232.498 204.86 233.064 204.614C233.629 204.364 234.276 204.238 235.005 204.238C235.743 204.238 236.384 204.368 236.926 204.628C237.473 204.883 237.894 205.232 238.191 205.674C238.491 206.111 238.642 206.608 238.642 207.164C238.642 207.757 238.475 208.235 238.143 208.6C237.81 208.964 237.393 209.224 236.892 209.379V209.488C237.288 209.516 237.632 209.643 237.924 209.871C238.22 210.094 238.45 210.388 238.614 210.753C238.778 211.113 238.86 211.512 238.86 211.949C238.86 212.587 238.69 213.143 238.348 213.617C238.006 214.087 237.537 214.451 236.94 214.711C236.343 214.966 235.661 215.094 234.896 215.094C234.153 215.094 233.487 214.973 232.899 214.732C232.312 214.485 231.844 214.146 231.498 213.713C231.156 213.275 230.976 212.77 230.958 212.195ZM240.005 217.883V213.371H240.88C241.095 213.148 241.279 212.906 241.434 212.647C241.589 212.387 241.724 212.079 241.837 211.724C241.956 211.364 242.056 210.926 242.138 210.411C242.22 209.892 242.293 209.265 242.357 208.531L242.712 204.375H249.384V213.371H250.998V217.883H249.384V214.875H241.619V217.883H240.005ZM242.712 213.371H247.771V205.879H244.216L243.943 208.531C243.829 209.63 243.688 210.589 243.519 211.409C243.35 212.23 243.082 212.884 242.712 213.371ZM260.166 208.887V210.391H254.369V208.887H260.166ZM254.752 204.375V214.875H253.139V204.375H254.752ZM261.397 204.375V214.875H259.784V204.375H261.397ZM265.956 212.496L271.015 204.375H272.874V214.875H271.261V206.754L266.23 214.875H264.343V204.375H265.956V212.496ZM275.829 214.875V204.375H277.442V208.941H278.509L282.282 204.375H284.36L280.122 209.434L284.415 214.875H282.337L278.892 210.445H277.442V214.875H275.829ZM287.782 212.496L292.84 204.375H294.7V214.875H293.087V206.754L288.055 214.875H286.169V204.375H287.782V212.496Z" fill="#64748B"/>
<path d="M69.4376 270.531C74.1838 270.531 78.0314 266.684 78.0314 261.937C78.0314 257.191 74.1838 253.344 69.4376 253.344C64.6914 253.344 60.8439 257.191 60.8439 261.937C60.8439 266.684 64.6914 270.531 69.4376 270.531Z" stroke="#10B981" stroke-width="1.71875" stroke-linecap="round" stroke-linejoin="round"/>
<path d="M66.8593 261.937L68.578 263.656L72.0155 260.219" stroke="#10B981" stroke-width="1.71875" stroke-linecap="round" stroke-linejoin="round"/>
<path d="M103.426 269.25L98.6131 262.824H96.8904V269.25H95.1951V255.25H96.8904V261.32H97.6287L103.234 255.25H105.258L99.5975 261.402L105.449 269.25H103.426ZM110.916 269.469C109.968 269.469 109.136 269.243 108.421 268.792C107.71 268.341 107.154 267.71 106.753 266.898C106.357 266.087 106.158 265.139 106.158 264.055C106.158 262.961 106.357 262.006 106.753 261.19C107.154 260.375 107.71 259.741 108.421 259.29C109.136 258.839 109.968 258.613 110.916 258.613C111.864 258.613 112.693 258.839 113.404 259.29C114.12 259.741 114.676 260.375 115.072 261.19C115.473 262.006 115.674 262.961 115.674 264.055C115.674 265.139 115.473 266.087 115.072 266.898C114.676 267.71 114.12 268.341 113.404 268.792C112.693 269.243 111.864 269.469 110.916 269.469ZM110.916 268.02C111.636 268.02 112.229 267.835 112.693 267.466C113.158 267.097 113.502 266.611 113.726 266.01C113.949 265.408 114.061 264.757 114.061 264.055C114.061 263.353 113.949 262.699 113.726 262.093C113.502 261.487 113.158 260.997 112.693 260.623C112.229 260.249 111.636 260.063 110.916 260.063C110.196 260.063 109.604 260.249 109.139 260.623C108.674 260.997 108.33 261.487 108.107 262.093C107.883 262.699 107.772 263.353 107.772 264.055C107.772 264.757 107.883 265.408 108.107 266.01C108.33 266.611 108.674 267.097 109.139 267.466C109.604 267.835 110.196 268.02 110.916 268.02ZM118.137 273.187V258.75H119.695V260.418H119.887C120.005 260.236 120.169 260.003 120.379 259.721C120.593 259.434 120.898 259.178 121.295 258.955C121.696 258.727 122.238 258.613 122.922 258.613C123.806 258.613 124.585 258.834 125.26 259.276C125.934 259.718 126.46 260.345 126.839 261.156C127.217 261.967 127.406 262.924 127.406 264.027C127.406 265.139 127.217 266.103 126.839 266.919C126.46 267.73 125.936 268.359 125.266 268.806C124.596 269.248 123.824 269.469 122.949 269.469C122.275 269.469 121.735 269.357 121.329 269.134C120.923 268.906 120.611 268.648 120.392 268.361C120.174 268.07 120.005 267.828 119.887 267.637H119.75V273.187H118.137ZM119.722 264C119.722 264.793 119.839 265.493 120.071 266.099C120.304 266.7 120.643 267.172 121.09 267.514C121.536 267.851 122.083 268.02 122.73 268.02C123.405 268.02 123.968 267.842 124.419 267.486C124.874 267.126 125.216 266.643 125.444 266.037C125.677 265.426 125.793 264.747 125.793 264C125.793 263.262 125.679 262.596 125.451 262.004C125.228 261.407 124.888 260.935 124.432 260.589C123.981 260.238 123.414 260.063 122.73 260.063C122.074 260.063 121.523 260.229 121.076 260.562C120.629 260.89 120.292 261.35 120.064 261.942C119.836 262.53 119.722 263.216 119.722 264ZM129.867 269.25V258.75H138.125V269.25H136.512V260.254H131.48V269.25H129.867ZM145.337 269.469C144.389 269.469 143.557 269.243 142.842 268.792C142.131 268.341 141.575 267.71 141.174 266.898C140.777 266.087 140.579 265.139 140.579 264.055C140.579 262.961 140.777 262.006 141.174 261.19C141.575 260.375 142.131 259.741 142.842 259.29C143.557 258.839 144.389 258.613 145.337 258.613C146.285 258.613 147.114 258.839 147.825 259.29C148.541 259.741 149.096 260.375 149.493 261.19C149.894 262.006 150.095 262.961 150.095 264.055C150.095 265.139 149.894 266.087 149.493 266.898C149.096 267.71 148.541 268.341 147.825 268.792C147.114 269.243 146.285 269.469 145.337 269.469ZM145.337 268.02C146.057 268.02 146.649 267.835 147.114 267.466C147.579 267.097 147.923 266.611 148.146 266.01C148.37 265.408 148.481 264.757 148.481 264.055C148.481 263.353 148.37 262.699 148.146 262.093C147.923 261.487 147.579 260.997 147.114 260.623C146.649 260.249 146.057 260.063 145.337 260.063C144.617 260.063 144.024 260.249 143.559 260.623C143.095 260.997 142.75 261.487 142.527 262.093C142.304 262.699 142.192 263.353 142.192 264.055C142.192 264.757 142.304 265.408 142.527 266.01C142.75 266.611 143.095 267.097 143.559 267.466C144.024 267.835 144.617 268.02 145.337 268.02ZM152.557 273.187V258.75H154.116V260.418H154.307C154.426 260.236 154.59 260.003 154.799 259.721C155.014 259.434 155.319 259.178 155.715 258.955C156.116 258.727 156.659 258.613 157.342 258.613C158.226 258.613 159.006 258.834 159.68 259.276C160.355 259.718 160.881 260.345 161.259 261.156C161.638 261.967 161.827 262.924 161.827 264.027C161.827 265.139 161.638 266.103 161.259 266.919C160.881 267.73 160.357 268.359 159.687 268.806C159.017 269.248 158.245 269.469 157.37 269.469C156.695 269.469 156.155 269.357 155.75 269.134C155.344 268.906 155.032 268.648 154.813 268.361C154.594 268.07 154.426 267.828 154.307 267.637H154.17V273.187H152.557ZM154.143 264C154.143 264.793 154.259 265.493 154.492 266.099C154.724 266.7 155.064 267.172 155.51 267.514C155.957 267.851 156.504 268.02 157.151 268.02C157.825 268.02 158.388 267.842 158.839 267.486C159.295 267.126 159.637 266.643 159.865 266.037C160.097 265.426 160.213 264.747 160.213 264C160.213 263.262 160.1 262.596 159.872 262.004C159.648 261.407 159.309 260.935 158.853 260.589C158.402 260.238 157.835 260.063 157.151 260.063C156.495 260.063 155.943 260.229 155.497 260.562C155.05 260.89 154.713 261.35 154.485 261.942C154.257 262.53 154.143 263.216 154.143 264ZM167.377 269.496C166.712 269.496 166.108 269.371 165.566 269.12C165.024 268.865 164.593 268.498 164.274 268.02C163.955 267.536 163.795 266.953 163.795 266.27C163.795 265.668 163.914 265.18 164.151 264.807C164.388 264.428 164.705 264.132 165.101 263.918C165.498 263.704 165.935 263.544 166.414 263.439C166.897 263.33 167.382 263.243 167.87 263.18C168.508 263.098 169.025 263.036 169.421 262.995C169.822 262.95 170.114 262.874 170.296 262.77C170.483 262.665 170.577 262.482 170.577 262.223V262.168C170.577 261.493 170.392 260.969 170.023 260.596C169.658 260.222 169.105 260.035 168.362 260.035C167.592 260.035 166.988 260.204 166.55 260.541C166.113 260.878 165.805 261.238 165.627 261.621L164.096 261.074C164.37 260.436 164.734 259.939 165.19 259.584C165.65 259.224 166.152 258.973 166.694 258.832C167.241 258.686 167.779 258.613 168.307 258.613C168.644 258.613 169.032 258.654 169.469 258.736C169.911 258.814 170.337 258.976 170.748 259.222C171.162 259.468 171.506 259.839 171.78 260.336C172.053 260.833 172.19 261.498 172.19 262.332V269.25H170.577V267.828H170.495C170.385 268.056 170.203 268.3 169.948 268.56C169.693 268.819 169.353 269.04 168.929 269.223C168.505 269.405 167.988 269.496 167.377 269.496ZM167.624 268.047C168.262 268.047 168.799 267.922 169.237 267.671C169.679 267.42 170.012 267.097 170.235 266.7C170.463 266.304 170.577 265.887 170.577 265.449V263.973C170.508 264.055 170.358 264.13 170.126 264.198C169.898 264.262 169.633 264.319 169.333 264.369C169.036 264.415 168.747 264.456 168.464 264.492C168.186 264.524 167.961 264.551 167.788 264.574C167.368 264.629 166.976 264.718 166.612 264.841C166.252 264.959 165.96 265.139 165.737 265.381C165.518 265.618 165.409 265.941 165.409 266.352C165.409 266.912 165.616 267.336 166.031 267.623C166.45 267.906 166.981 268.047 167.624 268.047ZM173.706 260.254V258.75H182.237V260.254H178.792V269.25H177.179V260.254H173.706ZM186.204 266.871L191.262 258.75H193.122V269.25H191.508V261.129L186.477 269.25H184.59V258.75H186.204V266.871ZM196.076 269.25V258.75H200.369C201.5 258.75 202.397 259.005 203.063 259.516C203.728 260.026 204.061 260.701 204.061 261.539C204.061 262.177 203.872 262.672 203.493 263.022C203.115 263.369 202.63 263.604 202.037 263.727C202.425 263.781 202.801 263.918 203.165 264.137C203.534 264.355 203.84 264.656 204.081 265.039C204.323 265.417 204.444 265.882 204.444 266.434C204.444 266.971 204.307 267.452 204.034 267.876C203.76 268.3 203.368 268.635 202.858 268.881C202.347 269.127 201.737 269.25 201.026 269.25H196.076ZM197.608 267.773H201.026C201.582 267.773 202.017 267.641 202.331 267.377C202.646 267.113 202.803 266.753 202.803 266.297C202.803 265.755 202.646 265.328 202.331 265.019C202.017 264.704 201.582 264.547 201.026 264.547H197.608V267.773ZM197.608 263.152H200.369C200.802 263.152 201.174 263.093 201.484 262.975C201.794 262.852 202.031 262.678 202.195 262.455C202.363 262.227 202.448 261.958 202.448 261.648C202.448 261.206 202.263 260.86 201.894 260.609C201.525 260.354 201.017 260.227 200.369 260.227H197.608V263.152ZM213.913 263.262V264.766H208.116V263.262H213.913ZM208.499 258.75V269.25H206.886V258.75H208.499ZM215.144 258.75V269.25H213.53V258.75H215.144ZM219.484 262.551H222.492C223.723 262.551 224.664 262.863 225.315 263.487C225.967 264.112 226.293 264.902 226.293 265.859C226.293 266.488 226.147 267.06 225.856 267.575C225.564 268.086 225.135 268.493 224.57 268.799C224.005 269.1 223.313 269.25 222.492 269.25H218.09V258.75H219.703V267.746H222.492C223.13 267.746 223.654 267.577 224.065 267.24C224.475 266.903 224.68 266.47 224.68 265.941C224.68 265.385 224.475 264.932 224.065 264.581C223.654 264.23 223.13 264.055 222.492 264.055H219.484V262.551ZM227.961 269.25V258.75H229.574V269.25H227.961ZM234.141 266.871L239.199 258.75H241.059V269.25H239.445V261.129L234.414 269.25H232.527V258.75H234.141V266.871ZM238.133 255.25H239.637C239.637 255.988 239.382 256.592 238.871 257.062C238.361 257.531 237.668 257.766 236.793 257.766C235.932 257.766 235.246 257.531 234.735 257.062C234.23 256.592 233.977 255.988 233.977 255.25H235.481C235.481 255.605 235.578 255.918 235.774 256.187C235.975 256.455 236.314 256.59 236.793 256.59C237.272 256.59 237.613 256.455 237.818 256.187C238.028 255.918 238.133 255.605 238.133 255.25ZM257.221 254.813L258.041 255.797C257.722 256.107 257.353 256.323 256.933 256.446C256.514 256.569 256.04 256.645 255.512 256.672C254.983 256.699 254.395 256.727 253.748 256.754C253.019 256.781 252.415 256.959 251.936 257.287C251.458 257.615 251.089 258.089 250.829 258.709C250.569 259.329 250.403 260.09 250.33 260.992H250.467C250.822 260.336 251.314 259.853 251.943 259.543C252.572 259.233 253.247 259.078 253.967 259.078C254.787 259.078 255.525 259.27 256.181 259.652C256.838 260.035 257.357 260.603 257.74 261.354C258.123 262.106 258.314 263.034 258.314 264.137C258.314 265.235 258.118 266.183 257.726 266.98C257.339 267.778 256.794 268.393 256.093 268.826C255.395 269.255 254.577 269.469 253.638 269.469C252.7 269.469 251.877 269.248 251.171 268.806C250.464 268.359 249.915 267.698 249.523 266.823C249.131 265.944 248.935 264.857 248.935 263.563V262.441C248.935 260.104 249.332 258.331 250.125 257.123C250.922 255.915 252.121 255.291 253.721 255.25C254.286 255.232 254.789 255.227 255.231 255.236C255.673 255.245 256.058 255.225 256.387 255.175C256.715 255.125 256.993 255.004 257.221 254.813ZM253.638 268.02C254.272 268.02 254.817 267.86 255.272 267.541C255.733 267.222 256.086 266.773 256.332 266.194C256.578 265.611 256.701 264.925 256.701 264.137C256.701 263.371 256.576 262.719 256.325 262.182C256.079 261.644 255.726 261.234 255.265 260.951C254.805 260.669 254.254 260.527 253.611 260.527C253.142 260.527 252.72 260.607 252.346 260.767C251.973 260.926 251.654 261.161 251.389 261.471C251.125 261.781 250.92 262.159 250.774 262.605C250.633 263.052 250.558 263.563 250.549 264.137C250.549 265.313 250.824 266.254 251.376 266.96C251.927 267.666 252.681 268.02 253.638 268.02ZM260.782 273.187V258.75H262.341V260.418H262.532C262.651 260.236 262.815 260.003 263.024 259.721C263.238 259.434 263.544 259.178 263.94 258.955C264.341 258.727 264.884 258.613 265.567 258.613C266.451 258.613 267.231 258.834 267.905 259.276C268.58 259.718 269.106 260.345 269.484 261.156C269.862 261.967 270.052 262.924 270.052 264.027C270.052 265.139 269.862 266.103 269.484 266.919C269.106 267.73 268.582 268.359 267.912 268.806C267.242 269.248 266.47 269.469 265.595 269.469C264.92 269.469 264.38 269.357 263.974 269.134C263.569 268.906 263.257 268.648 263.038 268.361C262.819 268.07 262.651 267.828 262.532 267.637H262.395V273.187H260.782ZM262.368 264C262.368 264.793 262.484 265.493 262.717 266.099C262.949 266.7 263.289 267.172 263.735 267.514C264.182 267.851 264.729 268.02 265.376 268.02C266.05 268.02 266.613 267.842 267.064 267.486C267.52 267.126 267.862 266.643 268.09 266.037C268.322 265.426 268.438 264.747 268.438 264C268.438 263.262 268.324 262.596 268.096 262.004C267.873 261.407 267.534 260.935 267.078 260.589C266.627 260.238 266.059 260.063 265.376 260.063C264.72 260.063 264.168 260.229 263.721 260.562C263.275 260.89 262.938 261.35 262.71 261.942C262.482 262.53 262.368 263.216 262.368 264ZM276.915 269.469C275.903 269.469 275.03 269.245 274.297 268.799C273.568 268.348 273.005 267.719 272.608 266.912C272.216 266.101 272.02 265.158 272.02 264.082C272.02 263.007 272.216 262.059 272.608 261.238C273.005 260.413 273.556 259.771 274.262 259.311C274.973 258.846 275.803 258.613 276.751 258.613C277.298 258.613 277.838 258.704 278.371 258.887C278.904 259.069 279.389 259.365 279.827 259.775C280.264 260.181 280.613 260.719 280.873 261.389C281.133 262.059 281.262 262.883 281.262 263.863V264.547H273.169V263.152H279.622C279.622 262.56 279.503 262.031 279.266 261.566C279.034 261.102 278.701 260.735 278.268 260.466C277.84 260.197 277.334 260.063 276.751 260.063C276.108 260.063 275.552 260.222 275.083 260.541C274.618 260.855 274.26 261.266 274.01 261.771C273.759 262.277 273.634 262.82 273.634 263.398V264.328C273.634 265.121 273.77 265.793 274.044 266.345C274.322 266.892 274.707 267.309 275.199 267.596C275.691 267.878 276.263 268.02 276.915 268.02C277.339 268.02 277.721 267.96 278.063 267.842C278.41 267.719 278.708 267.536 278.959 267.295C279.209 267.049 279.403 266.743 279.54 266.379L281.098 266.816C280.934 267.345 280.659 267.81 280.271 268.211C279.884 268.607 279.405 268.917 278.836 269.141C278.266 269.359 277.626 269.469 276.915 269.469ZM290.744 263.262V264.766H284.947V263.262H290.744ZM285.33 258.75V269.25H283.717V258.75H285.33ZM291.974 258.75V269.25H290.361V258.75H291.974ZM293.8 272.258V267.746H294.675C294.889 267.523 295.073 267.281 295.228 267.021C295.383 266.762 295.518 266.454 295.632 266.099C295.75 265.739 295.85 265.301 295.932 264.786C296.014 264.267 296.087 263.64 296.151 262.906L296.507 258.75H303.179V267.746H304.792V272.258H303.179V269.25H295.413V272.258H293.8ZM296.507 267.746H301.565V260.254H298.011L297.737 262.906C297.623 264.005 297.482 264.964 297.313 265.784C297.145 266.604 296.876 267.258 296.507 267.746ZM308.546 266.871L313.605 258.75H315.464V269.25H313.851V261.129L308.82 269.25H306.933V258.75H308.546V266.871ZM325.447 263.262V264.766H319.65V263.262H325.447ZM320.033 258.75V269.25H318.419V258.75H320.033ZM326.677 258.75V269.25H325.064V258.75H326.677ZM336.104 258.75V260.254H331.237V269.25H329.623V258.75H336.104Z" fill="#374151"/>
<path d="M69.4377 311.781C74.1839 311.781 78.0315 307.934 78.0315 303.187C78.0315 298.441 74.1839 294.594 69.4377 294.594C64.6915 294.594 60.844 298.441 60.844 303.187C60.844 307.934 64.6915 311.781 69.4377 311.781Z" stroke="#10B981" stroke-width="1.71875" stroke-linecap="round" stroke-linejoin="round"/>
<path d="M66.8594 303.188L68.5781 304.906L72.0156 301.469" stroke="#10B981" stroke-width="1.71875" stroke-linecap="round" stroke-linejoin="round"/>
<path d="M93.9921 313.891V308.996H94.8944C95.2043 308.713 95.496 308.315 95.7694 307.8C96.0474 307.28 96.2821 306.587 96.4735 305.722C96.6695 304.851 96.7994 303.746 96.8632 302.406L97.164 296.5H105.476V308.996H107.09V313.863H105.476V310.5H95.6054V313.891H93.9921ZM96.9179 308.996H103.863V298.004H98.6952L98.4765 302.406C98.4218 303.427 98.3261 304.352 98.1894 305.182C98.0526 306.006 97.8772 306.738 97.663 307.376C97.4488 308.009 97.2004 308.549 96.9179 308.996ZM113.698 310.719C112.75 310.719 111.919 310.493 111.203 310.042C110.492 309.591 109.936 308.96 109.535 308.148C109.139 307.337 108.941 306.389 108.941 305.305C108.941 304.211 109.139 303.256 109.535 302.44C109.936 301.625 110.492 300.991 111.203 300.54C111.919 300.089 112.75 299.863 113.698 299.863C114.646 299.863 115.476 300.089 116.187 300.54C116.902 300.991 117.458 301.625 117.855 302.44C118.256 303.256 118.456 304.211 118.456 305.305C118.456 306.389 118.256 307.337 117.855 308.148C117.458 308.96 116.902 309.591 116.187 310.042C115.476 310.493 114.646 310.719 113.698 310.719ZM113.698 309.269C114.418 309.269 115.011 309.085 115.476 308.716C115.941 308.347 116.285 307.861 116.508 307.26C116.731 306.658 116.843 306.006 116.843 305.305C116.843 304.603 116.731 303.949 116.508 303.343C116.285 302.737 115.941 302.247 115.476 301.873C115.011 301.499 114.418 301.312 113.698 301.312C112.978 301.312 112.386 301.499 111.921 301.873C111.456 302.247 111.112 302.737 110.889 303.343C110.666 303.949 110.554 304.603 110.554 305.305C110.554 306.006 110.666 306.658 110.889 307.26C111.112 307.861 111.456 308.347 111.921 308.716C112.386 309.085 112.978 309.269 113.698 309.269ZM126.306 310.5V309.269L130.927 304.211C131.469 303.618 131.916 303.103 132.267 302.666C132.617 302.224 132.877 301.809 133.046 301.422C133.219 301.03 133.306 300.62 133.306 300.191C133.306 299.699 133.187 299.273 132.95 298.913C132.718 298.553 132.399 298.275 131.993 298.079C131.587 297.883 131.132 297.785 130.626 297.785C130.088 297.785 129.619 297.897 129.218 298.12C128.821 298.339 128.514 298.646 128.295 299.043C128.081 299.439 127.974 299.904 127.974 300.437H126.36C126.36 299.617 126.549 298.897 126.928 298.277C127.306 297.657 127.821 297.174 128.473 296.828C129.129 296.482 129.865 296.308 130.681 296.308C131.501 296.308 132.228 296.482 132.861 296.828C133.495 297.174 133.991 297.641 134.351 298.229C134.711 298.817 134.892 299.471 134.892 300.191C134.892 300.706 134.798 301.21 134.611 301.702C134.429 302.19 134.11 302.734 133.654 303.336C133.203 303.933 132.576 304.662 131.774 305.523L128.63 308.887V308.996H135.138V310.5H126.306ZM142.527 310.691C141.497 310.691 140.62 310.411 139.895 309.85C139.171 309.285 138.617 308.467 138.234 307.396C137.851 306.321 137.66 305.022 137.66 303.5C137.66 301.987 137.851 300.695 138.234 299.624C138.622 298.548 139.178 297.728 139.902 297.163C140.631 296.593 141.506 296.308 142.527 296.308C143.548 296.308 144.421 296.593 145.145 297.163C145.875 297.728 146.431 298.548 146.813 299.624C147.201 300.695 147.394 301.987 147.394 303.5C147.394 305.022 147.203 306.321 146.82 307.396C146.437 308.467 145.884 309.285 145.159 309.85C144.434 310.411 143.557 310.691 142.527 310.691ZM142.527 309.187C143.548 309.187 144.341 308.695 144.906 307.711C145.471 306.726 145.754 305.323 145.754 303.5C145.754 302.288 145.624 301.255 145.364 300.403C145.109 299.551 144.74 298.902 144.257 298.455C143.778 298.008 143.202 297.785 142.527 297.785C141.516 297.785 140.725 298.284 140.155 299.282C139.586 300.276 139.301 301.682 139.301 303.5C139.301 304.712 139.428 305.742 139.683 306.59C139.939 307.437 140.306 308.082 140.784 308.524C141.267 308.966 141.848 309.187 142.527 309.187ZM156.473 314.437C156.199 314.437 155.955 314.415 155.741 314.369C155.527 314.328 155.379 314.287 155.297 314.246L155.707 312.824C156.099 312.924 156.445 312.961 156.746 312.933C157.047 312.906 157.313 312.772 157.546 312.53C157.783 312.293 157.999 311.908 158.195 311.375L158.496 310.555L154.613 300H156.363L159.262 308.367H159.371L162.269 300H164.019L159.562 312.031C159.362 312.573 159.114 313.022 158.817 313.378C158.521 313.738 158.177 314.004 157.785 314.178C157.398 314.351 156.96 314.437 156.473 314.437ZM173.923 300V310.5H172.31V300H173.923ZM173.294 305.004V306.508C172.93 306.644 172.567 306.765 172.207 306.87C171.847 306.97 171.469 307.05 171.072 307.109C170.676 307.164 170.241 307.191 169.767 307.191C168.577 307.191 167.623 306.87 166.902 306.227C166.187 305.585 165.829 304.621 165.829 303.336V299.973H167.443V303.336C167.443 303.874 167.545 304.316 167.75 304.662C167.955 305.008 168.233 305.266 168.584 305.434C168.935 305.603 169.329 305.687 169.767 305.687C170.45 305.687 171.068 305.626 171.619 305.503C172.175 305.375 172.734 305.209 173.294 305.004ZM179.973 310.746C179.307 310.746 178.704 310.621 178.161 310.37C177.619 310.115 177.188 309.748 176.869 309.269C176.55 308.786 176.391 308.203 176.391 307.519C176.391 306.918 176.509 306.43 176.746 306.057C176.983 305.678 177.3 305.382 177.696 305.168C178.093 304.954 178.53 304.794 179.009 304.689C179.492 304.58 179.977 304.493 180.465 304.43C181.103 304.348 181.62 304.286 182.017 304.245C182.418 304.199 182.709 304.124 182.892 304.019C183.079 303.915 183.172 303.732 183.172 303.473V303.418C183.172 302.743 182.987 302.219 182.618 301.846C182.254 301.472 181.7 301.285 180.957 301.285C180.187 301.285 179.583 301.454 179.146 301.791C178.708 302.128 178.401 302.488 178.223 302.871L176.692 302.324C176.965 301.686 177.33 301.189 177.785 300.834C178.246 300.474 178.747 300.223 179.289 300.082C179.836 299.936 180.374 299.863 180.902 299.863C181.24 299.863 181.627 299.904 182.065 299.986C182.507 300.064 182.933 300.225 183.343 300.472C183.758 300.718 184.102 301.089 184.375 301.586C184.649 302.083 184.785 302.748 184.785 303.582V310.5H183.172V309.078H183.09C182.981 309.306 182.798 309.55 182.543 309.809C182.288 310.069 181.948 310.29 181.525 310.473C181.101 310.655 180.583 310.746 179.973 310.746ZM180.219 309.297C180.857 309.297 181.395 309.171 181.832 308.921C182.274 308.67 182.607 308.347 182.83 307.95C183.058 307.554 183.172 307.137 183.172 306.699V305.223C183.104 305.305 182.953 305.38 182.721 305.448C182.493 305.512 182.229 305.569 181.928 305.619C181.632 305.665 181.342 305.706 181.06 305.742C180.782 305.774 180.556 305.801 180.383 305.824C179.964 305.879 179.572 305.968 179.207 306.091C178.847 306.209 178.555 306.389 178.332 306.631C178.113 306.868 178.004 307.191 178.004 307.601C178.004 308.162 178.211 308.586 178.626 308.873C179.045 309.155 179.576 309.297 180.219 309.297ZM191.996 310.719C191.011 310.719 190.163 310.486 189.453 310.021C188.742 309.557 188.195 308.916 187.812 308.1C187.429 307.285 187.238 306.353 187.238 305.305C187.238 304.238 187.434 303.297 187.826 302.481C188.222 301.661 188.774 301.021 189.48 300.56C190.191 300.096 191.02 299.863 191.968 299.863C192.706 299.863 193.372 300 193.964 300.273C194.557 300.547 195.042 300.93 195.42 301.422C195.799 301.914 196.033 302.488 196.124 303.144H194.511C194.388 302.666 194.115 302.242 193.691 301.873C193.272 301.499 192.706 301.312 191.996 301.312C191.367 301.312 190.815 301.476 190.341 301.805C189.872 302.128 189.505 302.586 189.241 303.179C188.981 303.766 188.851 304.457 188.851 305.25C188.851 306.061 188.979 306.767 189.234 307.369C189.494 307.971 189.858 308.438 190.328 308.77C190.801 309.103 191.357 309.269 191.996 309.269C192.415 309.269 192.795 309.196 193.137 309.051C193.479 308.905 193.768 308.695 194.005 308.422C194.242 308.148 194.411 307.82 194.511 307.437H196.124C196.033 308.057 195.808 308.615 195.448 309.112C195.092 309.604 194.621 309.996 194.033 310.288C193.449 310.575 192.77 310.719 191.996 310.719ZM197.656 301.504V300H206.187V301.504H202.742V310.5H201.128V301.504H197.656ZM215.568 304.512V306.016H209.771V304.512H215.568ZM210.153 300V310.5H208.54V300H210.153ZM216.798 300V310.5H215.185V300H216.798ZM221.358 308.121L226.416 300H228.276V310.5H226.662V302.379L221.631 310.5H219.744V300H221.358V308.121ZM231.23 310.5V300H232.844V304.566H233.91L237.683 300H239.762L235.523 305.058L239.816 310.5H237.738L234.293 306.07H232.844V310.5H231.23ZM245.403 310.719C244.455 310.719 243.623 310.493 242.908 310.042C242.197 309.591 241.641 308.96 241.24 308.148C240.843 307.337 240.645 306.389 240.645 305.305C240.645 304.211 240.843 303.256 241.24 302.44C241.641 301.625 242.197 300.991 242.908 300.54C243.623 300.089 244.455 299.863 245.403 299.863C246.351 299.863 247.18 300.089 247.891 300.54C248.607 300.991 249.163 301.625 249.559 302.44C249.96 303.256 250.161 304.211 250.161 305.305C250.161 306.389 249.96 307.337 249.559 308.148C249.163 308.96 248.607 309.591 247.891 310.042C247.18 310.493 246.351 310.719 245.403 310.719ZM245.403 309.269C246.123 309.269 246.715 309.085 247.18 308.716C247.645 308.347 247.989 307.861 248.213 307.26C248.436 306.658 248.548 306.006 248.548 305.305C248.548 304.603 248.436 303.949 248.213 303.343C247.989 302.737 247.645 302.247 247.18 301.873C246.715 301.499 246.123 301.312 245.403 301.312C244.683 301.312 244.09 301.499 243.626 301.873C243.161 302.247 242.817 302.737 242.593 303.343C242.37 303.949 242.258 304.603 242.258 305.305C242.258 306.006 242.37 306.658 242.593 307.26C242.817 307.861 243.161 308.347 243.626 308.716C244.09 309.085 244.683 309.269 245.403 309.269ZM252.623 310.5V300H256.916C258.047 300 258.944 300.255 259.61 300.766C260.275 301.276 260.608 301.95 260.608 302.789C260.608 303.427 260.419 303.921 260.04 304.272C259.662 304.619 259.177 304.853 258.584 304.976C258.972 305.031 259.348 305.168 259.712 305.387C260.081 305.605 260.387 305.906 260.628 306.289C260.87 306.667 260.991 307.132 260.991 307.683C260.991 308.221 260.854 308.702 260.58 309.126C260.307 309.55 259.915 309.885 259.405 310.131C258.894 310.377 258.284 310.5 257.573 310.5H252.623ZM254.155 309.023H257.573C258.129 309.023 258.564 308.891 258.878 308.627C259.193 308.363 259.35 308.002 259.35 307.547C259.35 307.004 259.193 306.578 258.878 306.268C258.564 305.954 258.129 305.797 257.573 305.797H254.155V309.023ZM254.155 304.402H256.916C257.349 304.402 257.721 304.343 258.031 304.224C258.341 304.101 258.578 303.928 258.742 303.705C258.91 303.477 258.995 303.208 258.995 302.898C258.995 302.456 258.81 302.11 258.441 301.859C258.072 301.604 257.564 301.476 256.916 301.476H254.155V304.402Z" fill="#374151"/>
<path d="M69.4377 353.031C74.1839 353.031 78.0315 349.184 78.0315 344.437C78.0315 339.691 74.1839 335.844 69.4377 335.844C64.6915 335.844 60.844 339.691 60.844 344.437C60.844 349.184 64.6915 353.031 69.4377 353.031Z" stroke="#10B981" stroke-width="1.71875" stroke-linecap="round" stroke-linejoin="round"/>
<path d="M66.8594 344.437L68.5781 346.156L72.0156 342.719" stroke="#10B981" stroke-width="1.71875" stroke-linecap="round" stroke-linejoin="round"/>
<path d="M106.461 342.125H104.766C104.665 341.637 104.49 341.209 104.239 340.84C103.993 340.471 103.692 340.161 103.337 339.91C102.986 339.655 102.596 339.463 102.168 339.336C101.739 339.208 101.293 339.144 100.828 339.144C99.9804 339.144 99.2125 339.359 98.5243 339.787C97.8407 340.215 97.2961 340.847 96.8905 341.681C96.4895 342.515 96.289 343.538 96.289 344.75C96.289 345.962 96.4895 346.985 96.8905 347.819C97.2961 348.653 97.8407 349.284 98.5243 349.713C99.2125 350.141 99.9804 350.355 100.828 350.355C101.293 350.355 101.739 350.292 102.168 350.164C102.596 350.036 102.986 349.847 103.337 349.597C103.692 349.341 103.993 349.029 104.239 348.66C104.49 348.286 104.665 347.858 104.766 347.375H106.461C106.333 348.09 106.101 348.731 105.764 349.296C105.426 349.861 105.007 350.342 104.506 350.738C104.004 351.13 103.442 351.429 102.817 351.634C102.197 351.839 101.534 351.941 100.828 351.941C99.634 351.941 98.5722 351.65 97.6425 351.066C96.7128 350.483 95.9814 349.654 95.4482 348.578C94.9149 347.503 94.6483 346.227 94.6483 344.75C94.6483 343.273 94.9149 341.997 95.4482 340.922C95.9814 339.846 96.7128 339.017 97.6425 338.434C98.5722 337.85 99.634 337.559 100.828 337.559C101.534 337.559 102.197 337.661 102.817 337.866C103.442 338.071 104.004 338.372 104.506 338.768C105.007 339.16 105.426 339.639 105.764 340.204C106.101 340.765 106.333 341.405 106.461 342.125ZM108.38 342.754V341.25H116.911V342.754H113.466V351.75H111.853V342.754H108.38ZM121.809 351.996C121.144 351.996 120.54 351.871 119.998 351.62C119.455 351.365 119.025 350.998 118.706 350.519C118.387 350.036 118.227 349.453 118.227 348.769C118.227 348.168 118.346 347.68 118.583 347.307C118.82 346.928 119.136 346.632 119.533 346.418C119.929 346.204 120.367 346.044 120.845 345.939C121.328 345.83 121.814 345.743 122.301 345.68C122.939 345.598 123.457 345.536 123.853 345.495C124.254 345.449 124.546 345.374 124.728 345.269C124.915 345.165 125.008 344.982 125.008 344.723V344.668C125.008 343.993 124.824 343.469 124.455 343.096C124.09 342.722 123.536 342.535 122.794 342.535C122.023 342.535 121.42 342.704 120.982 343.041C120.545 343.378 120.237 343.738 120.059 344.121L118.528 343.574C118.801 342.936 119.166 342.439 119.622 342.084C120.082 341.724 120.583 341.473 121.126 341.332C121.673 341.186 122.21 341.113 122.739 341.113C123.076 341.113 123.464 341.154 123.901 341.236C124.343 341.314 124.769 341.476 125.179 341.722C125.594 341.968 125.938 342.339 126.212 342.836C126.485 343.333 126.622 343.998 126.622 344.832V351.75H125.008V350.328H124.926C124.817 350.556 124.635 350.8 124.38 351.06C124.124 351.319 123.785 351.54 123.361 351.723C122.937 351.905 122.42 351.996 121.809 351.996ZM122.055 350.547C122.693 350.547 123.231 350.421 123.669 350.171C124.111 349.92 124.443 349.597 124.667 349.2C124.895 348.804 125.008 348.387 125.008 347.949V346.473C124.94 346.555 124.79 346.63 124.557 346.698C124.329 346.762 124.065 346.819 123.764 346.869C123.468 346.915 123.179 346.956 122.896 346.992C122.618 347.024 122.393 347.051 122.219 347.074C121.8 347.129 121.408 347.218 121.044 347.341C120.684 347.459 120.392 347.639 120.169 347.881C119.95 348.118 119.84 348.441 119.84 348.852C119.84 349.412 120.048 349.836 120.463 350.123C120.882 350.406 121.413 350.547 122.055 350.547ZM128.138 342.754V341.25H136.669V342.754H133.224V351.75H131.61V342.754H128.138ZM140.635 349.371L145.694 341.25H147.553V351.75H145.94V343.629L140.909 351.75H139.022V341.25H140.635V349.371ZM154.774 351.969C153.789 351.969 152.942 351.736 152.231 351.271C151.52 350.807 150.973 350.166 150.59 349.351C150.207 348.535 150.016 347.603 150.016 346.555C150.016 345.488 150.212 344.547 150.604 343.731C151 342.911 151.552 342.271 152.258 341.81C152.969 341.346 153.799 341.113 154.746 341.113C155.485 341.113 156.15 341.25 156.743 341.523C157.335 341.797 157.82 342.18 158.199 342.672C158.577 343.164 158.812 343.738 158.903 344.394H157.289C157.166 343.916 156.893 343.492 156.469 343.123C156.05 342.749 155.485 342.562 154.774 342.562C154.145 342.562 153.593 342.727 153.12 343.055C152.65 343.378 152.283 343.836 152.019 344.429C151.759 345.017 151.629 345.707 151.629 346.5C151.629 347.311 151.757 348.018 152.012 348.619C152.272 349.221 152.636 349.688 153.106 350.02C153.58 350.353 154.136 350.519 154.774 350.519C155.193 350.519 155.574 350.447 155.915 350.301C156.257 350.155 156.547 349.945 156.784 349.672C157.021 349.398 157.189 349.07 157.289 348.687H158.903C158.812 349.307 158.586 349.865 158.226 350.362C157.871 350.854 157.399 351.246 156.811 351.538C156.228 351.825 155.549 351.969 154.774 351.969ZM160.434 342.754V341.25H168.965V342.754H165.52V351.75H163.907V342.754H160.434ZM172.932 349.371L177.99 341.25H179.85V351.75H178.236V343.629L173.205 351.75H171.319V341.25H172.932V349.371ZM182.805 351.75V341.25H184.418V345.816H185.484L189.258 341.25H191.336L187.098 346.309L191.391 351.75H189.312L185.867 347.32H184.418V351.75H182.805ZM196.234 351.996C195.568 351.996 194.965 351.871 194.422 351.62C193.88 351.365 193.449 350.998 193.13 350.519C192.811 350.036 192.652 349.453 192.652 348.769C192.652 348.168 192.77 347.68 193.007 347.307C193.244 346.928 193.561 346.632 193.957 346.418C194.354 346.204 194.791 346.044 195.27 345.939C195.753 345.83 196.238 345.743 196.726 345.68C197.364 345.598 197.881 345.536 198.278 345.495C198.679 345.449 198.97 345.374 199.153 345.269C199.34 345.165 199.433 344.982 199.433 344.723V344.668C199.433 343.993 199.248 343.469 198.879 343.096C198.515 342.722 197.961 342.535 197.218 342.535C196.448 342.535 195.844 342.704 195.407 343.041C194.969 343.378 194.662 343.738 194.484 344.121L192.953 343.574C193.226 342.936 193.591 342.439 194.046 342.084C194.507 341.724 195.008 341.473 195.55 341.332C196.097 341.186 196.635 341.113 197.163 341.113C197.501 341.113 197.888 341.154 198.326 341.236C198.768 341.314 199.194 341.476 199.604 341.722C200.019 341.968 200.363 342.339 200.636 342.836C200.91 343.333 201.046 343.998 201.046 344.832V351.75H199.433V350.328H199.351C199.242 350.556 199.059 350.8 198.804 351.06C198.549 351.319 198.209 351.54 197.786 351.723C197.362 351.905 196.844 351.996 196.234 351.996ZM196.48 350.547C197.118 350.547 197.656 350.421 198.093 350.171C198.535 349.92 198.868 349.597 199.091 349.2C199.319 348.804 199.433 348.387 199.433 347.949V346.473C199.365 346.555 199.214 346.63 198.982 346.698C198.754 346.762 198.49 346.819 198.189 346.869C197.893 346.915 197.603 346.956 197.321 346.992C197.043 347.024 196.817 347.051 196.644 347.074C196.225 347.129 195.833 347.218 195.468 347.341C195.108 347.459 194.816 347.639 194.593 347.881C194.374 348.118 194.265 348.441 194.265 348.852C194.265 349.412 194.472 349.836 194.887 350.123C195.306 350.406 195.837 350.547 196.48 350.547ZM211.018 349.371L216.077 341.25H217.936V351.75H216.323V343.629L211.292 351.75H209.405V341.25H211.018V349.371ZM229.395 351.996C228.73 351.996 228.126 351.871 227.583 351.62C227.041 351.365 226.61 350.998 226.291 350.519C225.972 350.036 225.813 349.453 225.813 348.769C225.813 348.168 225.931 347.68 226.168 347.307C226.405 346.928 226.722 346.632 227.119 346.418C227.515 346.204 227.953 346.044 228.431 345.939C228.914 345.83 229.399 345.743 229.887 345.68C230.525 345.598 231.042 345.536 231.439 345.495C231.84 345.449 232.132 345.374 232.314 345.269C232.501 345.165 232.594 344.982 232.594 344.723V344.668C232.594 343.993 232.41 343.469 232.04 343.096C231.676 342.722 231.122 342.535 230.379 342.535C229.609 342.535 229.005 342.704 228.568 343.041C228.13 343.378 227.823 343.738 227.645 344.121L226.114 343.574C226.387 342.936 226.752 342.439 227.207 342.084C227.668 341.724 228.169 341.473 228.711 341.332C229.258 341.186 229.796 341.113 230.325 341.113C230.662 341.113 231.049 341.154 231.487 341.236C231.929 341.314 232.355 341.476 232.765 341.722C233.18 341.968 233.524 342.339 233.797 342.836C234.071 343.333 234.207 343.998 234.207 344.832V351.75H232.594V350.328H232.512C232.403 350.556 232.22 350.8 231.965 351.06C231.71 351.319 231.37 351.54 230.947 351.723C230.523 351.905 230.006 351.996 229.395 351.996ZM229.641 350.547C230.279 350.547 230.817 350.421 231.254 350.171C231.696 349.92 232.029 349.597 232.252 349.2C232.48 348.804 232.594 348.387 232.594 347.949V346.473C232.526 346.555 232.375 346.63 232.143 346.698C231.915 346.762 231.651 346.819 231.35 346.869C231.054 346.915 230.764 346.956 230.482 346.992C230.204 347.024 229.978 347.051 229.805 347.074C229.386 347.129 228.994 347.218 228.629 347.341C228.269 347.459 227.978 347.639 227.754 347.881C227.536 348.118 227.426 348.441 227.426 348.852C227.426 349.412 227.634 349.836 228.048 350.123C228.468 350.406 228.998 350.547 229.641 350.547ZM244.179 345.762V347.266H238.382V345.762H244.179ZM238.765 341.25V351.75H237.152V341.25H238.765ZM245.41 341.25V351.75H243.797V341.25H245.41ZM251.446 351.996C250.781 351.996 250.177 351.871 249.634 351.62C249.092 351.365 248.661 350.998 248.342 350.519C248.023 350.036 247.864 349.453 247.864 348.769C247.864 348.168 247.982 347.68 248.219 347.307C248.456 346.928 248.773 346.632 249.17 346.418C249.566 346.204 250.004 346.044 250.482 345.939C250.965 345.83 251.45 345.743 251.938 345.68C252.576 345.598 253.093 345.536 253.49 345.495C253.891 345.449 254.183 345.374 254.365 345.269C254.552 345.165 254.645 344.982 254.645 344.723V344.668C254.645 343.993 254.461 343.469 254.091 343.096C253.727 342.722 253.173 342.535 252.43 342.535C251.66 342.535 251.056 342.704 250.619 343.041C250.181 343.378 249.874 343.738 249.696 344.121L248.165 343.574C248.438 342.936 248.803 342.439 249.258 342.084C249.719 341.724 250.22 341.473 250.762 341.332C251.309 341.186 251.847 341.113 252.376 341.113C252.713 341.113 253.1 341.154 253.538 341.236C253.98 341.314 254.406 341.476 254.816 341.722C255.231 341.968 255.575 342.339 255.848 342.836C256.122 343.333 256.258 343.998 256.258 344.832V351.75H254.645V350.328H254.563C254.454 350.556 254.271 350.8 254.016 351.06C253.761 351.319 253.422 351.54 252.998 351.723C252.574 351.905 252.057 351.996 251.446 351.996ZM251.692 350.547C252.33 350.547 252.868 350.421 253.305 350.171C253.747 349.92 254.08 349.597 254.303 349.2C254.531 348.804 254.645 348.387 254.645 347.949V346.473C254.577 346.555 254.426 346.63 254.194 346.698C253.966 346.762 253.702 346.819 253.401 346.869C253.105 346.915 252.815 346.956 252.533 346.992C252.255 347.024 252.029 347.051 251.856 347.074C251.437 347.129 251.045 347.218 250.68 347.341C250.32 347.459 250.029 347.639 249.805 347.881C249.587 348.118 249.477 348.441 249.477 348.852C249.477 349.412 249.685 349.836 250.099 350.123C250.519 350.406 251.049 350.547 251.692 350.547ZM258.273 351.75V350.246H258.656C258.971 350.246 259.233 350.185 259.442 350.061C259.652 349.934 259.821 349.713 259.948 349.398C260.08 349.079 260.181 348.637 260.249 348.072C260.322 347.503 260.374 346.778 260.406 345.898L260.598 341.25H267.598V351.75H265.984V342.754H262.129L261.965 346.5C261.928 347.361 261.851 348.12 261.732 348.776C261.618 349.428 261.443 349.975 261.206 350.417C260.974 350.859 260.664 351.192 260.276 351.415C259.889 351.638 259.404 351.75 258.82 351.75H258.273ZM272.171 349.371L277.229 341.25H279.089V351.75H277.475V343.629L272.444 351.75H270.558V341.25H272.171V349.371ZM280.615 342.754V341.25H289.146V342.754H285.701V351.75H284.088V342.754H280.615ZM293.113 349.371L298.171 341.25H300.031V351.75H298.417V343.629L293.386 351.75H291.499V341.25H293.113V349.371ZM302.985 351.75V341.25H304.599V345.816H305.665L309.439 341.25H311.517L307.278 346.309L311.571 351.75H309.493L306.048 347.32H304.599V351.75H302.985ZM316.415 351.996C315.749 351.996 315.145 351.871 314.603 351.62C314.061 351.365 313.63 350.998 313.311 350.519C312.992 350.036 312.833 349.453 312.833 348.769C312.833 348.168 312.951 347.68 313.188 347.307C313.425 346.928 313.742 346.632 314.138 346.418C314.535 346.204 314.972 346.044 315.451 345.939C315.934 345.83 316.419 345.743 316.907 345.68C317.545 345.598 318.062 345.536 318.459 345.495C318.86 345.449 319.151 345.374 319.334 345.269C319.52 345.165 319.614 344.982 319.614 344.723V344.668C319.614 343.993 319.429 343.469 319.06 343.096C318.696 342.722 318.142 342.535 317.399 342.535C316.629 342.535 316.025 342.704 315.588 343.041C315.15 343.378 314.842 343.738 314.665 344.121L313.133 343.574C313.407 342.936 313.771 342.439 314.227 342.084C314.687 341.724 315.189 341.473 315.731 341.332C316.278 341.186 316.816 341.113 317.344 341.113C317.682 341.113 318.069 341.154 318.506 341.236C318.949 341.314 319.375 341.476 319.785 341.722C320.2 341.968 320.544 342.339 320.817 342.836C321.09 343.333 321.227 343.998 321.227 344.832V351.75H319.614V350.328H319.532C319.422 350.556 319.24 350.8 318.985 351.06C318.73 351.319 318.39 351.54 317.966 351.723C317.543 351.905 317.025 351.996 316.415 351.996ZM316.661 350.547C317.299 350.547 317.837 350.421 318.274 350.171C318.716 349.92 319.049 349.597 319.272 349.2C319.5 348.804 319.614 348.387 319.614 347.949V346.473C319.546 346.555 319.395 346.63 319.163 346.698C318.935 346.762 318.671 346.819 318.37 346.869C318.074 346.915 317.784 346.956 317.502 346.992C317.224 347.024 316.998 347.051 316.825 347.074C316.406 347.129 316.014 347.218 315.649 347.341C315.289 347.459 314.997 347.639 314.774 347.881C314.555 348.118 314.446 348.441 314.446 348.852C314.446 349.412 314.653 349.836 315.068 350.123C315.487 350.406 316.018 350.547 316.661 350.547Z" fill="#374151"/>
</g>
<defs>
<filter id="filter0_d_132_43" x="1.90735e-06" y="1.90735e-06" width="544.5" height="464.75" filterUnits="userSpaceOnUse" color-interpolation-filters="sRGB">
<feFlood flood-opacity="0" result="BackgroundImageFix"/>
<feColorMatrix in="SourceAlpha" type="matrix" values="0 0 0 0 0 0 0 0 0 0 0 0 0 0 0 0 0 0 127 0" result="hardAlpha"/>
<feOffset dy="5.5"/>
<feGaussianBlur stdDeviation="9.625"/>
<feComposite in2="hardAlpha" operator="out"/>
<feColorMatrix type="matrix" values="0 0 0 0 0.180392 0 0 0 0 0.407843 0 0 0 0 0.960784 0 0 0 0.12 0"/>
<feBlend mode="normal" in2="BackgroundImageFix" result="effect1_dropShadow_132_43"/>
<feBlend mode="normal" in="SourceGraphic" in2="effect1_dropShadow_132_43" result="shape"/>
</filter>
</defs>
</svg>
