<svg width="545" height="465" viewBox="0 0 545 465" fill="none" xmlns="http://www.w3.org/2000/svg">
<g filter="url(#filter0_d_132_69)">
<rect x="19.25" y="13.75" width="506" height="426.25" rx="22" fill="white" fill-opacity="0.72" shape-rendering="crispEdges"/>
<rect x="19.9375" y="14.4375" width="504.625" height="424.875" rx="21.3125" stroke="white" stroke-opacity="0.6" stroke-width="1.375" shape-rendering="crispEdges"/>
<rect x="59.1252" y="53.625" width="66" height="66" rx="16.5" fill="#F59E0B" fill-opacity="0.094"/>
<rect x="59.8127" y="54.3125" width="64.625" height="64.625" rx="15.8125" stroke="#F59E0B" stroke-opacity="0.19" stroke-width="1.375"/>
<path d="M90.8644 81.0803L83.3095 91.4031C83.1317 91.646 83.0467 91.9444 83.0698 92.2445C83.0929 92.5445 83.2227 92.8264 83.4355 93.0392L84.4653 94.0702C84.6813 94.2859 84.9682 94.4159 85.2728 94.4361C85.5774 94.4563 85.8789 94.3652 86.1215 94.1798L96.0195 86.6249" stroke="#F59E0B" stroke-width="2.52083" stroke-linecap="round" stroke-linejoin="round"/>
<path d="M97.7967 98.1882C96.5363 97.3387 95.1145 96.7085 93.3852 96.7085C90.7913 96.7085 88.4343 99.678 85.8227 99.2293C83.2112 98.7806 82.3251 94.983 83.9321 93.5574" stroke="#F59E0B" stroke-width="2.52083" stroke-linecap="round" stroke-linejoin="round"/>
<path d="M97.1666 86.625C100.647 86.625 103.469 83.8035 103.469 80.323C103.469 76.8424 100.647 74.0209 97.1666 74.0209C93.6861 74.0209 90.8646 76.8424 90.8646 80.323C90.8646 83.8035 93.6861 86.625 97.1666 86.625Z" stroke="#F59E0B" stroke-width="2.52083" stroke-linecap="round" stroke-linejoin="round"/>
<path d="M59.7141 179.467V172.093H60.9357C61.3517 171.794 61.7326 171.372 62.0783 170.827C62.424 170.276 62.7199 169.518 62.966 168.551C63.2121 167.578 63.3879 166.307 63.4933 164.736L64.0031 157.125H75.9123V172.093H77.881V179.449H74.2248V175.125H63.3703V179.467H59.7141ZM65.3303 172.093H72.256V160.263H67.4308L67.1496 164.736C67.0734 165.926 66.9474 166.98 66.7717 167.9C66.6017 168.82 66.3937 169.626 66.1476 170.317C65.9074 171.003 65.6349 171.595 65.3303 172.093ZM79.3334 175.125L79.3159 172.154H79.7641C80.0805 172.154 80.353 172.078 80.5815 171.926C80.8159 171.768 81.0092 171.513 81.1616 171.161C81.3139 170.81 81.434 170.344 81.5219 169.764C81.6098 169.178 81.6684 168.457 81.6977 167.602L81.9174 161.625H92.183V175.125H88.6147V164.569H85.2836L85.0727 168.691C85.02 169.822 84.8823 170.795 84.6596 171.609C84.4428 172.424 84.1411 173.092 83.7543 173.613C83.3676 174.129 82.9018 174.51 82.3569 174.756C81.812 175.002 81.1791 175.125 80.4584 175.125H79.3334ZM102.996 175.125V164.561H100.465C99.779 164.561 99.2575 164.719 98.9001 165.035C98.5427 165.352 98.3669 165.727 98.3727 166.16C98.3669 166.6 98.5368 166.972 98.8825 167.276C99.2341 167.575 99.7497 167.725 100.429 167.725H104.244V170.256H100.429C99.2751 170.256 98.2761 170.08 97.4323 169.729C96.5886 169.377 95.9382 168.888 95.4811 168.261C95.0241 167.628 94.7985 166.893 94.8044 166.055C94.7985 165.176 95.0241 164.405 95.4811 163.743C95.9382 163.075 96.5915 162.557 97.4411 162.187C98.2966 161.812 99.3044 161.625 100.465 161.625H106.485V175.125H102.996ZM94.4177 175.125L98.1706 168.094H101.748L98.0036 175.125H94.4177ZM126.838 161.625V175.125H123.288V161.625H126.838ZM125.107 167.549V170.502C124.82 170.631 124.462 170.754 124.035 170.871C123.607 170.982 123.159 171.073 122.69 171.144C122.221 171.214 121.782 171.249 121.372 171.249C119.432 171.249 117.906 170.851 116.792 170.054C115.679 169.251 115.122 167.971 115.122 166.213V161.607H118.656V166.213C118.656 166.734 118.744 167.147 118.919 167.452C119.101 167.757 119.388 167.977 119.781 168.111C120.179 168.24 120.709 168.305 121.372 168.305C121.987 168.305 122.59 168.24 123.182 168.111C123.774 167.982 124.415 167.795 125.107 167.549ZM133.595 175.38C132.734 175.38 131.966 175.23 131.292 174.932C130.618 174.627 130.085 174.179 129.693 173.587C129.306 172.989 129.112 172.245 129.112 171.354C129.112 170.604 129.25 169.975 129.526 169.465C129.801 168.955 130.176 168.545 130.651 168.234C131.125 167.924 131.664 167.689 132.268 167.531C132.877 167.373 133.516 167.262 134.184 167.197C134.969 167.115 135.602 167.039 136.082 166.969C136.563 166.893 136.911 166.781 137.128 166.635C137.345 166.488 137.453 166.271 137.453 165.984V165.932C137.453 165.375 137.278 164.944 136.926 164.64C136.58 164.335 136.088 164.183 135.449 164.183C134.776 164.183 134.239 164.332 133.841 164.631C133.443 164.924 133.179 165.293 133.05 165.738L129.587 165.457C129.763 164.637 130.109 163.928 130.624 163.33C131.14 162.727 131.805 162.264 132.619 161.941C133.44 161.613 134.389 161.449 135.467 161.449C136.217 161.449 136.935 161.537 137.62 161.713C138.312 161.889 138.924 162.161 139.457 162.53C139.996 162.899 140.421 163.374 140.732 163.954C141.042 164.528 141.197 165.217 141.197 166.02V175.125H137.647V173.253H137.541C137.324 173.675 137.034 174.047 136.671 174.369C136.308 174.686 135.871 174.935 135.362 175.116C134.852 175.292 134.263 175.38 133.595 175.38ZM134.667 172.796C135.218 172.796 135.704 172.687 136.126 172.471C136.548 172.248 136.879 171.949 137.119 171.574C137.36 171.199 137.48 170.774 137.48 170.3V168.867C137.362 168.943 137.201 169.014 136.996 169.078C136.797 169.137 136.571 169.192 136.32 169.245C136.068 169.292 135.816 169.336 135.564 169.377C135.312 169.412 135.083 169.444 134.878 169.474C134.439 169.538 134.055 169.641 133.727 169.781C133.399 169.922 133.144 170.112 132.962 170.353C132.78 170.587 132.69 170.88 132.69 171.231C132.69 171.741 132.874 172.131 133.243 172.4C133.618 172.664 134.093 172.796 134.667 172.796ZM150.202 175.389C148.819 175.389 147.63 175.096 146.633 174.51C145.643 173.918 144.882 173.098 144.348 172.049C143.821 171 143.557 169.793 143.557 168.428C143.557 167.045 143.824 165.832 144.357 164.789C144.896 163.74 145.661 162.923 146.651 162.337C147.641 161.745 148.819 161.449 150.184 161.449C151.362 161.449 152.393 161.663 153.278 162.091C154.163 162.519 154.863 163.119 155.379 163.893C155.894 164.666 156.178 165.574 156.231 166.617H152.698C152.598 165.943 152.335 165.401 151.907 164.991C151.485 164.575 150.931 164.367 150.246 164.367C149.666 164.367 149.159 164.525 148.725 164.842C148.298 165.152 147.964 165.606 147.723 166.204C147.483 166.802 147.363 167.525 147.363 168.375C147.363 169.236 147.48 169.969 147.715 170.572C147.955 171.176 148.292 171.636 148.725 171.952C149.159 172.269 149.666 172.427 150.246 172.427C150.674 172.427 151.057 172.339 151.397 172.163C151.743 171.987 152.027 171.732 152.25 171.398C152.478 171.059 152.628 170.651 152.698 170.177H156.231C156.173 171.208 155.891 172.116 155.387 172.901C154.889 173.681 154.201 174.29 153.322 174.729C152.443 175.169 151.403 175.389 150.202 175.389ZM157.708 164.569V161.625H169.942V164.569H165.591V175.125H162.023V164.569H157.708ZM181.607 166.881V169.825H174.559V166.881H181.607ZM175.789 161.625V175.125H172.212V161.625H175.789ZM183.954 161.625V175.125H180.403V161.625H183.954ZM189.206 165.773H193.24C195.027 165.773 196.421 166.201 197.423 167.057C198.425 167.906 198.926 169.043 198.926 170.467C198.926 171.393 198.701 172.207 198.249 172.91C197.798 173.607 197.148 174.152 196.298 174.545C195.449 174.932 194.429 175.125 193.24 175.125H186.859V161.625H190.436V172.181H193.24C193.867 172.181 194.382 172.022 194.787 171.706C195.191 171.39 195.396 170.985 195.402 170.493C195.396 169.972 195.191 169.547 194.787 169.219C194.382 168.885 193.867 168.718 193.24 168.718H189.206V165.773ZM200.376 175.125V161.625H204.121V175.125H200.376ZM210.242 161.625L212.721 166.345L215.261 161.625H219.102L215.19 168.375L219.207 175.125H215.384L212.721 170.458L210.102 175.125H206.234L210.242 168.375L206.375 161.625H210.242ZM227.053 175.125V161.625H232.81C234.474 161.625 235.79 161.941 236.757 162.574C237.723 163.207 238.207 164.106 238.207 165.272C238.207 166.005 237.934 166.614 237.389 167.101C236.844 167.587 236.089 167.915 235.122 168.085C235.93 168.144 236.619 168.328 237.187 168.639C237.761 168.943 238.198 169.339 238.497 169.825C238.801 170.312 238.954 170.851 238.954 171.442C238.954 172.21 238.749 172.869 238.339 173.42C237.934 173.971 237.34 174.393 236.554 174.686C235.775 174.979 234.823 175.125 233.698 175.125H227.053ZM230.543 172.321H233.698C234.219 172.321 234.627 172.198 234.92 171.952C235.218 171.7 235.368 171.357 235.368 170.924C235.368 170.443 235.218 170.065 234.92 169.79C234.627 169.515 234.219 169.377 233.698 169.377H230.543V172.321ZM230.543 167.18H232.889C233.264 167.18 233.584 167.127 233.847 167.021C234.117 166.91 234.322 166.752 234.463 166.547C234.609 166.342 234.682 166.099 234.682 165.817C234.682 165.401 234.515 165.076 234.181 164.842C233.847 164.607 233.39 164.49 232.81 164.49H230.543V167.18ZM247.466 175.389C246.077 175.389 244.882 175.107 243.88 174.545C242.884 173.977 242.116 173.174 241.577 172.137C241.038 171.094 240.769 169.86 240.769 168.437C240.769 167.048 241.038 165.829 241.577 164.78C242.116 163.731 242.875 162.914 243.854 162.328C244.838 161.742 245.992 161.449 247.317 161.449C248.207 161.449 249.036 161.593 249.804 161.88C250.577 162.161 251.251 162.586 251.825 163.154C252.405 163.723 252.857 164.437 253.179 165.299C253.501 166.154 253.662 167.156 253.662 168.305V169.333H242.263V167.013H250.138C250.138 166.474 250.021 165.996 249.786 165.58C249.552 165.164 249.227 164.839 248.811 164.604C248.401 164.364 247.923 164.244 247.378 164.244C246.81 164.244 246.306 164.376 245.866 164.64C245.433 164.897 245.093 165.246 244.847 165.686C244.601 166.119 244.475 166.603 244.469 167.136V169.342C244.469 170.01 244.592 170.587 244.838 171.073C245.09 171.56 245.445 171.935 245.902 172.198C246.359 172.462 246.901 172.594 247.528 172.594C247.944 172.594 248.324 172.535 248.67 172.418C249.016 172.301 249.312 172.125 249.558 171.891C249.804 171.656 249.991 171.369 250.12 171.029L253.583 171.258C253.407 172.09 253.047 172.816 252.502 173.437C251.963 174.053 251.266 174.533 250.41 174.879C249.561 175.219 248.579 175.389 247.466 175.389ZM255.051 179.08V172.154H256.088C256.387 171.967 256.627 171.668 256.809 171.258C256.996 170.848 257.149 170.364 257.266 169.808C257.389 169.251 257.483 168.65 257.547 168.006C257.617 167.355 257.679 166.699 257.732 166.037L258.083 161.625H268.437V172.154H270.529V179.08H266.96V175.125H258.707V179.08H255.051ZM259.815 172.154H264.904V164.508H261.265L261.124 166.037C261.025 167.479 260.881 168.703 260.694 169.711C260.506 170.713 260.213 171.527 259.815 172.154ZM275.022 180.188C274.547 180.188 274.102 180.149 273.686 180.073C273.276 180.003 272.936 179.912 272.666 179.801L273.51 177.006C273.95 177.141 274.345 177.214 274.697 177.226C275.054 177.237 275.362 177.155 275.62 176.979C275.883 176.804 276.097 176.505 276.261 176.083L276.481 175.512L271.638 161.625H275.576L278.371 171.539H278.511L281.332 161.625H285.296L280.049 176.584C279.797 177.311 279.455 177.943 279.021 178.482C278.593 179.027 278.051 179.446 277.395 179.739C276.739 180.038 275.948 180.188 275.022 180.188ZM308.42 172.181L308.157 178.992H304.72V175.125H303.217V172.181H308.42ZM287.212 161.625H290.789V172.154H294.595V161.625H298.172V172.154H301.978V161.625H305.555V175.125H287.212V161.625ZM314.234 170.186L319.095 161.625H322.786V175.125H319.218V166.538L314.375 175.125H310.657V161.625H314.234V170.186ZM328.916 161.625L331.395 166.345L333.935 161.625H337.776L333.865 168.375L337.881 175.125H334.058L331.395 170.458L328.776 175.125H324.909L328.916 168.375L325.049 161.625H328.916Z" fill="#111827"/>
<path d="M59.6174 214.875V213.316H60.0275C60.6109 213.316 61.0643 213.13 61.3879 212.756C61.7114 212.382 61.9439 211.778 62.0851 210.944C62.231 210.11 62.329 209.005 62.3791 207.629L62.6252 200.875H71.1564V214.875H69.4611V202.379H64.2385L64.0197 207.957C63.965 209.425 63.8306 210.673 63.6164 211.703C63.4022 212.733 63.0262 213.519 62.4885 214.062C61.9507 214.604 61.1668 214.875 60.1369 214.875H59.6174ZM78.7272 215.094C77.7155 215.094 76.8428 214.871 76.1091 214.424C75.3799 213.973 74.8171 213.344 74.4206 212.537C74.0287 211.726 73.8327 210.783 73.8327 209.707C73.8327 208.632 74.0287 207.684 74.4206 206.863C74.8171 206.038 75.3685 205.396 76.0749 204.936C76.7858 204.471 77.6153 204.238 78.5632 204.238C79.11 204.238 79.6501 204.329 80.1833 204.512C80.7165 204.694 81.2018 204.99 81.6393 205.4C82.0768 205.806 82.4255 206.344 82.6852 207.014C82.945 207.684 83.0749 208.509 83.0749 209.488V210.172H74.9811V208.777H81.4343C81.4343 208.185 81.3158 207.656 81.0788 207.191C80.8464 206.727 80.5137 206.36 80.0807 206.091C79.6524 205.822 79.1465 205.688 78.5632 205.688C77.9206 205.688 77.3646 205.847 76.8952 206.166C76.4304 206.481 76.0726 206.891 75.822 207.397C75.5713 207.902 75.446 208.445 75.446 209.023V209.953C75.446 210.746 75.5827 211.418 75.8561 211.97C76.1341 212.517 76.5192 212.934 77.0114 213.221C77.5036 213.503 78.0755 213.645 78.7272 213.645C79.1511 213.645 79.5339 213.585 79.8757 213.467C80.222 213.344 80.5205 213.162 80.7712 212.92C81.0218 212.674 81.2155 212.369 81.3522 212.004L82.9108 212.441C82.7468 212.97 82.471 213.435 82.0837 213.836C81.6963 214.232 81.2178 214.542 80.6481 214.766C80.0785 214.984 79.4382 215.094 78.7272 215.094ZM76.5124 202.625C76.2253 202.625 75.9701 202.516 75.7468 202.297C75.528 202.074 75.4186 201.818 75.4186 201.531C75.4186 201.217 75.528 200.957 75.7468 200.752C75.9701 200.542 76.2253 200.438 76.5124 200.438C76.8268 200.438 77.0866 200.542 77.2917 200.752C77.5013 200.957 77.6061 201.217 77.6061 201.531C77.6061 201.818 77.5013 202.074 77.2917 202.297C77.0866 202.516 76.8268 202.625 76.5124 202.625ZM80.4499 202.625C80.1628 202.625 79.9076 202.516 79.6843 202.297C79.4655 202.074 79.3561 201.818 79.3561 201.531C79.3561 201.217 79.4655 200.957 79.6843 200.752C79.9076 200.542 80.1628 200.438 80.4499 200.438C80.7643 200.438 81.0241 200.542 81.2292 200.752C81.4388 200.957 81.5436 201.217 81.5436 201.531C81.5436 201.818 81.4388 202.074 81.2292 202.297C81.0241 202.516 80.7643 202.625 80.4499 202.625ZM92.0095 204.375V205.879H87.1423V214.875H85.529V204.375H92.0095ZM94.3644 214.875V204.375H95.9777V208.941H97.0441L100.818 204.375H102.896L98.6574 209.434L102.95 214.875H100.872L97.4269 210.445H95.9777V214.875H94.3644ZM106.317 212.496L111.376 204.375H113.235V214.875H111.622V206.754L106.591 214.875H104.704V204.375H106.317V212.496ZM117.803 212.496L122.862 204.375H124.721V214.875H123.108V206.754L118.077 214.875H116.19V204.375H117.803V212.496ZM121.795 200.875H123.299C123.299 201.613 123.044 202.217 122.534 202.687C122.023 203.156 121.331 203.391 120.456 203.391C119.594 203.391 118.908 203.156 118.398 202.687C117.892 202.217 117.639 201.613 117.639 200.875H119.143C119.143 201.231 119.241 201.543 119.437 201.812C119.637 202.08 119.977 202.215 120.456 202.215C120.934 202.215 121.276 202.08 121.481 201.812C121.691 201.543 121.795 201.231 121.795 200.875ZM137.356 215.094C136.371 215.094 135.524 214.861 134.813 214.397C134.102 213.932 133.555 213.291 133.172 212.476C132.789 211.66 132.598 210.728 132.598 209.68C132.598 208.613 132.794 207.672 133.186 206.857C133.582 206.036 134.134 205.396 134.84 204.936C135.551 204.471 136.38 204.238 137.328 204.238C138.067 204.238 138.732 204.375 139.324 204.648C139.917 204.922 140.402 205.305 140.78 205.797C141.159 206.289 141.393 206.863 141.485 207.52H139.871C139.748 207.041 139.475 206.617 139.051 206.248C138.632 205.874 138.067 205.688 137.356 205.688C136.727 205.688 136.175 205.852 135.701 206.18C135.232 206.503 134.865 206.961 134.601 207.554C134.341 208.142 134.211 208.832 134.211 209.625C134.211 210.436 134.339 211.143 134.594 211.744C134.854 212.346 135.218 212.813 135.688 213.146C136.162 213.478 136.718 213.645 137.356 213.645C137.775 213.645 138.155 213.572 138.497 213.426C138.839 213.28 139.128 213.07 139.365 212.797C139.602 212.523 139.771 212.195 139.871 211.813H141.485C141.393 212.432 141.168 212.991 140.808 213.487C140.452 213.98 139.981 214.371 139.393 214.663C138.809 214.95 138.13 215.094 137.356 215.094ZM143.016 205.879V204.375H151.547V205.879H148.102V214.875H146.488V205.879H143.016ZM156.445 215.121C155.78 215.121 155.176 214.996 154.633 214.745C154.091 214.49 153.66 214.123 153.341 213.645C153.022 213.162 152.863 212.578 152.863 211.895C152.863 211.293 152.981 210.805 153.218 210.432C153.455 210.053 153.772 209.757 154.169 209.543C154.565 209.329 155.003 209.169 155.481 209.065C155.964 208.955 156.45 208.869 156.937 208.805C157.575 208.723 158.092 208.661 158.489 208.62C158.89 208.575 159.182 208.499 159.364 208.395C159.551 208.29 159.644 208.107 159.644 207.848V207.793C159.644 207.119 159.46 206.594 159.091 206.221C158.726 205.847 158.172 205.66 157.429 205.66C156.659 205.66 156.055 205.829 155.618 206.166C155.18 206.503 154.873 206.863 154.695 207.246L153.164 206.699C153.437 206.061 153.802 205.565 154.257 205.209C154.718 204.849 155.219 204.598 155.761 204.457C156.308 204.311 156.846 204.238 157.375 204.238C157.712 204.238 158.099 204.279 158.537 204.361C158.979 204.439 159.405 204.601 159.815 204.847C160.23 205.093 160.574 205.464 160.847 205.961C161.121 206.458 161.257 207.123 161.257 207.957V214.875H159.644V213.453H159.562C159.453 213.681 159.271 213.925 159.015 214.185C158.76 214.444 158.421 214.665 157.997 214.848C157.573 215.03 157.056 215.121 156.445 215.121ZM156.691 213.672C157.329 213.672 157.867 213.547 158.304 213.296C158.746 213.045 159.079 212.722 159.302 212.325C159.53 211.929 159.644 211.512 159.644 211.074V209.598C159.576 209.68 159.425 209.755 159.193 209.823C158.965 209.887 158.701 209.944 158.4 209.994C158.104 210.04 157.814 210.081 157.532 210.117C157.254 210.149 157.028 210.176 156.855 210.199C156.436 210.254 156.044 210.343 155.679 210.466C155.319 210.584 155.028 210.764 154.804 211.006C154.586 211.243 154.476 211.566 154.476 211.977C154.476 212.537 154.684 212.961 155.098 213.248C155.518 213.531 156.049 213.672 156.691 213.672ZM164.202 218.813V204.375H165.761V206.043H165.952C166.071 205.861 166.235 205.628 166.444 205.346C166.658 205.059 166.964 204.803 167.36 204.58C167.761 204.352 168.304 204.238 168.987 204.238C169.871 204.238 170.651 204.459 171.325 204.901C172 205.343 172.526 205.97 172.904 206.781C173.282 207.593 173.472 208.55 173.472 209.652C173.472 210.764 173.282 211.728 172.904 212.544C172.526 213.355 172.002 213.984 171.332 214.431C170.662 214.873 169.89 215.094 169.015 215.094C168.34 215.094 167.8 214.982 167.394 214.759C166.989 214.531 166.677 214.273 166.458 213.986C166.239 213.695 166.071 213.453 165.952 213.262H165.815V218.813H164.202ZM165.788 209.625C165.788 210.418 165.904 211.118 166.137 211.724C166.369 212.325 166.709 212.797 167.155 213.139C167.602 213.476 168.149 213.645 168.796 213.645C169.47 213.645 170.033 213.467 170.484 213.111C170.94 212.751 171.282 212.268 171.51 211.662C171.742 211.051 171.858 210.372 171.858 209.625C171.858 208.887 171.744 208.221 171.517 207.629C171.293 207.032 170.954 206.56 170.498 206.214C170.047 205.863 169.479 205.688 168.796 205.688C168.14 205.688 167.588 205.854 167.142 206.187C166.695 206.515 166.358 206.975 166.13 207.567C165.902 208.155 165.788 208.841 165.788 209.625ZM174.56 205.879V204.375H183.091V205.879H179.646V214.875H178.033V205.879H174.56ZM192.472 212.496L197.531 204.375H199.39V214.875H197.777V206.754L192.746 214.875H190.859V204.375H192.472V212.496ZM208.798 218.813C208.525 218.813 208.281 218.79 208.067 218.744C207.852 218.703 207.704 218.662 207.622 218.621L208.032 217.199C208.424 217.3 208.771 217.336 209.071 217.309C209.372 217.281 209.639 217.147 209.871 216.905C210.108 216.668 210.325 216.283 210.521 215.75L210.821 214.93L206.939 204.375H208.689L211.587 212.742H211.696L214.595 204.375H216.345L211.888 216.406C211.687 216.949 211.439 217.398 211.143 217.753C210.847 218.113 210.502 218.38 210.111 218.553C209.723 218.726 209.286 218.813 208.798 218.813ZM216.47 217.883V213.371H217.345C217.559 213.148 217.743 212.906 217.898 212.647C218.053 212.387 218.188 212.079 218.302 211.724C218.42 211.364 218.52 210.926 218.602 210.411C218.684 209.892 218.757 209.265 218.821 208.531L219.177 204.375H225.849V213.371H227.462V217.883H225.849V214.875H218.083V217.883H216.47ZM219.177 213.371H224.235V205.879H220.681L220.407 208.531C220.293 209.63 220.152 210.589 219.983 211.409C219.815 212.23 219.546 212.884 219.177 213.371ZM233.869 215.094C232.921 215.094 232.089 214.868 231.374 214.417C230.663 213.966 230.107 213.335 229.706 212.523C229.309 211.712 229.111 210.764 229.111 209.68C229.111 208.586 229.309 207.631 229.706 206.815C230.107 206 230.663 205.366 231.374 204.915C232.089 204.464 232.921 204.238 233.869 204.238C234.817 204.238 235.646 204.464 236.357 204.915C237.073 205.366 237.629 206 238.025 206.815C238.426 207.631 238.627 208.586 238.627 209.68C238.627 210.764 238.426 211.712 238.025 212.523C237.629 213.335 237.073 213.966 236.357 214.417C235.646 214.868 234.817 215.094 233.869 215.094ZM233.869 213.645C234.589 213.645 235.181 213.46 235.646 213.091C236.111 212.722 236.455 212.236 236.678 211.635C236.902 211.033 237.013 210.382 237.013 209.68C237.013 208.978 236.902 208.324 236.678 207.718C236.455 207.112 236.111 206.622 235.646 206.248C235.181 205.874 234.589 205.688 233.869 205.688C233.149 205.688 232.556 205.874 232.091 206.248C231.627 206.622 231.283 207.112 231.059 207.718C230.836 208.324 230.724 208.978 230.724 209.68C230.724 210.382 230.836 211.033 231.059 211.635C231.283 212.236 231.627 212.722 232.091 213.091C232.556 213.46 233.149 213.645 233.869 213.645ZM248.882 200.438L249.703 201.422C249.384 201.732 249.014 201.948 248.595 202.071C248.176 202.194 247.702 202.27 247.173 202.297C246.645 202.324 246.057 202.352 245.41 202.379C244.68 202.406 244.077 202.584 243.598 202.912C243.12 203.24 242.75 203.714 242.491 204.334C242.231 204.954 242.065 205.715 241.992 206.617H242.128C242.484 205.961 242.976 205.478 243.605 205.168C244.234 204.858 244.908 204.703 245.628 204.703C246.449 204.703 247.187 204.895 247.843 205.277C248.499 205.66 249.019 206.228 249.402 206.98C249.785 207.732 249.976 208.659 249.976 209.762C249.976 210.86 249.78 211.808 249.388 212.606C249.001 213.403 248.456 214.018 247.754 214.451C247.057 214.88 246.239 215.094 245.3 215.094C244.361 215.094 243.539 214.873 242.832 214.431C242.126 213.984 241.577 213.323 241.185 212.448C240.793 211.569 240.597 210.482 240.597 209.188V208.066C240.597 205.729 240.994 203.956 241.787 202.748C242.584 201.54 243.783 200.916 245.382 200.875C245.947 200.857 246.451 200.852 246.893 200.861C247.335 200.871 247.72 200.85 248.048 200.8C248.376 200.75 248.654 200.629 248.882 200.438ZM245.3 213.645C245.934 213.645 246.478 213.485 246.934 213.166C247.394 212.847 247.747 212.398 247.994 211.819C248.24 211.236 248.363 210.55 248.363 209.762C248.363 208.996 248.237 208.344 247.987 207.807C247.741 207.269 247.387 206.859 246.927 206.576C246.467 206.294 245.915 206.152 245.273 206.152C244.803 206.152 244.382 206.232 244.008 206.392C243.635 206.551 243.316 206.786 243.051 207.096C242.787 207.406 242.582 207.784 242.436 208.231C242.295 208.677 242.219 209.188 242.21 209.762C242.21 210.938 242.486 211.879 243.038 212.585C243.589 213.291 244.343 213.645 245.3 213.645ZM259.471 208.887V210.391H253.674V208.887H259.471ZM254.057 204.375V214.875H252.444V204.375H254.057ZM260.702 204.375V214.875H259.088V204.375H260.702ZM267.913 215.094C266.966 215.094 266.134 214.868 265.418 214.417C264.707 213.966 264.151 213.335 263.75 212.523C263.354 211.712 263.156 210.764 263.156 209.68C263.156 208.586 263.354 207.631 263.75 206.815C264.151 206 264.707 205.366 265.418 204.915C266.134 204.464 266.966 204.238 267.913 204.238C268.861 204.238 269.691 204.464 270.402 204.915C271.117 205.366 271.673 206 272.07 206.815C272.471 207.631 272.671 208.586 272.671 209.68C272.671 210.764 272.471 211.712 272.07 212.523C271.673 213.335 271.117 213.966 270.402 214.417C269.691 214.868 268.861 215.094 267.913 215.094ZM267.913 213.645C268.634 213.645 269.226 213.46 269.691 213.091C270.156 212.722 270.5 212.236 270.723 211.635C270.946 211.033 271.058 210.382 271.058 209.68C271.058 208.978 270.946 208.324 270.723 207.718C270.5 207.112 270.156 206.622 269.691 206.248C269.226 205.874 268.634 205.688 267.913 205.688C267.193 205.688 266.601 205.874 266.136 206.248C265.671 206.622 265.327 207.112 265.104 207.718C264.881 208.324 264.769 208.978 264.769 209.68C264.769 210.382 264.881 211.033 265.104 211.635C265.327 212.236 265.671 212.722 266.136 213.091C266.601 213.46 267.193 213.645 267.913 213.645ZM279.536 215.094C278.525 215.094 277.652 214.871 276.918 214.424C276.189 213.973 275.626 213.344 275.23 212.537C274.838 211.726 274.642 210.783 274.642 209.707C274.642 208.632 274.838 207.684 275.23 206.863C275.626 206.038 276.178 205.396 276.884 204.936C277.595 204.471 278.424 204.238 279.372 204.238C279.919 204.238 280.459 204.329 280.992 204.512C281.526 204.694 282.011 204.99 282.448 205.4C282.886 205.806 283.235 206.344 283.494 207.014C283.754 207.684 283.884 208.509 283.884 209.488V210.172H275.79V208.777H282.243C282.243 208.185 282.125 207.656 281.888 207.191C281.655 206.727 281.323 206.36 280.89 206.091C280.461 205.822 279.956 205.688 279.372 205.688C278.73 205.688 278.174 205.847 277.704 206.166C277.239 206.481 276.882 206.891 276.631 207.397C276.38 207.902 276.255 208.445 276.255 209.023V209.953C276.255 210.746 276.392 211.418 276.665 211.97C276.943 212.517 277.328 212.934 277.82 213.221C278.313 213.503 278.885 213.645 279.536 213.645C279.96 213.645 280.343 213.585 280.685 213.467C281.031 213.344 281.33 213.162 281.58 212.92C281.831 212.674 282.025 212.369 282.161 212.004L283.72 212.441C283.556 212.97 283.28 213.435 282.893 213.836C282.505 214.232 282.027 214.542 281.457 214.766C280.888 214.984 280.247 215.094 279.536 215.094ZM292.791 218.813C292.518 218.813 292.274 218.79 292.06 218.744C291.846 218.703 291.697 218.662 291.615 218.621L292.026 217.199C292.417 217.3 292.764 217.336 293.065 217.309C293.365 217.281 293.632 217.147 293.864 216.905C294.101 216.668 294.318 216.283 294.514 215.75L294.815 214.93L290.932 204.375H292.682L295.58 212.742H295.69L298.588 204.375H300.338L295.881 216.406C295.681 216.949 295.432 217.398 295.136 217.753C294.84 218.113 294.496 218.38 294.104 218.553C293.716 218.726 293.279 218.813 292.791 218.813ZM302.467 214.875V204.375H310.725V214.875H309.112V205.879H304.081V214.875H302.467ZM313.672 218.813V204.375H315.23V206.043H315.422C315.54 205.861 315.704 205.628 315.914 205.346C316.128 205.059 316.433 204.803 316.83 204.58C317.231 204.352 317.773 204.238 318.457 204.238C319.341 204.238 320.12 204.459 320.795 204.901C321.469 205.343 321.995 205.97 322.374 206.781C322.752 207.593 322.941 208.55 322.941 209.652C322.941 210.764 322.752 211.728 322.374 212.544C321.995 213.355 321.471 213.984 320.801 214.431C320.132 214.873 319.359 215.094 318.484 215.094C317.81 215.094 317.27 214.982 316.864 214.759C316.458 214.531 316.146 214.273 315.927 213.986C315.709 213.695 315.54 213.453 315.422 213.262H315.285V218.813H313.672ZM315.257 209.625C315.257 210.418 315.374 211.118 315.606 211.724C315.839 212.325 316.178 212.797 316.625 213.139C317.071 213.476 317.618 213.645 318.265 213.645C318.94 213.645 319.503 213.467 319.954 213.111C320.41 212.751 320.751 212.268 320.979 211.662C321.212 211.051 321.328 210.372 321.328 209.625C321.328 208.887 321.214 208.221 320.986 207.629C320.763 207.032 320.423 206.56 319.967 206.214C319.516 205.863 318.949 205.688 318.265 205.688C317.609 205.688 317.058 205.854 316.611 206.187C316.164 206.515 315.827 206.975 315.599 207.567C315.371 208.155 315.257 208.841 315.257 209.625ZM328.492 215.121C327.826 215.121 327.223 214.996 326.68 214.745C326.138 214.49 325.707 214.123 325.388 213.645C325.069 213.162 324.91 212.578 324.91 211.895C324.91 211.293 325.028 210.805 325.265 210.432C325.502 210.053 325.819 209.757 326.215 209.543C326.612 209.329 327.049 209.169 327.528 209.065C328.011 208.955 328.496 208.869 328.984 208.805C329.622 208.723 330.139 208.661 330.536 208.62C330.937 208.575 331.229 208.499 331.411 208.395C331.598 208.29 331.691 208.107 331.691 207.848V207.793C331.691 207.119 331.506 206.594 331.137 206.221C330.773 205.847 330.219 205.66 329.476 205.66C328.706 205.66 328.102 205.829 327.665 206.166C327.227 206.503 326.92 206.863 326.742 207.246L325.211 206.699C325.484 206.061 325.849 205.565 326.304 205.209C326.765 204.849 327.266 204.598 327.808 204.457C328.355 204.311 328.893 204.238 329.422 204.238C329.759 204.238 330.146 204.279 330.584 204.361C331.026 204.439 331.452 204.601 331.862 204.847C332.277 205.093 332.621 205.464 332.894 205.961C333.168 206.458 333.304 207.123 333.304 207.957V214.875H331.691V213.453H331.609C331.5 213.681 331.317 213.925 331.062 214.185C330.807 214.444 330.467 214.665 330.044 214.848C329.62 215.03 329.103 215.121 328.492 215.121ZM328.738 213.672C329.376 213.672 329.914 213.547 330.351 213.296C330.793 213.045 331.126 212.722 331.349 212.325C331.577 211.929 331.691 211.512 331.691 211.074V209.598C331.623 209.68 331.472 209.755 331.24 209.823C331.012 209.887 330.748 209.944 330.447 209.994C330.151 210.04 329.861 210.081 329.579 210.117C329.301 210.149 329.075 210.176 328.902 210.199C328.483 210.254 328.091 210.343 327.726 210.466C327.366 210.584 327.075 210.764 326.851 211.006C326.632 211.243 326.523 211.566 326.523 211.977C326.523 212.537 326.73 212.961 327.145 213.248C327.564 213.531 328.095 213.672 328.738 213.672ZM336.249 214.875V204.375H340.542C341.672 204.375 342.57 204.63 343.235 205.141C343.901 205.651 344.233 206.326 344.233 207.164C344.233 207.802 344.044 208.297 343.666 208.648C343.288 208.994 342.802 209.229 342.21 209.352C342.597 209.406 342.973 209.543 343.338 209.762C343.707 209.981 344.012 210.281 344.254 210.664C344.495 211.042 344.616 211.507 344.616 212.059C344.616 212.596 344.479 213.077 344.206 213.501C343.933 213.925 343.541 214.26 343.03 214.506C342.52 214.752 341.909 214.875 341.198 214.875H336.249ZM337.78 213.398H341.198C341.754 213.398 342.189 213.266 342.504 213.002C342.818 212.738 342.975 212.378 342.975 211.922C342.975 211.38 342.818 210.954 342.504 210.644C342.189 210.329 341.754 210.172 341.198 210.172H337.78V213.398ZM337.78 208.777H340.542C340.975 208.777 341.346 208.718 341.656 208.6C341.966 208.477 342.203 208.303 342.367 208.08C342.536 207.852 342.62 207.583 342.62 207.273C342.62 206.831 342.435 206.485 342.066 206.234C341.697 205.979 341.189 205.852 340.542 205.852H337.78V208.777ZM346.129 214.875V213.371H346.511C346.826 213.371 347.088 213.31 347.298 213.187C347.507 213.059 347.676 212.838 347.803 212.523C347.936 212.204 348.036 211.762 348.104 211.197C348.177 210.628 348.229 209.903 348.261 209.023L348.453 204.375H355.453V214.875H353.84V205.879H349.984L349.82 209.625C349.784 210.486 349.706 211.245 349.588 211.901C349.474 212.553 349.298 213.1 349.061 213.542C348.829 213.984 348.519 214.317 348.132 214.54C347.744 214.763 347.259 214.875 346.675 214.875H346.129ZM362.815 215.094C361.803 215.094 360.931 214.871 360.197 214.424C359.468 213.973 358.905 213.344 358.508 212.537C358.117 211.726 357.921 210.783 357.921 209.707C357.921 208.632 358.117 207.684 358.508 206.863C358.905 206.038 359.456 205.396 360.163 204.936C360.874 204.471 361.703 204.238 362.651 204.238C363.198 204.238 363.738 204.329 364.271 204.512C364.804 204.694 365.29 204.99 365.727 205.4C366.165 205.806 366.513 206.344 366.773 207.014C367.033 207.684 367.163 208.509 367.163 209.488V210.172H359.069V208.777H365.522C365.522 208.185 365.404 207.656 365.167 207.191C364.934 206.727 364.602 206.36 364.169 206.091C363.74 205.822 363.234 205.688 362.651 205.688C362.008 205.688 361.452 205.847 360.983 206.166C360.518 206.481 360.16 206.891 359.91 207.397C359.659 207.902 359.534 208.445 359.534 209.023V209.953C359.534 210.746 359.671 211.418 359.944 211.97C360.222 212.517 360.607 212.934 361.099 213.221C361.591 213.503 362.163 213.645 362.815 213.645C363.239 213.645 363.622 213.585 363.964 213.467C364.31 213.344 364.608 213.162 364.859 212.92C365.11 212.674 365.303 212.369 365.44 212.004L366.999 212.441C366.835 212.97 366.559 213.435 366.172 213.836C365.784 214.232 365.306 214.542 364.736 214.766C364.166 214.984 363.526 215.094 362.815 215.094ZM376.644 208.887V210.391H370.847V208.887H376.644ZM371.23 204.375V214.875H369.617V204.375H371.23ZM377.875 204.375V214.875H376.261V204.375H377.875ZM382.434 212.496L387.493 204.375H389.352V214.875H387.739V206.754L382.708 214.875H380.821V204.375H382.434V212.496ZM396.709 215.094C395.698 215.094 394.825 214.871 394.091 214.424C393.362 213.973 392.799 213.344 392.403 212.537C392.011 211.726 391.815 210.783 391.815 209.707C391.815 208.632 392.011 207.684 392.403 206.863C392.799 206.038 393.351 205.396 394.057 204.936C394.768 204.471 395.597 204.238 396.545 204.238C397.092 204.238 397.632 204.329 398.165 204.512C398.699 204.694 399.184 204.99 399.621 205.4C400.059 205.806 400.408 206.344 400.667 207.014C400.927 207.684 401.057 208.509 401.057 209.488V210.172H392.963V208.777H399.416C399.416 208.185 399.298 207.656 399.061 207.191C398.829 206.727 398.496 206.36 398.063 206.091C397.635 205.822 397.129 205.688 396.545 205.688C395.903 205.688 395.347 205.847 394.877 206.166C394.413 206.481 394.055 206.891 393.804 207.397C393.553 207.902 393.428 208.445 393.428 209.023V209.953C393.428 210.746 393.565 211.418 393.838 211.97C394.116 212.517 394.501 212.934 394.994 213.221C395.486 213.503 396.058 213.645 396.709 213.645C397.133 213.645 397.516 213.585 397.858 213.467C398.204 213.344 398.503 213.162 398.753 212.92C399.004 212.674 399.198 212.369 399.334 212.004L400.893 212.441C400.729 212.97 400.453 213.435 400.066 213.836C399.678 214.232 399.2 214.542 398.63 214.766C398.061 214.984 397.42 215.094 396.709 215.094Z" fill="#64748B"/>
<path d="M69.4374 270.531C74.1836 270.531 78.0311 266.684 78.0311 261.937C78.0311 257.191 74.1836 253.344 69.4374 253.344C64.6912 253.344 60.8436 257.191 60.8436 261.937C60.8436 266.684 64.6912 270.531 69.4374 270.531Z" stroke="#F59E0B" stroke-width="1.71875" stroke-linecap="round" stroke-linejoin="round"/>
<path d="M66.8593 261.937L68.5781 263.656L72.0156 260.219" stroke="#F59E0B" stroke-width="1.71875" stroke-linecap="round" stroke-linejoin="round"/>
<path d="M95.1953 269.25V255.25H103.645V256.754H96.8906V261.129H100.445C101.448 261.129 102.293 261.293 102.981 261.621C103.674 261.949 104.198 262.412 104.554 263.009C104.914 263.606 105.094 264.31 105.094 265.121C105.094 265.932 104.914 266.648 104.554 267.268C104.198 267.887 103.674 268.373 102.981 268.724C102.293 269.075 101.448 269.25 100.445 269.25H95.1953ZM96.8906 267.773H100.445C101.083 267.773 101.623 267.646 102.065 267.391C102.512 267.131 102.849 266.798 103.077 266.393C103.31 265.982 103.426 265.549 103.426 265.094C103.426 264.424 103.168 263.847 102.653 263.364C102.138 262.877 101.402 262.633 100.445 262.633H96.8906V267.773ZM109.06 262.551H112.068C113.299 262.551 114.24 262.863 114.891 263.487C115.543 264.112 115.869 264.902 115.869 265.859C115.869 266.488 115.723 267.06 115.431 267.575C115.14 268.086 114.711 268.493 114.146 268.799C113.581 269.1 112.888 269.25 112.068 269.25H107.666V258.75H109.279V267.746H112.068C112.706 267.746 113.23 267.577 113.64 267.24C114.051 266.903 114.256 266.47 114.256 265.941C114.256 265.385 114.051 264.932 113.64 264.581C113.23 264.23 112.706 264.055 112.068 264.055H109.06V262.551ZM117.537 269.25V258.75H119.15V269.25H117.537ZM126.369 269.469C125.385 269.469 124.537 269.236 123.826 268.771C123.115 268.307 122.568 267.666 122.185 266.851C121.802 266.035 121.611 265.103 121.611 264.055C121.611 262.988 121.807 262.047 122.199 261.231C122.595 260.411 123.147 259.771 123.853 259.311C124.564 258.846 125.394 258.613 126.342 258.613C127.08 258.613 127.745 258.75 128.338 259.023C128.93 259.297 129.415 259.68 129.794 260.172C130.172 260.664 130.407 261.238 130.498 261.895H128.885C128.761 261.416 128.488 260.992 128.064 260.623C127.645 260.249 127.08 260.063 126.369 260.063C125.74 260.063 125.189 260.227 124.715 260.555C124.245 260.878 123.878 261.336 123.614 261.929C123.354 262.517 123.224 263.207 123.224 264C123.224 264.811 123.352 265.518 123.607 266.119C123.867 266.721 124.232 267.188 124.701 267.521C125.175 267.853 125.731 268.02 126.369 268.02C126.788 268.02 127.169 267.947 127.51 267.801C127.852 267.655 128.142 267.445 128.379 267.172C128.616 266.898 128.784 266.57 128.885 266.188H130.498C130.407 266.807 130.181 267.366 129.821 267.862C129.466 268.354 128.994 268.746 128.406 269.038C127.823 269.325 127.144 269.469 126.369 269.469ZM132.029 260.254V258.75H140.56V260.254H137.115V269.25H135.502V260.254H132.029ZM142.914 273.187V258.75H144.472V260.418H144.664C144.782 260.236 144.946 260.003 145.156 259.721C145.37 259.434 145.675 259.178 146.072 258.955C146.473 258.727 147.015 258.613 147.699 258.613C148.583 258.613 149.362 258.834 150.037 259.276C150.711 259.718 151.237 260.345 151.616 261.156C151.994 261.967 152.183 262.924 152.183 264.027C152.183 265.139 151.994 266.103 151.616 266.919C151.237 267.73 150.713 268.359 150.043 268.806C149.374 269.248 148.601 269.469 147.726 269.469C147.052 269.469 146.512 269.357 146.106 269.134C145.7 268.906 145.388 268.648 145.169 268.361C144.951 268.07 144.782 267.828 144.664 267.637H144.527V273.187H142.914ZM144.5 264C144.5 264.793 144.616 265.493 144.848 266.099C145.081 266.7 145.42 267.172 145.867 267.514C146.313 267.851 146.86 268.02 147.507 268.02C148.182 268.02 148.745 267.842 149.196 267.486C149.652 267.126 149.993 266.643 150.221 266.037C150.454 265.426 150.57 264.747 150.57 264C150.57 263.262 150.456 262.596 150.228 262.004C150.005 261.407 149.665 260.935 149.209 260.589C148.758 260.238 148.191 260.063 147.507 260.063C146.851 260.063 146.3 260.229 145.853 260.562C145.406 260.89 145.069 261.35 144.841 261.942C144.613 262.53 144.5 263.216 144.5 264ZM156.039 262.551H159.046C160.277 262.551 161.218 262.863 161.87 263.487C162.521 264.112 162.847 264.902 162.847 265.859C162.847 266.488 162.701 267.06 162.41 267.575C162.118 268.086 161.69 268.493 161.125 268.799C160.559 269.1 159.867 269.25 159.046 269.25H154.644V258.75H156.257V267.746H159.046C159.684 267.746 160.208 267.577 160.619 267.24C161.029 266.903 161.234 266.47 161.234 265.941C161.234 265.385 161.029 264.932 160.619 264.581C160.208 264.23 159.684 264.055 159.046 264.055H156.039V262.551ZM164.515 269.25V258.75H166.128V269.25H164.515ZM170.695 266.871L175.753 258.75H177.613V269.25H176V261.129L170.968 269.25H169.082V258.75H170.695V266.871ZM174.687 255.25H176.191C176.191 255.988 175.936 256.592 175.425 257.062C174.915 257.531 174.222 257.766 173.347 257.766C172.486 257.766 171.8 257.531 171.29 257.062C170.784 256.592 170.531 255.988 170.531 255.25H172.035C172.035 255.605 172.133 255.918 172.329 256.187C172.529 256.455 172.869 256.59 173.347 256.59C173.826 256.59 174.167 256.455 174.373 256.187C174.582 255.918 174.687 255.605 174.687 255.25ZM190.247 269.469C189.263 269.469 188.415 269.236 187.704 268.771C186.993 268.307 186.447 267.666 186.064 266.851C185.681 266.035 185.489 265.103 185.489 264.055C185.489 262.988 185.685 262.047 186.077 261.231C186.474 260.411 187.025 259.771 187.732 259.311C188.443 258.846 189.272 258.613 190.22 258.613C190.958 258.613 191.624 258.75 192.216 259.023C192.809 259.297 193.294 259.68 193.672 260.172C194.05 260.664 194.285 261.238 194.376 261.895H192.763C192.64 261.416 192.366 260.992 191.943 260.623C191.523 260.249 190.958 260.063 190.247 260.063C189.618 260.063 189.067 260.227 188.593 260.555C188.124 260.878 187.757 261.336 187.492 261.929C187.233 262.517 187.103 263.207 187.103 264C187.103 264.811 187.23 265.518 187.486 266.119C187.745 266.721 188.11 267.188 188.579 267.521C189.053 267.853 189.609 268.02 190.247 268.02C190.667 268.02 191.047 267.947 191.389 267.801C191.731 267.655 192.02 267.445 192.257 267.172C192.494 266.898 192.663 266.57 192.763 266.188H194.376C194.285 266.807 194.059 267.366 193.699 267.862C193.344 268.354 192.872 268.746 192.284 269.038C191.701 269.325 191.022 269.469 190.247 269.469ZM195.907 260.254V258.75H204.439V260.254H200.993V269.25H199.38V260.254H195.907ZM209.337 269.496C208.671 269.496 208.067 269.371 207.525 269.12C206.983 268.865 206.552 268.498 206.233 268.02C205.914 267.536 205.755 266.953 205.755 266.27C205.755 265.668 205.873 265.18 206.11 264.807C206.347 264.428 206.664 264.132 207.06 263.918C207.457 263.704 207.894 263.544 208.373 263.439C208.856 263.33 209.341 263.243 209.829 263.18C210.467 263.098 210.984 263.036 211.381 262.995C211.782 262.95 212.073 262.874 212.256 262.77C212.442 262.665 212.536 262.482 212.536 262.223V262.168C212.536 261.493 212.351 260.969 211.982 260.596C211.618 260.222 211.064 260.035 210.321 260.035C209.551 260.035 208.947 260.204 208.51 260.541C208.072 260.878 207.764 261.238 207.587 261.621L206.055 261.074C206.329 260.436 206.693 259.939 207.149 259.584C207.609 259.224 208.111 258.973 208.653 258.832C209.2 258.686 209.738 258.613 210.266 258.613C210.604 258.613 210.991 258.654 211.428 258.736C211.871 258.814 212.297 258.976 212.707 259.222C213.121 259.468 213.466 259.839 213.739 260.336C214.012 260.833 214.149 261.498 214.149 262.332V269.25H212.536V267.828H212.454C212.344 268.056 212.162 268.3 211.907 268.56C211.652 268.819 211.312 269.04 210.888 269.223C210.465 269.405 209.947 269.496 209.337 269.496ZM209.583 268.047C210.221 268.047 210.759 267.922 211.196 267.671C211.638 267.42 211.971 267.097 212.194 266.7C212.422 266.304 212.536 265.887 212.536 265.449V263.973C212.468 264.055 212.317 264.13 212.085 264.198C211.857 264.262 211.593 264.319 211.292 264.369C210.996 264.415 210.706 264.456 210.424 264.492C210.146 264.524 209.92 264.551 209.747 264.574C209.328 264.629 208.936 264.718 208.571 264.841C208.211 264.959 207.919 265.139 207.696 265.381C207.477 265.618 207.368 265.941 207.368 266.352C207.368 266.912 207.575 267.336 207.99 267.623C208.409 267.906 208.94 268.047 209.583 268.047ZM217.094 273.187V258.75H218.652V260.418H218.844C218.962 260.236 219.126 260.003 219.336 259.721C219.55 259.434 219.855 259.178 220.252 258.955C220.653 258.727 221.195 258.613 221.879 258.613C222.763 258.613 223.542 258.834 224.217 259.276C224.891 259.718 225.418 260.345 225.796 261.156C226.174 261.967 226.363 262.924 226.363 264.027C226.363 265.139 226.174 266.103 225.796 266.919C225.418 267.73 224.894 268.359 224.224 268.806C223.554 269.248 222.781 269.469 221.906 269.469C221.232 269.469 220.692 269.357 220.286 269.134C219.881 268.906 219.568 268.648 219.35 268.361C219.131 268.07 218.962 267.828 218.844 267.637H218.707V273.187H217.094ZM218.68 264C218.68 264.793 218.796 265.493 219.028 266.099C219.261 266.7 219.6 267.172 220.047 267.514C220.493 267.851 221.04 268.02 221.687 268.02C222.362 268.02 222.925 267.842 223.376 267.486C223.832 267.126 224.173 266.643 224.401 266.037C224.634 265.426 224.75 264.747 224.75 264C224.75 263.262 224.636 262.596 224.408 262.004C224.185 261.407 223.845 260.935 223.39 260.589C222.938 260.238 222.371 260.063 221.687 260.063C221.031 260.063 220.48 260.229 220.033 260.562C219.587 260.89 219.249 261.35 219.021 261.942C218.794 262.53 218.68 263.216 218.68 264ZM227.452 260.254V258.75H235.983V260.254H232.538V269.25H230.925V260.254H227.452ZM251.543 254.813L252.364 255.797C252.045 256.107 251.676 256.323 251.256 256.446C250.837 256.569 250.363 256.645 249.834 256.672C249.306 256.699 248.718 256.727 248.071 256.754C247.342 256.781 246.738 256.959 246.259 257.287C245.781 257.615 245.412 258.089 245.152 258.709C244.892 259.329 244.726 260.09 244.653 260.992H244.79C245.145 260.336 245.637 259.853 246.266 259.543C246.895 259.233 247.569 259.078 248.29 259.078C249.11 259.078 249.848 259.27 250.504 259.652C251.161 260.035 251.68 260.603 252.063 261.354C252.446 262.106 252.637 263.034 252.637 264.137C252.637 265.235 252.441 266.183 252.049 266.98C251.662 267.778 251.117 268.393 250.416 268.826C249.718 269.255 248.9 269.469 247.961 269.469C247.023 269.469 246.2 269.248 245.494 268.806C244.787 268.359 244.238 267.698 243.846 266.823C243.454 265.944 243.258 264.857 243.258 263.563V262.441C243.258 260.104 243.655 258.331 244.448 257.123C245.245 255.915 246.444 255.291 248.043 255.25C248.609 255.232 249.112 255.227 249.554 255.236C249.996 255.245 250.381 255.225 250.709 255.175C251.038 255.125 251.316 255.004 251.543 254.813ZM247.961 268.02C248.595 268.02 249.139 267.86 249.595 267.541C250.055 267.222 250.409 266.773 250.655 266.194C250.901 265.611 251.024 264.925 251.024 264.137C251.024 263.371 250.899 262.719 250.648 262.182C250.402 261.644 250.049 261.234 249.588 260.951C249.128 260.669 248.577 260.527 247.934 260.527C247.465 260.527 247.043 260.607 246.669 260.767C246.296 260.926 245.977 261.161 245.712 261.471C245.448 261.781 245.243 262.159 245.097 262.605C244.956 263.052 244.881 263.563 244.872 264.137C244.872 265.313 245.147 266.254 245.699 266.96C246.25 267.666 247.004 268.02 247.961 268.02ZM259.507 269.469C258.496 269.469 257.623 269.245 256.889 268.799C256.16 268.348 255.597 267.719 255.201 266.912C254.809 266.101 254.613 265.158 254.613 264.082C254.613 263.007 254.809 262.059 255.201 261.238C255.597 260.413 256.149 259.771 256.855 259.311C257.566 258.846 258.395 258.613 259.343 258.613C259.89 258.613 260.43 258.704 260.963 258.887C261.497 259.069 261.982 259.365 262.419 259.775C262.857 260.181 263.206 260.719 263.465 261.389C263.725 262.059 263.855 262.883 263.855 263.863V264.547H255.761V263.152H262.214C262.214 262.56 262.096 262.031 261.859 261.566C261.626 261.102 261.294 260.735 260.861 260.466C260.432 260.197 259.927 260.063 259.343 260.063C258.701 260.063 258.145 260.222 257.675 260.541C257.21 260.855 256.853 261.266 256.602 261.771C256.351 262.277 256.226 262.82 256.226 263.398V264.328C256.226 265.121 256.363 265.793 256.636 266.345C256.914 266.892 257.299 267.309 257.791 267.596C258.284 267.878 258.856 268.02 259.507 268.02C259.931 268.02 260.314 267.96 260.656 267.842C261.002 267.719 261.301 267.536 261.551 267.295C261.802 267.049 261.996 266.743 262.132 266.379L263.691 266.816C263.527 267.345 263.251 267.81 262.864 268.211C262.476 268.607 261.998 268.917 261.428 269.141C260.859 269.359 260.218 269.469 259.507 269.469ZM265.653 266.57H267.375C267.412 267.044 267.626 267.404 268.018 267.65C268.415 267.896 268.93 268.02 269.563 268.02C270.21 268.02 270.764 267.887 271.224 267.623C271.684 267.354 271.915 266.921 271.915 266.324C271.915 265.973 271.828 265.668 271.655 265.408C271.482 265.144 271.238 264.939 270.923 264.793C270.609 264.647 270.237 264.574 269.809 264.574H268.004V263.125H269.809C270.452 263.125 270.926 262.979 271.231 262.688C271.541 262.396 271.696 262.031 271.696 261.594C271.696 261.124 271.529 260.748 271.197 260.466C270.864 260.179 270.392 260.035 269.782 260.035C269.166 260.035 268.654 260.174 268.244 260.452C267.833 260.726 267.617 261.079 267.594 261.512H265.899C265.917 260.947 266.09 260.448 266.418 260.015C266.747 259.577 267.193 259.235 267.758 258.989C268.323 258.739 268.971 258.613 269.7 258.613C270.438 258.613 271.078 258.743 271.621 259.003C272.167 259.258 272.589 259.607 272.885 260.049C273.186 260.486 273.336 260.983 273.336 261.539C273.336 262.132 273.17 262.61 272.837 262.975C272.505 263.339 272.088 263.599 271.586 263.754V263.863C271.983 263.891 272.327 264.018 272.619 264.246C272.915 264.469 273.145 264.763 273.309 265.128C273.473 265.488 273.555 265.887 273.555 266.324C273.555 266.962 273.384 267.518 273.042 267.992C272.701 268.462 272.231 268.826 271.634 269.086C271.037 269.341 270.356 269.469 269.59 269.469C268.847 269.469 268.182 269.348 267.594 269.106C267.006 268.86 266.539 268.521 266.193 268.088C265.851 267.65 265.671 267.145 265.653 266.57ZM281.235 273.187V258.75H282.794V260.418H282.985C283.104 260.236 283.268 260.003 283.478 259.721C283.692 259.434 283.997 259.178 284.394 258.955C284.795 258.727 285.337 258.613 286.02 258.613C286.905 258.613 287.684 258.834 288.358 259.276C289.033 259.718 289.559 260.345 289.937 261.156C290.316 261.967 290.505 262.924 290.505 264.027C290.505 265.139 290.316 266.103 289.937 266.919C289.559 267.73 289.035 268.359 288.365 268.806C287.695 269.248 286.923 269.469 286.048 269.469C285.373 269.469 284.833 269.357 284.428 269.134C284.022 268.906 283.71 268.648 283.491 268.361C283.272 268.07 283.104 267.828 282.985 267.637H282.849V273.187H281.235ZM282.821 264C282.821 264.793 282.937 265.493 283.17 266.099C283.402 266.7 283.742 267.172 284.188 267.514C284.635 267.851 285.182 268.02 285.829 268.02C286.504 268.02 287.066 267.842 287.518 267.486C287.973 267.126 288.315 266.643 288.543 266.037C288.775 265.426 288.892 264.747 288.892 264C288.892 263.262 288.778 262.596 288.55 262.004C288.326 261.407 287.987 260.935 287.531 260.589C287.08 260.238 286.513 260.063 285.829 260.063C285.173 260.063 284.621 260.229 284.175 260.562C283.728 260.89 283.391 261.35 283.163 261.942C282.935 262.53 282.821 263.216 282.821 264ZM297.368 269.469C296.356 269.469 295.484 269.245 294.75 268.799C294.021 268.348 293.458 267.719 293.062 266.912C292.67 266.101 292.474 265.158 292.474 264.082C292.474 263.007 292.67 262.059 293.062 261.238C293.458 260.413 294.009 259.771 294.716 259.311C295.427 258.846 296.256 258.613 297.204 258.613C297.751 258.613 298.291 258.704 298.824 258.887C299.357 259.069 299.843 259.365 300.28 259.775C300.718 260.181 301.066 260.719 301.326 261.389C301.586 262.059 301.716 262.883 301.716 263.863V264.547H293.622V263.152H300.075C300.075 262.56 299.957 262.031 299.72 261.566C299.487 261.102 299.155 260.735 298.722 260.466C298.293 260.197 297.787 260.063 297.204 260.063C296.562 260.063 296.006 260.222 295.536 260.541C295.071 260.855 294.714 261.266 294.463 261.771C294.212 262.277 294.087 262.82 294.087 263.398V264.328C294.087 265.121 294.224 265.793 294.497 266.345C294.775 266.892 295.16 267.309 295.652 267.596C296.145 267.878 296.716 268.02 297.368 268.02C297.792 268.02 298.175 267.96 298.517 267.842C298.863 267.719 299.161 267.536 299.412 267.295C299.663 267.049 299.856 266.743 299.993 266.379L301.552 266.816C301.388 267.345 301.112 267.81 300.725 268.211C300.337 268.607 299.859 268.917 299.289 269.141C298.719 269.359 298.079 269.469 297.368 269.469ZM310.65 258.75V260.254H305.783V269.25H304.17V258.75H310.65ZM314.619 266.871L319.677 258.75H321.537V269.25H319.923V261.129L314.892 269.25H313.005V258.75H314.619V266.871ZM328.757 269.469C327.773 269.469 326.925 269.236 326.214 268.771C325.503 268.307 324.956 267.666 324.573 266.851C324.191 266.035 323.999 265.103 323.999 264.055C323.999 262.988 324.195 262.047 324.587 261.231C324.984 260.411 325.535 259.771 326.241 259.311C326.952 258.846 327.782 258.613 328.73 258.613C329.468 258.613 330.133 258.75 330.726 259.023C331.318 259.297 331.804 259.68 332.182 260.172C332.56 260.664 332.795 261.238 332.886 261.895H331.273C331.15 261.416 330.876 260.992 330.452 260.623C330.033 260.249 329.468 260.063 328.757 260.063C328.128 260.063 327.577 260.227 327.103 260.555C326.633 260.878 326.267 261.336 326.002 261.929C325.742 262.517 325.613 263.207 325.613 264C325.613 264.811 325.74 265.518 325.995 266.119C326.255 266.721 326.62 267.188 327.089 267.521C327.563 267.853 328.119 268.02 328.757 268.02C329.176 268.02 329.557 267.947 329.899 267.801C330.24 267.655 330.53 267.445 330.767 267.172C331.004 266.898 331.172 266.57 331.273 266.188H332.886C332.795 266.807 332.569 267.366 332.209 267.862C331.854 268.354 331.382 268.746 330.794 269.038C330.211 269.325 329.532 269.469 328.757 269.469ZM334.417 260.254V258.75H342.948V260.254H339.503V269.25H337.89V260.254H334.417ZM345.302 273.187V258.75H346.86V260.418H347.052C347.17 260.236 347.334 260.003 347.544 259.721C347.758 259.434 348.063 259.178 348.46 258.955C348.861 258.727 349.403 258.613 350.087 258.613C350.971 258.613 351.75 258.834 352.425 259.276C353.099 259.718 353.626 260.345 354.004 261.156C354.382 261.967 354.571 262.924 354.571 264.027C354.571 265.139 354.382 266.103 354.004 266.919C353.626 267.73 353.102 268.359 352.432 268.806C351.762 269.248 350.989 269.469 350.114 269.469C349.44 269.469 348.9 269.357 348.494 269.134C348.089 268.906 347.776 268.648 347.558 268.361C347.339 268.07 347.17 267.828 347.052 267.637H346.915V273.187H345.302ZM346.888 264C346.888 264.793 347.004 265.493 347.236 266.099C347.469 266.7 347.808 267.172 348.255 267.514C348.701 267.851 349.248 268.02 349.895 268.02C350.57 268.02 351.133 267.842 351.584 267.486C352.04 267.126 352.381 266.643 352.609 266.037C352.842 265.426 352.958 264.747 352.958 264C352.958 263.262 352.844 262.596 352.616 262.004C352.393 261.407 352.053 260.935 351.598 260.589C351.146 260.238 350.579 260.063 349.895 260.063C349.239 260.063 348.688 260.229 348.241 260.562C347.795 260.89 347.457 261.35 347.229 261.942C347.002 262.53 346.888 263.216 346.888 264ZM360.122 269.496C359.457 269.496 358.853 269.371 358.311 269.12C357.768 268.865 357.338 268.498 357.019 268.02C356.7 267.536 356.54 266.953 356.54 266.27C356.54 265.668 356.658 265.18 356.895 264.807C357.132 264.428 357.449 264.132 357.846 263.918C358.242 263.704 358.68 263.544 359.158 263.439C359.641 263.33 360.127 263.243 360.614 263.18C361.252 263.098 361.77 263.036 362.166 262.995C362.567 262.95 362.859 262.874 363.041 262.77C363.228 262.665 363.321 262.482 363.321 262.223V262.168C363.321 261.493 363.137 260.969 362.768 260.596C362.403 260.222 361.849 260.035 361.106 260.035C360.336 260.035 359.732 260.204 359.295 260.541C358.857 260.878 358.55 261.238 358.372 261.621L356.841 261.074C357.114 260.436 357.479 259.939 357.935 259.584C358.395 259.224 358.896 258.973 359.438 258.832C359.985 258.686 360.523 258.613 361.052 258.613C361.389 258.613 361.776 258.654 362.214 258.736C362.656 258.814 363.082 258.976 363.492 259.222C363.907 259.468 364.251 259.839 364.524 260.336C364.798 260.833 364.935 261.498 364.935 262.332V269.25H363.321V267.828H363.239C363.13 268.056 362.948 268.3 362.692 268.56C362.437 268.819 362.098 269.04 361.674 269.223C361.25 269.405 360.733 269.496 360.122 269.496ZM360.368 268.047C361.006 268.047 361.544 267.922 361.981 267.671C362.423 267.42 362.756 267.097 362.979 266.7C363.207 266.304 363.321 265.887 363.321 265.449V263.973C363.253 264.055 363.103 264.13 362.87 264.198C362.642 264.262 362.378 264.319 362.077 264.369C361.781 264.415 361.492 264.456 361.209 264.492C360.931 264.524 360.705 264.551 360.532 264.574C360.113 264.629 359.721 264.718 359.356 264.841C358.996 264.959 358.705 265.139 358.481 265.381C358.263 265.618 358.153 265.941 358.153 266.352C358.153 266.912 358.361 267.336 358.775 267.623C359.195 267.906 359.726 268.047 360.368 268.047ZM376.137 258.75V267.746H377.613V272.641H376V269.25H367.879V258.75H369.492V267.746H374.524V258.75H376.137ZM381.712 266.871L386.77 258.75H388.63V269.25H387.016V261.129L381.985 269.25H380.098V258.75H381.712V266.871ZM393.198 266.871L398.256 258.75H400.116V269.25H398.502V261.129L393.471 269.25H391.584V258.75H393.198V266.871Z" fill="#374151"/>
<path d="M69.4373 311.781C74.1835 311.781 78.0311 307.934 78.0311 303.187C78.0311 298.441 74.1835 294.594 69.4373 294.594C64.6911 294.594 60.8436 298.441 60.8436 303.187C60.8436 307.934 64.6911 311.781 69.4373 311.781Z" stroke="#F59E0B" stroke-width="1.71875" stroke-linecap="round" stroke-linejoin="round"/>
<path d="M66.8593 303.188L68.578 304.906L72.0155 301.469" stroke="#F59E0B" stroke-width="1.71875" stroke-linecap="round" stroke-linejoin="round"/>
<path d="M95.1953 296.5H97.2187L101.977 308.121H102.141L106.898 296.5H108.922V310.5H107.336V299.863H107.199L102.824 310.5H101.293L96.9179 299.863H96.7812V310.5H95.1953V296.5ZM116.368 310.719C115.42 310.719 114.588 310.493 113.873 310.042C113.162 309.591 112.606 308.96 112.205 308.148C111.808 307.337 111.61 306.389 111.61 305.305C111.61 304.211 111.808 303.256 112.205 302.44C112.606 301.625 113.162 300.991 113.873 300.54C114.588 300.089 115.42 299.863 116.368 299.863C117.316 299.863 118.145 300.089 118.856 300.54C119.572 300.991 120.128 301.625 120.524 302.44C120.925 303.256 121.126 304.211 121.126 305.305C121.126 306.389 120.925 307.337 120.524 308.148C120.128 308.96 119.572 309.591 118.856 310.042C118.145 310.493 117.316 310.719 116.368 310.719ZM116.368 309.269C117.088 309.269 117.68 309.085 118.145 308.716C118.61 308.347 118.954 307.861 119.177 307.26C119.401 306.658 119.512 306.006 119.512 305.305C119.512 304.603 119.401 303.949 119.177 303.343C118.954 302.737 118.61 302.247 118.145 301.873C117.68 301.499 117.088 301.312 116.368 301.312C115.648 301.312 115.055 301.499 114.591 301.873C114.126 302.247 113.782 302.737 113.558 303.343C113.335 303.949 113.223 304.603 113.223 305.305C113.223 306.006 113.335 306.658 113.558 307.26C113.782 307.861 114.126 308.347 114.591 308.716C115.055 309.085 115.648 309.269 116.368 309.269ZM131.381 296.062L132.202 297.047C131.883 297.357 131.513 297.573 131.094 297.696C130.675 297.819 130.201 297.894 129.672 297.922C129.144 297.949 128.556 297.976 127.909 298.004C127.179 298.031 126.576 298.209 126.097 298.537C125.619 298.865 125.249 299.339 124.99 299.959C124.73 300.579 124.564 301.34 124.491 302.242H124.627C124.983 301.586 125.475 301.103 126.104 300.793C126.733 300.483 127.407 300.328 128.127 300.328C128.948 300.328 129.686 300.519 130.342 300.902C130.998 301.285 131.518 301.852 131.901 302.604C132.284 303.356 132.475 304.284 132.475 305.387C132.475 306.485 132.279 307.433 131.887 308.23C131.5 309.028 130.955 309.643 130.253 310.076C129.556 310.504 128.738 310.719 127.799 310.719C126.86 310.719 126.038 310.498 125.331 310.056C124.625 309.609 124.076 308.948 123.684 308.073C123.292 307.194 123.096 306.107 123.096 304.812V303.691C123.096 301.353 123.493 299.581 124.286 298.373C125.083 297.165 126.282 296.541 127.881 296.5C128.446 296.482 128.95 296.477 129.392 296.486C129.834 296.495 130.219 296.475 130.547 296.425C130.875 296.375 131.153 296.254 131.381 296.062ZM127.799 309.269C128.433 309.269 128.977 309.11 129.433 308.791C129.893 308.472 130.247 308.023 130.493 307.444C130.739 306.861 130.862 306.175 130.862 305.387C130.862 304.621 130.736 303.969 130.486 303.432C130.24 302.894 129.886 302.484 129.426 302.201C128.966 301.918 128.414 301.777 127.772 301.777C127.303 301.777 126.881 301.857 126.507 302.016C126.134 302.176 125.815 302.411 125.55 302.721C125.286 303.03 125.081 303.409 124.935 303.855C124.794 304.302 124.719 304.812 124.709 305.387C124.709 306.562 124.985 307.503 125.537 308.21C126.088 308.916 126.842 309.269 127.799 309.269ZM136.556 308.121L141.615 300H143.474V310.5H141.861V302.379L136.83 310.5H134.943V300H136.556V308.121ZM145.499 310.5V308.996H145.882C146.196 308.996 146.459 308.934 146.668 308.811C146.878 308.684 147.046 308.463 147.174 308.148C147.306 307.829 147.406 307.387 147.475 306.822C147.548 306.252 147.6 305.528 147.632 304.648L147.823 300H154.823V310.5H153.21V301.504H149.355L149.191 305.25C149.154 306.111 149.077 306.87 148.958 307.526C148.844 308.178 148.669 308.725 148.432 309.167C148.199 309.609 147.89 309.942 147.502 310.165C147.115 310.388 146.629 310.5 146.046 310.5H145.499ZM159.178 303.801H162.186C163.416 303.801 164.357 304.113 165.009 304.737C165.661 305.362 165.987 306.152 165.987 307.109C165.987 307.738 165.841 308.31 165.549 308.825C165.257 309.335 164.829 309.743 164.264 310.049C163.699 310.349 163.006 310.5 162.186 310.5H157.783V300H159.397V308.996H162.186C162.824 308.996 163.348 308.827 163.758 308.49C164.168 308.153 164.373 307.72 164.373 307.191C164.373 306.635 164.168 306.182 163.758 305.831C163.348 305.48 162.824 305.305 162.186 305.305H159.178V303.801ZM175.47 304.512V306.016H169.673V304.512H175.47ZM170.056 300V310.5H168.442V300H170.056ZM176.7 300V310.5H175.087V300H176.7ZM181.041 303.801H184.049C185.279 303.801 186.22 304.113 186.872 304.737C187.524 305.362 187.85 306.152 187.85 307.109C187.85 307.738 187.704 308.31 187.412 308.825C187.12 309.335 186.692 309.743 186.127 310.049C185.562 310.349 184.869 310.5 184.049 310.5H179.646V300H181.26V308.996H184.049C184.687 308.996 185.211 308.827 185.621 308.49C186.031 308.153 186.236 307.72 186.236 307.191C186.236 306.635 186.031 306.182 185.621 305.831C185.211 305.48 184.687 305.305 184.049 305.305H181.041V303.801ZM189.518 310.5V300H191.131V310.5H189.518ZM195.697 308.121L200.756 300H202.615V310.5H201.002V302.379L195.971 310.5H194.084V300H195.697V308.121ZM199.689 296.5H201.193C201.193 297.238 200.938 297.842 200.428 298.311C199.917 298.781 199.225 299.016 198.35 299.016C197.488 299.016 196.802 298.781 196.292 298.311C195.786 297.842 195.533 297.238 195.533 296.5H197.037C197.037 296.855 197.135 297.168 197.331 297.436C197.532 297.705 197.871 297.84 198.35 297.84C198.828 297.84 199.17 297.705 199.375 297.436C199.585 297.168 199.689 296.855 199.689 296.5ZM212.597 308.121L217.656 300H219.515V310.5H217.902V302.379L212.871 310.5H210.984V300H212.597V308.121ZM229.497 304.512V306.016H223.701V304.512H229.497ZM224.083 300V310.5H222.47V300H224.083ZM230.728 300V310.5H229.115V300H230.728ZM232.246 301.504V300H240.777V301.504H237.331V310.5H235.718V301.504H232.246ZM246.987 310.719C245.976 310.719 245.103 310.495 244.369 310.049C243.64 309.598 243.077 308.969 242.681 308.162C242.289 307.351 242.093 306.407 242.093 305.332C242.093 304.256 242.289 303.308 242.681 302.488C243.077 301.663 243.629 301.021 244.335 300.56C245.046 300.096 245.875 299.863 246.823 299.863C247.37 299.863 247.91 299.954 248.443 300.137C248.976 300.319 249.462 300.615 249.899 301.025C250.337 301.431 250.685 301.969 250.945 302.639C251.205 303.308 251.335 304.133 251.335 305.113V305.797H243.241V304.402H249.694C249.694 303.81 249.576 303.281 249.339 302.816C249.106 302.351 248.774 301.985 248.341 301.716C247.912 301.447 247.406 301.312 246.823 301.312C246.181 301.312 245.625 301.472 245.155 301.791C244.69 302.105 244.333 302.516 244.082 303.021C243.831 303.527 243.706 304.07 243.706 304.648V305.578C243.706 306.371 243.843 307.043 244.116 307.595C244.394 308.141 244.779 308.558 245.271 308.846C245.764 309.128 246.336 309.269 246.987 309.269C247.411 309.269 247.794 309.21 248.136 309.092C248.482 308.969 248.781 308.786 249.031 308.545C249.282 308.299 249.476 307.993 249.612 307.629L251.171 308.066C251.007 308.595 250.731 309.06 250.344 309.461C249.956 309.857 249.478 310.167 248.908 310.391C248.338 310.609 247.698 310.719 246.987 310.719ZM253.789 314.437V300H255.348V301.668H255.539C255.657 301.486 255.822 301.253 256.031 300.971C256.245 300.683 256.551 300.428 256.947 300.205C257.348 299.977 257.891 299.863 258.574 299.863C259.458 299.863 260.238 300.084 260.912 300.526C261.587 300.968 262.113 301.595 262.491 302.406C262.869 303.217 263.059 304.174 263.059 305.277C263.059 306.389 262.869 307.353 262.491 308.169C262.113 308.98 261.589 309.609 260.919 310.056C260.249 310.498 259.476 310.719 258.601 310.719C257.927 310.719 257.387 310.607 256.981 310.384C256.576 310.156 256.264 309.898 256.045 309.611C255.826 309.32 255.657 309.078 255.539 308.887H255.402V314.437H253.789ZM255.375 305.25C255.375 306.043 255.491 306.742 255.724 307.349C255.956 307.95 256.295 308.422 256.742 308.764C257.189 309.101 257.736 309.269 258.383 309.269C259.057 309.269 259.62 309.092 260.071 308.736C260.527 308.376 260.869 307.893 261.097 307.287C261.329 306.676 261.445 305.997 261.445 305.25C261.445 304.512 261.331 303.846 261.103 303.254C260.88 302.657 260.541 302.185 260.085 301.839C259.634 301.488 259.066 301.312 258.383 301.312C257.726 301.312 257.175 301.479 256.728 301.811C256.282 302.14 255.945 302.6 255.717 303.192C255.489 303.78 255.375 304.466 255.375 305.25ZM269.785 314.082V296.5H271.398V314.082H269.785ZM269.785 310.719C269.074 310.719 268.427 310.591 267.844 310.336C267.26 310.076 266.759 309.709 266.34 309.235C265.92 308.757 265.597 308.185 265.369 307.519C265.141 306.854 265.027 306.116 265.027 305.305C265.027 304.484 265.141 303.741 265.369 303.076C265.597 302.406 265.92 301.832 266.34 301.353C266.759 300.875 267.26 300.508 267.844 300.253C268.427 299.993 269.074 299.863 269.785 299.863H270.277V310.719H269.785ZM269.785 309.269H270.059V301.312H269.785C269.247 301.312 268.78 301.422 268.384 301.641C267.987 301.855 267.659 302.149 267.399 302.522C267.144 302.891 266.953 303.315 266.825 303.794C266.702 304.272 266.641 304.776 266.641 305.305C266.641 306.006 266.752 306.658 266.976 307.26C267.199 307.861 267.543 308.347 268.008 308.716C268.473 309.085 269.065 309.269 269.785 309.269ZM271.398 310.719H270.906V299.863H271.398C272.109 299.863 272.756 299.993 273.34 300.253C273.923 300.508 274.424 300.875 274.844 301.353C275.263 301.832 275.587 302.406 275.814 303.076C276.042 303.741 276.156 304.484 276.156 305.305C276.156 306.116 276.042 306.854 275.814 307.519C275.587 308.185 275.263 308.757 274.844 309.235C274.424 309.709 273.923 310.076 273.34 310.336C272.756 310.591 272.109 310.719 271.398 310.719ZM271.398 309.269C271.941 309.269 272.408 309.165 272.8 308.955C273.196 308.741 273.522 308.449 273.777 308.08C274.037 307.706 274.228 307.282 274.351 306.808C274.479 306.33 274.543 305.829 274.543 305.305C274.543 304.603 274.431 303.949 274.208 303.343C273.985 302.737 273.641 302.247 273.176 301.873C272.711 301.499 272.118 301.312 271.398 301.312H271.125V309.269H271.398ZM283.025 310.719C282.013 310.719 281.14 310.495 280.406 310.049C279.677 309.598 279.114 308.969 278.718 308.162C278.326 307.351 278.13 306.407 278.13 305.332C278.13 304.256 278.326 303.308 278.718 302.488C279.114 301.663 279.666 301.021 280.372 300.56C281.083 300.096 281.913 299.863 282.861 299.863C283.407 299.863 283.947 299.954 284.481 300.137C285.014 300.319 285.499 300.615 285.937 301.025C286.374 301.431 286.723 301.969 286.983 302.639C287.242 303.308 287.372 304.133 287.372 305.113V305.797H279.278V304.402H285.732C285.732 303.81 285.613 303.281 285.376 302.816C285.144 302.351 284.811 301.985 284.378 301.716C283.95 301.447 283.444 301.312 282.861 301.312C282.218 301.312 281.662 301.472 281.193 301.791C280.728 302.105 280.37 302.516 280.119 303.021C279.869 303.527 279.743 304.07 279.743 304.648V305.578C279.743 306.371 279.88 307.043 280.153 307.595C280.431 308.141 280.817 308.558 281.309 308.846C281.801 309.128 282.373 309.269 283.025 309.269C283.448 309.269 283.831 309.21 284.173 309.092C284.519 308.969 284.818 308.786 285.069 308.545C285.319 308.299 285.513 307.993 285.65 307.629L287.208 308.066C287.044 308.595 286.768 309.06 286.381 309.461C285.994 309.857 285.515 310.167 284.945 310.391C284.376 310.609 283.736 310.719 283.025 310.719ZM291.44 308.121L296.498 300H298.358V310.5H296.744V302.379L291.713 310.5H289.826V300H291.44V308.121ZM295.432 296.5H296.936C296.936 297.238 296.681 297.842 296.17 298.311C295.66 298.781 294.967 299.016 294.092 299.016C293.231 299.016 292.545 298.781 292.034 298.311C291.528 297.842 291.276 297.238 291.276 296.5H292.779C292.779 296.855 292.877 297.168 293.073 297.436C293.274 297.705 293.613 297.84 294.092 297.84C294.57 297.84 294.912 297.705 295.117 297.436C295.327 297.168 295.432 296.855 295.432 296.5ZM305.578 310.719C304.594 310.719 303.746 310.486 303.035 310.021C302.324 309.557 301.777 308.916 301.394 308.1C301.012 307.285 300.82 306.353 300.82 305.305C300.82 304.238 301.016 303.297 301.408 302.481C301.805 301.661 302.356 301.021 303.062 300.56C303.773 300.096 304.603 299.863 305.551 299.863C306.289 299.863 306.954 300 307.547 300.273C308.139 300.547 308.625 300.93 309.003 301.422C309.381 301.914 309.616 302.488 309.707 303.144H308.094C307.971 302.666 307.697 302.242 307.273 301.873C306.854 301.499 306.289 301.312 305.578 301.312C304.949 301.312 304.398 301.476 303.924 301.805C303.454 302.128 303.087 302.586 302.823 303.179C302.563 303.766 302.434 304.457 302.434 305.25C302.434 306.061 302.561 306.767 302.816 307.369C303.076 307.971 303.441 308.438 303.91 308.77C304.384 309.103 304.94 309.269 305.578 309.269C305.997 309.269 306.378 309.196 306.72 309.051C307.061 308.905 307.351 308.695 307.588 308.422C307.825 308.148 307.993 307.82 308.094 307.437H309.707C309.616 308.057 309.39 308.615 309.03 309.112C308.675 309.604 308.203 309.996 307.615 310.288C307.032 310.575 306.353 310.719 305.578 310.719Z" fill="#374151"/>
<path d="M69.4373 353.031C74.1835 353.031 78.0311 349.184 78.0311 344.437C78.0311 339.691 74.1835 335.844 69.4373 335.844C64.6911 335.844 60.8436 339.691 60.8436 344.437C60.8436 349.184 64.6911 353.031 69.4373 353.031Z" stroke="#F59E0B" stroke-width="1.71875" stroke-linecap="round" stroke-linejoin="round"/>
<path d="M66.8593 344.437L68.578 346.156L72.0155 342.719" stroke="#F59E0B" stroke-width="1.71875" stroke-linecap="round" stroke-linejoin="round"/>
<path d="M105.668 337.75V351.75H103.973V339.254H96.9179V351.75H95.2226V337.75H105.668ZM108.869 355.687V341.25H110.427V342.918H110.619C110.737 342.736 110.901 342.503 111.111 342.221C111.325 341.934 111.631 341.678 112.027 341.455C112.428 341.227 112.97 341.113 113.654 341.113C114.538 341.113 115.317 341.334 115.992 341.776C116.666 342.218 117.193 342.845 117.571 343.656C117.949 344.467 118.138 345.424 118.138 346.527C118.138 347.639 117.949 348.603 117.571 349.419C117.193 350.23 116.669 350.859 115.999 351.306C115.329 351.748 114.556 351.969 113.681 351.969C113.007 351.969 112.467 351.857 112.061 351.634C111.656 351.406 111.343 351.148 111.125 350.861C110.906 350.57 110.737 350.328 110.619 350.137H110.482V355.687H108.869ZM110.455 346.5C110.455 347.293 110.571 347.992 110.803 348.599C111.036 349.2 111.375 349.672 111.822 350.014C112.269 350.351 112.815 350.519 113.463 350.519C114.137 350.519 114.7 350.342 115.151 349.986C115.607 349.626 115.949 349.143 116.176 348.537C116.409 347.926 116.525 347.247 116.525 346.5C116.525 345.762 116.411 345.096 116.183 344.504C115.96 343.907 115.62 343.435 115.165 343.089C114.714 342.738 114.146 342.562 113.463 342.562C112.806 342.562 112.255 342.729 111.808 343.061C111.362 343.39 111.024 343.85 110.797 344.442C110.569 345.03 110.455 345.716 110.455 346.5ZM124.865 351.969C123.917 351.969 123.085 351.743 122.37 351.292C121.659 350.841 121.103 350.21 120.702 349.398C120.305 348.587 120.107 347.639 120.107 346.555C120.107 345.461 120.305 344.506 120.702 343.69C121.103 342.875 121.659 342.241 122.37 341.79C123.085 341.339 123.917 341.113 124.865 341.113C125.813 341.113 126.642 341.339 127.353 341.79C128.069 342.241 128.625 342.875 129.021 343.69C129.422 344.506 129.623 345.461 129.623 346.555C129.623 347.639 129.422 348.587 129.021 349.398C128.625 350.21 128.069 350.841 127.353 351.292C126.642 351.743 125.813 351.969 124.865 351.969ZM124.865 350.519C125.585 350.519 126.177 350.335 126.642 349.966C127.107 349.597 127.451 349.111 127.674 348.51C127.898 347.908 128.009 347.256 128.009 346.555C128.009 345.853 127.898 345.199 127.674 344.593C127.451 343.987 127.107 343.497 126.642 343.123C126.177 342.749 125.585 342.562 124.865 342.562C124.145 342.562 123.552 342.749 123.088 343.123C122.623 343.497 122.279 343.987 122.055 344.593C121.832 345.199 121.72 345.853 121.72 346.555C121.72 347.256 121.832 347.908 122.055 348.51C122.279 349.111 122.623 349.597 123.088 349.966C123.552 350.335 124.145 350.519 124.865 350.519ZM136.351 351.969C135.367 351.969 134.519 351.736 133.808 351.271C133.097 350.807 132.55 350.166 132.167 349.351C131.785 348.535 131.593 347.603 131.593 346.555C131.593 345.488 131.789 344.547 132.181 343.731C132.578 342.911 133.129 342.271 133.835 341.81C134.546 341.346 135.376 341.113 136.324 341.113C137.062 341.113 137.727 341.25 138.32 341.523C138.912 341.797 139.398 342.18 139.776 342.672C140.154 343.164 140.389 343.738 140.48 344.394H138.867C138.744 343.916 138.47 343.492 138.046 343.123C137.627 342.749 137.062 342.562 136.351 342.562C135.722 342.562 135.171 342.727 134.697 343.055C134.227 343.378 133.86 343.836 133.596 344.429C133.336 345.017 133.206 345.707 133.206 346.5C133.206 347.311 133.334 348.018 133.589 348.619C133.849 349.221 134.214 349.688 134.683 350.02C135.157 350.353 135.713 350.519 136.351 350.519C136.77 350.519 137.151 350.447 137.493 350.301C137.834 350.155 138.124 349.945 138.361 349.672C138.598 349.398 138.766 349.07 138.867 348.687H140.48C140.389 349.307 140.163 349.865 139.803 350.362C139.448 350.854 138.976 351.246 138.388 351.538C137.805 351.825 137.126 351.969 136.351 351.969ZM142.011 342.754V341.25H150.542V342.754H147.097V351.75H145.484V342.754H142.011ZM156.616 351.969C155.668 351.969 154.837 351.743 154.121 351.292C153.41 350.841 152.854 350.21 152.453 349.398C152.057 348.587 151.858 347.639 151.858 346.555C151.858 345.461 152.057 344.506 152.453 343.69C152.854 342.875 153.41 342.241 154.121 341.79C154.837 341.339 155.668 341.113 156.616 341.113C157.564 341.113 158.393 341.339 159.104 341.79C159.82 342.241 160.376 342.875 160.772 343.69C161.173 344.506 161.374 345.461 161.374 346.555C161.374 347.639 161.173 348.587 160.772 349.398C160.376 350.21 159.82 350.841 159.104 351.292C158.393 351.743 157.564 351.969 156.616 351.969ZM156.616 350.519C157.336 350.519 157.929 350.335 158.393 349.966C158.858 349.597 159.202 349.111 159.426 348.51C159.649 347.908 159.761 347.256 159.761 346.555C159.761 345.853 159.649 345.199 159.426 344.593C159.202 343.987 158.858 343.497 158.393 343.123C157.929 342.749 157.336 342.562 156.616 342.562C155.896 342.562 155.304 342.749 154.839 343.123C154.374 343.497 154.03 343.987 153.807 344.593C153.583 345.199 153.472 345.853 153.472 346.555C153.472 347.256 153.583 347.908 153.807 348.51C154.03 349.111 154.374 349.597 154.839 349.966C155.304 350.335 155.896 350.519 156.616 350.519ZM168.239 351.969C167.227 351.969 166.355 351.745 165.621 351.299C164.892 350.848 164.329 350.219 163.932 349.412C163.54 348.601 163.344 347.657 163.344 346.582C163.344 345.506 163.54 344.559 163.932 343.738C164.329 342.913 164.88 342.271 165.587 341.81C166.298 341.346 167.127 341.113 168.075 341.113C168.622 341.113 169.162 341.204 169.695 341.387C170.228 341.569 170.714 341.865 171.151 342.275C171.589 342.681 171.937 343.219 172.197 343.889C172.457 344.559 172.587 345.383 172.587 346.363V347.047H164.493V345.652H170.946C170.946 345.06 170.827 344.531 170.591 344.066C170.358 343.602 170.025 343.235 169.592 342.966C169.164 342.697 168.658 342.562 168.075 342.562C167.432 342.562 166.876 342.722 166.407 343.041C165.942 343.355 165.584 343.766 165.334 344.271C165.083 344.777 164.958 345.32 164.958 345.898V346.828C164.958 347.621 165.094 348.293 165.368 348.845C165.646 349.392 166.031 349.809 166.523 350.096C167.015 350.378 167.587 350.519 168.239 350.519C168.663 350.519 169.046 350.46 169.387 350.342C169.734 350.219 170.032 350.036 170.283 349.795C170.534 349.549 170.727 349.243 170.864 348.879L172.423 349.316C172.258 349.845 171.983 350.31 171.595 350.711C171.208 351.107 170.73 351.417 170.16 351.641C169.59 351.859 168.95 351.969 168.239 351.969ZM181.494 355.687C181.22 355.687 180.977 355.665 180.762 355.619C180.548 355.578 180.4 355.537 180.318 355.496L180.728 354.074C181.12 354.174 181.466 354.211 181.767 354.184C182.068 354.156 182.335 354.022 182.567 353.78C182.804 353.543 183.021 353.158 183.216 352.625L183.517 351.805L179.634 341.25H181.384L184.283 349.617H184.392L187.291 341.25H189.041L184.584 353.281C184.383 353.824 184.135 354.272 183.839 354.628C183.542 354.988 183.198 355.254 182.806 355.428C182.419 355.601 181.981 355.687 181.494 355.687ZM191.17 351.75V341.25H199.428V351.75H197.815V342.754H192.783V351.75H191.17ZM202.374 355.687V341.25H203.933V342.918H204.124C204.243 342.736 204.407 342.503 204.616 342.221C204.831 341.934 205.136 341.678 205.532 341.455C205.933 341.227 206.476 341.113 207.159 341.113C208.043 341.113 208.823 341.334 209.497 341.776C210.172 342.218 210.698 342.845 211.076 343.656C211.455 344.467 211.644 345.424 211.644 346.527C211.644 347.639 211.455 348.603 211.076 349.419C210.698 350.23 210.174 350.859 209.504 351.306C208.834 351.748 208.062 351.969 207.187 351.969C206.512 351.969 205.972 351.857 205.567 351.634C205.161 351.406 204.849 351.148 204.63 350.861C204.411 350.57 204.243 350.328 204.124 350.137H203.987V355.687H202.374ZM203.96 346.5C203.96 347.293 204.076 347.992 204.309 348.599C204.541 349.2 204.881 349.672 205.327 350.014C205.774 350.351 206.321 350.519 206.968 350.519C207.642 350.519 208.205 350.342 208.656 349.986C209.112 349.626 209.454 349.143 209.682 348.537C209.914 347.926 210.03 347.247 210.03 346.5C210.03 345.762 209.917 345.096 209.689 344.504C209.465 343.907 209.126 343.435 208.67 343.089C208.219 342.738 207.652 342.562 206.968 342.562C206.312 342.562 205.76 342.729 205.314 343.061C204.867 343.39 204.53 343.85 204.302 344.442C204.074 345.03 203.96 345.716 203.96 346.5ZM217.195 351.996C216.529 351.996 215.925 351.871 215.383 351.62C214.841 351.365 214.41 350.998 214.091 350.519C213.772 350.036 213.612 349.453 213.612 348.769C213.612 348.168 213.731 347.68 213.968 347.307C214.205 346.928 214.522 346.632 214.918 346.418C215.315 346.204 215.752 346.044 216.231 345.939C216.714 345.83 217.199 345.743 217.687 345.68C218.325 345.598 218.842 345.536 219.238 345.495C219.639 345.449 219.931 345.374 220.113 345.269C220.3 345.165 220.394 344.982 220.394 344.723V344.668C220.394 343.993 220.209 343.469 219.84 343.096C219.475 342.722 218.922 342.535 218.179 342.535C217.409 342.535 216.805 342.704 216.367 343.041C215.93 343.378 215.622 343.738 215.445 344.121L213.913 343.574C214.187 342.936 214.551 342.439 215.007 342.084C215.467 341.724 215.969 341.473 216.511 341.332C217.058 341.186 217.596 341.113 218.124 341.113C218.461 341.113 218.849 341.154 219.286 341.236C219.728 341.314 220.154 341.476 220.565 341.722C220.979 341.968 221.323 342.339 221.597 342.836C221.87 343.333 222.007 343.998 222.007 344.832V351.75H220.394V350.328H220.312C220.202 350.556 220.02 350.8 219.765 351.06C219.51 351.319 219.17 351.54 218.746 351.723C218.322 351.905 217.805 351.996 217.195 351.996ZM217.441 350.547C218.079 350.547 218.616 350.421 219.054 350.171C219.496 349.92 219.829 349.597 220.052 349.2C220.28 348.804 220.394 348.387 220.394 347.949V346.473C220.325 346.555 220.175 346.63 219.943 346.698C219.715 346.762 219.45 346.819 219.15 346.869C218.853 346.915 218.564 346.956 218.281 346.992C218.003 347.024 217.778 347.051 217.605 347.074C217.185 347.129 216.793 347.218 216.429 347.341C216.069 347.459 215.777 347.639 215.554 347.881C215.335 348.118 215.226 348.441 215.226 348.852C215.226 349.412 215.433 349.836 215.848 350.123C216.267 350.406 216.798 350.547 217.441 350.547ZM224.952 351.75V341.25H229.245C230.375 341.25 231.273 341.505 231.938 342.016C232.603 342.526 232.936 343.2 232.936 344.039C232.936 344.677 232.747 345.171 232.369 345.522C231.99 345.869 231.505 346.103 230.913 346.227C231.3 346.281 231.676 346.418 232.04 346.637C232.41 346.855 232.715 347.156 232.956 347.539C233.198 347.917 233.319 348.382 233.319 348.934C233.319 349.471 233.182 349.952 232.909 350.376C232.635 350.8 232.243 351.135 231.733 351.381C231.222 351.627 230.612 351.75 229.901 351.75H224.952ZM226.483 350.273H229.901C230.457 350.273 230.892 350.141 231.206 349.877C231.521 349.613 231.678 349.253 231.678 348.797C231.678 348.254 231.521 347.828 231.206 347.518C230.892 347.204 230.457 347.047 229.901 347.047H226.483V350.273ZM226.483 345.652H229.245C229.677 345.652 230.049 345.593 230.359 345.475C230.669 345.352 230.906 345.178 231.07 344.955C231.238 344.727 231.323 344.458 231.323 344.148C231.323 343.706 231.138 343.36 230.769 343.109C230.4 342.854 229.892 342.727 229.245 342.727H226.483V345.652ZM234.831 351.75V350.246H235.214C235.528 350.246 235.791 350.185 236 350.061C236.21 349.934 236.378 349.713 236.506 349.398C236.638 349.079 236.738 348.637 236.807 348.072C236.88 347.503 236.932 346.778 236.964 345.898L237.155 341.25H244.155V351.75H242.542V342.754H238.687L238.523 346.5C238.486 347.361 238.409 348.12 238.29 348.776C238.176 349.428 238.001 349.975 237.764 350.417C237.531 350.859 237.222 351.192 236.834 351.415C236.447 351.638 235.961 351.75 235.378 351.75H234.831ZM251.518 351.969C250.506 351.969 249.633 351.745 248.9 351.299C248.17 350.848 247.608 350.219 247.211 349.412C246.819 348.601 246.623 347.657 246.623 346.582C246.623 345.506 246.819 344.559 247.211 343.738C247.608 342.913 248.159 342.271 248.865 341.81C249.576 341.346 250.406 341.113 251.354 341.113C251.901 341.113 252.441 341.204 252.974 341.387C253.507 341.569 253.992 341.865 254.43 342.275C254.867 342.681 255.216 343.219 255.476 343.889C255.736 344.559 255.865 345.383 255.865 346.363V347.047H247.772V345.652H254.225C254.225 345.06 254.106 344.531 253.869 344.066C253.637 343.602 253.304 343.235 252.871 342.966C252.443 342.697 251.937 342.562 251.354 342.562C250.711 342.562 250.155 342.722 249.686 343.041C249.221 343.355 248.863 343.766 248.612 344.271C248.362 344.777 248.236 345.32 248.236 345.898V346.828C248.236 347.621 248.373 348.293 248.647 348.845C248.925 349.392 249.31 349.809 249.802 350.096C250.294 350.378 250.866 350.519 251.518 350.519C251.942 350.519 252.324 350.46 252.666 350.342C253.013 350.219 253.311 350.036 253.562 349.795C253.812 349.549 254.006 349.243 254.143 348.879L255.701 349.316C255.537 349.845 255.262 350.31 254.874 350.711C254.487 351.107 254.008 351.417 253.439 351.641C252.869 351.859 252.229 351.969 251.518 351.969ZM265.347 345.762V347.266H259.55V345.762H265.347ZM259.933 341.25V351.75H258.32V341.25H259.933ZM266.577 341.25V351.75H264.964V341.25H266.577ZM271.137 349.371L276.195 341.25H278.055V351.75H276.442V343.629L271.41 351.75H269.524V341.25H271.137V349.371ZM285.412 351.969C284.4 351.969 283.528 351.745 282.794 351.299C282.065 350.848 281.502 350.219 281.105 349.412C280.713 348.601 280.518 347.657 280.518 346.582C280.518 345.506 280.713 344.559 281.105 343.738C281.502 342.913 282.053 342.271 282.76 341.81C283.471 341.346 284.3 341.113 285.248 341.113C285.795 341.113 286.335 341.204 286.868 341.387C287.401 341.569 287.887 341.865 288.324 342.275C288.762 342.681 289.11 343.219 289.37 343.889C289.63 344.559 289.76 345.383 289.76 346.363V347.047H281.666V345.652H288.119C288.119 345.06 288.001 344.531 287.764 344.066C287.531 343.602 287.198 343.235 286.766 342.966C286.337 342.697 285.831 342.562 285.248 342.562C284.605 342.562 284.049 342.722 283.58 343.041C283.115 343.355 282.757 343.766 282.507 344.271C282.256 344.777 282.131 345.32 282.131 345.898V346.828C282.131 347.621 282.268 348.293 282.541 348.845C282.819 349.392 283.204 349.809 283.696 350.096C284.188 350.378 284.76 350.519 285.412 350.519C285.836 350.519 286.219 350.46 286.56 350.342C286.907 350.219 287.205 350.036 287.456 349.795C287.707 349.549 287.9 349.243 288.037 348.879L289.596 349.316C289.432 349.845 289.156 350.31 288.768 350.711C288.381 351.107 287.903 351.417 287.333 351.641C286.763 351.859 286.123 351.969 285.412 351.969Z" fill="#374151"/>
</g>
<defs>
<filter id="filter0_d_132_69" x="1.90735e-06" y="1.90735e-06" width="544.5" height="464.75" filterUnits="userSpaceOnUse" color-interpolation-filters="sRGB">
<feFlood flood-opacity="0" result="BackgroundImageFix"/>
<feColorMatrix in="SourceAlpha" type="matrix" values="0 0 0 0 0 0 0 0 0 0 0 0 0 0 0 0 0 0 127 0" result="hardAlpha"/>
<feOffset dy="5.5"/>
<feGaussianBlur stdDeviation="9.625"/>
<feComposite in2="hardAlpha" operator="out"/>
<feColorMatrix type="matrix" values="0 0 0 0 0.180392 0 0 0 0 0.407843 0 0 0 0 0.960784 0 0 0 0.12 0"/>
<feBlend mode="normal" in2="BackgroundImageFix" result="effect1_dropShadow_132_69"/>
<feBlend mode="normal" in="SourceGraphic" in2="effect1_dropShadow_132_69" result="shape"/>
</filter>
</defs>
</svg>
