<svg width="366" height="273" viewBox="0 0 366 273" fill="none" xmlns="http://www.w3.org/2000/svg">
<g filter="url(#filter0_d_132_101)">
<rect x="19.25" y="13.75" width="327.25" height="233.75" rx="22" fill="white" fill-opacity="0.72" shape-rendering="crispEdges"/>
<rect x="19.9375" y="14.4375" width="325.875" height="232.375" rx="21.3125" stroke="white" stroke-opacity="0.6" stroke-width="1.375" shape-rendering="crispEdges"/>
<path d="M170.584 88.9453C167.859 88.9355 165.505 88.3056 163.523 87.0556C161.541 85.8056 160.012 84.0039 158.938 81.6504C157.864 79.2968 157.332 76.4746 157.341 73.1836C157.351 69.8828 157.888 67.08 158.953 64.7754C160.027 62.4707 161.55 60.7177 163.523 59.5166C165.505 58.3154 167.859 57.7148 170.584 57.7148C173.308 57.7148 175.662 58.3203 177.644 59.5312C179.627 60.7324 181.155 62.4853 182.229 64.79C183.303 67.0947 183.836 69.8925 183.826 73.1836C183.826 76.4941 183.289 79.3261 182.214 81.6797C181.14 84.0332 179.612 85.8349 177.629 87.0849C175.657 88.3252 173.308 88.9453 170.584 88.9453ZM170.584 82.3242C171.99 82.3242 173.142 81.5918 174.041 80.1269C174.949 78.6523 175.398 76.3379 175.388 73.1836C175.388 71.123 175.183 69.4384 174.773 68.1299C174.363 66.8213 173.796 65.8545 173.074 65.2295C172.351 64.5947 171.521 64.2773 170.584 64.2773C169.177 64.2773 168.03 64.9902 167.141 66.416C166.253 67.8418 165.798 70.0976 165.779 73.1836C165.769 75.2832 165.969 77.0117 166.379 78.3691C166.79 79.7168 167.356 80.7129 168.079 81.3574C168.811 82.0019 169.646 82.3242 170.584 82.3242ZM187.649 88.125V82.2656L198.84 73.0078C199.583 72.3925 200.217 71.8164 200.745 71.2793C201.282 70.7324 201.692 70.1709 201.975 69.5947C202.268 69.0185 202.415 68.3789 202.415 67.6757C202.415 66.9043 202.249 66.2451 201.917 65.6982C201.594 65.1513 201.145 64.7314 200.569 64.4384C199.993 64.1357 199.329 63.9843 198.577 63.9843C197.825 63.9843 197.161 64.1357 196.585 64.4384C196.018 64.7412 195.579 65.1855 195.266 65.7715C194.954 66.3574 194.797 67.0703 194.797 67.9101H187.063C187.063 65.8008 187.537 63.9843 188.484 62.4609C189.431 60.9375 190.769 59.7656 192.498 58.9453C194.226 58.125 196.253 57.7148 198.577 57.7148C200.979 57.7148 203.059 58.1006 204.817 58.872C206.585 59.6338 207.947 60.708 208.904 62.0947C209.871 63.4814 210.354 65.1074 210.354 66.9726C210.354 68.125 210.115 69.2724 209.636 70.415C209.158 71.5478 208.298 72.8027 207.058 74.1797C205.818 75.5566 204.055 77.1972 201.77 79.1015L198.958 81.4453V81.6211H210.676V88.125H187.649Z" fill="url(#paint0_linear_132_101)"/>
<path d="M94.9861 141.984V135.43H96.072C96.4418 135.164 96.7804 134.789 97.0877 134.305C97.3949 133.815 97.658 133.14 97.8767 132.281C98.0955 131.417 98.2517 130.286 98.3455 128.89L98.7986 122.125H109.385V135.43H111.135V141.969H107.885V138.125H98.2361V141.984H94.9861ZM99.9783 135.43H106.135V124.914H101.845L101.595 128.89C101.528 129.948 101.416 130.885 101.26 131.703C101.108 132.521 100.924 133.237 100.705 133.851C100.491 134.461 100.249 134.987 99.9783 135.43ZM118.551 138.359C117.337 138.359 116.288 138.101 115.402 137.586C114.522 137.065 113.842 136.341 113.363 135.414C112.884 134.482 112.644 133.401 112.644 132.172C112.644 130.932 112.884 129.849 113.363 128.922C113.842 127.989 114.522 127.265 115.402 126.75C116.288 126.229 117.337 125.969 118.551 125.969C119.764 125.969 120.811 126.229 121.691 126.75C122.577 127.265 123.259 127.989 123.738 128.922C124.217 129.849 124.457 130.932 124.457 132.172C124.457 133.401 124.217 134.482 123.738 135.414C123.259 136.341 122.577 137.065 121.691 137.586C120.811 138.101 119.764 138.359 118.551 138.359ZM118.566 135.781C119.118 135.781 119.579 135.625 119.949 135.312C120.319 134.995 120.597 134.562 120.785 134.015C120.978 133.469 121.074 132.846 121.074 132.148C121.074 131.45 120.978 130.828 120.785 130.281C120.597 129.734 120.319 129.302 119.949 128.984C119.579 128.667 119.118 128.508 118.566 128.508C118.009 128.508 117.54 128.667 117.16 128.984C116.785 129.302 116.501 129.734 116.308 130.281C116.121 130.828 116.027 131.45 116.027 132.148C116.027 132.846 116.121 133.469 116.308 134.015C116.501 134.562 116.785 134.995 117.16 135.312C117.54 135.625 118.009 135.781 118.566 135.781ZM136.597 121.719L137.613 123.89C137.275 124.172 136.9 124.38 136.488 124.515C136.077 124.646 135.584 124.732 135.011 124.773C134.444 124.815 133.751 124.844 132.933 124.859C132.006 124.87 131.251 125.018 130.668 125.305C130.084 125.591 129.642 126.042 129.34 126.656C129.038 127.265 128.84 128.062 128.746 129.047H128.863C129.222 128.312 129.728 127.745 130.379 127.344C131.035 126.943 131.845 126.742 132.808 126.742C133.829 126.742 134.722 126.966 135.488 127.414C136.259 127.862 136.858 128.505 137.285 129.344C137.712 130.182 137.926 131.187 137.926 132.359C137.926 133.578 137.686 134.638 137.207 135.539C136.733 136.435 136.058 137.13 135.183 137.625C134.308 138.114 133.267 138.359 132.058 138.359C130.845 138.359 129.798 138.104 128.918 137.594C128.043 137.083 127.366 136.331 126.886 135.336C126.413 134.341 126.176 133.117 126.176 131.664V130.68C126.176 127.789 126.738 125.646 127.863 124.25C128.988 122.854 130.642 122.146 132.824 122.125C133.418 122.114 133.954 122.112 134.433 122.117C134.913 122.122 135.332 122.099 135.691 122.047C136.056 121.995 136.358 121.885 136.597 121.719ZM132.074 135.781C132.584 135.781 133.022 135.648 133.386 135.383C133.756 135.117 134.04 134.737 134.238 134.242C134.441 133.747 134.543 133.156 134.543 132.469C134.543 131.786 134.441 131.208 134.238 130.734C134.04 130.255 133.756 129.89 133.386 129.64C133.017 129.39 132.574 129.265 132.058 129.265C131.673 129.265 131.327 129.336 131.019 129.476C130.712 129.617 130.449 129.825 130.23 130.101C130.017 130.372 129.85 130.708 129.73 131.109C129.616 131.505 129.558 131.958 129.558 132.469C129.558 133.495 129.78 134.305 130.222 134.898C130.67 135.487 131.288 135.781 132.074 135.781ZM143.556 138.351C142.791 138.351 142.108 138.219 141.51 137.953C140.911 137.682 140.437 137.284 140.088 136.758C139.744 136.226 139.572 135.565 139.572 134.773C139.572 134.107 139.694 133.547 139.939 133.094C140.184 132.64 140.517 132.276 140.939 132C141.361 131.724 141.84 131.515 142.377 131.375C142.918 131.234 143.486 131.135 144.08 131.078C144.778 131.005 145.34 130.937 145.767 130.875C146.194 130.807 146.504 130.708 146.697 130.578C146.89 130.448 146.986 130.255 146.986 130V129.953C146.986 129.458 146.83 129.075 146.517 128.805C146.21 128.534 145.773 128.398 145.205 128.398C144.606 128.398 144.129 128.531 143.775 128.797C143.421 129.057 143.187 129.385 143.072 129.781L139.994 129.531C140.15 128.802 140.457 128.172 140.916 127.64C141.374 127.104 141.965 126.693 142.689 126.406C143.418 126.114 144.262 125.969 145.22 125.969C145.887 125.969 146.525 126.047 147.135 126.203C147.749 126.359 148.293 126.601 148.767 126.93C149.247 127.258 149.624 127.68 149.9 128.195C150.176 128.706 150.314 129.318 150.314 130.031V138.125H147.158V136.461H147.064C146.872 136.836 146.614 137.167 146.291 137.453C145.968 137.734 145.58 137.956 145.127 138.117C144.674 138.273 144.15 138.351 143.556 138.351ZM144.51 136.055C144.999 136.055 145.431 135.958 145.806 135.765C146.181 135.568 146.476 135.302 146.689 134.969C146.903 134.635 147.01 134.258 147.01 133.836V132.562C146.905 132.63 146.762 132.693 146.58 132.75C146.403 132.802 146.202 132.851 145.978 132.898C145.754 132.94 145.53 132.979 145.306 133.015C145.082 133.047 144.879 133.075 144.697 133.101C144.306 133.159 143.965 133.25 143.674 133.375C143.382 133.5 143.155 133.669 142.994 133.883C142.832 134.091 142.752 134.351 142.752 134.664C142.752 135.117 142.916 135.463 143.244 135.703C143.577 135.937 143.999 136.055 144.51 136.055ZM152.896 138.125V126.125H158.013C159.493 126.125 160.662 126.406 161.521 126.969C162.381 127.531 162.81 128.331 162.81 129.367C162.81 130.018 162.568 130.56 162.084 130.992C161.599 131.424 160.927 131.716 160.068 131.867C160.787 131.919 161.399 132.083 161.904 132.359C162.414 132.63 162.802 132.982 163.068 133.414C163.339 133.846 163.474 134.325 163.474 134.851C163.474 135.534 163.292 136.12 162.927 136.609C162.568 137.099 162.039 137.474 161.342 137.734C160.649 137.995 159.802 138.125 158.802 138.125H152.896ZM155.998 135.633H158.802C159.266 135.633 159.628 135.523 159.888 135.305C160.154 135.081 160.287 134.776 160.287 134.39C160.287 133.963 160.154 133.627 159.888 133.383C159.628 133.138 159.266 133.015 158.802 133.015H155.998V135.633ZM155.998 131.062H158.084C158.417 131.062 158.701 131.015 158.935 130.922C159.175 130.823 159.357 130.682 159.482 130.5C159.612 130.318 159.677 130.101 159.677 129.851C159.677 129.482 159.529 129.193 159.232 128.984C158.935 128.776 158.529 128.672 158.013 128.672H155.998V131.062ZM167.658 129.812H171.244C172.832 129.812 174.072 130.193 174.963 130.953C175.853 131.708 176.299 132.719 176.299 133.984C176.299 134.807 176.098 135.531 175.697 136.156C175.296 136.776 174.718 137.26 173.963 137.609C173.207 137.953 172.301 138.125 171.244 138.125H165.572V126.125H168.752V135.508H171.244C171.801 135.508 172.26 135.367 172.619 135.086C172.978 134.805 173.161 134.445 173.166 134.008C173.161 133.544 172.978 133.167 172.619 132.875C172.26 132.578 171.801 132.43 171.244 132.43H167.658V129.812ZM176.635 128.742V126.125H187.51V128.742H183.642V138.125H180.47V128.742H176.635ZM194.566 138.359C193.332 138.359 192.269 138.109 191.379 137.609C190.493 137.104 189.811 136.39 189.332 135.469C188.853 134.542 188.613 133.445 188.613 132.18C188.613 130.945 188.853 129.862 189.332 128.93C189.811 127.997 190.485 127.271 191.355 126.75C192.23 126.229 193.256 125.969 194.433 125.969C195.225 125.969 195.962 126.096 196.644 126.351C197.332 126.601 197.931 126.979 198.441 127.484C198.957 127.989 199.358 128.625 199.644 129.39C199.931 130.151 200.074 131.042 200.074 132.062V132.976H189.941V130.914H196.941C196.941 130.435 196.837 130.01 196.629 129.64C196.42 129.271 196.131 128.982 195.761 128.773C195.397 128.56 194.972 128.453 194.488 128.453C193.983 128.453 193.535 128.57 193.144 128.805C192.759 129.034 192.457 129.344 192.238 129.734C192.019 130.12 191.907 130.549 191.902 131.023V132.984C191.902 133.578 192.011 134.091 192.23 134.523C192.454 134.956 192.769 135.289 193.176 135.523C193.582 135.758 194.064 135.875 194.621 135.875C194.991 135.875 195.329 135.823 195.636 135.719C195.944 135.614 196.207 135.458 196.426 135.25C196.644 135.042 196.811 134.786 196.926 134.484L200.004 134.687C199.847 135.427 199.527 136.073 199.043 136.625C198.564 137.172 197.944 137.599 197.183 137.906C196.428 138.208 195.556 138.359 194.566 138.359ZM207.338 138.125V126.125H217.83V138.125H214.65V128.742H210.478V138.125H207.338ZM225.955 138.359C224.72 138.359 223.658 138.109 222.767 137.609C221.882 137.104 221.2 136.39 220.72 135.469C220.241 134.542 220.002 133.445 220.002 132.18C220.002 130.945 220.241 129.862 220.72 128.93C221.2 127.997 221.874 127.271 222.744 126.75C223.619 126.229 224.645 125.969 225.822 125.969C226.614 125.969 227.351 126.096 228.033 126.351C228.72 126.601 229.319 126.979 229.83 127.484C230.345 127.989 230.747 128.625 231.033 129.39C231.319 130.151 231.463 131.042 231.463 132.062V132.976H221.33V130.914H228.33C228.33 130.435 228.226 130.01 228.017 129.64C227.809 129.271 227.52 128.982 227.15 128.773C226.786 128.56 226.361 128.453 225.877 128.453C225.372 128.453 224.924 128.57 224.533 128.805C224.148 129.034 223.845 129.344 223.627 129.734C223.408 130.12 223.296 130.549 223.291 131.023V132.984C223.291 133.578 223.4 134.091 223.619 134.523C223.843 134.956 224.158 135.289 224.564 135.523C224.97 135.758 225.452 135.875 226.01 135.875C226.379 135.875 226.718 135.823 227.025 135.719C227.332 135.614 227.595 135.458 227.814 135.25C228.033 135.042 228.2 134.786 228.314 134.484L231.392 134.687C231.236 135.427 230.916 136.073 230.431 136.625C229.952 137.172 229.332 137.599 228.572 137.906C227.817 138.208 226.944 138.359 225.955 138.359ZM239.056 138.359C237.827 138.359 236.77 138.099 235.885 137.578C235.004 137.052 234.327 136.323 233.853 135.39C233.385 134.458 233.15 133.385 233.15 132.172C233.15 130.943 233.387 129.864 233.861 128.937C234.34 128.005 235.02 127.278 235.9 126.758C236.78 126.232 237.827 125.969 239.041 125.969C240.088 125.969 241.004 126.159 241.791 126.539C242.577 126.919 243.2 127.453 243.658 128.14C244.116 128.828 244.369 129.635 244.416 130.562H241.275C241.187 129.963 240.952 129.482 240.572 129.117C240.197 128.747 239.705 128.562 239.095 128.562C238.58 128.562 238.129 128.703 237.744 128.984C237.364 129.26 237.067 129.664 236.853 130.195C236.64 130.726 236.533 131.37 236.533 132.125C236.533 132.89 236.637 133.542 236.845 134.078C237.059 134.614 237.358 135.023 237.744 135.305C238.129 135.586 238.58 135.726 239.095 135.726C239.476 135.726 239.817 135.648 240.119 135.492C240.426 135.336 240.679 135.109 240.877 134.812C241.08 134.51 241.213 134.148 241.275 133.726H244.416C244.364 134.643 244.114 135.45 243.666 136.148C243.223 136.841 242.611 137.383 241.83 137.773C241.049 138.164 240.124 138.359 239.056 138.359ZM254.898 130.797V133.414H248.633V130.797H254.898ZM249.726 126.125V138.125H246.547V126.125H249.726ZM256.984 126.125V138.125H253.828V126.125H256.984ZM262.746 133.734L267.066 126.125H270.347V138.125H267.176V130.492L262.871 138.125H259.566V126.125H262.746V133.734Z" fill="#111827"/>
<path d="M84.6846 178.691C83.7823 178.691 82.9779 178.536 82.2715 178.226C81.5697 177.917 81.0114 177.486 80.5967 176.934C80.1866 176.378 79.9632 175.734 79.9268 175H81.6494C81.6859 175.451 81.8409 175.841 82.1143 176.169C82.3877 176.492 82.7455 176.743 83.1875 176.921C83.6296 177.098 84.1195 177.187 84.6573 177.187C85.2588 177.187 85.792 177.083 86.2569 176.873C86.7217 176.663 87.0863 176.372 87.3506 175.998C87.6149 175.624 87.7471 175.191 87.7471 174.699C87.7471 174.184 87.6195 173.731 87.3643 173.339C87.1091 172.942 86.7354 172.632 86.2432 172.409C85.751 172.186 85.1494 172.074 84.4385 172.074H83.3174V170.57H84.4385C84.9945 170.57 85.4821 170.47 85.9014 170.269C86.3252 170.069 86.6556 169.786 86.8926 169.422C87.1341 169.057 87.2549 168.629 87.2549 168.137C87.2549 167.663 87.1501 167.25 86.9405 166.899C86.7308 166.548 86.4346 166.275 86.0518 166.079C85.6735 165.883 85.2269 165.785 84.7119 165.785C84.2289 165.785 83.7731 165.874 83.3448 166.052C82.9209 166.225 82.5746 166.478 82.3057 166.81C82.0368 167.139 81.891 167.535 81.8682 168H80.2276C80.2549 167.266 80.4759 166.624 80.8907 166.072C81.3054 165.516 81.8477 165.083 82.5176 164.773C83.1921 164.463 83.9326 164.308 84.7393 164.308C85.6052 164.308 86.348 164.484 86.9678 164.835C87.5876 165.181 88.0638 165.639 88.3965 166.209C88.7292 166.778 88.8955 167.394 88.8955 168.055C88.8955 168.843 88.6882 169.515 88.2735 170.071C87.8633 170.627 87.305 171.012 86.5987 171.226V171.336C87.4828 171.482 88.1732 171.858 88.67 172.464C89.1667 173.065 89.4151 173.81 89.4151 174.699C89.4151 175.46 89.2077 176.144 88.793 176.75C88.3828 177.351 87.8223 177.825 87.1114 178.172C86.4004 178.518 85.5915 178.691 84.6846 178.691ZM95.3282 178.746C94.6628 178.746 94.0589 178.621 93.5166 178.37C92.9743 178.115 92.5436 177.748 92.2246 177.269C91.9056 176.786 91.7461 176.203 91.7461 175.519C91.7461 174.918 91.8646 174.43 92.1016 174.056C92.3386 173.678 92.6553 173.382 93.0518 173.168C93.4483 172.954 93.8858 172.794 94.3643 172.689C94.8474 172.58 95.3327 172.493 95.8203 172.43C96.4584 172.348 96.9756 172.286 97.3721 172.245C97.7731 172.199 98.0648 172.124 98.2471 172.019C98.4339 171.915 98.5274 171.732 98.5274 171.473V171.418C98.5274 170.743 98.3428 170.219 97.9737 169.846C97.6091 169.472 97.0554 169.285 96.3125 169.285C95.5423 169.285 94.9385 169.454 94.501 169.791C94.0635 170.128 93.7559 170.488 93.5782 170.871L92.0469 170.324C92.3203 169.686 92.6849 169.189 93.1407 168.834C93.6009 168.474 94.1022 168.223 94.6446 168.082C95.1914 167.936 95.7292 167.863 96.2578 167.863C96.5951 167.863 96.9825 167.904 97.42 167.986C97.862 168.064 98.2881 168.225 98.6983 168.472C99.113 168.718 99.4571 169.089 99.7305 169.586C100.004 170.083 100.141 170.748 100.141 171.582V178.5H98.5274V177.078H98.4453C98.336 177.306 98.1537 177.55 97.8985 177.809C97.6433 178.069 97.3037 178.29 96.8799 178.473C96.4561 178.655 95.9388 178.746 95.3282 178.746ZM95.5742 177.297C96.2123 177.297 96.75 177.171 97.1875 176.921C97.6296 176.67 97.9623 176.347 98.1856 175.95C98.4134 175.554 98.5274 175.137 98.5274 174.699V173.223C98.459 173.305 98.3086 173.38 98.0762 173.448C97.8483 173.512 97.584 173.569 97.2832 173.619C96.987 173.665 96.6976 173.706 96.4151 173.742C96.1371 173.774 95.9115 173.801 95.7383 173.824C95.319 173.879 94.9271 173.968 94.5625 174.091C94.2025 174.209 93.9108 174.389 93.6875 174.631C93.4688 174.868 93.3594 175.191 93.3594 175.601C93.3594 176.162 93.5668 176.586 93.9815 176.873C94.4007 177.155 94.9317 177.297 95.5742 177.297ZM109.566 168V169.504H104.699V178.5H103.085V168H109.566ZM111.921 182.437V168H113.479V169.668H113.671C113.789 169.486 113.953 169.253 114.163 168.971C114.377 168.683 114.682 168.428 115.079 168.205C115.48 167.977 116.022 167.863 116.706 167.863C117.59 167.863 118.369 168.084 119.044 168.526C119.718 168.968 120.245 169.595 120.623 170.406C121.001 171.217 121.19 172.174 121.19 173.277C121.19 174.389 121.001 175.353 120.623 176.169C120.245 176.98 119.72 177.609 119.051 178.056C118.381 178.498 117.608 178.719 116.733 178.719C116.059 178.719 115.519 178.607 115.113 178.384C114.707 178.156 114.395 177.898 114.177 177.611C113.958 177.32 113.789 177.078 113.671 176.887H113.534V182.437H111.921ZM113.507 173.25C113.507 174.043 113.623 174.742 113.855 175.348C114.088 175.95 114.427 176.422 114.874 176.764C115.32 177.101 115.867 177.269 116.514 177.269C117.189 177.269 117.752 177.092 118.203 176.736C118.659 176.376 119 175.893 119.228 175.287C119.461 174.676 119.577 173.997 119.577 173.25C119.577 172.512 119.463 171.846 119.235 171.254C119.012 170.657 118.672 170.185 118.217 169.839C117.765 169.488 117.198 169.312 116.514 169.312C115.858 169.312 115.307 169.479 114.86 169.811C114.414 170.139 114.076 170.6 113.848 171.192C113.621 171.78 113.507 172.466 113.507 173.25ZM124.314 182.437C124.041 182.437 123.797 182.415 123.583 182.369C123.369 182.328 123.22 182.287 123.138 182.246L123.549 180.824C123.941 180.924 124.287 180.961 124.588 180.933C124.888 180.906 125.155 180.772 125.387 180.53C125.624 180.293 125.841 179.908 126.037 179.375L126.338 178.555L122.455 168H124.205L127.103 176.367H127.213L130.111 168H131.861L127.404 180.031C127.204 180.573 126.955 181.022 126.659 181.378C126.363 181.738 126.019 182.004 125.627 182.178C125.239 182.351 124.802 182.437 124.314 182.437ZM133.334 175.82H135.057C135.093 176.294 135.308 176.654 135.699 176.9C136.096 177.146 136.611 177.269 137.244 177.269C137.892 177.269 138.445 177.137 138.906 176.873C139.366 176.604 139.596 176.171 139.596 175.574C139.596 175.223 139.509 174.918 139.336 174.658C139.163 174.394 138.919 174.189 138.605 174.043C138.29 173.897 137.919 173.824 137.491 173.824H135.686V172.375H137.491C138.133 172.375 138.607 172.229 138.912 171.937C139.222 171.646 139.377 171.281 139.377 170.844C139.377 170.374 139.211 169.998 138.878 169.716C138.546 169.429 138.074 169.285 137.463 169.285C136.848 169.285 136.335 169.424 135.925 169.702C135.515 169.975 135.298 170.329 135.276 170.762H133.58C133.599 170.196 133.772 169.697 134.1 169.264C134.428 168.827 134.875 168.485 135.44 168.239C136.005 167.988 136.652 167.863 137.381 167.863C138.119 167.863 138.76 167.993 139.302 168.253C139.849 168.508 140.27 168.857 140.567 169.299C140.867 169.736 141.018 170.233 141.018 170.789C141.018 171.381 140.852 171.86 140.519 172.224C140.186 172.589 139.769 172.849 139.268 173.004V173.113C139.664 173.14 140.008 173.268 140.3 173.496C140.596 173.719 140.826 174.013 140.991 174.378C141.155 174.738 141.237 175.137 141.237 175.574C141.237 176.212 141.066 176.768 140.724 177.242C140.382 177.711 139.913 178.076 139.316 178.336C138.719 178.591 138.037 178.719 137.272 178.719C136.529 178.719 135.864 178.598 135.276 178.356C134.688 178.11 134.221 177.771 133.874 177.338C133.532 176.9 133.352 176.394 133.334 175.82ZM145.116 176.121L150.175 168H152.034V178.5H150.421V170.379L145.389 178.5H143.503V168H145.116V176.121ZM153.56 169.504V168H162.091V169.504H158.646V178.5H157.033V169.504H153.56ZM168.302 178.719C167.29 178.719 166.417 178.495 165.684 178.049C164.954 177.598 164.392 176.969 163.995 176.162C163.603 175.351 163.407 174.407 163.407 173.332C163.407 172.256 163.603 171.308 163.995 170.488C164.392 169.663 164.943 169.021 165.649 168.56C166.36 168.096 167.19 167.863 168.138 167.863C168.685 167.863 169.225 167.954 169.758 168.137C170.291 168.319 170.776 168.615 171.214 169.025C171.651 169.431 172 169.969 172.26 170.639C172.52 171.308 172.649 172.133 172.649 173.113V173.797H164.556V172.402H171.009C171.009 171.81 170.89 171.281 170.653 170.816C170.421 170.351 170.088 169.985 169.655 169.716C169.227 169.447 168.721 169.312 168.138 169.312C167.495 169.312 166.939 169.472 166.47 169.791C166.005 170.105 165.647 170.515 165.397 171.021C165.146 171.527 165.021 172.07 165.021 172.648V173.578C165.021 174.371 165.157 175.043 165.431 175.595C165.709 176.141 166.094 176.558 166.586 176.846C167.078 177.128 167.65 177.269 168.302 177.269C168.726 177.269 169.108 177.21 169.45 177.092C169.797 176.969 170.095 176.786 170.346 176.545C170.596 176.299 170.79 175.993 170.927 175.629L172.485 176.066C172.321 176.595 172.046 177.06 171.658 177.461C171.271 177.857 170.792 178.167 170.223 178.39C169.653 178.609 169.013 178.719 168.302 178.719ZM188.311 164.062L189.131 165.047C188.812 165.357 188.443 165.573 188.023 165.696C187.604 165.819 187.13 165.894 186.602 165.922C186.073 165.949 185.485 165.976 184.838 166.004C184.109 166.031 183.505 166.209 183.026 166.537C182.548 166.865 182.179 167.339 181.919 167.959C181.659 168.579 181.493 169.34 181.42 170.242H181.557C181.912 169.586 182.404 169.103 183.033 168.793C183.662 168.483 184.337 168.328 185.057 168.328C185.877 168.328 186.615 168.519 187.272 168.902C187.928 169.285 188.447 169.852 188.83 170.604C189.213 171.356 189.404 172.284 189.404 173.387C189.404 174.485 189.208 175.433 188.816 176.23C188.429 177.028 187.884 177.643 187.183 178.076C186.485 178.504 185.667 178.719 184.729 178.719C183.79 178.719 182.967 178.498 182.261 178.056C181.554 177.609 181.005 176.948 180.613 176.073C180.221 175.194 180.025 174.107 180.025 172.812V171.691C180.025 169.353 180.422 167.581 181.215 166.373C182.012 165.165 183.211 164.541 184.811 164.5C185.376 164.482 185.879 164.477 186.321 164.486C186.763 164.495 187.148 164.475 187.477 164.425C187.805 164.375 188.083 164.254 188.311 164.062ZM184.729 177.269C185.362 177.269 185.907 177.11 186.362 176.791C186.823 176.472 187.176 176.023 187.422 175.444C187.668 174.861 187.791 174.175 187.791 173.387C187.791 172.621 187.666 171.969 187.415 171.431C187.169 170.894 186.816 170.484 186.355 170.201C185.895 169.918 185.344 169.777 184.701 169.777C184.232 169.777 183.81 169.857 183.437 170.016C183.063 170.176 182.744 170.411 182.48 170.721C182.215 171.03 182.01 171.409 181.864 171.855C181.723 172.302 181.648 172.812 181.639 173.387C181.639 174.562 181.914 175.503 182.466 176.21C183.017 176.916 183.772 177.269 184.729 177.269ZM193.485 176.121L198.544 168H200.403V178.5H198.79V170.379L193.759 178.5H191.872V168H193.485V176.121ZM211.151 164.062L211.971 165.047C211.652 165.357 211.283 165.573 210.864 165.696C210.445 165.819 209.971 165.894 209.442 165.922C208.914 165.949 208.326 165.976 207.678 166.004C206.949 166.031 206.345 166.209 205.867 166.537C205.388 166.865 205.019 167.339 204.76 167.959C204.5 168.579 204.333 169.34 204.261 170.242H204.397C204.753 169.586 205.245 169.103 205.874 168.793C206.503 168.483 207.177 168.328 207.897 168.328C208.718 168.328 209.456 168.519 210.112 168.902C210.768 169.285 211.288 169.852 211.671 170.604C212.053 171.356 212.245 172.284 212.245 173.387C212.245 174.485 212.049 175.433 211.657 176.23C211.27 177.028 210.725 177.643 210.023 178.076C209.326 178.504 208.508 178.719 207.569 178.719C206.63 178.719 205.808 178.498 205.101 178.056C204.395 177.609 203.846 176.948 203.454 176.073C203.062 175.194 202.866 174.107 202.866 172.812V171.691C202.866 169.353 203.262 167.581 204.055 166.373C204.853 165.165 206.052 164.541 207.651 164.5C208.216 164.482 208.72 164.477 209.162 164.486C209.604 164.495 209.989 164.475 210.317 164.425C210.645 164.375 210.923 164.254 211.151 164.062ZM207.569 177.269C208.203 177.269 208.747 177.11 209.203 176.791C209.663 176.472 210.016 176.023 210.262 175.444C210.509 174.861 210.632 174.175 210.632 173.387C210.632 172.621 210.506 171.969 210.256 171.431C210.01 170.894 209.656 170.484 209.196 170.201C208.736 169.918 208.184 169.777 207.542 169.777C207.072 169.777 206.651 169.857 206.277 170.016C205.903 170.176 205.584 170.411 205.32 170.721C205.056 171.03 204.851 171.409 204.705 171.855C204.564 172.302 204.488 172.812 204.479 173.387C204.479 174.562 204.755 175.503 205.306 176.21C205.858 176.916 206.612 177.269 207.569 177.269ZM213.783 178.5V176.996H214.166C214.48 176.996 214.742 176.934 214.952 176.811C215.162 176.684 215.33 176.463 215.458 176.148C215.59 175.829 215.69 175.387 215.759 174.822C215.831 174.252 215.884 173.528 215.916 172.648L216.107 168H223.107V178.5H221.494V169.504H217.638L217.474 173.25C217.438 174.111 217.36 174.87 217.242 175.526C217.128 176.178 216.953 176.725 216.716 177.167C216.483 177.609 216.173 177.942 215.786 178.165C215.399 178.388 214.913 178.5 214.33 178.5H213.783ZM227.68 176.121L232.739 168H234.598V178.5H232.985V170.379L227.954 178.5H226.067V168H227.68V176.121ZM241.819 178.719C240.871 178.719 240.039 178.493 239.324 178.042C238.613 177.591 238.057 176.959 237.656 176.148C237.259 175.337 237.061 174.389 237.061 173.305C237.061 172.211 237.259 171.256 237.656 170.44C238.057 169.625 238.613 168.991 239.324 168.54C240.039 168.089 240.871 167.863 241.819 167.863C242.767 167.863 243.596 168.089 244.307 168.54C245.023 168.991 245.579 169.625 245.975 170.44C246.376 171.256 246.577 172.211 246.577 173.305C246.577 174.389 246.376 175.337 245.975 176.148C245.579 176.959 245.023 177.591 244.307 178.042C243.596 178.493 242.767 178.719 241.819 178.719ZM241.819 177.269C242.539 177.269 243.131 177.085 243.596 176.716C244.061 176.347 244.405 175.861 244.628 175.26C244.852 174.658 244.963 174.006 244.963 173.305C244.963 172.603 244.852 171.949 244.628 171.343C244.405 170.737 244.061 170.247 243.596 169.873C243.131 169.499 242.539 169.312 241.819 169.312C241.099 169.312 240.506 169.499 240.042 169.873C239.577 170.247 239.233 170.737 239.009 171.343C238.786 171.949 238.674 172.603 238.674 173.305C238.674 174.006 238.786 174.658 239.009 175.26C239.233 175.861 239.577 176.347 240.042 176.716C240.506 177.085 241.099 177.269 241.819 177.269ZM247.667 169.504V168H256.198V169.504H252.753V178.5H251.14V169.504H247.667ZM262.409 178.719C261.397 178.719 260.524 178.495 259.791 178.049C259.061 177.598 258.499 176.969 258.102 176.162C257.71 175.351 257.514 174.407 257.514 173.332C257.514 172.256 257.71 171.308 258.102 170.488C258.499 169.663 259.05 169.021 259.756 168.56C260.467 168.096 261.297 167.863 262.245 167.863C262.792 167.863 263.332 167.954 263.865 168.137C264.398 168.319 264.883 168.615 265.321 169.025C265.758 169.431 266.107 169.969 266.367 170.639C266.626 171.308 266.756 172.133 266.756 173.113V173.797H258.663V172.402H265.116C265.116 171.81 264.997 171.281 264.76 170.816C264.528 170.351 264.195 169.985 263.762 169.716C263.334 169.447 262.828 169.312 262.245 169.312C261.602 169.312 261.046 169.472 260.577 169.791C260.112 170.105 259.754 170.515 259.503 171.021C259.253 171.527 259.127 172.07 259.127 172.648V173.578C259.127 174.371 259.264 175.043 259.538 175.595C259.816 176.141 260.201 176.558 260.693 176.846C261.185 177.128 261.757 177.269 262.409 177.269C262.833 177.269 263.215 177.21 263.557 177.092C263.903 176.969 264.202 176.786 264.453 176.545C264.703 176.299 264.897 175.993 265.034 175.629L266.592 176.066C266.428 176.595 266.153 177.06 265.765 177.461C265.378 177.857 264.899 178.167 264.33 178.39C263.76 178.609 263.12 178.719 262.409 178.719ZM269.21 178.5V168H270.824V172.566H271.89L275.664 168H277.742L273.503 173.058L277.796 178.5H275.718L272.273 174.07H270.824V178.5H269.21ZM280.589 182.437C280.315 182.437 280.072 182.415 279.857 182.369C279.643 182.328 279.495 182.287 279.413 182.246L279.823 180.824C280.215 180.924 280.562 180.961 280.862 180.933C281.163 180.906 281.43 180.772 281.662 180.53C281.899 180.293 282.116 179.908 282.312 179.375L282.612 178.555L278.73 168H280.48L283.378 176.367H283.487L286.386 168H288.136L283.679 180.031C283.478 180.573 283.23 181.022 282.934 181.378C282.637 181.738 282.293 182.004 281.901 182.178C281.514 182.351 281.077 182.437 280.589 182.437ZM151.812 196.504V195H160.343V196.504H156.898V205.5H155.284V196.504H151.812ZM162.696 209.437V195H164.255V196.668H164.446C164.565 196.486 164.729 196.253 164.939 195.971C165.153 195.683 165.458 195.428 165.855 195.205C166.256 194.977 166.798 194.863 167.481 194.863C168.366 194.863 169.145 195.084 169.819 195.526C170.494 195.968 171.02 196.595 171.398 197.406C171.777 198.217 171.966 199.174 171.966 200.277C171.966 201.389 171.777 202.353 171.398 203.169C171.02 203.98 170.496 204.609 169.826 205.056C169.156 205.498 168.384 205.719 167.509 205.719C166.834 205.719 166.294 205.607 165.889 205.384C165.483 205.156 165.171 204.898 164.952 204.611C164.733 204.32 164.565 204.078 164.446 203.887H164.31V209.437H162.696ZM164.282 200.25C164.282 201.043 164.398 201.742 164.631 202.348C164.863 202.95 165.203 203.422 165.649 203.764C166.096 204.101 166.643 204.269 167.29 204.269C167.965 204.269 168.527 204.092 168.979 203.736C169.434 203.376 169.776 202.893 170.004 202.287C170.236 201.676 170.353 200.997 170.353 200.25C170.353 199.512 170.239 198.846 170.011 198.254C169.787 197.657 169.448 197.185 168.992 196.839C168.541 196.488 167.974 196.312 167.29 196.312C166.634 196.312 166.082 196.479 165.636 196.811C165.189 197.139 164.852 197.6 164.624 198.192C164.396 198.78 164.282 199.466 164.282 200.25ZM178.829 205.719C177.817 205.719 176.945 205.495 176.211 205.049C175.482 204.598 174.919 203.969 174.522 203.162C174.131 202.351 173.935 201.407 173.935 200.332C173.935 199.256 174.131 198.308 174.522 197.488C174.919 196.663 175.47 196.021 176.177 195.56C176.888 195.096 177.717 194.863 178.665 194.863C179.212 194.863 179.752 194.954 180.285 195.137C180.818 195.319 181.304 195.615 181.741 196.025C182.179 196.431 182.527 196.969 182.787 197.639C183.047 198.308 183.177 199.133 183.177 200.113V200.797H175.083V199.402H181.536C181.536 198.81 181.418 198.281 181.181 197.816C180.948 197.351 180.616 196.985 180.183 196.716C179.754 196.447 179.248 196.312 178.665 196.312C178.022 196.312 177.467 196.472 176.997 196.791C176.532 197.105 176.175 197.515 175.924 198.021C175.673 198.527 175.548 199.07 175.548 199.648V200.578C175.548 201.371 175.685 202.043 175.958 202.595C176.236 203.141 176.621 203.558 177.113 203.846C177.605 204.128 178.177 204.269 178.829 204.269C179.253 204.269 179.636 204.21 179.978 204.092C180.324 203.969 180.622 203.786 180.873 203.545C181.124 203.299 181.317 202.993 181.454 202.629L183.013 203.066C182.849 203.595 182.573 204.06 182.186 204.461C181.798 204.857 181.32 205.167 180.75 205.39C180.18 205.609 179.54 205.719 178.829 205.719ZM185.631 205.5V195H187.244V199.566H188.311L192.084 195H194.162L189.924 200.058L194.217 205.5H192.139L188.693 201.07H187.244V205.5H185.631ZM199.803 205.719C198.856 205.719 198.024 205.493 197.308 205.042C196.597 204.591 196.041 203.959 195.64 203.148C195.244 202.337 195.046 201.389 195.046 200.305C195.046 199.211 195.244 198.256 195.64 197.44C196.041 196.625 196.597 195.991 197.308 195.54C198.024 195.089 198.856 194.863 199.803 194.863C200.751 194.863 201.581 195.089 202.292 195.54C203.007 195.991 203.563 196.625 203.96 197.44C204.361 198.256 204.561 199.211 204.561 200.305C204.561 201.389 204.361 202.337 203.96 203.148C203.563 203.959 203.007 204.591 202.292 205.042C201.581 205.493 200.751 205.719 199.803 205.719ZM199.803 204.269C200.524 204.269 201.116 204.085 201.581 203.716C202.046 203.347 202.39 202.861 202.613 202.26C202.836 201.658 202.948 201.006 202.948 200.305C202.948 199.603 202.836 198.949 202.613 198.343C202.39 197.737 202.046 197.247 201.581 196.873C201.116 196.499 200.524 196.312 199.803 196.312C199.083 196.312 198.491 196.499 198.026 196.873C197.561 197.247 197.217 197.737 196.994 198.343C196.771 198.949 196.659 199.603 196.659 200.305C196.659 201.006 196.771 201.658 196.994 202.26C197.217 202.861 197.561 203.347 198.026 203.716C198.491 204.085 199.083 204.269 199.803 204.269ZM207.024 205.5V195H211.317C212.447 195 213.345 195.255 214.01 195.765C214.676 196.276 215.008 196.95 215.008 197.789C215.008 198.427 214.819 198.921 214.441 199.272C214.063 199.619 213.577 199.853 212.985 199.976C213.372 200.031 213.748 200.168 214.113 200.387C214.482 200.605 214.787 200.906 215.029 201.289C215.27 201.667 215.391 202.132 215.391 202.683C215.391 203.221 215.254 203.702 214.981 204.126C214.708 204.55 214.316 204.885 213.805 205.131C213.295 205.377 212.684 205.5 211.973 205.5H207.024ZM208.555 204.023H211.973C212.529 204.023 212.964 203.891 213.279 203.627C213.593 203.362 213.751 203.002 213.751 202.547C213.751 202.004 213.593 201.578 213.279 201.268C212.964 200.954 212.529 200.797 211.973 200.797H208.555V204.023ZM208.555 199.402H211.317C211.75 199.402 212.121 199.343 212.431 199.224C212.741 199.101 212.978 198.928 213.142 198.705C213.311 198.477 213.395 198.208 213.395 197.898C213.395 197.456 213.21 197.11 212.841 196.859C212.472 196.604 211.964 196.476 211.317 196.476H208.555V199.402Z" fill="#64748B"/>
</g>
<defs>
<filter id="filter0_d_132_101" x="1.90735e-06" y="1.90735e-06" width="365.75" height="272.25" filterUnits="userSpaceOnUse" color-interpolation-filters="sRGB">
<feFlood flood-opacity="0" result="BackgroundImageFix"/>
<feColorMatrix in="SourceAlpha" type="matrix" values="0 0 0 0 0 0 0 0 0 0 0 0 0 0 0 0 0 0 127 0" result="hardAlpha"/>
<feOffset dy="5.5"/>
<feGaussianBlur stdDeviation="9.625"/>
<feComposite in2="hardAlpha" operator="out"/>
<feColorMatrix type="matrix" values="0 0 0 0 0.180392 0 0 0 0 0.407843 0 0 0 0 0.960784 0 0 0 0.12 0"/>
<feBlend mode="normal" in2="BackgroundImageFix" result="effect1_dropShadow_132_101"/>
<feBlend mode="normal" in="SourceGraphic" in2="effect1_dropShadow_132_101" result="shape"/>
</filter>
<linearGradient id="paint0_linear_132_101" x1="166.957" y1="-4.12503" x2="231.684" y2="10.1378" gradientUnits="userSpaceOnUse">
<stop stop-color="#2E68F5"/>
<stop offset="1" stop-color="#5B8AF7"/>
</linearGradient>
</defs>
</svg>
