<svg width="25" height="28" viewBox="0 0 25 28" fill="none" xmlns="http://www.w3.org/2000/svg">
<path d="M24.75 27.5H0V0H24.75V27.5Z" stroke="#E5E7EB"/>
<g clip-path="url(#clip0_132_294)">
<path d="M12.3749 6.1875C9.57334 6.1875 7.27022 7.45937 5.5042 9.09648C3.8499 10.6348 2.70693 12.4609 2.12256 13.75C2.70693 15.0391 3.8499 16.8652 5.4999 18.4035C7.27022 20.0406 9.57334 21.3125 12.3749 21.3125C15.1765 21.3125 17.4796 20.0406 19.2456 18.4035C20.8999 16.8652 22.0429 15.0391 22.6272 13.75C22.0429 12.4609 20.8999 10.6348 19.2499 9.09648C17.4796 7.45937 15.1765 6.1875 12.3749 6.1875ZM4.09912 7.58828C6.12295 5.70625 8.90303 4.125 12.3749 4.125C15.8468 4.125 18.6269 5.70625 20.6507 7.58828C22.6616 9.45742 24.0065 11.6875 24.6468 13.2215C24.7886 13.5609 24.7886 13.9391 24.6468 14.2785C24.0065 15.8125 22.6616 18.0469 20.6507 19.9117C18.6269 21.7937 15.8468 23.375 12.3749 23.375C8.90303 23.375 6.12295 21.7937 4.09912 19.9117C2.08818 18.0469 0.743262 15.8125 0.107324 14.2785C-0.0344727 13.9391 -0.0344727 13.5609 0.107324 13.2215C0.743262 11.6875 2.08818 9.45312 4.09912 7.58828ZM12.3749 17.1875C14.2741 17.1875 15.8124 15.6492 15.8124 13.75C15.8124 11.8508 14.2741 10.3125 12.3749 10.3125C12.3448 10.3125 12.319 10.3125 12.289 10.3125C12.3448 10.5316 12.3749 10.7637 12.3749 11C12.3749 12.5168 11.1417 13.75 9.6249 13.75C9.38857 13.75 9.15654 13.7199 8.9374 13.6641C8.9374 13.6941 8.9374 13.7199 8.9374 13.75C8.9374 15.6492 10.4757 17.1875 12.3749 17.1875ZM12.3749 8.25C13.8336 8.25 15.2325 8.82946 16.264 9.86091C17.2954 10.8924 17.8749 12.2913 17.8749 13.75C17.8749 15.2087 17.2954 16.6076 16.264 17.6391C15.2325 18.6705 13.8336 19.25 12.3749 19.25C10.9162 19.25 9.51727 18.6705 8.48582 17.6391C7.45436 16.6076 6.8749 15.2087 6.8749 13.75C6.8749 12.2913 7.45436 10.8924 8.48582 9.86091C9.51727 8.82946 10.9162 8.25 12.3749 8.25Z" fill="#64748B"/>
</g>
<defs>
<clipPath id="clip0_132_294">
<path d="M0 2.75H24.75V24.75H0V2.75Z" fill="white"/>
</clipPath>
</defs>
</svg>
