<svg width="366" height="273" viewBox="0 0 366 273" fill="none" xmlns="http://www.w3.org/2000/svg">
<g filter="url(#filter0_d_132_109)">
<rect x="19.25" y="13.75" width="327.25" height="233.75" rx="22" fill="white" fill-opacity="0.72" shape-rendering="crispEdges"/>
<rect x="19.9375" y="14.4375" width="325.875" height="232.375" rx="21.3125" stroke="white" stroke-opacity="0.6" stroke-width="1.375" shape-rendering="crispEdges"/>
<path d="M169.465 88.9453C166.74 88.9355 164.387 88.3056 162.404 87.0556C160.422 85.8056 158.894 84.0039 157.819 81.6504C156.745 79.2968 156.213 76.4746 156.223 73.1836C156.233 69.8828 156.77 67.08 157.834 64.7754C158.908 62.4707 160.432 60.7177 162.404 59.5166C164.387 58.3154 166.74 57.7148 169.465 57.7148C172.19 57.7148 174.543 58.3203 176.526 59.5312C178.508 60.7324 180.036 62.4853 181.11 64.79C182.185 67.0947 182.717 69.8925 182.707 73.1836C182.707 76.4941 182.17 79.3261 181.096 81.6797C180.022 84.0332 178.493 85.8349 176.511 87.0849C174.538 88.3252 172.19 88.9453 169.465 88.9453ZM169.465 82.3242C170.871 82.3242 172.024 81.5918 172.922 80.1269C173.83 78.6523 174.279 76.3379 174.27 73.1836C174.27 71.123 174.065 69.4384 173.654 68.1299C173.244 66.8213 172.678 65.8545 171.955 65.2295C171.233 64.5947 170.402 64.2773 169.465 64.2773C168.059 64.2773 166.911 64.9902 166.023 66.416C165.134 67.8418 164.68 70.0976 164.66 73.1836C164.651 75.2832 164.851 77.0117 165.261 78.3691C165.671 79.7168 166.237 80.7129 166.96 81.3574C167.693 82.0019 168.527 82.3242 169.465 82.3242ZM186.237 83.4375V77.1093L198.308 58.125H204.05V66.5625H200.769L194.265 76.875V77.1093H212.077V83.4375H186.237ZM200.827 88.125V81.5039L201.003 78.75V58.125H208.62V88.125H200.827Z" fill="url(#paint0_linear_132_109)"/>
<path d="M135.424 122.125H138.799V132.187H138.932L145.846 122.125H148.807V138.125H145.424V128.055H145.307L138.353 138.125H135.424V122.125ZM159.758 126.125V128.742H154.773V138.125H151.539V126.125H159.758ZM161.787 142.625V126.125H165.068V128.14H165.217C165.363 127.818 165.574 127.489 165.85 127.156C166.131 126.818 166.495 126.536 166.943 126.312C167.396 126.083 167.959 125.969 168.631 125.969C169.506 125.969 170.313 126.198 171.053 126.656C171.792 127.109 172.383 127.794 172.826 128.711C173.269 129.622 173.49 130.765 173.49 132.14C173.49 133.479 173.274 134.609 172.842 135.531C172.415 136.448 171.831 137.143 171.092 137.617C170.357 138.086 169.534 138.32 168.623 138.32C167.977 138.32 167.428 138.213 166.975 138C166.527 137.786 166.159 137.518 165.873 137.195C165.587 136.867 165.368 136.536 165.217 136.203H165.115V142.625H161.787ZM165.045 132.125C165.045 132.838 165.144 133.461 165.342 133.992C165.54 134.523 165.826 134.937 166.201 135.234C166.576 135.526 167.032 135.672 167.568 135.672C168.11 135.672 168.568 135.523 168.943 135.226C169.318 134.924 169.602 134.508 169.795 133.976C169.993 133.44 170.092 132.823 170.092 132.125C170.092 131.432 169.995 130.823 169.803 130.297C169.61 129.771 169.326 129.359 168.951 129.062C168.576 128.765 168.115 128.617 167.568 128.617C167.027 128.617 166.568 128.76 166.193 129.047C165.824 129.333 165.54 129.739 165.342 130.265C165.144 130.792 165.045 131.411 165.045 132.125ZM179.131 138.351C178.365 138.351 177.683 138.219 177.084 137.953C176.485 137.682 176.011 137.284 175.662 136.758C175.318 136.226 175.146 135.565 175.146 134.773C175.146 134.107 175.269 133.547 175.514 133.094C175.758 132.64 176.092 132.276 176.514 132C176.936 131.724 177.415 131.515 177.951 131.375C178.493 131.234 179.061 131.135 179.654 131.078C180.352 131.005 180.915 130.937 181.342 130.875C181.769 130.807 182.079 130.708 182.271 130.578C182.464 130.448 182.561 130.255 182.561 130V129.953C182.561 129.458 182.404 129.075 182.092 128.805C181.784 128.534 181.347 128.398 180.779 128.398C180.18 128.398 179.704 128.531 179.35 128.797C178.995 129.057 178.761 129.385 178.646 129.781L175.568 129.531C175.725 128.802 176.032 128.172 176.49 127.64C176.949 127.104 177.54 126.693 178.264 126.406C178.993 126.114 179.837 125.969 180.795 125.969C181.462 125.969 182.1 126.047 182.709 126.203C183.324 126.359 183.868 126.601 184.342 126.93C184.821 127.258 185.199 127.68 185.475 128.195C185.751 128.706 185.889 129.318 185.889 130.031V138.125H182.732V136.461H182.639C182.446 136.836 182.188 137.167 181.865 137.453C181.542 137.734 181.154 137.956 180.701 138.117C180.248 138.273 179.725 138.351 179.131 138.351ZM180.084 136.055C180.574 136.055 181.006 135.958 181.381 135.765C181.756 135.568 182.05 135.302 182.264 134.969C182.477 134.635 182.584 134.258 182.584 133.836V132.562C182.48 132.63 182.337 132.693 182.154 132.75C181.977 132.802 181.777 132.851 181.553 132.898C181.329 132.94 181.105 132.979 180.881 133.015C180.657 133.047 180.454 133.075 180.271 133.101C179.881 133.159 179.54 133.25 179.248 133.375C178.956 133.5 178.73 133.669 178.568 133.883C178.407 134.091 178.326 134.351 178.326 134.664C178.326 135.117 178.49 135.463 178.818 135.703C179.152 135.937 179.574 136.055 180.084 136.055ZM191.65 133.734L195.971 126.125H199.252V138.125H196.08V130.492L191.775 138.125H188.471V126.125H191.65V133.734ZM195.4 121.937H197.721C197.715 122.885 197.364 123.648 196.666 124.226C195.973 124.805 195.036 125.094 193.853 125.094C192.666 125.094 191.726 124.805 191.033 124.226C190.34 123.648 189.994 122.885 189.994 121.937H192.299C192.294 122.297 192.408 122.62 192.643 122.906C192.882 123.193 193.286 123.336 193.853 123.336C194.406 123.336 194.801 123.195 195.041 122.914C195.281 122.633 195.4 122.307 195.4 121.937ZM200.715 128.742V126.125H211.59V128.742H207.723V138.125H204.551V128.742H200.715ZM218.646 138.359C217.412 138.359 216.35 138.109 215.459 137.609C214.574 137.104 213.891 136.39 213.412 135.469C212.933 134.542 212.693 133.445 212.693 132.18C212.693 130.945 212.933 129.862 213.412 128.93C213.891 127.997 214.566 127.271 215.436 126.75C216.311 126.229 217.337 125.969 218.514 125.969C219.305 125.969 220.042 126.096 220.725 126.351C221.412 126.601 222.011 126.979 222.521 127.484C223.037 127.989 223.438 128.625 223.725 129.39C224.011 130.151 224.154 131.042 224.154 132.062V132.976H214.021V130.914H221.021C221.021 130.435 220.917 130.01 220.709 129.64C220.501 129.271 220.212 128.982 219.842 128.773C219.477 128.56 219.053 128.453 218.568 128.453C218.063 128.453 217.615 128.57 217.225 128.805C216.839 129.034 216.537 129.344 216.318 129.734C216.1 130.12 215.988 130.549 215.982 131.023V132.984C215.982 133.578 216.092 134.091 216.311 134.523C216.534 134.956 216.85 135.289 217.256 135.523C217.662 135.758 218.144 135.875 218.701 135.875C219.071 135.875 219.409 135.823 219.717 135.719C220.024 135.614 220.287 135.458 220.506 135.25C220.725 135.042 220.891 134.786 221.006 134.484L224.084 134.687C223.928 135.427 223.607 136.073 223.123 136.625C222.644 137.172 222.024 137.599 221.264 137.906C220.508 138.208 219.636 138.359 218.646 138.359ZM230.303 122.125L229.998 133.328H227.139L226.826 122.125H230.303ZM228.568 138.328C228.053 138.328 227.61 138.146 227.24 137.781C226.87 137.411 226.688 136.969 226.693 136.453C226.688 135.943 226.87 135.505 227.24 135.14C227.61 134.776 228.053 134.594 228.568 134.594C229.063 134.594 229.498 134.776 229.873 135.14C230.248 135.505 230.438 135.943 230.443 136.453C230.438 136.797 230.347 137.112 230.17 137.398C229.998 137.68 229.771 137.906 229.49 138.078C229.209 138.245 228.902 138.328 228.568 138.328Z" fill="#111827"/>
<path d="M67.4767 178.691C66.5743 178.691 65.77 178.536 65.0636 178.226C64.3618 177.917 63.8035 177.486 63.3888 176.934C62.9786 176.378 62.7553 175.734 62.7189 175H64.4415C64.478 175.451 64.6329 175.841 64.9064 176.169C65.1798 176.492 65.5376 176.743 65.9796 176.921C66.4217 177.098 66.9116 177.187 67.4493 177.187C68.0509 177.187 68.5841 177.083 69.049 176.873C69.5138 176.663 69.8784 176.372 70.1427 175.998C70.407 175.624 70.5392 175.191 70.5392 174.699C70.5392 174.184 70.4116 173.731 70.1564 173.339C69.9012 172.942 69.5275 172.632 69.0353 172.409C68.5431 172.186 67.9415 172.074 67.2306 172.074H66.1095V170.57H67.2306C67.7866 170.57 68.2742 170.47 68.6935 170.269C69.1173 170.069 69.4477 169.786 69.6847 169.422C69.9262 169.057 70.047 168.629 70.047 168.137C70.047 167.663 69.9422 167.25 69.7326 166.899C69.5229 166.548 69.2267 166.275 68.8439 166.079C68.4656 165.883 68.019 165.785 67.504 165.785C67.021 165.785 66.5652 165.874 66.1368 166.052C65.713 166.225 65.3667 166.478 65.0978 166.81C64.8289 167.139 64.6831 167.535 64.6603 168H63.0197C63.047 167.266 63.268 166.624 63.6827 166.072C64.0975 165.516 64.6398 165.083 65.3097 164.773C65.9842 164.463 66.7247 164.308 67.5314 164.308C68.3973 164.308 69.1401 164.484 69.7599 164.835C70.3797 165.181 70.8559 165.639 71.1886 166.209C71.5213 166.778 71.6876 167.394 71.6876 168.055C71.6876 168.843 71.4803 169.515 71.0656 170.071C70.6554 170.627 70.0971 171.012 69.3908 171.226V171.336C70.2749 171.482 70.9653 171.858 71.462 172.464C71.9588 173.065 72.2072 173.81 72.2072 174.699C72.2072 175.46 71.9998 176.144 71.5851 176.75C71.1749 177.351 70.6144 177.825 69.9034 178.172C69.1925 178.518 68.3836 178.691 67.4767 178.691ZM78.1202 178.746C77.4549 178.746 76.851 178.621 76.3087 178.37C75.7664 178.115 75.3357 177.748 75.0167 177.269C74.6977 176.786 74.5382 176.203 74.5382 175.519C74.5382 174.918 74.6567 174.43 74.8937 174.056C75.1307 173.678 75.4474 173.382 75.8439 173.168C76.2404 172.954 76.6779 172.794 77.1564 172.689C77.6395 172.58 78.1248 172.493 78.6124 172.43C79.2505 172.348 79.7677 172.286 80.1642 172.245C80.5652 172.199 80.8569 172.124 81.0392 172.019C81.226 171.915 81.3195 171.732 81.3195 171.473V171.418C81.3195 170.743 81.1349 170.219 80.7658 169.846C80.4012 169.472 79.8475 169.285 79.1046 169.285C78.3344 169.285 77.7306 169.454 77.2931 169.791C76.8556 170.128 76.548 170.488 76.3702 170.871L74.839 170.324C75.1124 169.686 75.477 169.189 75.9327 168.834C76.393 168.474 76.8943 168.223 77.4367 168.082C77.9835 167.936 78.5213 167.863 79.0499 167.863C79.3872 167.863 79.7745 167.904 80.212 167.986C80.6541 168.064 81.0802 168.225 81.4904 168.472C81.9051 168.718 82.2492 169.089 82.5226 169.586C82.796 170.083 82.9327 170.748 82.9327 171.582V178.5H81.3195V177.078H81.2374C81.1281 177.306 80.9458 177.55 80.6906 177.809C80.4353 178.069 80.0958 178.29 79.672 178.473C79.2482 178.655 78.7309 178.746 78.1202 178.746ZM78.3663 177.297C79.0044 177.297 79.5421 177.171 79.9796 176.921C80.4217 176.67 80.7544 176.347 80.9777 175.95C81.2055 175.554 81.3195 175.137 81.3195 174.699V173.223C81.2511 173.305 81.1007 173.38 80.8683 173.448C80.6404 173.512 80.3761 173.569 80.0753 173.619C79.7791 173.665 79.4897 173.706 79.2072 173.742C78.9292 173.774 78.7036 173.801 78.5304 173.824C78.1111 173.879 77.7192 173.968 77.3546 174.091C76.9946 174.209 76.7029 174.389 76.4796 174.631C76.2609 174.868 76.1515 175.191 76.1515 175.601C76.1515 176.162 76.3589 176.586 76.7736 176.873C77.1928 177.155 77.7238 177.297 78.3663 177.297ZM85.8773 178.5V168H94.1351V178.5H92.5219V169.504H87.4906V178.5H85.8773ZM97.7445 182.437C97.4711 182.437 97.2273 182.415 97.0131 182.369C96.7989 182.328 96.6508 182.287 96.5687 182.246L96.9789 180.824C97.3708 180.924 97.7172 180.961 98.0179 180.933C98.3187 180.906 98.5853 180.772 98.8178 180.53C99.0547 180.293 99.2712 179.908 99.4672 179.375L99.7679 178.555L95.8851 168H97.6351L100.534 176.367H100.643L103.541 168H105.291L100.834 180.031C100.634 180.573 100.385 181.022 100.089 181.378C99.793 181.738 99.4489 182.004 99.057 182.178C98.6696 182.351 98.2321 182.437 97.7445 182.437ZM111.31 178.719C110.326 178.719 109.478 178.486 108.767 178.021C108.057 177.556 107.51 176.916 107.127 176.1C106.744 175.285 106.553 174.353 106.553 173.305C106.553 172.238 106.749 171.297 107.141 170.481C107.537 169.661 108.088 169.021 108.795 168.56C109.506 168.096 110.335 167.863 111.283 167.863C112.021 167.863 112.687 168 113.279 168.273C113.872 168.547 114.357 168.93 114.735 169.422C115.113 169.914 115.348 170.488 115.439 171.144H113.826C113.703 170.666 113.43 170.242 113.006 169.873C112.586 169.499 112.021 169.312 111.31 169.312C110.682 169.312 110.13 169.476 109.656 169.805C109.187 170.128 108.82 170.586 108.556 171.179C108.296 171.766 108.166 172.457 108.166 173.25C108.166 174.061 108.294 174.767 108.549 175.369C108.808 175.971 109.173 176.438 109.642 176.77C110.116 177.103 110.672 177.269 111.31 177.269C111.73 177.269 112.11 177.196 112.452 177.051C112.794 176.905 113.083 176.695 113.32 176.422C113.557 176.148 113.726 175.82 113.826 175.437H115.439C115.348 176.057 115.123 176.615 114.763 177.112C114.407 177.604 113.935 177.996 113.348 178.288C112.764 178.575 112.085 178.719 111.31 178.719ZM116.971 169.504V168H125.502V169.504H122.057V178.5H120.443V169.504H116.971ZM129.468 176.121L134.527 168H136.386V178.5H134.773V170.379L129.742 178.5H127.855V168H129.468V176.121ZM137.912 169.504V168H146.444V169.504H142.998V178.5H141.385V169.504H137.912ZM152.654 178.719C151.642 178.719 150.77 178.495 150.036 178.049C149.307 177.598 148.744 176.969 148.348 176.162C147.956 175.351 147.76 174.407 147.76 173.332C147.76 172.256 147.956 171.308 148.348 170.488C148.744 169.663 149.295 169.021 150.002 168.56C150.713 168.096 151.542 167.863 152.49 167.863C153.037 167.863 153.577 167.954 154.11 168.137C154.643 168.319 155.129 168.615 155.566 169.025C156.004 169.431 156.352 169.969 156.612 170.639C156.872 171.308 157.002 172.133 157.002 173.113V173.797H148.908V172.402H155.361C155.361 171.81 155.243 171.281 155.006 170.816C154.773 170.351 154.441 169.985 154.008 169.716C153.579 169.447 153.073 169.312 152.49 169.312C151.848 169.312 151.292 169.472 150.822 169.791C150.357 170.105 150 170.515 149.749 171.021C149.498 171.527 149.373 172.07 149.373 172.648V173.578C149.373 174.371 149.51 175.043 149.783 175.595C150.061 176.141 150.446 176.558 150.938 176.846C151.431 177.128 152.002 177.269 152.654 177.269C153.078 177.269 153.461 177.21 153.803 177.092C154.149 176.969 154.447 176.786 154.698 176.545C154.949 176.299 155.142 175.993 155.279 175.629L156.838 176.066C156.674 176.595 156.398 177.06 156.011 177.461C155.623 177.857 155.145 178.167 154.575 178.39C154.005 178.609 153.365 178.719 152.654 178.719ZM164.87 178.5V168H173.128V178.5H171.515V169.504H166.483V178.5H164.87ZM176.074 182.437V168H177.633V169.668H177.824C177.943 169.486 178.107 169.253 178.316 168.971C178.53 168.683 178.836 168.428 179.232 168.205C179.633 167.977 180.176 167.863 180.859 167.863C181.743 167.863 182.523 168.084 183.197 168.526C183.872 168.968 184.398 169.595 184.776 170.406C185.154 171.217 185.344 172.174 185.344 173.277C185.344 174.389 185.154 175.353 184.776 176.169C184.398 176.98 183.874 177.609 183.204 178.056C182.534 178.498 181.762 178.719 180.887 178.719C180.212 178.719 179.672 178.607 179.266 178.384C178.861 178.156 178.549 177.898 178.33 177.611C178.111 177.32 177.943 177.078 177.824 176.887H177.687V182.437H176.074ZM177.66 173.25C177.66 174.043 177.776 174.742 178.009 175.348C178.241 175.95 178.581 176.422 179.027 176.764C179.474 177.101 180.021 177.269 180.668 177.269C181.342 177.269 181.905 177.092 182.356 176.736C182.812 176.376 183.154 175.893 183.382 175.287C183.614 174.676 183.73 173.997 183.73 173.25C183.73 172.512 183.616 171.846 183.389 171.254C183.165 170.657 182.826 170.185 182.37 169.839C181.919 169.488 181.351 169.312 180.668 169.312C180.012 169.312 179.46 169.479 179.014 169.811C178.567 170.139 178.23 170.6 178.002 171.192C177.774 171.78 177.66 172.466 177.66 173.25ZM192.207 178.719C191.195 178.719 190.322 178.495 189.589 178.049C188.86 177.598 188.297 176.969 187.9 176.162C187.508 175.351 187.312 174.407 187.312 173.332C187.312 172.256 187.508 171.308 187.9 170.488C188.297 169.663 188.848 169.021 189.555 168.56C190.266 168.096 191.095 167.863 192.043 167.863C192.59 167.863 193.13 167.954 193.663 168.137C194.196 168.319 194.682 168.615 195.119 169.025C195.557 169.431 195.905 169.969 196.165 170.639C196.425 171.308 196.555 172.133 196.555 173.113V173.797H188.461V172.402H194.914C194.914 171.81 194.795 171.281 194.558 170.816C194.326 170.351 193.993 169.985 193.56 169.716C193.132 169.447 192.626 169.312 192.043 169.312C191.4 169.312 190.844 169.472 190.375 169.791C189.91 170.105 189.552 170.515 189.302 171.021C189.051 171.527 188.926 172.07 188.926 172.648V173.578C188.926 174.371 189.062 175.043 189.336 175.595C189.614 176.141 189.999 176.558 190.491 176.846C190.983 177.128 191.555 177.269 192.207 177.269C192.631 177.269 193.014 177.21 193.355 177.092C193.702 176.969 194 176.786 194.251 176.545C194.502 176.299 194.695 175.993 194.832 175.629L196.391 176.066C196.226 176.595 195.951 177.06 195.563 177.461C195.176 177.857 194.697 178.167 194.128 178.39C193.558 178.609 192.918 178.719 192.207 178.719ZM198.352 175.82H200.075C200.112 176.294 200.326 176.654 200.718 176.9C201.114 177.146 201.629 177.269 202.263 177.269C202.91 177.269 203.463 177.137 203.924 176.873C204.384 176.604 204.614 176.171 204.614 175.574C204.614 175.223 204.528 174.918 204.354 174.658C204.181 174.394 203.937 174.189 203.623 174.043C203.308 173.897 202.937 173.824 202.509 173.824H200.704V172.375H202.509C203.151 172.375 203.625 172.229 203.931 171.937C204.24 171.646 204.395 171.281 204.395 170.844C204.395 170.374 204.229 169.998 203.896 169.716C203.564 169.429 203.092 169.285 202.481 169.285C201.866 169.285 201.353 169.424 200.943 169.702C200.533 169.975 200.317 170.329 200.294 170.762H198.599C198.617 170.196 198.79 169.697 199.118 169.264C199.446 168.827 199.893 168.485 200.458 168.239C201.023 167.988 201.67 167.863 202.399 167.863C203.138 167.863 203.778 167.993 204.32 168.253C204.867 168.508 205.289 168.857 205.585 169.299C205.886 169.736 206.036 170.233 206.036 170.789C206.036 171.381 205.87 171.86 205.537 172.224C205.204 172.589 204.787 172.849 204.286 173.004V173.113C204.682 173.14 205.027 173.268 205.318 173.496C205.614 173.719 205.845 174.013 206.009 174.378C206.173 174.738 206.255 175.137 206.255 175.574C206.255 176.212 206.084 176.768 205.742 177.242C205.4 177.711 204.931 178.076 204.334 178.336C203.737 178.591 203.056 178.719 202.29 178.719C201.547 178.719 200.882 178.598 200.294 178.356C199.706 178.11 199.239 177.771 198.892 177.338C198.551 176.9 198.371 176.394 198.352 175.82ZM212.923 178.719C211.911 178.719 211.039 178.495 210.305 178.049C209.576 177.598 209.013 176.969 208.617 176.162C208.225 175.351 208.029 174.407 208.029 173.332C208.029 172.256 208.225 171.308 208.617 170.488C209.013 169.663 209.564 169.021 210.271 168.56C210.982 168.096 211.811 167.863 212.759 167.863C213.306 167.863 213.846 167.954 214.379 168.137C214.912 168.319 215.398 168.615 215.835 169.025C216.273 169.431 216.621 169.969 216.881 170.639C217.141 171.308 217.271 172.133 217.271 173.113V173.797H209.177V172.402H215.63C215.63 171.81 215.512 171.281 215.275 170.816C215.042 170.351 214.71 169.985 214.277 169.716C213.848 169.447 213.342 169.312 212.759 169.312C212.117 169.312 211.561 169.472 211.091 169.791C210.626 170.105 210.269 170.515 210.018 171.021C209.767 171.527 209.642 172.07 209.642 172.648V173.578C209.642 174.371 209.779 175.043 210.052 175.595C210.33 176.141 210.715 176.558 211.207 176.846C211.7 177.128 212.272 177.269 212.923 177.269C213.347 177.269 213.73 177.21 214.072 177.092C214.418 176.969 214.717 176.786 214.967 176.545C215.218 176.299 215.411 175.993 215.548 175.629L217.107 176.066C216.943 176.595 216.667 177.06 216.28 177.461C215.892 177.857 215.414 178.167 214.844 178.39C214.274 178.609 213.634 178.719 212.923 178.719ZM226.752 172.512V174.015H220.955V172.512H226.752ZM221.338 168V178.5H219.725V168H221.338ZM227.983 168V178.5H226.37V168H227.983ZM229.5 169.504V168H238.032V169.504H234.586V178.5H232.973V169.504H229.5ZM242.93 178.746C242.264 178.746 241.66 178.621 241.118 178.37C240.576 178.115 240.145 177.748 239.826 177.269C239.507 176.786 239.348 176.203 239.348 175.519C239.348 174.918 239.466 174.43 239.703 174.056C239.94 173.678 240.257 173.382 240.653 173.168C241.05 172.954 241.487 172.794 241.966 172.689C242.449 172.58 242.934 172.493 243.422 172.43C244.06 172.348 244.577 172.286 244.974 172.245C245.375 172.199 245.666 172.124 245.849 172.019C246.035 171.915 246.129 171.732 246.129 171.473V171.418C246.129 170.743 245.944 170.219 245.575 169.846C245.21 169.472 244.657 169.285 243.914 169.285C243.144 169.285 242.54 169.454 242.102 169.791C241.665 170.128 241.357 170.488 241.18 170.871L239.648 170.324C239.922 169.686 240.286 169.189 240.742 168.834C241.202 168.474 241.704 168.223 242.246 168.082C242.793 167.936 243.331 167.863 243.859 167.863C244.196 167.863 244.584 167.904 245.021 167.986C245.463 168.064 245.89 168.225 246.3 168.472C246.714 168.718 247.058 169.089 247.332 169.586C247.605 170.083 247.742 170.748 247.742 171.582V178.5H246.129V177.078H246.047C245.937 177.306 245.755 177.55 245.5 177.809C245.245 178.069 244.905 178.29 244.481 178.473C244.057 178.655 243.54 178.746 242.93 178.746ZM243.176 177.297C243.814 177.297 244.351 177.171 244.789 176.921C245.231 176.67 245.564 176.347 245.787 175.95C246.015 175.554 246.129 175.137 246.129 174.699V173.223C246.06 173.305 245.91 173.38 245.678 173.448C245.45 173.512 245.185 173.569 244.885 173.619C244.588 173.665 244.299 173.706 244.016 173.742C243.738 173.774 243.513 173.801 243.34 173.824C242.92 173.879 242.529 173.968 242.164 174.091C241.804 174.209 241.512 174.389 241.289 174.631C241.07 174.868 240.961 175.191 240.961 175.601C240.961 176.162 241.168 176.586 241.583 176.873C242.002 177.155 242.533 177.297 243.176 177.297ZM258.944 168V176.996H260.421V181.89H258.808V178.5H250.687V168H252.3V176.996H257.331V168H258.944ZM264.519 176.121L269.578 168H271.437V178.5H269.824V170.379L264.793 178.5H262.906V168H264.519V176.121ZM279.423 172.594V174.098H273.872V172.594H279.423ZM275.24 168V178.5H273.626V168H275.24ZM282.65 178.719C281.702 178.719 280.87 178.493 280.155 178.042C279.444 177.591 278.888 176.959 278.487 176.148C278.09 175.337 277.892 174.389 277.892 173.305C277.892 172.211 278.09 171.256 278.487 170.44C278.888 169.625 279.444 168.991 280.155 168.54C280.87 168.089 281.702 167.863 282.65 167.863C283.598 167.863 284.427 168.089 285.138 168.54C285.854 168.991 286.41 169.625 286.806 170.44C287.207 171.256 287.408 172.211 287.408 173.305C287.408 174.389 287.207 175.337 286.806 176.148C286.41 176.959 285.854 177.591 285.138 178.042C284.427 178.493 283.598 178.719 282.65 178.719ZM282.65 177.269C283.37 177.269 283.962 177.085 284.427 176.716C284.892 176.347 285.236 175.861 285.459 175.26C285.683 174.658 285.794 174.006 285.794 173.305C285.794 172.603 285.683 171.949 285.459 171.343C285.236 170.737 284.892 170.247 284.427 169.873C283.962 169.499 283.37 169.312 282.65 169.312C281.93 169.312 281.337 169.499 280.872 169.873C280.408 170.247 280.064 170.737 279.84 171.343C279.617 171.949 279.505 172.603 279.505 173.305C279.505 174.006 279.617 174.658 279.84 175.26C280.064 175.861 280.408 176.347 280.872 176.716C281.337 177.085 281.93 177.269 282.65 177.269ZM297.06 176.121L302.119 168H303.978V178.5H302.365V170.379L297.333 178.5H295.447V168H297.06V176.121ZM105.907 205.5V195H107.521V199.566H108.587L112.361 195H114.439L110.2 200.058L114.493 205.5H112.415L108.97 201.07H107.521V205.5H105.907ZM116.247 209.437V195H117.805V196.668H117.997C118.115 196.486 118.279 196.253 118.489 195.971C118.703 195.683 119.009 195.428 119.405 195.205C119.806 194.977 120.348 194.863 121.032 194.863C121.916 194.863 122.695 195.084 123.37 195.526C124.044 195.968 124.571 196.595 124.949 197.406C125.327 198.217 125.516 199.174 125.516 200.277C125.516 201.389 125.327 202.353 124.949 203.169C124.571 203.98 124.047 204.609 123.377 205.056C122.707 205.498 121.934 205.719 121.059 205.719C120.385 205.719 119.845 205.607 119.439 205.384C119.034 205.156 118.721 204.898 118.503 204.611C118.284 204.32 118.115 204.078 117.997 203.887H117.86V209.437H116.247ZM117.833 200.25C117.833 201.043 117.949 201.742 118.181 202.348C118.414 202.95 118.753 203.422 119.2 203.764C119.647 204.101 120.193 204.269 120.841 204.269C121.515 204.269 122.078 204.092 122.529 203.736C122.985 203.376 123.327 202.893 123.554 202.287C123.787 201.676 123.903 200.997 123.903 200.25C123.903 199.512 123.789 198.846 123.561 198.254C123.338 197.657 122.998 197.185 122.543 196.839C122.092 196.488 121.524 196.312 120.841 196.312C120.184 196.312 119.633 196.479 119.186 196.811C118.74 197.139 118.402 197.6 118.175 198.192C117.947 198.78 117.833 199.466 117.833 200.25ZM128.64 209.437C128.367 209.437 128.123 209.415 127.909 209.369C127.695 209.328 127.547 209.287 127.465 209.246L127.875 207.824C128.267 207.924 128.613 207.961 128.914 207.933C129.215 207.906 129.481 207.772 129.714 207.53C129.951 207.293 130.167 206.908 130.363 206.375L130.664 205.555L126.781 195H128.531L131.429 203.367H131.539L134.437 195H136.187L131.73 207.031C131.53 207.573 131.281 208.022 130.985 208.378C130.689 208.738 130.345 209.004 129.953 209.178C129.566 209.351 129.128 209.437 128.64 209.437ZM137.715 196.504V195H146.246V196.504H142.801V205.5H141.188V196.504H137.715ZM150.213 203.121L155.271 195H157.131V205.5H155.518V197.379L150.486 205.5H148.6V195H150.213V203.121ZM158.657 196.504V195H167.188V196.504H163.743V205.5H162.13V196.504H158.657ZM173.399 205.719C172.387 205.719 171.514 205.495 170.781 205.049C170.051 204.598 169.489 203.969 169.092 203.162C168.7 202.351 168.504 201.407 168.504 200.332C168.504 199.256 168.7 198.308 169.092 197.488C169.489 196.663 170.04 196.021 170.746 195.56C171.457 195.096 172.287 194.863 173.235 194.863C173.781 194.863 174.322 194.954 174.855 195.137C175.388 195.319 175.873 195.615 176.311 196.025C176.748 196.431 177.097 196.969 177.357 197.639C177.616 198.308 177.746 199.133 177.746 200.113V200.797H169.653V199.402H176.106C176.106 198.81 175.987 198.281 175.75 197.816C175.518 197.351 175.185 196.985 174.752 196.716C174.324 196.447 173.818 196.312 173.235 196.312C172.592 196.312 172.036 196.472 171.567 196.791C171.102 197.105 170.744 197.515 170.493 198.021C170.243 198.527 170.117 199.07 170.117 199.648V200.578C170.117 201.371 170.254 202.043 170.528 202.595C170.806 203.141 171.191 203.558 171.683 203.846C172.175 204.128 172.747 204.269 173.399 204.269C173.823 204.269 174.205 204.21 174.547 204.092C174.893 203.969 175.192 203.786 175.443 203.545C175.693 203.299 175.887 202.993 176.024 202.629L177.582 203.066C177.418 203.595 177.142 204.06 176.755 204.461C176.368 204.857 175.889 205.167 175.32 205.39C174.75 205.609 174.11 205.719 173.399 205.719ZM193.407 191.062L194.228 192.047C193.909 192.357 193.54 192.573 193.12 192.696C192.701 192.819 192.227 192.894 191.698 192.922C191.17 192.949 190.582 192.976 189.935 193.004C189.206 193.031 188.602 193.209 188.123 193.537C187.645 193.865 187.276 194.339 187.016 194.959C186.756 195.579 186.59 196.34 186.517 197.242H186.654C187.009 196.586 187.501 196.103 188.13 195.793C188.759 195.483 189.434 195.328 190.154 195.328C190.974 195.328 191.712 195.519 192.368 195.902C193.025 196.285 193.544 196.852 193.927 197.604C194.31 198.356 194.501 199.284 194.501 200.387C194.501 201.485 194.305 202.433 193.913 203.23C193.526 204.028 192.981 204.643 192.28 205.076C191.582 205.504 190.764 205.719 189.825 205.719C188.887 205.719 188.064 205.498 187.358 205.056C186.651 204.609 186.102 203.948 185.71 203.073C185.318 202.194 185.122 201.107 185.122 199.812V198.691C185.122 196.353 185.519 194.581 186.312 193.373C187.109 192.165 188.308 191.541 189.907 191.5C190.473 191.482 190.976 191.477 191.418 191.486C191.86 191.495 192.245 191.475 192.573 191.425C192.902 191.375 193.18 191.254 193.407 191.062ZM189.825 204.269C190.459 204.269 191.003 204.11 191.459 203.791C191.92 203.472 192.273 203.023 192.519 202.444C192.765 201.861 192.888 201.175 192.888 200.387C192.888 199.621 192.763 198.969 192.512 198.431C192.266 197.894 191.913 197.484 191.452 197.201C190.992 196.918 190.441 196.777 189.798 196.777C189.329 196.777 188.907 196.857 188.533 197.016C188.16 197.176 187.841 197.411 187.576 197.721C187.312 198.03 187.107 198.409 186.961 198.855C186.82 199.302 186.745 199.812 186.736 200.387C186.736 201.562 187.011 202.503 187.563 203.21C188.114 203.916 188.868 204.269 189.825 204.269ZM200.059 205.746C199.393 205.746 198.79 205.621 198.247 205.37C197.705 205.115 197.274 204.748 196.955 204.269C196.636 203.786 196.477 203.203 196.477 202.519C196.477 201.918 196.595 201.43 196.832 201.056C197.069 200.678 197.386 200.382 197.782 200.168C198.179 199.954 198.616 199.794 199.095 199.689C199.578 199.58 200.063 199.493 200.551 199.43C201.189 199.348 201.706 199.286 202.103 199.245C202.504 199.199 202.795 199.124 202.978 199.019C203.165 198.915 203.258 198.732 203.258 198.473V198.418C203.258 197.743 203.073 197.219 202.704 196.846C202.34 196.472 201.786 196.285 201.043 196.285C200.273 196.285 199.669 196.454 199.232 196.791C198.794 197.128 198.487 197.488 198.309 197.871L196.778 197.324C197.051 196.686 197.416 196.189 197.871 195.834C198.332 195.474 198.833 195.223 199.375 195.082C199.922 194.936 200.46 194.863 200.989 194.863C201.326 194.863 201.713 194.904 202.151 194.986C202.593 195.064 203.019 195.225 203.429 195.472C203.844 195.718 204.188 196.089 204.461 196.586C204.735 197.083 204.871 197.748 204.871 198.582V205.5H203.258V204.078H203.176C203.067 204.306 202.884 204.55 202.629 204.809C202.374 205.069 202.034 205.29 201.611 205.473C201.187 205.655 200.67 205.746 200.059 205.746ZM200.305 204.297C200.943 204.297 201.481 204.171 201.918 203.921C202.36 203.67 202.693 203.347 202.916 202.95C203.144 202.554 203.258 202.137 203.258 201.699V200.223C203.19 200.305 203.039 200.38 202.807 200.448C202.579 200.512 202.315 200.569 202.014 200.619C201.718 200.665 201.428 200.706 201.146 200.742C200.868 200.774 200.642 200.801 200.469 200.824C200.05 200.879 199.658 200.968 199.293 201.091C198.933 201.209 198.642 201.389 198.418 201.631C198.199 201.868 198.09 202.191 198.09 202.601C198.09 203.162 198.297 203.586 198.712 203.873C199.131 204.155 199.662 204.297 200.305 204.297ZM207.816 209.437V195H209.375V196.668H209.566C209.684 196.486 209.848 196.253 210.058 195.971C210.272 195.683 210.578 195.428 210.974 195.205C211.375 194.977 211.917 194.863 212.601 194.863C213.485 194.863 214.264 195.084 214.939 195.526C215.613 195.968 216.14 196.595 216.518 197.406C216.896 198.217 217.085 199.174 217.085 200.277C217.085 201.389 216.896 202.353 216.518 203.169C216.14 203.98 215.616 204.609 214.946 205.056C214.276 205.498 213.503 205.719 212.628 205.719C211.954 205.719 211.414 205.607 211.008 205.384C210.603 205.156 210.291 204.898 210.072 204.611C209.853 204.32 209.684 204.078 209.566 203.887H209.429V209.437H207.816ZM209.402 200.25C209.402 201.043 209.518 201.742 209.75 202.348C209.983 202.95 210.322 203.422 210.769 203.764C211.216 204.101 211.763 204.269 212.41 204.269C213.084 204.269 213.647 204.092 214.098 203.736C214.554 203.376 214.896 202.893 215.124 202.287C215.356 201.676 215.472 200.997 215.472 200.25C215.472 199.512 215.358 198.846 215.13 198.254C214.907 197.657 214.568 197.185 214.112 196.839C213.661 196.488 213.093 196.312 212.41 196.312C211.753 196.312 211.202 196.479 210.755 196.811C210.309 197.139 209.972 197.6 209.744 198.192C209.516 198.78 209.402 199.466 209.402 200.25ZM222.636 205.746C221.971 205.746 221.367 205.621 220.825 205.37C220.282 205.115 219.852 204.748 219.533 204.269C219.214 203.786 219.054 203.203 219.054 202.519C219.054 201.918 219.173 201.43 219.41 201.056C219.647 200.678 219.963 200.382 220.36 200.168C220.756 199.954 221.194 199.794 221.672 199.689C222.155 199.58 222.641 199.493 223.128 199.43C223.766 199.348 224.284 199.286 224.68 199.245C225.081 199.199 225.373 199.124 225.555 199.019C225.742 198.915 225.835 198.732 225.835 198.473V198.418C225.835 197.743 225.651 197.219 225.282 196.846C224.917 196.472 224.363 196.285 223.621 196.285C222.85 196.285 222.247 196.454 221.809 196.791C221.372 197.128 221.064 197.488 220.886 197.871L219.355 197.324C219.628 196.686 219.993 196.189 220.449 195.834C220.909 195.474 221.41 195.223 221.953 195.082C222.5 194.936 223.037 194.863 223.566 194.863C223.903 194.863 224.291 194.904 224.728 194.986C225.17 195.064 225.596 195.225 226.006 195.472C226.421 195.718 226.765 196.089 227.039 196.586C227.312 197.083 227.449 197.748 227.449 198.582V205.5H225.835V204.078H225.753C225.644 204.306 225.462 204.55 225.207 204.809C224.951 205.069 224.612 205.29 224.188 205.473C223.764 205.655 223.247 205.746 222.636 205.746ZM222.882 204.297C223.52 204.297 224.058 204.171 224.496 203.921C224.938 203.67 225.27 203.347 225.494 202.95C225.722 202.554 225.835 202.137 225.835 201.699V200.223C225.767 200.305 225.617 200.38 225.384 200.448C225.156 200.512 224.892 200.569 224.591 200.619C224.295 200.665 224.006 200.706 223.723 200.742C223.445 200.774 223.22 200.801 223.046 200.824C222.627 200.879 222.235 200.968 221.871 201.091C221.511 201.209 221.219 201.389 220.996 201.631C220.777 201.868 220.667 202.191 220.667 202.601C220.667 203.162 220.875 203.586 221.29 203.873C221.709 204.155 222.24 204.297 222.882 204.297ZM238.186 191.062L239.007 192.047C238.688 192.357 238.318 192.573 237.899 192.696C237.48 192.819 237.006 192.894 236.477 192.922C235.949 192.949 235.361 192.976 234.714 193.004C233.984 193.031 233.381 193.209 232.902 193.537C232.424 193.865 232.054 194.339 231.795 194.959C231.535 195.579 231.369 196.34 231.296 197.242H231.432C231.788 196.586 232.28 196.103 232.909 195.793C233.538 195.483 234.212 195.328 234.932 195.328C235.753 195.328 236.491 195.519 237.147 195.902C237.803 196.285 238.323 196.852 238.706 197.604C239.089 198.356 239.28 199.284 239.28 200.387C239.28 201.485 239.084 202.433 238.692 203.23C238.305 204.028 237.76 204.643 237.058 205.076C236.361 205.504 235.543 205.719 234.604 205.719C233.665 205.719 232.843 205.498 232.136 205.056C231.43 204.609 230.881 203.948 230.489 203.073C230.097 202.194 229.901 201.107 229.901 199.812V198.691C229.901 196.353 230.298 194.581 231.091 193.373C231.888 192.165 233.087 191.541 234.686 191.5C235.251 191.482 235.755 191.477 236.197 191.486C236.639 191.495 237.024 191.475 237.352 191.425C237.68 191.375 237.958 191.254 238.186 191.062ZM234.604 204.269C235.238 204.269 235.782 204.11 236.238 203.791C236.698 203.472 237.052 203.023 237.298 202.444C237.544 201.861 237.667 201.175 237.667 200.387C237.667 199.621 237.541 198.969 237.291 198.431C237.045 197.894 236.691 197.484 236.231 197.201C235.771 196.918 235.219 196.777 234.577 196.777C234.108 196.777 233.686 196.857 233.312 197.016C232.939 197.176 232.62 197.411 232.355 197.721C232.091 198.03 231.886 198.409 231.74 198.855C231.599 199.302 231.524 199.812 231.514 200.387C231.514 201.562 231.79 202.503 232.342 203.21C232.893 203.916 233.647 204.269 234.604 204.269ZM244.838 205.746C244.172 205.746 243.568 205.621 243.026 205.37C242.484 205.115 242.053 204.748 241.734 204.269C241.415 203.786 241.256 203.203 241.256 202.519C241.256 201.918 241.374 201.43 241.611 201.056C241.848 200.678 242.165 200.382 242.561 200.168C242.958 199.954 243.395 199.794 243.874 199.689C244.357 199.58 244.842 199.493 245.33 199.43C245.968 199.348 246.485 199.286 246.882 199.245C247.283 199.199 247.574 199.124 247.757 199.019C247.943 198.915 248.037 198.732 248.037 198.473V198.418C248.037 197.743 247.852 197.219 247.483 196.846C247.119 196.472 246.565 196.285 245.822 196.285C245.052 196.285 244.448 196.454 244.01 196.791C243.573 197.128 243.265 197.488 243.088 197.871L241.556 197.324C241.83 196.686 242.194 196.189 242.65 195.834C243.11 195.474 243.612 195.223 244.154 195.082C244.701 194.936 245.239 194.863 245.767 194.863C246.105 194.863 246.492 194.904 246.929 194.986C247.372 195.064 247.798 195.225 248.208 195.472C248.622 195.718 248.967 196.089 249.24 196.586C249.513 197.083 249.65 197.748 249.65 198.582V205.5H248.037V204.078H247.955C247.845 204.306 247.663 204.55 247.408 204.809C247.153 205.069 246.813 205.29 246.389 205.473C245.966 205.655 245.448 205.746 244.838 205.746ZM245.084 204.297C245.722 204.297 246.26 204.171 246.697 203.921C247.139 203.67 247.472 203.347 247.695 202.95C247.923 202.554 248.037 202.137 248.037 201.699V200.223C247.969 200.305 247.818 200.38 247.586 200.448C247.358 200.512 247.094 200.569 246.793 200.619C246.497 200.665 246.207 200.706 245.925 200.742C245.647 200.774 245.421 200.801 245.248 200.824C244.829 200.879 244.437 200.968 244.072 201.091C243.712 201.209 243.42 201.389 243.197 201.631C242.978 201.868 242.869 202.191 242.869 202.601C242.869 203.162 243.076 203.586 243.491 203.873C243.91 204.155 244.441 204.297 245.084 204.297ZM259.622 199.512V201.015H253.825V199.512H259.622ZM254.208 195V205.5H252.595V195H254.208ZM260.853 195V205.5H259.239V195H260.853Z" fill="#64748B"/>
</g>
<defs>
<filter id="filter0_d_132_109" x="1.90735e-06" y="1.90735e-06" width="365.75" height="272.25" filterUnits="userSpaceOnUse" color-interpolation-filters="sRGB">
<feFlood flood-opacity="0" result="BackgroundImageFix"/>
<feColorMatrix in="SourceAlpha" type="matrix" values="0 0 0 0 0 0 0 0 0 0 0 0 0 0 0 0 0 0 127 0" result="hardAlpha"/>
<feOffset dy="5.5"/>
<feGaussianBlur stdDeviation="9.625"/>
<feComposite in2="hardAlpha" operator="out"/>
<feColorMatrix type="matrix" values="0 0 0 0 0.180392 0 0 0 0 0.407843 0 0 0 0 0.960784 0 0 0 0.12 0"/>
<feBlend mode="normal" in2="BackgroundImageFix" result="effect1_dropShadow_132_109"/>
<feBlend mode="normal" in="SourceGraphic" in2="effect1_dropShadow_132_109" result="shape"/>
</filter>
<linearGradient id="paint0_linear_132_109" x1="166.339" y1="-4.12503" x2="233.296" y2="11.1932" gradientUnits="userSpaceOnUse">
<stop stop-color="#2E68F5"/>
<stop offset="1" stop-color="#5B8AF7"/>
</linearGradient>
</defs>
</svg>
