<svg width="592" height="113" viewBox="0 0 592 113" fill="none" xmlns="http://www.w3.org/2000/svg">
<g filter="url(#filter0_dd_132_304)">
<rect x="20.625" y="6.875" width="550" height="71.5" rx="27.5" fill="#2563EB"/>
<path d="M265.61 50.875V34.875H271.735C272.892 34.875 273.853 35.0573 274.618 35.4219C275.389 35.7812 275.965 36.2734 276.345 36.8984C276.73 37.5234 276.923 38.2318 276.923 39.0234C276.923 39.6745 276.798 40.2318 276.548 40.6953C276.298 41.1536 275.962 41.526 275.54 41.8125C275.118 42.099 274.647 42.3047 274.126 42.4297V42.5859C274.694 42.6172 275.238 42.7917 275.759 43.1094C276.285 43.4219 276.715 43.8646 277.048 44.4375C277.381 45.0104 277.548 45.7031 277.548 46.5156C277.548 47.3437 277.347 48.0885 276.946 48.75C276.545 49.4062 275.941 49.9245 275.134 50.3047C274.326 50.6849 273.311 50.875 272.087 50.875H265.61ZM268.509 48.4531H271.626C272.678 48.4531 273.436 48.2526 273.899 47.8516C274.368 47.4453 274.603 46.9245 274.603 46.2891C274.603 45.8151 274.485 45.388 274.251 45.0078C274.017 44.6224 273.683 44.3203 273.251 44.1016C272.819 43.8776 272.303 43.7656 271.704 43.7656H268.509V48.4531ZM268.509 41.6797H271.376C271.876 41.6797 272.326 41.5885 272.728 41.4062C273.129 41.2187 273.444 40.9557 273.673 40.6172C273.907 40.2734 274.024 39.8672 274.024 39.3984C274.024 38.7786 273.806 38.2682 273.368 37.8672C272.936 37.4661 272.293 37.2656 271.438 37.2656H268.509V41.6797ZM284.491 51.1094C283.319 51.1094 282.304 50.8516 281.444 50.3359C280.585 49.8203 279.918 49.099 279.444 48.1719C278.976 47.2448 278.741 46.1615 278.741 44.9219C278.741 43.6823 278.976 42.5964 279.444 41.6641C279.918 40.7318 280.585 40.0078 281.444 39.4922C282.304 38.9766 283.319 38.7188 284.491 38.7188C285.663 38.7188 286.679 38.9766 287.538 39.4922C288.397 40.0078 289.062 40.7318 289.53 41.6641C290.004 42.5964 290.241 43.6823 290.241 44.9219C290.241 46.1615 290.004 47.2448 289.53 48.1719C289.062 49.099 288.397 49.8203 287.538 50.3359C286.679 50.8516 285.663 51.1094 284.491 51.1094ZM284.507 48.8437C285.142 48.8437 285.674 48.6693 286.101 48.3203C286.528 47.9661 286.845 47.4922 287.054 46.8984C287.267 46.3047 287.374 45.6432 287.374 44.9141C287.374 44.1797 287.267 43.5156 287.054 42.9219C286.845 42.3229 286.528 41.8464 286.101 41.4922C285.674 41.138 285.142 40.9609 284.507 40.9609C283.856 40.9609 283.314 41.138 282.882 41.4922C282.455 41.8464 282.134 42.3229 281.921 42.9219C281.713 43.5156 281.608 44.1797 281.608 44.9141C281.608 45.6432 281.713 46.3047 281.921 46.8984C282.134 47.4922 282.455 47.9661 282.882 48.3203C283.314 48.6693 283.856 48.8437 284.507 48.8437ZM294.681 47.0469L299.485 38.875H302.392V50.875H299.657V42.6953L294.868 50.875H291.954V38.875H294.681V47.0469ZM298.712 34.75H300.829C300.829 35.6615 300.498 36.401 299.837 36.9687C299.181 37.5312 298.29 37.8125 297.165 37.8125C296.05 37.8125 295.162 37.5312 294.501 36.9687C293.845 36.401 293.519 35.6615 293.524 34.75H295.626C295.626 35.125 295.741 35.4609 295.97 35.7578C296.204 36.0495 296.603 36.1953 297.165 36.1953C297.717 36.1953 298.11 36.0495 298.345 35.7578C298.584 35.4661 298.707 35.1302 298.712 34.75ZM303.265 41.1953V38.875H313.765V41.1953H309.882V50.875H307.147V41.1953H303.265ZM318.056 47.0469L322.86 38.875H325.767V50.875H323.032V42.6953L318.243 50.875H315.329V38.875H318.056V47.0469Z" fill="white"/>
</g>
<defs>
<filter id="filter0_dd_132_304" x="0" y="0" width="591.25" height="112.75" filterUnits="userSpaceOnUse" color-interpolation-filters="sRGB">
<feFlood flood-opacity="0" result="BackgroundImageFix"/>
<feColorMatrix in="SourceAlpha" type="matrix" values="0 0 0 0 0 0 0 0 0 0 0 0 0 0 0 0 0 0 127 0" result="hardAlpha"/>
<feOffset dy="13.75"/>
<feGaussianBlur stdDeviation="10.3125"/>
<feColorMatrix type="matrix" values="0 0 0 0 0.145098 0 0 0 0 0.388235 0 0 0 0 0.921569 0 0 0 0.2 0"/>
<feBlend mode="normal" in2="BackgroundImageFix" result="effect1_dropShadow_132_304"/>
<feColorMatrix in="SourceAlpha" type="matrix" values="0 0 0 0 0 0 0 0 0 0 0 0 0 0 0 0 0 0 127 0" result="hardAlpha"/>
<feOffset dy="5.5"/>
<feGaussianBlur stdDeviation="4.125"/>
<feColorMatrix type="matrix" values="0 0 0 0 0.145098 0 0 0 0 0.388235 0 0 0 0 0.921569 0 0 0 0.2 0"/>
<feBlend mode="normal" in2="effect1_dropShadow_132_304" result="effect2_dropShadow_132_304"/>
<feBlend mode="normal" in="SourceGraphic" in2="effect2_dropShadow_132_304" result="shape"/>
</filter>
</defs>
</svg>
