<svg width="88" height="88" viewBox="0 0 88 88" fill="none" xmlns="http://www.w3.org/2000/svg">
<path d="M66 0C78.1503 0 88 9.84974 88 22V66C88 78.1503 78.1503 88 66 88H22C9.84974 88 0 78.1503 0 66V22C0 9.84974 9.84974 0 22 0H66Z" fill="url(#paint0_linear_132_273)"/>
<g clip-path="url(#clip0_132_273)">
<path d="M59.6686 26.531C60.1906 26.9177 60.5 27.5365 60.5 28.1874V32.8281V49.8437C60.5 52.6925 57.7285 54.9999 54.3125 54.9999C50.8965 54.9999 48.125 52.6925 48.125 49.8437C48.125 46.9949 50.8965 44.6874 54.3125 44.6874C55.0344 44.6874 55.7305 44.7906 56.375 44.9839V35.5996L39.875 40.5496V53.9687C39.875 56.8175 37.1035 59.1249 33.6875 59.1249C30.2715 59.1249 27.5 56.8175 27.5 53.9687C27.5 51.1199 30.2715 48.8124 33.6875 48.8124C34.4094 48.8124 35.1055 48.9156 35.75 49.1089V39.0156V34.3749C35.75 33.4662 36.3494 32.6605 37.2195 32.3962L57.8445 26.2087C58.4697 26.0218 59.1465 26.1378 59.6686 26.531Z" fill="white"/>
</g>
<defs>
<linearGradient id="paint0_linear_132_273" x1="-31.1127" y1="31.1127" x2="31.1127" y2="93.3381" gradientUnits="userSpaceOnUse">
<stop stop-color="#2563EB"/>
<stop offset="1" stop-color="#1D4ED8"/>
</linearGradient>
<clipPath id="clip0_132_273">
<path d="M27.5 26.125H60.5V59.125H27.5V26.125Z" fill="white"/>
</clipPath>
</defs>
</svg>
