<svg width="327" height="66" viewBox="0 0 327 66" fill="none" xmlns="http://www.w3.org/2000/svg">
<rect width="326.095" height="66" rx="8.25" fill="white"/>
<path d="M45.9638 41.25V25.25H49.3466V31.8516H56.2138V25.25H59.5888V41.25H56.2138V34.6407H49.3466V41.25H45.9638ZM65.7372 41.4766C64.9716 41.4766 64.2893 41.3438 63.6903 41.0782C63.0914 40.8073 62.6174 40.4089 62.2684 39.8828C61.9247 39.3516 61.7528 38.6901 61.7528 37.8985C61.7528 37.2318 61.8752 36.6719 62.12 36.2188C62.3648 35.7657 62.6981 35.4011 63.12 35.125C63.5419 34.849 64.0211 34.6407 64.5575 34.5C65.0992 34.3594 65.6669 34.2604 66.2606 34.2032C66.9586 34.1302 67.5211 34.0625 67.9481 34C68.3752 33.9323 68.6851 33.8334 68.8778 33.7032C69.0705 33.5729 69.1669 33.3802 69.1669 33.125V33.0782C69.1669 32.5834 69.0106 32.2006 68.6981 31.9297C68.3908 31.6589 67.9533 31.5235 67.3856 31.5235C66.7867 31.5235 66.3101 31.6563 65.9559 31.9219C65.6018 32.1823 65.3674 32.5104 65.2528 32.9063L62.1747 32.6563C62.3309 31.9271 62.6382 31.2969 63.0966 30.7657C63.5549 30.2292 64.1461 29.8177 64.87 29.5313C65.5992 29.2396 66.4429 29.0938 67.4013 29.0938C68.0679 29.0938 68.7059 29.1719 69.3153 29.3282C69.9299 29.4844 70.4742 29.7266 70.9481 30.0547C71.4273 30.3828 71.8049 30.8047 72.0809 31.3203C72.357 31.8308 72.495 32.4427 72.495 33.1563V41.25H69.3388V39.586H69.245C69.0523 39.961 68.7945 40.2917 68.4716 40.5782C68.1487 40.8594 67.7606 41.0808 67.3075 41.2422C66.8544 41.3985 66.3309 41.4766 65.7372 41.4766ZM66.6903 39.1797C67.1799 39.1797 67.6122 39.0834 67.9872 38.8907C68.3622 38.6927 68.6565 38.4271 68.87 38.0938C69.0836 37.7604 69.1903 37.3828 69.1903 36.961V35.6875C69.0862 35.7552 68.9429 35.8177 68.7606 35.875C68.5836 35.9271 68.383 35.9766 68.1591 36.0235C67.9351 36.0651 67.7112 36.1042 67.4872 36.1407C67.2632 36.1719 67.0601 36.2006 66.8778 36.2266C66.4872 36.2839 66.1461 36.375 65.8544 36.5C65.5627 36.625 65.3362 36.7943 65.1747 37.0078C65.0132 37.2162 64.9325 37.4766 64.9325 37.7891C64.9325 38.2422 65.0966 38.5886 65.4247 38.8282C65.758 39.0625 66.1799 39.1797 66.6903 39.1797ZM85.4911 29.25V41.25H82.3349V29.25H85.4911ZM83.952 34.5157V37.1407C83.6968 37.2552 83.3791 37.3646 82.9989 37.4688C82.6187 37.5677 82.2203 37.6485 81.8036 37.711C81.3869 37.7735 80.9963 37.8047 80.6317 37.8047C78.9078 37.8047 77.551 37.4506 76.5614 36.7422C75.5718 36.0287 75.077 34.8907 75.077 33.3282V29.2344H78.2177V33.3282C78.2177 33.7917 78.2958 34.1589 78.452 34.4297C78.6135 34.7006 78.8687 34.8959 79.2177 35.0157C79.5718 35.1302 80.0432 35.1875 80.6317 35.1875C81.1786 35.1875 81.7151 35.1302 82.2411 35.0157C82.7671 34.9011 83.3375 34.7344 83.952 34.5157ZM91.497 41.4766C90.7313 41.4766 90.049 41.3438 89.4501 41.0782C88.8511 40.8073 88.3772 40.4089 88.0282 39.8828C87.6845 39.3516 87.5126 38.6901 87.5126 37.8985C87.5126 37.2318 87.635 36.6719 87.8798 36.2188C88.1246 35.7657 88.4579 35.4011 88.8798 35.125C89.3017 34.849 89.7808 34.6407 90.3173 34.5C90.8589 34.3594 91.4267 34.2604 92.0204 34.2032C92.7183 34.1302 93.2808 34.0625 93.7079 34C94.135 33.9323 94.4449 33.8334 94.6376 33.7032C94.8303 33.5729 94.9267 33.3802 94.9267 33.125V33.0782C94.9267 32.5834 94.7704 32.2006 94.4579 31.9297C94.1506 31.6589 93.7131 31.5235 93.1454 31.5235C92.5464 31.5235 92.0699 31.6563 91.7157 31.9219C91.3615 32.1823 91.1272 32.5104 91.0126 32.9063L87.9345 32.6563C88.0907 31.9271 88.398 31.2969 88.8563 30.7657C89.3147 30.2292 89.9058 29.8177 90.6298 29.5313C91.3589 29.2396 92.2027 29.0938 93.161 29.0938C93.8277 29.0938 94.4657 29.1719 95.0751 29.3282C95.6897 29.4844 96.2339 29.7266 96.7079 30.0547C97.1871 30.3828 97.5647 30.8047 97.8407 31.3203C98.1168 31.8308 98.2548 32.4427 98.2548 33.1563V41.25H95.0985V39.586H95.0048C94.8121 39.961 94.5543 40.2917 94.2313 40.5782C93.9084 40.8594 93.5204 41.0808 93.0673 41.2422C92.6142 41.3985 92.0907 41.4766 91.497 41.4766ZM92.4501 39.1797C92.9397 39.1797 93.372 39.0834 93.747 38.8907C94.122 38.6927 94.4162 38.4271 94.6298 38.0938C94.8433 37.7604 94.9501 37.3828 94.9501 36.961V35.6875C94.8459 35.7552 94.7027 35.8177 94.5204 35.875C94.3433 35.9271 94.1428 35.9766 93.9188 36.0235C93.6949 36.0651 93.4709 36.1042 93.247 36.1407C93.023 36.1719 92.8199 36.2006 92.6376 36.2266C92.247 36.2839 91.9058 36.375 91.6142 36.5C91.3225 36.625 91.0959 36.7943 90.9345 37.0078C90.773 37.2162 90.6923 37.4766 90.6923 37.7891C90.6923 38.2422 90.8563 38.5886 91.1845 38.8282C91.5178 39.0625 91.9397 39.1797 92.4501 39.1797ZM99.6317 31.8672V29.25H110.507V31.8672H106.64V41.25H103.468V31.8672H99.6317ZM114.61 32.9375H118.196C119.785 32.9375 121.024 33.3177 121.915 34.0782C122.806 34.8334 123.251 35.8438 123.251 37.1094C123.251 37.9323 123.05 38.6563 122.649 39.2813C122.248 39.9011 121.67 40.3854 120.915 40.7344C120.16 41.0782 119.253 41.25 118.196 41.25H112.524V29.25H115.704V38.6328H118.196C118.753 38.6328 119.212 38.4922 119.571 38.211C119.931 37.9297 120.113 37.5703 120.118 37.1328C120.113 36.6693 119.931 36.2917 119.571 36C119.212 35.7032 118.753 35.5547 118.196 35.5547H114.61V32.9375ZM140.526 24.8438L141.542 27.0157C141.203 27.2969 140.828 27.5052 140.417 27.6407C140.005 27.7709 139.513 27.8568 138.94 27.8985C138.373 27.9401 137.68 27.9688 136.862 27.9844C135.935 27.9948 135.18 28.1433 134.597 28.4297C134.013 28.7162 133.571 29.1667 133.268 29.7813C132.966 30.3907 132.768 31.1875 132.675 32.1719H132.792C133.151 31.4375 133.656 30.8698 134.308 30.4688C134.964 30.0677 135.774 29.8672 136.737 29.8672C137.758 29.8672 138.651 30.0912 139.417 30.5391C140.188 30.987 140.787 31.6302 141.214 32.4688C141.641 33.3073 141.854 34.3125 141.854 35.4844C141.854 36.7032 141.615 37.7631 141.136 38.6641C140.662 39.5599 139.987 40.2552 139.112 40.75C138.237 41.2396 137.196 41.4844 135.987 41.4844C134.774 41.4844 133.727 41.2292 132.847 40.7188C131.972 40.2084 131.294 39.4558 130.815 38.461C130.341 37.4662 130.104 36.2422 130.104 34.7891V33.8047C130.104 30.9141 130.667 28.7709 131.792 27.375C132.917 25.9792 134.571 25.2709 136.753 25.25C137.347 25.2396 137.883 25.237 138.362 25.2422C138.841 25.2474 139.261 25.224 139.62 25.1719C139.985 25.1198 140.287 25.0104 140.526 24.8438ZM136.003 38.9063C136.513 38.9063 136.951 38.7735 137.315 38.5078C137.685 38.2422 137.969 37.862 138.167 37.3672C138.37 36.8724 138.472 36.2813 138.472 35.5938C138.472 34.9115 138.37 34.3334 138.167 33.8594C137.969 33.3802 137.685 33.0157 137.315 32.7657C136.946 32.5157 136.503 32.3907 135.987 32.3907C135.602 32.3907 135.255 32.461 134.948 32.6016C134.641 32.7422 134.378 32.9506 134.159 33.2266C133.946 33.4974 133.779 33.8334 133.659 34.2344C133.544 34.6302 133.487 35.0834 133.487 35.5938C133.487 36.6198 133.709 37.4297 134.151 38.0235C134.599 38.612 135.216 38.9063 136.003 38.9063ZM149.532 41.4844C148.298 41.4844 147.235 41.2344 146.345 40.7344C145.459 40.2292 144.777 39.5157 144.298 38.5938C143.819 37.6667 143.579 36.5703 143.579 35.3047C143.579 34.0703 143.819 32.987 144.298 32.0547C144.777 31.1224 145.451 30.3959 146.321 29.875C147.196 29.3542 148.222 29.0938 149.399 29.0938C150.191 29.0938 150.928 29.2214 151.61 29.4766C152.298 29.7266 152.897 30.1042 153.407 30.6094C153.923 31.1146 154.324 31.75 154.61 32.5157C154.897 33.2761 155.04 34.1667 155.04 35.1875V36.1016H144.907V34.0391H151.907C151.907 33.5599 151.803 33.1354 151.595 32.7657C151.386 32.3959 151.097 32.1068 150.727 31.8985C150.363 31.6849 149.938 31.5782 149.454 31.5782C148.949 31.5782 148.501 31.6953 148.11 31.9297C147.725 32.1589 147.423 32.4688 147.204 32.8594C146.985 33.2448 146.873 33.6745 146.868 34.1485V36.1094C146.868 36.7032 146.977 37.2162 147.196 37.6485C147.42 38.0808 147.735 38.4141 148.141 38.6485C148.548 38.8828 149.03 39 149.587 39C149.957 39 150.295 38.9479 150.602 38.8438C150.91 38.7396 151.173 38.5834 151.391 38.375C151.61 38.1667 151.777 37.9115 151.891 37.6094L154.97 37.8125C154.813 38.5521 154.493 39.1979 154.009 39.75C153.53 40.2969 152.91 40.724 152.149 41.0313C151.394 41.3334 150.522 41.4844 149.532 41.4844ZM162.634 41.4844C161.405 41.4844 160.347 41.224 159.462 40.7032C158.582 40.1771 157.905 39.4479 157.431 38.5157C156.962 37.5834 156.727 36.5104 156.727 35.2969C156.727 34.0677 156.964 32.9896 157.438 32.0625C157.918 31.1302 158.597 30.4037 159.477 29.8828C160.358 29.3568 161.405 29.0938 162.618 29.0938C163.665 29.0938 164.582 29.2839 165.368 29.6641C166.155 30.0443 166.777 30.5782 167.235 31.2657C167.694 31.9532 167.946 32.7604 167.993 33.6875H164.852C164.764 33.0886 164.53 32.6068 164.149 32.2422C163.774 31.8724 163.282 31.6875 162.673 31.6875C162.157 31.6875 161.707 31.8282 161.321 32.1094C160.941 32.3854 160.644 32.7891 160.431 33.3203C160.217 33.8516 160.11 34.4948 160.11 35.25C160.11 36.0157 160.214 36.6667 160.423 37.2032C160.636 37.7396 160.936 38.1485 161.321 38.4297C161.707 38.711 162.157 38.8516 162.673 38.8516C163.053 38.8516 163.394 38.7735 163.696 38.6172C164.003 38.461 164.256 38.2344 164.454 37.9375C164.657 37.6354 164.79 37.2735 164.852 36.8516H167.993C167.941 37.7683 167.691 38.5756 167.243 39.2735C166.8 39.9662 166.188 40.5078 165.407 40.8985C164.626 41.2891 163.701 41.4844 162.634 41.4844ZM170.124 41.25V29.25H180.616V41.25H177.436V31.8672H173.265V41.25H170.124ZM182.569 41.25L182.554 38.6094H182.952C183.233 38.6094 183.475 38.5417 183.679 38.4063C183.887 38.2657 184.059 38.0391 184.194 37.7266C184.33 37.4141 184.436 37 184.515 36.4844C184.593 35.9636 184.645 35.3229 184.671 34.5625L184.866 29.25H193.991V41.25H190.819V31.8672H187.858L187.671 35.5313C187.624 36.5365 187.502 37.4011 187.304 38.125C187.111 38.849 186.843 39.4427 186.499 39.9063C186.155 40.3646 185.741 40.7032 185.257 40.9219C184.772 41.1407 184.21 41.25 183.569 41.25H182.569ZM199.993 41.4766C199.227 41.4766 198.545 41.3438 197.946 41.0782C197.347 40.8073 196.873 40.4089 196.524 39.8828C196.181 39.3516 196.009 38.6901 196.009 37.8985C196.009 37.2318 196.131 36.6719 196.376 36.2188C196.621 35.7657 196.954 35.4011 197.376 35.125C197.798 34.849 198.277 34.6407 198.813 34.5C199.355 34.3594 199.923 34.2604 200.516 34.2032C201.214 34.1302 201.777 34.0625 202.204 34C202.631 33.9323 202.941 33.8334 203.134 33.7032C203.326 33.5729 203.423 33.3802 203.423 33.125V33.0782C203.423 32.5834 203.266 32.2006 202.954 31.9297C202.647 31.6589 202.209 31.5235 201.641 31.5235C201.043 31.5235 200.566 31.6563 200.212 31.9219C199.858 32.1823 199.623 32.5104 199.509 32.9063L196.431 32.6563C196.587 31.9271 196.894 31.2969 197.352 30.7657C197.811 30.2292 198.402 29.8177 199.126 29.5313C199.855 29.2396 200.699 29.0938 201.657 29.0938C202.324 29.0938 202.962 29.1719 203.571 29.3282C204.186 29.4844 204.73 29.7266 205.204 30.0547C205.683 30.3828 206.061 30.8047 206.337 31.3203C206.613 31.8308 206.751 32.4427 206.751 33.1563V41.25H203.595V39.586H203.501C203.308 39.961 203.05 40.2917 202.727 40.5782C202.405 40.8594 202.016 41.0808 201.563 41.2422C201.11 41.3985 200.587 41.4766 199.993 41.4766ZM200.946 39.1797C201.436 39.1797 201.868 39.0834 202.243 38.8907C202.618 38.6927 202.912 38.4271 203.126 38.0938C203.339 37.7604 203.446 37.3828 203.446 36.961V35.6875C203.342 35.7552 203.199 35.8177 203.016 35.875C202.839 35.9271 202.639 35.9766 202.415 36.0235C202.191 36.0651 201.967 36.1042 201.743 36.1407C201.519 36.1719 201.316 36.2006 201.134 36.2266C200.743 36.2839 200.402 36.375 200.11 36.5C199.819 36.625 199.592 36.7943 199.431 37.0078C199.269 37.2162 199.188 37.4766 199.188 37.7891C199.188 38.2422 199.352 38.5886 199.681 38.8282C200.014 39.0625 200.436 39.1797 200.946 39.1797ZM208.128 31.8672V29.25H219.003V31.8672H215.136V41.25H211.964V31.8672H208.128ZM229.372 33.9219V36.5391H223.106V33.9219H229.372ZM224.2 29.25V41.25H221.02V29.25H224.2ZM231.458 29.25V41.25H228.302V29.25H231.458ZM239.462 41.4844C238.248 41.4844 237.199 41.2266 236.313 40.711C235.433 40.1901 234.753 39.4662 234.274 38.5391C233.795 37.6068 233.556 36.5261 233.556 35.2969C233.556 34.0573 233.795 32.974 234.274 32.0469C234.753 31.1146 235.433 30.3907 236.313 29.875C237.199 29.3542 238.248 29.0938 239.462 29.0938C240.675 29.0938 241.722 29.3542 242.602 29.875C243.488 30.3907 244.17 31.1146 244.649 32.0469C245.128 32.974 245.368 34.0573 245.368 35.2969C245.368 36.5261 245.128 37.6068 244.649 38.5391C244.17 39.4662 243.488 40.1901 242.602 40.711C241.722 41.2266 240.675 41.4844 239.462 41.4844ZM239.477 38.9063C240.03 38.9063 240.49 38.75 240.86 38.4375C241.23 38.1198 241.509 37.6875 241.696 37.1407C241.889 36.5938 241.985 35.9714 241.985 35.2735C241.985 34.5756 241.889 33.9532 241.696 33.4063C241.509 32.8594 241.23 32.4271 240.86 32.1094C240.49 31.7917 240.03 31.6328 239.477 31.6328C238.92 31.6328 238.451 31.7917 238.071 32.1094C237.696 32.4271 237.412 32.8594 237.22 33.4063C237.032 33.9532 236.938 34.5756 236.938 35.2735C236.938 35.9714 237.032 36.5938 237.22 37.1407C237.412 37.6875 237.696 38.1198 238.071 38.4375C238.451 38.75 238.92 38.9063 239.477 38.9063Z" fill="#2E68F5"/>
<path d="M262.501 33H276.939" stroke="#2E68F5" stroke-width="2.0625" stroke-linecap="round" stroke-linejoin="round"/>
<path d="M269.72 25.7812L276.939 33L269.72 40.2188" stroke="#2E68F5" stroke-width="2.0625" stroke-linecap="round" stroke-linejoin="round"/>
</svg>
