<svg width="366" height="273" viewBox="0 0 366 273" fill="none" xmlns="http://www.w3.org/2000/svg">
<g filter="url(#filter0_d_132_97)">
<rect x="19.25" y="13.75" width="327.25" height="233.75" rx="22" fill="white" fill-opacity="0.72" shape-rendering="crispEdges"/>
<rect x="19.9375" y="14.4375" width="325.875" height="232.375" rx="21.3125" stroke="white" stroke-opacity="0.6" stroke-width="1.375" shape-rendering="crispEdges"/>
<path d="M174.628 88.9453C171.903 88.9355 169.55 88.3056 167.567 87.0556C165.585 85.8056 164.057 84.0039 162.982 81.6504C161.908 79.2968 161.376 76.4746 161.386 73.1836C161.396 69.8828 161.933 67.08 162.997 64.7754C164.071 62.4707 165.595 60.7177 167.567 59.5166C169.55 58.3154 171.903 57.7148 174.628 57.7148C177.353 57.7148 179.706 58.3203 181.689 59.5312C183.671 60.7324 185.199 62.4853 186.274 64.79C187.348 67.0947 187.88 69.8925 187.87 73.1836C187.87 76.4941 187.333 79.3261 186.259 81.6797C185.185 84.0332 183.656 85.8349 181.674 87.0849C179.701 88.3252 177.353 88.9453 174.628 88.9453ZM174.628 82.3242C176.034 82.3242 177.187 81.5918 178.085 80.1269C178.993 78.6523 179.442 76.3379 179.433 73.1836C179.433 71.123 179.228 69.4384 178.817 68.1299C178.407 66.8213 177.841 65.8545 177.118 65.2295C176.396 64.5947 175.566 64.2773 174.628 64.2773C173.222 64.2773 172.074 64.9902 171.186 66.416C170.297 67.8418 169.843 70.0976 169.823 73.1836C169.814 75.2832 170.014 77.0117 170.424 78.3691C170.834 79.7168 171.4 80.7129 172.123 81.3574C172.856 82.0019 173.691 82.3242 174.628 82.3242ZM206.4 58.125V88.125H198.256V65.625H198.08L191.518 69.5508V62.6367L198.9 58.125H206.4Z" fill="url(#paint0_linear_132_97)"/>
<path d="M117.549 127.726H114.127C114.065 127.284 113.937 126.89 113.744 126.547C113.552 126.198 113.304 125.901 113.002 125.656C112.7 125.411 112.351 125.224 111.955 125.094C111.565 124.963 111.14 124.898 110.682 124.898C109.854 124.898 109.132 125.104 108.518 125.515C107.903 125.922 107.427 126.515 107.088 127.297C106.749 128.073 106.58 129.015 106.58 130.125C106.58 131.265 106.749 132.224 107.088 133C107.432 133.776 107.911 134.362 108.525 134.758C109.14 135.153 109.851 135.351 110.658 135.351C111.111 135.351 111.531 135.292 111.916 135.172C112.307 135.052 112.653 134.877 112.955 134.648C113.257 134.414 113.507 134.13 113.705 133.797C113.908 133.463 114.049 133.083 114.127 132.656L117.549 132.672C117.46 133.406 117.239 134.114 116.885 134.797C116.536 135.474 116.065 136.081 115.471 136.617C114.882 137.148 114.179 137.57 113.361 137.883C112.549 138.19 111.63 138.344 110.604 138.344C109.177 138.344 107.9 138.021 106.775 137.375C105.656 136.729 104.77 135.794 104.119 134.57C103.473 133.346 103.15 131.864 103.15 130.125C103.15 128.38 103.479 126.896 104.135 125.672C104.791 124.448 105.682 123.515 106.807 122.875C107.932 122.229 109.197 121.906 110.604 121.906C111.531 121.906 112.39 122.036 113.182 122.297C113.979 122.557 114.684 122.937 115.299 123.437C115.913 123.932 116.413 124.539 116.799 125.258C117.19 125.976 117.44 126.799 117.549 127.726ZM125.334 138.359C124.121 138.359 123.071 138.101 122.186 137.586C121.305 137.065 120.626 136.341 120.147 135.414C119.667 134.482 119.428 133.401 119.428 132.172C119.428 130.932 119.667 129.849 120.147 128.922C120.626 127.989 121.305 127.265 122.186 126.75C123.071 126.229 124.121 125.969 125.334 125.969C126.548 125.969 127.594 126.229 128.475 126.75C129.36 127.265 130.042 127.989 130.522 128.922C131.001 129.849 131.24 130.932 131.24 132.172C131.24 133.401 131.001 134.482 130.522 135.414C130.042 136.341 129.36 137.065 128.475 137.586C127.594 138.101 126.548 138.359 125.334 138.359ZM125.35 135.781C125.902 135.781 126.363 135.625 126.732 135.312C127.102 134.995 127.381 134.562 127.568 134.015C127.761 133.469 127.857 132.846 127.857 132.148C127.857 131.45 127.761 130.828 127.568 130.281C127.381 129.734 127.102 129.302 126.732 128.984C126.363 128.667 125.902 128.508 125.35 128.508C124.792 128.508 124.324 128.667 123.943 128.984C123.568 129.302 123.285 129.734 123.092 130.281C122.904 130.828 122.811 131.45 122.811 132.148C122.811 132.846 122.904 133.469 123.092 134.015C123.285 134.562 123.568 134.995 123.943 135.312C124.324 135.625 124.792 135.781 125.35 135.781ZM132.787 134.726H136.014C136.029 135.122 136.206 135.435 136.545 135.664C136.884 135.893 137.321 136.008 137.857 136.008C138.399 136.008 138.855 135.883 139.225 135.633C139.594 135.377 139.779 135.013 139.779 134.539C139.779 134.247 139.706 133.995 139.561 133.781C139.415 133.562 139.212 133.39 138.951 133.265C138.691 133.14 138.389 133.078 138.045 133.078H136.318V130.898H138.045C138.561 130.898 138.956 130.778 139.232 130.539C139.514 130.299 139.654 130 139.654 129.64C139.654 129.234 139.509 128.909 139.217 128.664C138.93 128.414 138.542 128.289 138.053 128.289C137.558 128.289 137.147 128.401 136.818 128.625C136.496 128.844 136.329 129.13 136.318 129.484H133.107C133.118 128.765 133.334 128.143 133.756 127.617C134.183 127.091 134.756 126.685 135.475 126.398C136.199 126.112 137.009 125.969 137.904 125.969C138.884 125.969 139.727 126.107 140.436 126.383C141.149 126.653 141.696 127.042 142.076 127.547C142.462 128.052 142.654 128.653 142.654 129.351C142.654 129.987 142.446 130.518 142.029 130.945C141.613 131.372 141.029 131.677 140.279 131.859V131.984C140.774 132.015 141.222 132.148 141.623 132.383C142.024 132.617 142.344 132.94 142.584 133.351C142.824 133.758 142.943 134.239 142.943 134.797C142.943 135.542 142.725 136.18 142.287 136.711C141.855 137.242 141.256 137.651 140.49 137.937C139.73 138.219 138.857 138.359 137.873 138.359C136.915 138.359 136.055 138.221 135.295 137.945C134.54 137.664 133.938 137.252 133.49 136.711C133.048 136.169 132.813 135.508 132.787 134.726ZM144.047 141.64V135.484H144.969C145.234 135.318 145.448 135.052 145.609 134.687C145.776 134.323 145.912 133.893 146.016 133.398C146.125 132.903 146.208 132.37 146.266 131.797C146.328 131.219 146.383 130.635 146.43 130.047L146.742 126.125H155.945V135.484H157.805V141.64H154.633V138.125H147.297V141.64H144.047ZM148.281 135.484H152.805V128.687H149.57L149.445 130.047C149.357 131.328 149.229 132.417 149.063 133.312C148.896 134.203 148.635 134.927 148.281 135.484ZM163.166 138.351C162.4 138.351 161.718 138.219 161.119 137.953C160.52 137.682 160.046 137.284 159.697 136.758C159.354 136.226 159.182 135.565 159.182 134.773C159.182 134.107 159.304 133.547 159.549 133.094C159.794 132.64 160.127 132.276 160.549 132C160.971 131.724 161.45 131.515 161.986 131.375C162.528 131.234 163.096 131.135 163.69 131.078C164.387 131.005 164.95 130.937 165.377 130.875C165.804 130.807 166.114 130.708 166.307 130.578C166.499 130.448 166.596 130.255 166.596 130V129.953C166.596 129.458 166.44 129.075 166.127 128.805C165.82 128.534 165.382 128.398 164.815 128.398C164.216 128.398 163.739 128.531 163.385 128.797C163.031 129.057 162.796 129.385 162.682 129.781L159.604 129.531C159.76 128.802 160.067 128.172 160.525 127.64C160.984 127.104 161.575 126.693 162.299 126.406C163.028 126.114 163.872 125.969 164.83 125.969C165.497 125.969 166.135 126.047 166.744 126.203C167.359 126.359 167.903 126.601 168.377 126.93C168.856 127.258 169.234 127.68 169.51 128.195C169.786 128.706 169.924 129.318 169.924 130.031V138.125H166.768V136.461H166.674C166.481 136.836 166.223 137.167 165.9 137.453C165.578 137.734 165.19 137.956 164.736 138.117C164.283 138.273 163.76 138.351 163.166 138.351ZM164.119 136.055C164.609 136.055 165.041 135.958 165.416 135.765C165.791 135.568 166.085 135.302 166.299 134.969C166.512 134.635 166.619 134.258 166.619 133.836V132.562C166.515 132.63 166.372 132.693 166.19 132.75C166.012 132.802 165.812 132.851 165.588 132.898C165.364 132.94 165.14 132.979 164.916 133.015C164.692 133.047 164.489 133.075 164.307 133.101C163.916 133.159 163.575 133.25 163.283 133.375C162.992 133.5 162.765 133.669 162.604 133.883C162.442 134.091 162.361 134.351 162.361 134.664C162.361 135.117 162.525 135.463 162.854 135.703C163.187 135.937 163.609 136.055 164.119 136.055ZM175.686 133.734L180.006 126.125H183.287V138.125H180.115V130.492L175.811 138.125H172.506V126.125H175.686V133.734ZM179.436 121.937H181.756C181.751 122.885 181.399 123.648 180.701 124.226C180.009 124.805 179.071 125.094 177.889 125.094C176.701 125.094 175.761 124.805 175.068 124.226C174.376 123.648 174.029 122.885 174.029 121.937H176.334C176.329 122.297 176.443 122.62 176.678 122.906C176.917 123.193 177.321 123.336 177.889 123.336C178.441 123.336 178.837 123.195 179.076 122.914C179.316 122.633 179.436 122.307 179.436 121.937ZM184.75 128.742V126.125H195.625V128.742H191.758V138.125H188.586V128.742H184.75ZM202.682 138.359C201.447 138.359 200.385 138.109 199.494 137.609C198.609 137.104 197.927 136.39 197.447 135.469C196.968 134.542 196.729 133.445 196.729 132.18C196.729 130.945 196.968 129.862 197.447 128.93C197.927 127.997 198.601 127.271 199.471 126.75C200.346 126.229 201.372 125.969 202.549 125.969C203.341 125.969 204.078 126.096 204.76 126.351C205.447 126.601 206.046 126.979 206.557 127.484C207.072 127.989 207.473 128.625 207.76 129.39C208.046 130.151 208.19 131.042 208.19 132.062V132.976H198.057V130.914H205.057C205.057 130.435 204.953 130.01 204.744 129.64C204.536 129.271 204.247 128.982 203.877 128.773C203.512 128.56 203.088 128.453 202.604 128.453C202.098 128.453 201.65 128.57 201.26 128.805C200.874 129.034 200.572 129.344 200.354 129.734C200.135 130.12 200.023 130.549 200.018 131.023V132.984C200.018 133.578 200.127 134.091 200.346 134.523C200.57 134.956 200.885 135.289 201.291 135.523C201.697 135.758 202.179 135.875 202.736 135.875C203.106 135.875 203.445 135.823 203.752 135.719C204.059 135.614 204.322 135.458 204.541 135.25C204.76 135.042 204.927 134.786 205.041 134.484L208.119 134.687C207.963 135.427 207.643 136.073 207.158 136.625C206.679 137.172 206.059 137.599 205.299 137.906C204.544 138.208 203.671 138.359 202.682 138.359ZM218.633 133.734L222.953 126.125H226.234V138.125H223.063V130.492L218.758 138.125H215.453V126.125H218.633V133.734ZM237.121 126.125V128.742H232.137V138.125H228.902V126.125H237.121ZM239.15 142.625V126.125H242.432V128.14H242.58C242.726 127.818 242.937 127.489 243.213 127.156C243.494 126.818 243.859 126.536 244.307 126.312C244.76 126.083 245.322 125.969 245.994 125.969C246.869 125.969 247.677 126.198 248.416 126.656C249.156 127.109 249.747 127.794 250.19 128.711C250.632 129.622 250.854 130.765 250.854 132.14C250.854 133.479 250.637 134.609 250.205 135.531C249.778 136.448 249.195 137.143 248.455 137.617C247.721 138.086 246.898 138.32 245.986 138.32C245.341 138.32 244.791 138.213 244.338 138C243.89 137.786 243.523 137.518 243.236 137.195C242.95 136.867 242.731 136.536 242.58 136.203H242.479V142.625H239.15ZM242.408 132.125C242.408 132.838 242.507 133.461 242.705 133.992C242.903 134.523 243.19 134.937 243.565 135.234C243.94 135.526 244.395 135.672 244.932 135.672C245.473 135.672 245.932 135.523 246.307 135.226C246.682 134.924 246.966 134.508 247.158 133.976C247.356 133.44 247.455 132.823 247.455 132.125C247.455 131.432 247.359 130.823 247.166 130.297C246.973 129.771 246.69 129.359 246.315 129.062C245.94 128.765 245.479 128.617 244.932 128.617C244.39 128.617 243.932 128.76 243.557 129.047C243.187 129.333 242.903 129.739 242.705 130.265C242.507 130.792 242.408 131.411 242.408 132.125ZM254.74 142.625C254.318 142.625 253.923 142.591 253.553 142.523C253.188 142.461 252.886 142.38 252.647 142.281L253.397 139.797C253.787 139.917 254.139 139.982 254.451 139.992C254.769 140.002 255.042 139.93 255.272 139.773C255.506 139.617 255.696 139.351 255.842 138.976L256.037 138.469L251.733 126.125H255.233L257.717 134.937H257.842L260.35 126.125H263.873L259.209 139.422C258.985 140.068 258.68 140.63 258.295 141.109C257.915 141.594 257.433 141.966 256.85 142.226C256.266 142.492 255.563 142.625 254.74 142.625Z" fill="#111827"/>
<path d="M90.8429 178.691V177.105H91.7179C92.0552 177.105 92.3377 177.039 92.5656 176.907C92.798 176.775 92.9894 176.604 93.1398 176.394C93.2947 176.185 93.4223 175.966 93.5226 175.738L93.7414 175.219L88.9015 164.5H90.7335L94.589 173.195L98.1164 164.5H99.921L95.0812 176.23C94.8898 176.668 94.671 177.073 94.425 177.447C94.1834 177.821 93.853 178.122 93.4337 178.349C93.019 178.577 92.4562 178.691 91.7453 178.691H90.8429ZM101.128 178.5V168H102.741V172.566H103.807L107.581 168H109.659L105.421 173.058L109.714 178.5H107.635L104.19 174.07H102.741V178.5H101.128ZM114.557 178.746C113.891 178.746 113.288 178.621 112.745 178.37C112.203 178.115 111.772 177.748 111.453 177.269C111.134 176.786 110.975 176.203 110.975 175.519C110.975 174.918 111.093 174.43 111.33 174.056C111.567 173.678 111.884 173.382 112.28 173.168C112.677 172.954 113.114 172.794 113.593 172.689C114.076 172.58 114.561 172.493 115.049 172.43C115.687 172.348 116.204 172.286 116.601 172.245C117.002 172.199 117.293 172.124 117.476 172.019C117.663 171.915 117.756 171.732 117.756 171.473V171.418C117.756 170.743 117.571 170.219 117.202 169.846C116.838 169.472 116.284 169.285 115.541 169.285C114.771 169.285 114.167 169.454 113.73 169.791C113.292 170.128 112.985 170.488 112.807 170.871L111.276 170.324C111.549 169.686 111.914 169.189 112.369 168.834C112.83 168.474 113.331 168.223 113.873 168.082C114.42 167.936 114.958 167.863 115.486 167.863C115.824 167.863 116.211 167.904 116.649 167.986C117.091 168.064 117.517 168.225 117.927 168.472C118.342 168.718 118.686 169.089 118.959 169.586C119.233 170.083 119.369 170.748 119.369 171.582V178.5H117.756V177.078H117.674C117.565 177.306 117.382 177.55 117.127 177.809C116.872 178.069 116.532 178.29 116.109 178.473C115.685 178.655 115.167 178.746 114.557 178.746ZM114.803 177.297C115.441 177.297 115.979 177.171 116.416 176.921C116.858 176.67 117.191 176.347 117.414 175.95C117.642 175.554 117.756 175.137 117.756 174.699V173.223C117.688 173.305 117.537 173.38 117.305 173.448C117.077 173.512 116.813 173.569 116.512 173.619C116.216 173.665 115.926 173.706 115.644 173.742C115.366 173.774 115.14 173.801 114.967 173.824C114.548 173.879 114.156 173.968 113.791 174.091C113.431 174.209 113.139 174.389 112.916 174.631C112.697 174.868 112.588 175.191 112.588 175.601C112.588 176.162 112.795 176.586 113.21 176.873C113.629 177.155 114.16 177.297 114.803 177.297ZM121.658 178.5L125.923 173.168L121.712 168H123.626L127.126 172.484H128.001V168H129.615V172.484H130.462L133.962 168H135.876L131.693 173.168L135.931 178.5H133.99L130.435 173.988H129.615V178.5H128.001V173.988H127.181L123.599 178.5H121.658ZM139.85 176.121L144.908 168H146.768V178.5H145.154V170.379L140.123 178.5H138.236V168H139.85V176.121ZM148.294 169.504V168H156.825V169.504H153.38V178.5H151.766V169.504H148.294ZM163.036 178.719C162.024 178.719 161.151 178.495 160.417 178.049C159.688 177.598 159.125 176.969 158.729 176.162C158.337 175.351 158.141 174.407 158.141 173.332C158.141 172.256 158.337 171.308 158.729 170.488C159.125 169.663 159.677 169.021 160.383 168.56C161.094 168.096 161.924 167.863 162.871 167.863C163.418 167.863 163.958 167.954 164.492 168.137C165.025 168.319 165.51 168.615 165.948 169.025C166.385 169.431 166.734 169.969 166.994 170.639C167.253 171.308 167.383 172.133 167.383 173.113V173.797H159.289V172.402H165.743C165.743 171.81 165.624 171.281 165.387 170.816C165.155 170.351 164.822 169.985 164.389 169.716C163.961 169.447 163.455 169.312 162.871 169.312C162.229 169.312 161.673 169.472 161.204 169.791C160.739 170.105 160.381 170.515 160.13 171.021C159.88 171.527 159.754 172.07 159.754 172.648V173.578C159.754 174.371 159.891 175.043 160.164 175.595C160.442 176.141 160.828 176.558 161.32 176.846C161.812 177.128 162.384 177.269 163.036 177.269C163.459 177.269 163.842 177.21 164.184 177.092C164.53 176.969 164.829 176.786 165.079 176.545C165.33 176.299 165.524 175.993 165.661 175.629L167.219 176.066C167.055 176.595 166.779 177.06 166.392 177.461C166.005 177.857 165.526 178.167 164.956 178.39C164.387 178.609 163.746 178.719 163.036 178.719ZM182.279 172.512V174.015H176.482V172.512H182.279ZM176.865 168V178.5H175.251V168H176.865ZM183.509 168V178.5H181.896V168H183.509ZM189.545 178.746C188.88 178.746 188.276 178.621 187.734 178.37C187.191 178.115 186.761 177.748 186.442 177.269C186.123 176.786 185.963 176.203 185.963 175.519C185.963 174.918 186.082 174.43 186.319 174.056C186.556 173.678 186.872 173.382 187.269 173.168C187.665 172.954 188.103 172.794 188.581 172.689C189.065 172.58 189.55 172.493 190.037 172.43C190.676 172.348 191.193 172.286 191.589 172.245C191.99 172.199 192.282 172.124 192.464 172.019C192.651 171.915 192.745 171.732 192.745 171.473V171.418C192.745 170.743 192.56 170.219 192.191 169.846C191.826 169.472 191.273 169.285 190.53 169.285C189.759 169.285 189.156 169.454 188.718 169.791C188.281 170.128 187.973 170.488 187.795 170.871L186.264 170.324C186.537 169.686 186.902 169.189 187.358 168.834C187.818 168.474 188.319 168.223 188.862 168.082C189.409 167.936 189.946 167.863 190.475 167.863C190.812 167.863 191.2 167.904 191.637 167.986C192.079 168.064 192.505 168.225 192.915 168.472C193.33 168.718 193.674 169.089 193.948 169.586C194.221 170.083 194.358 170.748 194.358 171.582V178.5H192.745V177.078H192.662C192.553 177.306 192.371 177.55 192.116 177.809C191.86 178.069 191.521 178.29 191.097 178.473C190.673 178.655 190.156 178.746 189.545 178.746ZM189.791 177.297C190.429 177.297 190.967 177.171 191.405 176.921C191.847 176.67 192.179 176.347 192.403 175.95C192.631 175.554 192.745 175.137 192.745 174.699V173.223C192.676 173.305 192.526 173.38 192.293 173.448C192.065 173.512 191.801 173.569 191.5 173.619C191.204 173.665 190.915 173.706 190.632 173.742C190.354 173.774 190.129 173.801 189.955 173.824C189.536 173.879 189.144 173.968 188.78 174.091C188.42 174.209 188.128 174.389 187.905 174.631C187.686 174.868 187.577 175.191 187.577 175.601C187.577 176.162 187.784 176.586 188.199 176.873C188.618 177.155 189.149 177.297 189.791 177.297ZM196.646 175.82H198.369C198.405 176.294 198.619 176.654 199.011 176.9C199.408 177.146 199.923 177.269 200.556 177.269C201.203 177.269 201.757 177.137 202.217 176.873C202.678 176.604 202.908 176.171 202.908 175.574C202.908 175.223 202.821 174.918 202.648 174.658C202.475 174.394 202.231 174.189 201.917 174.043C201.602 173.897 201.231 173.824 200.802 173.824H198.998V172.375H200.802C201.445 172.375 201.919 172.229 202.224 171.937C202.534 171.646 202.689 171.281 202.689 170.844C202.689 170.374 202.523 169.998 202.19 169.716C201.857 169.429 201.386 169.285 200.775 169.285C200.16 169.285 199.647 169.424 199.237 169.702C198.827 169.975 198.61 170.329 198.588 170.762H196.892C196.91 170.196 197.084 169.697 197.412 169.264C197.74 168.827 198.187 168.485 198.752 168.239C199.317 167.988 199.964 167.863 200.693 167.863C201.431 167.863 202.072 167.993 202.614 168.253C203.161 168.508 203.582 168.857 203.879 169.299C204.179 169.736 204.33 170.233 204.33 170.789C204.33 171.381 204.163 171.86 203.831 172.224C203.498 172.589 203.081 172.849 202.58 173.004V173.113C202.976 173.14 203.32 173.268 203.612 173.496C203.908 173.719 204.138 174.013 204.302 174.378C204.466 174.738 204.548 175.137 204.548 175.574C204.548 176.212 204.378 176.768 204.036 177.242C203.694 177.711 203.225 178.076 202.628 178.336C202.031 178.591 201.349 178.719 200.584 178.719C199.841 178.719 199.175 178.598 198.588 178.356C198 178.11 197.533 177.771 197.186 177.338C196.844 176.9 196.664 176.394 196.646 175.82ZM206.815 178.5V168H211.108C212.238 168 213.136 168.255 213.801 168.765C214.466 169.276 214.799 169.95 214.799 170.789C214.799 171.427 214.61 171.921 214.232 172.272C213.853 172.619 213.368 172.853 212.776 172.976C213.163 173.031 213.539 173.168 213.903 173.387C214.273 173.605 214.578 173.906 214.819 174.289C215.061 174.667 215.182 175.132 215.182 175.683C215.182 176.221 215.045 176.702 214.772 177.126C214.498 177.55 214.106 177.885 213.596 178.131C213.085 178.377 212.475 178.5 211.764 178.5H206.815ZM208.346 177.023H211.764C212.32 177.023 212.755 176.891 213.069 176.627C213.384 176.362 213.541 176.002 213.541 175.547C213.541 175.004 213.384 174.578 213.069 174.268C212.755 173.954 212.32 173.797 211.764 173.797H208.346V177.023ZM208.346 172.402H211.108C211.541 172.402 211.912 172.343 212.222 172.224C212.532 172.101 212.769 171.928 212.933 171.705C213.101 171.477 213.186 171.208 213.186 170.898C213.186 170.456 213.001 170.11 212.632 169.859C212.263 169.604 211.755 169.476 211.108 169.476H208.346V172.402ZM220.714 178.746C220.048 178.746 219.445 178.621 218.902 178.37C218.36 178.115 217.929 177.748 217.61 177.269C217.291 176.786 217.132 176.203 217.132 175.519C217.132 174.918 217.25 174.43 217.487 174.056C217.724 173.678 218.041 173.382 218.437 173.168C218.834 172.954 219.271 172.794 219.75 172.689C220.233 172.58 220.718 172.493 221.206 172.43C221.844 172.348 222.361 172.286 222.758 172.245C223.159 172.199 223.45 172.124 223.633 172.019C223.82 171.915 223.913 171.732 223.913 171.473V171.418C223.913 170.743 223.728 170.219 223.359 169.846C222.995 169.472 222.441 169.285 221.698 169.285C220.928 169.285 220.324 169.454 219.887 169.791C219.449 170.128 219.141 170.488 218.964 170.871L217.433 170.324C217.706 169.686 218.071 169.189 218.526 168.834C218.987 168.474 219.488 168.223 220.03 168.082C220.577 167.936 221.115 167.863 221.643 167.863C221.981 167.863 222.368 167.904 222.806 167.986C223.248 168.064 223.674 168.225 224.084 168.472C224.499 168.718 224.843 169.089 225.116 169.586C225.39 170.083 225.526 170.748 225.526 171.582V178.5H223.913V177.078H223.831C223.722 177.306 223.539 177.55 223.284 177.809C223.029 178.069 222.689 178.29 222.266 178.473C221.842 178.655 221.324 178.746 220.714 178.746ZM220.96 177.297C221.598 177.297 222.136 177.171 222.573 176.921C223.015 176.67 223.348 176.347 223.571 175.95C223.799 175.554 223.913 175.137 223.913 174.699V173.223C223.845 173.305 223.694 173.38 223.462 173.448C223.234 173.512 222.97 173.569 222.669 173.619C222.373 173.665 222.083 173.706 221.801 173.742C221.523 173.774 221.297 173.801 221.124 173.824C220.705 173.879 220.313 173.968 219.948 174.091C219.588 174.209 219.296 174.389 219.073 174.631C218.854 174.868 218.745 175.191 218.745 175.601C218.745 176.162 218.952 176.586 219.367 176.873C219.786 177.155 220.317 177.297 220.96 177.297ZM235.498 172.512V174.015H229.701V172.512H235.498ZM230.084 168V178.5H228.471V168H230.084ZM236.729 168V178.5H235.115V168H236.729ZM241.288 176.121L246.347 168H248.206V178.5H246.593V170.379L241.562 178.5H239.675V168H241.288V176.121ZM255.563 178.719C254.552 178.719 253.679 178.495 252.945 178.049C252.216 177.598 251.653 176.969 251.257 176.162C250.865 175.351 250.669 174.407 250.669 173.332C250.669 172.256 250.865 171.308 251.257 170.488C251.653 169.663 252.205 169.021 252.911 168.56C253.622 168.096 254.451 167.863 255.399 167.863C255.946 167.863 256.486 167.954 257.019 168.137C257.553 168.319 258.038 168.615 258.475 169.025C258.913 169.431 259.262 169.969 259.521 170.639C259.781 171.308 259.911 172.133 259.911 173.113V173.797H251.817V172.402H258.27C258.27 171.81 258.152 171.281 257.915 170.816C257.683 170.351 257.35 169.985 256.917 169.716C256.488 169.447 255.983 169.312 255.399 169.312C254.757 169.312 254.201 169.472 253.731 169.791C253.266 170.105 252.909 170.515 252.658 171.021C252.407 171.527 252.282 172.07 252.282 172.648V173.578C252.282 174.371 252.419 175.043 252.692 175.595C252.97 176.141 253.355 176.558 253.848 176.846C254.34 177.128 254.912 177.269 255.563 177.269C255.987 177.269 256.37 177.21 256.712 177.092C257.058 176.969 257.357 176.786 257.607 176.545C257.858 176.299 258.052 175.993 258.188 175.629L259.747 176.066C259.583 176.595 259.307 177.06 258.92 177.461C258.532 177.857 258.054 178.167 257.484 178.39C256.915 178.609 256.274 178.719 255.563 178.719ZM269.392 176.121L274.451 168H276.31V178.5H274.697V170.379L269.666 178.5H267.779V168H269.392V176.121ZM73.0703 205.5V195H74.6836V199.566H75.75L79.5235 195H81.6016L77.3633 200.058L81.6563 205.5H79.5782L76.1328 201.07H74.6836V205.5H73.0703ZM87.2429 205.719C86.295 205.719 85.4633 205.493 84.7478 205.042C84.0369 204.591 83.4809 203.959 83.0799 203.148C82.6834 202.337 82.4851 201.389 82.4851 200.305C82.4851 199.211 82.6834 198.256 83.0799 197.44C83.4809 196.625 84.0369 195.991 84.7478 195.54C85.4633 195.089 86.295 194.863 87.2429 194.863C88.1909 194.863 89.0203 195.089 89.7312 195.54C90.4467 195.991 91.0027 196.625 91.3992 197.44C91.8002 198.256 92.0008 199.211 92.0008 200.305C92.0008 201.389 91.8002 202.337 91.3992 203.148C91.0027 203.959 90.4467 204.591 89.7312 205.042C89.0203 205.493 88.1909 205.719 87.2429 205.719ZM87.2429 204.269C87.963 204.269 88.5554 204.085 89.0203 203.716C89.4851 203.347 89.8292 202.861 90.0525 202.26C90.2758 201.658 90.3875 201.006 90.3875 200.305C90.3875 199.603 90.2758 198.949 90.0525 198.343C89.8292 197.737 89.4851 197.247 89.0203 196.873C88.5554 196.499 87.963 196.312 87.2429 196.312C86.5229 196.312 85.9304 196.499 85.4656 196.873C85.0008 197.247 84.6567 197.737 84.4334 198.343C84.2101 198.949 84.0984 199.603 84.0984 200.305C84.0984 201.006 84.2101 201.658 84.4334 202.26C84.6567 202.861 85.0008 203.347 85.4656 203.716C85.9304 204.085 86.5229 204.269 87.2429 204.269ZM93.5337 205.5V203.996H93.9165C94.231 203.996 94.493 203.934 94.7027 203.811C94.9123 203.684 95.0809 203.463 95.2085 203.148C95.3407 202.829 95.4409 202.387 95.5093 201.822C95.5822 201.252 95.6346 200.528 95.6665 199.648L95.8579 195H102.858V205.5H101.245V196.504H97.3892L97.2251 200.25C97.1887 201.111 97.1112 201.87 96.9927 202.526C96.8788 203.178 96.7033 203.725 96.4663 204.167C96.2339 204.609 95.924 204.942 95.5366 205.165C95.1493 205.388 94.6639 205.5 94.0806 205.5H93.5337ZM107.431 203.121L112.49 195H114.349V205.5H112.736V197.379L107.705 205.5H105.818V195H107.431V203.121ZM125.398 195V205.5H123.784V195H125.398ZM124.769 200.004V201.508C124.404 201.644 124.042 201.765 123.682 201.87C123.322 201.97 122.944 202.05 122.547 202.109C122.151 202.164 121.715 202.191 121.241 202.191C120.052 202.191 119.097 201.87 118.377 201.227C117.662 200.585 117.304 199.621 117.304 198.336V194.973H118.917V198.336C118.917 198.874 119.02 199.316 119.225 199.662C119.43 200.008 119.708 200.266 120.059 200.434C120.41 200.603 120.804 200.687 121.241 200.687C121.925 200.687 122.543 200.626 123.094 200.503C123.65 200.375 124.208 200.209 124.769 200.004ZM132.76 205.719C131.748 205.719 130.876 205.495 130.142 205.049C129.413 204.598 128.85 203.969 128.453 203.162C128.061 202.351 127.866 201.407 127.866 200.332C127.866 199.256 128.061 198.308 128.453 197.488C128.85 196.663 129.401 196.021 130.108 195.56C130.819 195.096 131.648 194.863 132.596 194.863C133.143 194.863 133.683 194.954 134.216 195.137C134.749 195.319 135.235 195.615 135.672 196.025C136.11 196.431 136.458 196.969 136.718 197.639C136.978 198.308 137.108 199.133 137.108 200.113V200.797H129.014V199.402H135.467C135.467 198.81 135.349 198.281 135.112 197.816C134.879 197.351 134.546 196.985 134.114 196.716C133.685 196.447 133.179 196.312 132.596 196.312C131.953 196.312 131.397 196.472 130.928 196.791C130.463 197.105 130.105 197.515 129.855 198.021C129.604 198.527 129.479 199.07 129.479 199.648V200.578C129.479 201.371 129.616 202.043 129.889 202.595C130.167 203.141 130.552 203.558 131.044 203.846C131.536 204.128 132.108 204.269 132.76 204.269C133.184 204.269 133.567 204.21 133.908 204.092C134.255 203.969 134.553 203.786 134.804 203.545C135.055 203.299 135.248 202.993 135.385 202.629L136.944 203.066C136.78 203.595 136.504 204.06 136.116 204.461C135.729 204.857 135.251 205.167 134.681 205.39C134.111 205.609 133.471 205.719 132.76 205.719ZM143.827 205.719C142.843 205.719 141.995 205.486 141.284 205.021C140.574 204.556 140.027 203.916 139.644 203.1C139.261 202.285 139.07 201.353 139.07 200.305C139.07 199.238 139.266 198.297 139.657 197.481C140.054 196.661 140.605 196.021 141.312 195.56C142.023 195.096 142.852 194.863 143.8 194.863C144.538 194.863 145.204 195 145.796 195.273C146.389 195.547 146.874 195.93 147.252 196.422C147.63 196.914 147.865 197.488 147.956 198.144H146.343C146.22 197.666 145.947 197.242 145.523 196.873C145.103 196.499 144.538 196.312 143.827 196.312C143.199 196.312 142.647 196.476 142.173 196.805C141.704 197.128 141.337 197.586 141.073 198.179C140.813 198.766 140.683 199.457 140.683 200.25C140.683 201.061 140.81 201.767 141.066 202.369C141.325 202.971 141.69 203.438 142.159 203.77C142.633 204.103 143.189 204.269 143.827 204.269C144.247 204.269 144.627 204.196 144.969 204.051C145.311 203.905 145.6 203.695 145.837 203.422C146.074 203.148 146.243 202.82 146.343 202.437H147.956C147.865 203.057 147.64 203.615 147.28 204.112C146.924 204.604 146.452 204.996 145.865 205.288C145.281 205.575 144.602 205.719 143.827 205.719ZM149.488 196.504V195H158.019V196.504H154.574V205.5H152.96V196.504H149.488ZM160.372 205.5V195H164.665C165.795 195 166.693 195.255 167.358 195.765C168.024 196.276 168.356 196.95 168.356 197.789C168.356 198.427 168.167 198.921 167.789 199.272C167.411 199.619 166.925 199.853 166.333 199.976C166.72 200.031 167.096 200.168 167.461 200.387C167.83 200.605 168.135 200.906 168.377 201.289C168.619 201.667 168.739 202.132 168.739 202.683C168.739 203.221 168.603 203.702 168.329 204.126C168.056 204.55 167.664 204.885 167.153 205.131C166.643 205.377 166.032 205.5 165.321 205.5H160.372ZM161.903 204.023H165.321C165.877 204.023 166.313 203.891 166.627 203.627C166.941 203.362 167.099 203.002 167.099 202.547C167.099 202.004 166.941 201.578 166.627 201.268C166.313 200.954 165.877 200.797 165.321 200.797H161.903V204.023ZM161.903 199.402H164.665C165.098 199.402 165.469 199.343 165.779 199.224C166.089 199.101 166.326 198.928 166.49 198.705C166.659 198.477 166.743 198.208 166.743 197.898C166.743 197.456 166.559 197.11 166.189 196.859C165.82 196.604 165.312 196.476 164.665 196.476H161.903V199.402ZM175.447 205.719C174.499 205.719 173.667 205.493 172.952 205.042C172.241 204.591 171.685 203.959 171.284 203.148C170.887 202.337 170.689 201.389 170.689 200.305C170.689 199.211 170.887 198.256 171.284 197.44C171.685 196.625 172.241 195.991 172.952 195.54C173.667 195.089 174.499 194.863 175.447 194.863C176.395 194.863 177.224 195.089 177.935 195.54C178.651 195.991 179.207 196.625 179.603 197.44C180.004 198.256 180.205 199.211 180.205 200.305C180.205 201.389 180.004 202.337 179.603 203.148C179.207 203.959 178.651 204.591 177.935 205.042C177.224 205.493 176.395 205.719 175.447 205.719ZM175.447 204.269C176.167 204.269 176.76 204.085 177.224 203.716C177.689 203.347 178.033 202.861 178.257 202.26C178.48 201.658 178.592 201.006 178.592 200.305C178.592 199.603 178.48 198.949 178.257 198.343C178.033 197.737 177.689 197.247 177.224 196.873C176.76 196.499 176.167 196.312 175.447 196.312C174.727 196.312 174.135 196.499 173.67 196.873C173.205 197.247 172.861 197.737 172.637 198.343C172.414 198.949 172.303 199.603 172.303 200.305C172.303 201.006 172.414 201.658 172.637 202.26C172.861 202.861 173.205 203.347 173.67 203.716C174.135 204.085 174.727 204.269 175.447 204.269ZM189.121 209.437C188.847 209.437 188.603 209.415 188.389 209.369C188.175 209.328 188.027 209.287 187.945 209.246L188.355 207.824C188.747 207.924 189.093 207.961 189.394 207.933C189.695 207.906 189.961 207.772 190.194 207.53C190.431 207.293 190.647 206.908 190.843 206.375L191.144 205.555L187.261 195H189.011L191.91 203.367H192.019L194.917 195H196.667L192.21 207.031C192.01 207.573 191.762 208.022 191.465 208.378C191.169 208.738 190.825 209.004 190.433 209.178C190.046 209.351 189.608 209.437 189.121 209.437ZM206.571 195V205.5H204.958V195H206.571ZM205.942 200.004V201.508C205.578 201.644 205.215 201.765 204.855 201.87C204.495 201.97 204.117 202.05 203.72 202.109C203.324 202.164 202.889 202.191 202.415 202.191C201.225 202.191 200.271 201.87 199.551 201.227C198.835 200.585 198.477 199.621 198.477 198.336V194.973H200.091V198.336C200.091 198.874 200.193 199.316 200.398 199.662C200.603 200.008 200.881 200.266 201.232 200.434C201.583 200.603 201.977 200.687 202.415 200.687C203.098 200.687 203.716 200.626 204.267 200.503C204.823 200.375 205.382 200.209 205.942 200.004ZM212.621 205.746C211.955 205.746 211.352 205.621 210.809 205.37C210.267 205.115 209.836 204.748 209.517 204.269C209.198 203.786 209.039 203.203 209.039 202.519C209.039 201.918 209.157 201.43 209.394 201.056C209.631 200.678 209.948 200.382 210.344 200.168C210.741 199.954 211.178 199.794 211.657 199.689C212.14 199.58 212.625 199.493 213.113 199.43C213.751 199.348 214.268 199.286 214.665 199.245C215.066 199.199 215.358 199.124 215.54 199.019C215.727 198.915 215.82 198.732 215.82 198.473V198.418C215.82 197.743 215.636 197.219 215.266 196.846C214.902 196.472 214.348 196.285 213.605 196.285C212.835 196.285 212.231 196.454 211.794 196.791C211.356 197.128 211.049 197.488 210.871 197.871L209.34 197.324C209.613 196.686 209.978 196.189 210.433 195.834C210.894 195.474 211.395 195.223 211.937 195.082C212.484 194.936 213.022 194.863 213.551 194.863C213.888 194.863 214.275 194.904 214.713 194.986C215.155 195.064 215.581 195.225 215.991 195.472C216.406 195.718 216.75 196.089 217.023 196.586C217.297 197.083 217.433 197.748 217.433 198.582V205.5H215.82V204.078H215.738C215.629 204.306 215.446 204.55 215.191 204.809C214.936 205.069 214.596 205.29 214.173 205.473C213.749 205.655 213.232 205.746 212.621 205.746ZM212.867 204.297C213.505 204.297 214.043 204.171 214.48 203.921C214.922 203.67 215.255 203.347 215.478 202.95C215.706 202.554 215.82 202.137 215.82 201.699V200.223C215.752 200.305 215.601 200.38 215.369 200.448C215.141 200.512 214.877 200.569 214.576 200.619C214.28 200.665 213.99 200.706 213.708 200.742C213.43 200.774 213.204 200.801 213.031 200.824C212.612 200.879 212.22 200.968 211.855 201.091C211.495 201.209 211.204 201.389 210.98 201.631C210.761 201.868 210.652 202.191 210.652 202.601C210.652 203.162 210.859 203.586 211.274 203.873C211.693 204.155 212.224 204.297 212.867 204.297ZM224.644 205.719C223.659 205.719 222.812 205.486 222.101 205.021C221.39 204.556 220.843 203.916 220.46 203.1C220.077 202.285 219.886 201.353 219.886 200.305C219.886 199.238 220.082 198.297 220.474 197.481C220.87 196.661 221.422 196.021 222.128 195.56C222.839 195.096 223.668 194.863 224.616 194.863C225.355 194.863 226.02 195 226.612 195.273C227.205 195.547 227.69 195.93 228.068 196.422C228.447 196.914 228.681 197.488 228.772 198.144H227.159C227.036 197.666 226.763 197.242 226.339 196.873C225.92 196.499 225.355 196.312 224.644 196.312C224.015 196.312 223.463 196.476 222.989 196.805C222.52 197.128 222.153 197.586 221.889 198.179C221.629 198.766 221.499 199.457 221.499 200.25C221.499 201.061 221.627 201.767 221.882 202.369C222.142 202.971 222.506 203.438 222.976 203.77C223.45 204.103 224.006 204.269 224.644 204.269C225.063 204.269 225.443 204.196 225.785 204.051C226.127 203.905 226.416 203.695 226.653 203.422C226.89 203.148 227.059 202.82 227.159 202.437H228.772C228.681 203.057 228.456 203.615 228.096 204.112C227.74 204.604 227.269 204.996 226.681 205.288C226.097 205.575 225.418 205.719 224.644 205.719ZM230.304 196.504V195H238.835V196.504H235.39V205.5H233.776V196.504H230.304ZM248.216 199.512V201.015H242.419V199.512H248.216ZM242.802 195V205.5H241.188V195H242.802ZM249.446 195V205.5H247.833V195H249.446ZM254.006 203.121L259.064 195H260.924V205.5H259.31V197.379L254.279 205.5H252.392V195H254.006V203.121ZM263.878 205.5V195H265.492V199.566H266.558L270.332 195H272.41L268.171 200.058L272.464 205.5H270.386L266.941 201.07H265.492V205.5H263.878ZM278.051 205.719C277.103 205.719 276.271 205.493 275.556 205.042C274.845 204.591 274.289 203.959 273.888 203.148C273.491 202.337 273.293 201.389 273.293 200.305C273.293 199.211 273.491 198.256 273.888 197.44C274.289 196.625 274.845 195.991 275.556 195.54C276.271 195.089 277.103 194.863 278.051 194.863C278.999 194.863 279.828 195.089 280.539 195.54C281.255 195.991 281.811 196.625 282.207 197.44C282.608 198.256 282.809 199.211 282.809 200.305C282.809 201.389 282.608 202.337 282.207 203.148C281.811 203.959 281.255 204.591 280.539 205.042C279.828 205.493 278.999 205.719 278.051 205.719ZM278.051 204.269C278.771 204.269 279.364 204.085 279.828 203.716C280.293 203.347 280.637 202.861 280.861 202.26C281.084 201.658 281.196 201.006 281.196 200.305C281.196 199.603 281.084 198.949 280.861 198.343C280.637 197.737 280.293 197.247 279.828 196.873C279.364 196.499 278.771 196.312 278.051 196.312C277.331 196.312 276.739 196.499 276.274 196.873C275.809 197.247 275.465 197.737 275.241 198.343C275.018 198.949 274.907 199.603 274.907 200.305C274.907 201.006 275.018 201.658 275.241 202.26C275.465 202.861 275.809 203.347 276.274 203.716C276.739 204.085 277.331 204.269 278.051 204.269ZM285.271 205.5V195H289.564C290.695 195 291.592 195.255 292.258 195.765C292.923 196.276 293.256 196.95 293.256 197.789C293.256 198.427 293.067 198.921 292.688 199.272C292.31 199.619 291.825 199.853 291.232 199.976C291.62 200.031 291.996 200.168 292.36 200.387C292.73 200.605 293.035 200.906 293.276 201.289C293.518 201.667 293.639 202.132 293.639 202.683C293.639 203.221 293.502 203.702 293.229 204.126C292.955 204.55 292.563 204.885 292.053 205.131C291.542 205.377 290.932 205.5 290.221 205.5H285.271ZM286.803 204.023H290.221C290.777 204.023 291.212 203.891 291.526 203.627C291.841 203.362 291.998 203.002 291.998 202.547C291.998 202.004 291.841 201.578 291.526 201.268C291.212 200.954 290.777 200.797 290.221 200.797H286.803V204.023ZM286.803 199.402H289.564C289.997 199.402 290.369 199.343 290.679 199.224C290.989 199.101 291.226 198.928 291.39 198.705C291.558 198.477 291.643 198.208 291.643 197.898C291.643 197.456 291.458 197.11 291.089 196.859C290.72 196.604 290.212 196.476 289.564 196.476H286.803V199.402Z" fill="#64748B"/>
</g>
<defs>
<filter id="filter0_d_132_97" x="1.90735e-06" y="1.90735e-06" width="365.75" height="272.25" filterUnits="userSpaceOnUse" color-interpolation-filters="sRGB">
<feFlood flood-opacity="0" result="BackgroundImageFix"/>
<feColorMatrix in="SourceAlpha" type="matrix" values="0 0 0 0 0 0 0 0 0 0 0 0 0 0 0 0 0 0 127 0" result="hardAlpha"/>
<feOffset dy="5.5"/>
<feGaussianBlur stdDeviation="9.625"/>
<feComposite in2="hardAlpha" operator="out"/>
<feColorMatrix type="matrix" values="0 0 0 0 0.180392 0 0 0 0 0.407843 0 0 0 0 0.960784 0 0 0 0.12 0"/>
<feBlend mode="normal" in2="BackgroundImageFix" result="effect1_dropShadow_132_97"/>
<feBlend mode="normal" in="SourceGraphic" in2="effect1_dropShadow_132_97" result="shape"/>
</filter>
<linearGradient id="paint0_linear_132_97" x1="169.836" y1="-4.12503" x2="228.471" y2="7.47423" gradientUnits="userSpaceOnUse">
<stop stop-color="#2E68F5"/>
<stop offset="1" stop-color="#5B8AF7"/>
</linearGradient>
</defs>
</svg>
