<svg width="311" height="99" viewBox="0 0 311 99" fill="none" xmlns="http://www.w3.org/2000/svg">
<g filter="url(#filter0_d_261_911)">
<rect x="19.25" y="13.75" width="271.796" height="60.4725" rx="8.25" fill="#2E68F5" shape-rendering="crispEdges"/>
<path d="M62.3184 43.9928H75.1434" stroke="white" stroke-width="1.83219" stroke-linecap="round" stroke-linejoin="round"/>
<path d="M68.7285 37.5804V50.4054" stroke="white" stroke-width="1.83219" stroke-linecap="round" stroke-linejoin="round"/>
<path d="M92.8522 53.1532V47.705H93.7887C94.1031 47.4543 94.3971 47.1011 94.6705 46.6454C94.944 46.1897 95.1764 45.5653 95.3678 44.7723C95.5592 43.9794 95.6914 42.954 95.7643 41.6962L96.1334 35.7762H105.082V47.705H106.64V53.1395H104.207V49.7762H95.2858V53.1532H92.8522ZM96.7418 47.705H102.648V37.9022H98.4166L98.1979 41.6962C98.1386 42.6486 98.0429 43.5009 97.9108 44.2528C97.7786 45.0048 97.6123 45.6678 97.4117 46.2421C97.2112 46.8117 96.9879 47.2994 96.7418 47.705ZM113.177 49.9813C112.152 49.9813 111.263 49.7557 110.511 49.3046C109.759 48.8534 109.176 48.2222 108.761 47.411C108.351 46.5998 108.146 45.6519 108.146 44.5673C108.146 43.4826 108.351 42.5324 108.761 41.7167C109.176 40.9009 109.759 40.2675 110.511 39.8163C111.263 39.3651 112.152 39.1395 113.177 39.1395C114.203 39.1395 115.091 39.3651 115.843 39.8163C116.595 40.2675 117.176 40.9009 117.586 41.7167C118.001 42.5324 118.208 43.4826 118.208 44.5673C118.208 45.6519 118.001 46.5998 117.586 47.411C117.176 48.2222 116.595 48.8534 115.843 49.3046C115.091 49.7557 114.203 49.9813 113.177 49.9813ZM113.191 47.9989C113.747 47.9989 114.212 47.8462 114.585 47.5409C114.959 47.231 115.237 46.8163 115.419 46.2968C115.606 45.7772 115.7 45.1984 115.7 44.5604C115.7 43.9178 115.606 43.3368 115.419 42.8173C115.237 42.2932 114.959 41.8762 114.585 41.5663C114.212 41.2564 113.747 41.1014 113.191 41.1014C112.621 41.1014 112.147 41.2564 111.769 41.5663C111.395 41.8762 111.115 42.2932 110.928 42.8173C110.746 43.3368 110.655 43.9178 110.655 44.5604C110.655 45.1984 110.746 45.7772 110.928 46.2968C111.115 46.8163 111.395 47.231 111.769 47.5409C112.147 47.8462 112.621 47.9989 113.191 47.9989ZM128.724 35.3934L129.585 36.993C129.28 37.2574 128.938 37.4488 128.56 37.5673C128.181 37.6858 127.737 37.7632 127.227 37.7997C126.721 37.8316 126.119 37.8544 125.422 37.868C124.638 37.8863 123.998 38.0344 123.501 38.3124C123.004 38.5904 122.624 39.0119 122.359 39.577C122.095 40.1376 121.922 40.8531 121.84 41.7235H121.956C122.284 41.0809 122.745 40.591 123.337 40.2538C123.929 39.9165 124.624 39.7479 125.422 39.7479C126.292 39.7479 127.06 39.9439 127.726 40.3358C128.396 40.7232 128.917 41.286 129.291 42.0243C129.669 42.7626 129.859 43.6558 129.859 44.704C129.859 45.7841 129.656 46.7206 129.25 47.5135C128.845 48.302 128.268 48.9104 127.521 49.3387C126.778 49.7671 125.896 49.9813 124.875 49.9813C123.859 49.9813 122.975 49.7603 122.223 49.3182C121.475 48.8716 120.897 48.2131 120.486 47.3427C120.081 46.4677 119.878 45.3899 119.878 44.1093V43.1659C119.878 40.6958 120.338 38.8524 121.259 37.6356C122.179 36.4188 123.544 35.799 125.354 35.7762C125.891 35.7671 126.372 35.7649 126.796 35.7694C127.224 35.774 127.598 35.7535 127.917 35.7079C128.236 35.6623 128.505 35.5575 128.724 35.3934ZM124.889 47.9989C125.395 47.9989 125.832 47.869 126.201 47.6093C126.57 47.3449 126.853 46.9712 127.049 46.4882C127.249 46.0051 127.35 45.4331 127.35 44.7723C127.35 44.1206 127.249 43.5669 127.049 43.1112C126.848 42.6509 126.564 42.3 126.194 42.0585C125.825 41.8169 125.386 41.6962 124.875 41.6962C124.492 41.6962 124.148 41.7645 123.843 41.9012C123.538 42.038 123.278 42.2385 123.064 42.5028C122.849 42.7671 122.685 43.0884 122.571 43.4667C122.457 43.8449 122.396 44.2802 122.387 44.7723C122.387 45.7613 122.61 46.5474 123.057 47.1307C123.503 47.7095 124.114 47.9989 124.889 47.9989ZM134.985 49.9882C134.32 49.9882 133.721 49.8697 133.188 49.6327C132.659 49.3912 132.24 49.0357 131.93 48.5663C131.624 48.0969 131.472 47.5181 131.472 46.83C131.472 46.2375 131.581 45.7476 131.8 45.3602C132.019 44.9729 132.317 44.663 132.695 44.4305C133.074 44.1981 133.5 44.0227 133.974 43.9042C134.452 43.7811 134.947 43.6923 135.457 43.6376C136.072 43.5738 136.571 43.5168 136.954 43.4667C137.337 43.412 137.615 43.33 137.788 43.2206C137.966 43.1066 138.055 42.9312 138.055 42.6942V42.6532C138.055 42.1382 137.902 41.7395 137.597 41.4569C137.291 41.1744 136.852 41.0331 136.277 41.0331C135.671 41.0331 135.191 41.1652 134.835 41.4296C134.484 41.6939 134.247 42.0061 134.124 42.3661L131.814 42.038C131.996 41.3999 132.297 40.8667 132.716 40.4384C133.135 40.0054 133.648 39.6818 134.254 39.4677C134.86 39.2489 135.53 39.1395 136.264 39.1395C136.77 39.1395 137.273 39.1988 137.775 39.3173C138.276 39.4357 138.734 39.6317 139.149 39.9052C139.563 40.174 139.896 40.5409 140.147 41.0057C140.402 41.4706 140.529 42.0516 140.529 42.7489V49.7762H138.151V48.3339H138.068C137.918 48.6255 137.706 48.899 137.433 49.1542C137.164 49.4048 136.824 49.6076 136.414 49.7626C136.009 49.913 135.532 49.9882 134.985 49.9882ZM135.628 48.1698C136.125 48.1698 136.555 48.0718 136.92 47.8759C137.285 47.6753 137.565 47.411 137.761 47.0829C137.961 46.7548 138.062 46.397 138.062 46.0096V44.7723C137.984 44.8361 137.852 44.8954 137.665 44.9501C137.483 45.0048 137.278 45.0526 137.05 45.0936C136.822 45.1346 136.596 45.1711 136.373 45.203C136.15 45.2349 135.956 45.2622 135.792 45.285C135.423 45.3352 135.093 45.4172 134.801 45.5311C134.509 45.6451 134.279 45.8046 134.11 46.0096C133.942 46.2102 133.858 46.4699 133.858 46.7889C133.858 47.2447 134.024 47.5887 134.357 47.8212C134.689 48.0536 135.113 48.1698 135.628 48.1698ZM143.018 49.7762V39.2762H147.427C148.671 39.2762 149.653 39.5246 150.373 40.0214C151.098 40.5181 151.46 41.2108 151.46 42.0995C151.46 42.6874 151.255 43.1682 150.845 43.5419C150.439 43.911 149.886 44.1594 149.184 44.287C149.735 44.3326 150.218 44.4716 150.633 44.704C151.052 44.9364 151.38 45.2417 151.617 45.62C151.854 45.9983 151.973 46.4335 151.973 46.9257C151.973 47.5044 151.82 48.008 151.515 48.4364C151.214 48.8602 150.774 49.1906 150.195 49.4276C149.621 49.66 148.924 49.7762 148.104 49.7762H143.018ZM145.335 47.828H148.104C148.559 47.828 148.917 47.7209 149.177 47.5067C149.437 47.288 149.567 46.9917 149.567 46.618C149.567 46.1851 149.437 45.8456 149.177 45.5995C148.917 45.3488 148.559 45.2235 148.104 45.2235H145.335V47.828ZM145.335 43.6239H147.475C147.812 43.6239 148.101 43.576 148.343 43.4803C148.584 43.3801 148.769 43.2411 148.897 43.0634C149.024 42.8811 149.088 42.6646 149.088 42.4139C149.088 42.0539 148.94 41.7714 148.644 41.5663C148.352 41.3612 147.946 41.2587 147.427 41.2587H145.335V43.6239ZM156.401 46.4266L160.605 39.2762H163.148V49.7762H160.755V42.619L156.565 49.7762H154.015V39.2762H156.401V46.4266ZM164.513 41.3065V39.2762H173.701V41.3065H170.303V49.7762H167.911V41.3065H164.513ZM177.346 42.6942H180.443C181.783 42.6942 182.819 43.0201 183.553 43.6718C184.287 44.3234 184.656 45.1779 184.661 46.2352C184.656 46.9234 184.487 47.5341 184.155 48.0673C183.827 48.6005 183.348 49.0197 182.719 49.3251C182.095 49.6259 181.336 49.7762 180.443 49.7762H175.671V39.2762H178.057V47.746H180.443C180.981 47.746 181.423 47.6093 181.769 47.3358C182.115 47.0578 182.288 46.7024 182.288 46.2694C182.288 45.8137 182.115 45.4423 181.769 45.1552C181.423 44.868 180.981 44.7245 180.443 44.7245H177.346V42.6942ZM191.556 49.7762V39.2762H200.422V49.7762H198.037V41.3065H193.922V49.7762H191.556ZM207.616 49.9813C206.563 49.9813 205.654 49.7626 204.888 49.3251C204.127 48.883 203.541 48.2587 203.131 47.452C202.721 46.6408 202.516 45.6861 202.516 44.5878C202.516 43.5077 202.721 42.5598 203.131 41.744C203.546 40.9237 204.125 40.2857 204.868 39.83C205.61 39.3697 206.483 39.1395 207.486 39.1395C208.133 39.1395 208.744 39.2443 209.318 39.454C209.897 39.6591 210.407 39.9781 210.849 40.411C211.296 40.844 211.647 41.3954 211.902 42.0653C212.157 42.7307 212.285 43.5236 212.285 44.4442V45.203H203.678V43.535H209.912C209.908 43.0611 209.805 42.6395 209.605 42.2704C209.404 41.8967 209.124 41.6027 208.764 41.3885C208.409 41.1744 207.994 41.0673 207.52 41.0673C207.014 41.0673 206.57 41.1903 206.187 41.4364C205.804 41.6779 205.506 41.9969 205.291 42.3934C205.082 42.7854 204.975 43.216 204.97 43.6854V45.1415C204.97 45.7522 205.082 46.2762 205.305 46.7137C205.528 47.1467 205.841 47.4794 206.242 47.7118C206.643 47.9397 207.112 48.0536 207.65 48.0536C208.01 48.0536 208.336 48.0035 208.627 47.9032C208.919 47.7984 209.172 47.6457 209.386 47.4452C209.6 47.2447 209.762 46.9963 209.871 46.7001L212.182 46.9598C212.036 47.5705 211.758 48.1037 211.348 48.5594C210.942 49.0106 210.423 49.3615 209.789 49.6122C209.156 49.8583 208.431 49.9813 207.616 49.9813ZM218.958 49.9813C217.91 49.9813 217.01 49.7512 216.258 49.2909C215.511 48.8306 214.934 48.1949 214.528 47.3837C214.127 46.5679 213.927 45.6291 213.927 44.5673C213.927 43.5009 214.132 42.5598 214.542 41.744C214.952 40.9237 215.531 40.2857 216.278 39.83C217.03 39.3697 217.919 39.1395 218.944 39.1395C219.797 39.1395 220.551 39.2968 221.207 39.6112C221.868 39.9211 222.394 40.3609 222.786 40.9305C223.178 41.4956 223.401 42.1565 223.456 42.913H221.091C220.995 42.4071 220.767 41.9856 220.407 41.6483C220.052 41.3065 219.576 41.1356 218.979 41.1356C218.473 41.1356 218.028 41.2723 217.646 41.5458C217.263 41.8147 216.964 42.202 216.75 42.7079C216.54 43.2137 216.436 43.8199 216.436 44.5262C216.436 45.2417 216.54 45.857 216.75 46.3719C216.96 46.8824 217.254 47.2766 217.632 47.5546C218.015 47.828 218.464 47.9647 218.979 47.9647C219.343 47.9647 219.669 47.8964 219.956 47.7596C220.248 47.6184 220.492 47.4156 220.688 47.1512C220.884 46.8869 221.018 46.5656 221.091 46.1874H223.456C223.397 46.9302 223.178 47.5887 222.8 48.163C222.422 48.7326 221.907 49.1792 221.255 49.5028C220.603 49.8218 219.838 49.9813 218.958 49.9813ZM232.7 43.5009V45.5311H227.108V43.5009H232.7ZM227.874 39.2762V49.7762H225.488V39.2762H227.874ZM234.32 39.2762V49.7762H231.941V39.2762H234.32ZM242.368 43.576V45.6132H236.714V43.576H242.368ZM238.676 39.2762V49.7762H236.195V39.2762H238.676ZM245.54 49.9813C244.528 49.9813 243.651 49.7512 242.908 49.2909C242.17 48.8306 241.598 48.1926 241.192 47.3768C240.786 46.5611 240.584 45.6177 240.584 44.5468C240.584 43.4758 240.786 42.5347 241.192 41.7235C241.598 40.9123 242.17 40.2788 242.908 39.8231C243.651 39.3674 244.528 39.1395 245.54 39.1395C246.547 39.1395 247.42 39.3674 248.158 39.8231C248.901 40.2788 249.475 40.9123 249.88 41.7235C250.291 42.5347 250.496 43.4758 250.496 44.5468C250.496 45.6177 250.291 46.5611 249.88 47.3768C249.475 48.1926 248.901 48.8306 248.158 49.2909C247.42 49.7512 246.547 49.9813 245.54 49.9813ZM245.54 47.9305C246.137 47.9305 246.624 47.7802 247.003 47.4794C247.381 47.1786 247.659 46.773 247.837 46.2626C248.014 45.7522 248.103 45.1802 248.103 44.5468C248.103 43.9133 248.014 43.3413 247.837 42.8309C247.659 42.3205 247.381 41.9172 247.003 41.621C246.624 41.3202 246.137 41.1698 245.54 41.1698C244.938 41.1698 244.446 41.3202 244.063 41.621C243.685 41.9172 243.407 42.3205 243.229 42.8309C243.051 43.3413 242.963 43.9133 242.963 44.5468C242.963 45.1848 243.051 45.759 243.229 46.2694C243.407 46.7798 243.685 47.1854 244.063 47.4862C244.446 47.7824 244.938 47.9305 245.54 47.9305Z" fill="white"/>
</g>
<defs>
<filter id="filter0_d_261_911" x="0" y="0" width="310.297" height="98.9725" filterUnits="userSpaceOnUse" color-interpolation-filters="sRGB">
<feFlood flood-opacity="0" result="BackgroundImageFix"/>
<feColorMatrix in="SourceAlpha" type="matrix" values="0 0 0 0 0 0 0 0 0 0 0 0 0 0 0 0 0 0 127 0" result="hardAlpha"/>
<feOffset dy="5.5"/>
<feGaussianBlur stdDeviation="9.625"/>
<feComposite in2="hardAlpha" operator="out"/>
<feColorMatrix type="matrix" values="0 0 0 0 0.180392 0 0 0 0 0.407843 0 0 0 0 0.960784 0 0 0 0.3 0"/>
<feBlend mode="normal" in2="BackgroundImageFix" result="effect1_dropShadow_261_911"/>
<feBlend mode="normal" in="SourceGraphic" in2="effect1_dropShadow_261_911" result="shape"/>
</filter>
</defs>
</svg>
