<svg width="43" height="42" viewBox="0 0 43 42" fill="none" xmlns="http://www.w3.org/2000/svg">
<rect width="42.625" height="41.25" rx="12.375" fill="#E9EEFD"/>
<g transform="translate(6.3, 5.6)">
<path fill-rule="evenodd" clip-rule="evenodd" d="M14.9665 0.453491C17.837 0.453491 20.643 1.30468 23.0297 2.89943C25.4164 4.49418 27.2766 6.76085 28.3751 9.41282C29.4736 12.0648 29.761 14.983 29.201 17.7983C28.641 20.6136 27.2587 23.1996 25.229 25.2294C23.1993 27.2591 20.6132 28.6414 17.7979 29.2014C14.9826 29.7614 12.0644 29.4739 9.41247 28.3755C6.7605 27.277 4.49382 25.4168 2.89907 23.0301C1.30432 20.6433 0.453125 17.8373 0.453125 14.9669C0.453125 11.1177 1.98221 7.42615 4.70399 4.70436C7.42578 1.98258 11.1173 0.453491 14.9665 0.453491ZM12.0711 19.1961C12.0732 19.3113 12.1094 19.4233 12.1751 19.518C12.2408 19.6127 12.333 19.6858 12.4402 19.7282C12.5519 19.7852 12.6767 19.8116 12.8019 19.8046C12.927 19.7976 13.0481 19.7576 13.1528 19.6885L19.5097 15.4879C19.6033 15.4276 19.6803 15.3446 19.7334 15.2467C19.7866 15.1488 19.8142 15.0391 19.8138 14.9277C19.8133 14.8163 19.7849 14.7068 19.7309 14.6093C19.677 14.5118 19.5994 14.4295 19.5053 14.3699L13.131 10.2336C13.0261 10.1653 12.9048 10.1262 12.7797 10.1204C12.6546 10.1147 12.5302 10.1424 12.4194 10.2007C12.3111 10.25 12.2191 10.3292 12.1544 10.4291C12.0897 10.529 12.0549 10.6453 12.0541 10.7643L12.0711 19.1961Z" fill="#E9EEFD" stroke="#2E68F5" stroke-width="0.907085"/>
</g>
</svg>
