<svg width="88" height="88" viewBox="0 0 88 88" fill="none" xmlns="http://www.w3.org/2000/svg">
<path d="M66 0C78.1503 0 88 9.84974 88 22V66C88 78.1503 78.1503 88 66 88H22C9.84974 88 0 78.1503 0 66V22C0 9.84974 9.84974 0 22 0H66Z" fill="url(#paint0_linear_175_1705)"/>
<path d="M66 0C78.1503 0 88 9.84974 88 22V66C88 78.1503 78.1503 88 66 88H22C9.84974 88 0 78.1503 0 66V22C0 9.84974 9.84974 0 22 0H66Z" stroke="#E5E7EB"/>
<g clip-path="url(#clip0_175_1705)">
<path d="M59.6686 26.5311C60.1906 26.9178 60.5 27.5366 60.5 28.1876V32.8282V49.8438C60.5 52.6926 57.7285 55.0001 54.3125 55.0001C50.8965 55.0001 48.125 52.6926 48.125 49.8438C48.125 46.995 50.8965 44.6876 54.3125 44.6876C55.0344 44.6876 55.7305 44.7907 56.375 44.984V35.5997L39.875 40.5497V53.9688C39.875 56.8176 37.1035 59.1251 33.6875 59.1251C30.2715 59.1251 27.5 56.8176 27.5 53.9688C27.5 51.12 30.2715 48.8126 33.6875 48.8126C34.4094 48.8126 35.1055 48.9157 35.75 49.109V39.0157V34.3751C35.75 33.4663 36.3494 32.6606 37.2195 32.3964L57.8445 26.2089C58.4697 26.0219 59.1465 26.138 59.6686 26.5311Z" fill="white"/>
</g>
<defs>
<linearGradient id="paint0_linear_175_1705" x1="-31.1127" y1="31.1127" x2="31.1127" y2="93.3381" gradientUnits="userSpaceOnUse">
<stop stop-color="#2563EB"/>
<stop offset="1" stop-color="#1D4ED8"/>
</linearGradient>
<clipPath id="clip0_175_1705">
<path d="M27.5 26.125H60.5V59.125H27.5V26.125Z" fill="white"/>
</clipPath>
</defs>
</svg>
