<svg width="33" height="44" viewBox="0 0 33 44" fill="none" xmlns="http://www.w3.org/2000/svg">
<path d="M33 44H0V0H33V44Z" stroke="#E5E7EB"/>
<g clip-path="url(#clip0_175_1706)">
<path d="M32.1686 4.53112C32.6906 4.91784 33 5.53659 33 6.18756V10.8282V27.8438C33 30.6926 30.2285 33.0001 26.8125 33.0001C23.3965 33.0001 20.625 30.6926 20.625 27.8438C20.625 24.995 23.3965 22.6876 26.8125 22.6876C27.5344 22.6876 28.2305 22.7907 28.875 22.984V13.5997L12.375 18.5497V31.9688C12.375 34.8176 9.60352 37.1251 6.1875 37.1251C2.77148 37.1251 0 34.8176 0 31.9688C0 29.12 2.77148 26.8126 6.1875 26.8126C6.90938 26.8126 7.60547 26.9157 8.25 27.109V17.0157V12.3751C8.25 11.4663 8.84941 10.6606 9.71953 10.3964L30.3445 4.20885C30.9697 4.02194 31.6465 4.13795 32.1686 4.53112Z" fill="white"/>
</g>
<defs>
<clipPath id="clip0_175_1706">
<path d="M0 4.125H33V37.125H0V4.125Z" fill="white"/>
</clipPath>
</defs>
</svg>
