<svg width="1381" height="113" viewBox="0 0 1381 113" fill="none" xmlns="http://www.w3.org/2000/svg">
<g filter="url(#filter0_d_261_916)">
<rect x="19.25" y="13.75" width="1342.01" height="74.4975" rx="22" fill="white" fill-opacity="0.72" shape-rendering="crispEdges"/>
<rect x="19.9375" y="14.4375" width="1340.64" height="73.1225" rx="21.3125" stroke="white" stroke-opacity="0.6" stroke-width="1.375" shape-rendering="crispEdges"/>
<path d="M63.2144 59.7635L58.9883 55.5374" stroke="#94A3B8" stroke-width="1.94792" stroke-linecap="round" stroke-linejoin="round"/>
<path d="M53.4753 57.8165C57.7785 57.8165 61.2669 54.328 61.2669 50.0248C61.2669 45.7216 57.7785 42.2332 53.4753 42.2332C49.172 42.2332 45.6836 45.7216 45.6836 50.0248C45.6836 54.328 49.172 57.8165 53.4753 57.8165Z" stroke="#94A3B8" stroke-width="1.94792" stroke-linecap="round" stroke-linejoin="round"/>
<g clip-path="url(#clip0_261_916)">
<path d="M94.791 42.7886V56.7886H93.0957V44.2925H86.041V56.7886H84.3457V42.7886H94.791ZM102.258 57.0073C101.31 57.0073 100.478 56.7817 99.7625 56.3306C99.0515 55.8794 98.4955 55.2482 98.0945 54.437C97.698 53.6258 97.4998 52.6779 97.4998 51.5933C97.4998 50.4995 97.698 49.5448 98.0945 48.729C98.4955 47.9132 99.0515 47.2798 99.7625 46.8286C100.478 46.3774 101.31 46.1519 102.258 46.1519C103.205 46.1519 104.035 46.3774 104.746 46.8286C105.461 47.2798 106.017 47.9132 106.414 48.729C106.815 49.5448 107.015 50.4995 107.015 51.5933C107.015 52.6779 106.815 53.6258 106.414 54.437C106.017 55.2482 105.461 55.8794 104.746 56.3306C104.035 56.7817 103.205 57.0073 102.258 57.0073ZM102.258 55.5581C102.978 55.5581 103.57 55.3735 104.035 55.0044C104.5 54.6353 104.844 54.1499 105.067 53.5483C105.29 52.9468 105.402 52.2951 105.402 51.5933C105.402 50.8914 105.29 50.2375 105.067 49.6313C104.844 49.0252 104.5 48.5353 104.035 48.1616C103.57 47.7879 102.978 47.6011 102.258 47.6011C101.538 47.6011 100.945 47.7879 100.48 48.1616C100.015 48.5353 99.6713 49.0252 99.448 49.6313C99.2247 50.2375 99.113 50.8914 99.113 51.5933C99.113 52.2951 99.2247 52.9468 99.448 53.5483C99.6713 54.1499 100.015 54.6353 100.48 55.0044C100.945 55.3735 101.538 55.5581 102.258 55.5581ZM111.091 54.4097L116.15 46.2886H118.009V56.7886H116.396V48.6675L111.365 56.7886H109.478V46.2886H111.091V54.4097ZM125.23 57.0073C124.245 57.0073 123.398 56.7749 122.687 56.3101C121.976 55.8452 121.429 55.2049 121.046 54.3892C120.663 53.5734 120.472 52.6414 120.472 51.5933C120.472 50.5269 120.668 49.5858 121.06 48.77C121.456 47.9497 122.008 47.3094 122.714 46.8491C123.425 46.3843 124.254 46.1519 125.202 46.1519C125.941 46.1519 126.606 46.2886 127.198 46.562C127.791 46.8354 128.276 47.2183 128.655 47.7104C129.033 48.2026 129.267 48.7769 129.359 49.4331H127.745C127.622 48.9546 127.349 48.5308 126.925 48.1616C126.506 47.7879 125.941 47.6011 125.23 47.6011C124.601 47.6011 124.049 47.7651 123.575 48.0933C123.106 48.4168 122.739 48.8748 122.475 49.4673C122.215 50.0552 122.085 50.7456 122.085 51.5386C122.085 52.3498 122.213 53.0562 122.468 53.6577C122.728 54.2593 123.092 54.7264 123.562 55.0591C124.036 55.3918 124.592 55.5581 125.23 55.5581C125.649 55.5581 126.03 55.4852 126.371 55.3394C126.713 55.1935 127.003 54.9839 127.24 54.7104C127.476 54.437 127.645 54.1089 127.745 53.7261H129.359C129.267 54.3459 129.042 54.9041 128.682 55.4009C128.326 55.8931 127.855 56.285 127.267 56.5767C126.684 56.8638 126.004 57.0073 125.23 57.0073ZM131.717 56.7886V46.2886H133.33V50.855H134.397L138.17 46.2886H140.248L136.01 51.3472L140.303 56.7886H138.225L134.78 52.3589H133.33V56.7886H131.717ZM147.47 56.7886V46.2886H155.728V56.7886H154.115V47.7925H149.084V56.7886H147.47ZM162.94 57.0073C161.992 57.0073 161.161 56.7817 160.445 56.3306C159.734 55.8794 159.178 55.2482 158.777 54.437C158.381 53.6258 158.182 52.6779 158.182 51.5933C158.182 50.4995 158.381 49.5448 158.777 48.729C159.178 47.9132 159.734 47.2798 160.445 46.8286C161.161 46.3774 161.992 46.1519 162.94 46.1519C163.888 46.1519 164.718 46.3774 165.428 46.8286C166.144 47.2798 166.7 47.9132 167.096 48.729C167.497 49.5448 167.698 50.4995 167.698 51.5933C167.698 52.6779 167.497 53.6258 167.096 54.437C166.7 55.2482 166.144 55.8794 165.428 56.3306C164.718 56.7817 163.888 57.0073 162.94 57.0073ZM162.94 55.5581C163.66 55.5581 164.253 55.3735 164.718 55.0044C165.182 54.6353 165.526 54.1499 165.75 53.5483C165.973 52.9468 166.085 52.2951 166.085 51.5933C166.085 50.8914 165.973 50.2375 165.75 49.6313C165.526 49.0252 165.182 48.5353 164.718 48.1616C164.253 47.7879 163.66 47.6011 162.94 47.6011C162.22 47.6011 161.628 47.7879 161.163 48.1616C160.698 48.5353 160.354 49.0252 160.131 49.6313C159.907 50.2375 159.796 50.8914 159.796 51.5933C159.796 52.2951 159.907 52.9468 160.131 53.5483C160.354 54.1499 160.698 54.6353 161.163 55.0044C161.628 55.3735 162.22 55.5581 162.94 55.5581ZM182.602 50.8003V52.3042H176.805V50.8003H182.602ZM177.188 46.2886V56.7886H175.575V46.2886H177.188ZM183.833 46.2886V56.7886H182.219V46.2886H183.833ZM189.869 57.0347C189.203 57.0347 188.599 56.9093 188.057 56.6587C187.515 56.4035 187.084 56.0366 186.765 55.5581C186.446 55.075 186.287 54.4917 186.287 53.8081C186.287 53.2065 186.405 52.7189 186.642 52.3452C186.879 51.967 187.196 51.6707 187.592 51.4565C187.989 51.2423 188.426 51.0828 188.905 50.978C189.388 50.8687 189.873 50.7821 190.361 50.7183C190.999 50.6362 191.516 50.5747 191.913 50.5337C192.314 50.4881 192.605 50.4129 192.788 50.3081C192.974 50.2033 193.068 50.021 193.068 49.7612V49.7065C193.068 49.0321 192.883 48.508 192.514 48.1343C192.15 47.7606 191.596 47.5737 190.853 47.5737C190.083 47.5737 189.479 47.7424 189.042 48.0796C188.604 48.4168 188.296 48.7769 188.119 49.1597L186.587 48.6128C186.861 47.9748 187.225 47.478 187.681 47.1226C188.141 46.7625 188.643 46.5119 189.185 46.3706C189.732 46.2248 190.27 46.1519 190.798 46.1519C191.136 46.1519 191.523 46.1929 191.96 46.2749C192.403 46.3524 192.829 46.5142 193.239 46.7603C193.653 47.0063 193.998 47.3778 194.271 47.8745C194.544 48.3713 194.681 49.0366 194.681 49.8706V56.7886H193.068V55.3667H192.986C192.876 55.5946 192.694 55.8384 192.439 56.0981C192.184 56.3579 191.844 56.5789 191.42 56.7612C190.997 56.9435 190.479 57.0347 189.869 57.0347ZM190.115 55.5854C190.753 55.5854 191.291 55.4601 191.728 55.2095C192.17 54.9588 192.503 54.6353 192.726 54.2388C192.954 53.8423 193.068 53.4253 193.068 52.9878V51.5112C193 51.5933 192.849 51.6685 192.617 51.7368C192.389 51.8006 192.125 51.8576 191.824 51.9077C191.528 51.9533 191.238 51.9943 190.956 52.0308C190.678 52.0627 190.452 52.09 190.279 52.1128C189.86 52.1675 189.468 52.2563 189.103 52.3794C188.743 52.4979 188.451 52.6779 188.228 52.9194C188.009 53.1564 187.9 53.48 187.9 53.8901C187.9 54.4507 188.107 54.8745 188.522 55.1616C188.941 55.4442 189.472 55.5854 190.115 55.5854ZM196.969 54.1089H198.692C198.729 54.5828 198.943 54.9429 199.335 55.189C199.731 55.4351 200.246 55.5581 200.88 55.5581C201.527 55.5581 202.08 55.4259 202.541 55.1616C203.001 54.8927 203.231 54.4598 203.231 53.8628C203.231 53.5119 203.145 53.2065 202.971 52.9468C202.798 52.6825 202.554 52.4774 202.24 52.3315C201.926 52.1857 201.554 52.1128 201.126 52.1128H199.321V50.6636H201.126C201.768 50.6636 202.242 50.5177 202.548 50.2261C202.858 49.9344 203.012 49.5698 203.012 49.1323C203.012 48.6629 202.846 48.2869 202.513 48.0044C202.181 47.7173 201.709 47.5737 201.098 47.5737C200.483 47.5737 199.97 47.7127 199.56 47.9907C199.15 48.2642 198.934 48.6174 198.911 49.0503H197.216C197.234 48.4852 197.407 47.9862 197.735 47.5532C198.063 47.1157 198.51 46.7739 199.075 46.5278C199.64 46.2772 200.287 46.1519 201.016 46.1519C201.755 46.1519 202.395 46.2817 202.937 46.5415C203.484 46.7967 203.906 47.1453 204.202 47.5874C204.503 48.0249 204.653 48.5216 204.653 49.0776C204.653 49.6701 204.487 50.1486 204.154 50.5132C203.821 50.8778 203.404 51.1375 202.903 51.2925V51.4019C203.3 51.4292 203.644 51.5568 203.935 51.7847C204.232 52.008 204.462 52.3019 204.626 52.6665C204.79 53.0265 204.872 53.4253 204.872 53.8628C204.872 54.5008 204.701 55.0568 204.359 55.5308C204.017 56.0002 203.548 56.3647 202.951 56.6245C202.354 56.8797 201.673 57.0073 200.907 57.0073C200.164 57.0073 199.499 56.8866 198.911 56.645C198.323 56.3989 197.856 56.0594 197.51 55.6265C197.168 55.189 196.988 54.6831 196.969 54.1089ZM207.138 56.7886V46.2886H211.431C212.561 46.2886 213.459 46.5438 214.124 47.0542C214.79 47.5646 215.122 48.2391 215.122 49.0776C215.122 49.7157 214.933 50.2101 214.555 50.561C214.177 50.9074 213.691 51.1421 213.099 51.2651C213.486 51.3198 213.862 51.4565 214.227 51.6753C214.596 51.894 214.901 52.1948 215.143 52.5776C215.384 52.9559 215.505 53.4207 215.505 53.9722C215.505 54.5099 215.368 54.9907 215.095 55.4146C214.822 55.8384 214.43 56.1733 213.919 56.4194C213.409 56.6655 212.798 56.7886 212.087 56.7886H207.138ZM208.669 55.312H212.087C212.643 55.312 213.078 55.1799 213.393 54.9155C213.707 54.6512 213.865 54.2912 213.865 53.8354C213.865 53.2931 213.707 52.867 213.393 52.5571C213.078 52.2427 212.643 52.0854 212.087 52.0854H208.669V55.312ZM208.669 50.6909H211.431C211.864 50.6909 212.235 50.6317 212.545 50.5132C212.855 50.3901 213.092 50.217 213.256 49.9937C213.425 49.7658 213.509 49.4969 213.509 49.187C213.509 48.745 213.324 48.3986 212.955 48.1479C212.586 47.8927 212.078 47.7651 211.431 47.7651H208.669V50.6909ZM221.037 57.0347C220.372 57.0347 219.768 56.9093 219.226 56.6587C218.683 56.4035 218.253 56.0366 217.934 55.5581C217.615 55.075 217.455 54.4917 217.455 53.8081C217.455 53.2065 217.574 52.7189 217.811 52.3452C218.048 51.967 218.364 51.6707 218.761 51.4565C219.157 51.2423 219.595 51.0828 220.073 50.978C220.556 50.8687 221.042 50.7821 221.529 50.7183C222.167 50.6362 222.685 50.5747 223.081 50.5337C223.482 50.4881 223.774 50.4129 223.956 50.3081C224.143 50.2033 224.236 50.021 224.236 49.7612V49.7065C224.236 49.0321 224.052 48.508 223.683 48.1343C223.318 47.7606 222.764 47.5737 222.021 47.5737C221.251 47.5737 220.647 47.7424 220.21 48.0796C219.772 48.4168 219.465 48.7769 219.287 49.1597L217.756 48.6128C218.029 47.9748 218.394 47.478 218.85 47.1226C219.31 46.7625 219.811 46.5119 220.354 46.3706C220.9 46.2248 221.438 46.1519 221.967 46.1519C222.304 46.1519 222.691 46.1929 223.129 46.2749C223.571 46.3524 223.997 46.5142 224.407 46.7603C224.822 47.0063 225.166 47.3778 225.439 47.8745C225.713 48.3713 225.85 49.0366 225.85 49.8706V56.7886H224.236V55.3667H224.154C224.045 55.5946 223.863 55.8384 223.607 56.0981C223.352 56.3579 223.013 56.5789 222.589 56.7612C222.165 56.9435 221.648 57.0347 221.037 57.0347ZM221.283 55.5854C221.921 55.5854 222.459 55.4601 222.896 55.2095C223.339 54.9588 223.671 54.6353 223.895 54.2388C224.122 53.8423 224.236 53.4253 224.236 52.9878V51.5112C224.168 51.5933 224.018 51.6685 223.785 51.7368C223.557 51.8006 223.293 51.8576 222.992 51.9077C222.696 51.9533 222.407 51.9943 222.124 52.0308C221.846 52.0627 221.62 52.09 221.447 52.1128C221.028 52.1675 220.636 52.2563 220.271 52.3794C219.911 52.4979 219.62 52.6779 219.396 52.9194C219.178 53.1564 219.068 53.48 219.068 53.8901C219.068 54.4507 219.276 54.8745 219.69 55.1616C220.11 55.4442 220.641 55.5854 221.283 55.5854ZM235.822 50.8003V52.3042H230.025V50.8003H235.822ZM230.407 46.2886V56.7886H228.794V46.2886H230.407ZM237.052 46.2886V56.7886H235.439V46.2886H237.052ZM241.612 54.4097L246.67 46.2886H248.53V56.7886H246.916V48.6675L241.885 56.7886H239.998V46.2886H241.612V54.4097ZM256.516 50.8823V52.3862H250.965V50.8823H256.516ZM252.332 46.2886V56.7886H250.719V46.2886H252.332ZM259.742 57.0073C258.794 57.0073 257.963 56.7817 257.247 56.3306C256.536 55.8794 255.98 55.2482 255.579 54.437C255.183 53.6258 254.984 52.6779 254.984 51.5933C254.984 50.4995 255.183 49.5448 255.579 48.729C255.98 47.9132 256.536 47.2798 257.247 46.8286C257.963 46.3774 258.794 46.1519 259.742 46.1519C260.69 46.1519 261.52 46.3774 262.23 46.8286C262.946 47.2798 263.502 47.9132 263.898 48.729C264.299 49.5448 264.5 50.4995 264.5 51.5933C264.5 52.6779 264.299 53.6258 263.898 54.437C263.502 55.2482 262.946 55.8794 262.23 56.3306C261.52 56.7817 260.69 57.0073 259.742 57.0073ZM259.742 55.5581C260.462 55.5581 261.055 55.3735 261.52 55.0044C261.984 54.6353 262.328 54.1499 262.552 53.5483C262.775 52.9468 262.887 52.2951 262.887 51.5933C262.887 50.8914 262.775 50.2375 262.552 49.6313C262.328 49.0252 261.984 48.5353 261.52 48.1616C261.055 47.7879 260.462 47.6011 259.742 47.6011C259.022 47.6011 258.43 47.7879 257.965 48.1616C257.5 48.5353 257.156 49.0252 256.933 49.6313C256.709 50.2375 256.598 50.8914 256.598 51.5933C256.598 52.2951 256.709 52.9468 256.933 53.5483C257.156 54.1499 257.5 54.6353 257.965 55.0044C258.43 55.3735 259.022 55.5581 259.742 55.5581ZM274.152 54.4097L279.211 46.2886H281.07V56.7886H279.457V48.6675L274.426 56.7886H272.539V46.2886H274.152V54.4097ZM283.095 56.7886V55.2847H283.478C283.793 55.2847 284.055 55.2231 284.264 55.1001C284.474 54.9725 284.643 54.7515 284.77 54.437C284.902 54.118 285.003 53.6759 285.071 53.1108C285.144 52.5412 285.196 51.8166 285.228 50.937L285.42 46.2886H292.42V56.7886H290.806V47.7925H286.951L286.787 51.5386C286.75 52.3999 286.673 53.1587 286.554 53.8149C286.441 54.4666 286.265 55.0135 286.028 55.4556C285.796 55.8976 285.486 56.2303 285.098 56.4536C284.711 56.6769 284.226 56.7886 283.642 56.7886H283.095ZM296.993 54.4097L302.052 46.2886H303.911V56.7886H302.298V48.6675L297.266 56.7886H295.38V46.2886H296.993V54.4097ZM313.893 54.4097L318.952 46.2886H320.811V56.7886H319.198V48.6675L314.167 56.7886H312.28V46.2886H313.893V54.4097ZM328.031 57.0073C327.047 57.0073 326.199 56.7749 325.489 56.3101C324.778 55.8452 324.231 55.2049 323.848 54.3892C323.465 53.5734 323.274 52.6414 323.274 51.5933C323.274 50.5269 323.47 49.5858 323.862 48.77C324.258 47.9497 324.809 47.3094 325.516 46.8491C326.227 46.3843 327.056 46.1519 328.004 46.1519C328.742 46.1519 329.408 46.2886 330 46.562C330.593 46.8354 331.078 47.2183 331.456 47.7104C331.835 48.2026 332.069 48.7769 332.16 49.4331H330.547C330.424 48.9546 330.151 48.5308 329.727 48.1616C329.308 47.7879 328.742 47.6011 328.031 47.6011C327.403 47.6011 326.851 47.7651 326.377 48.0933C325.908 48.4168 325.541 48.8748 325.277 49.4673C325.017 50.0552 324.887 50.7456 324.887 51.5386C324.887 52.3498 325.015 53.0562 325.27 53.6577C325.53 54.2593 325.894 54.7264 326.364 55.0591C326.837 55.3918 327.393 55.5581 328.031 55.5581C328.451 55.5581 328.831 55.4852 329.173 55.3394C329.515 55.1935 329.804 54.9839 330.041 54.7104C330.278 54.437 330.447 54.1089 330.547 53.7261H332.16C332.069 54.3459 331.844 54.9041 331.484 55.4009C331.128 55.8931 330.656 56.285 330.069 56.5767C329.485 56.8638 328.806 57.0073 328.031 57.0073ZM334.519 56.7886V46.2886H342.777V56.7886H341.163V47.7925H336.132V56.7886H334.519ZM349.989 57.0073C349.041 57.0073 348.209 56.7817 347.493 56.3306C346.782 55.8794 346.226 55.2482 345.825 54.437C345.429 53.6258 345.231 52.6779 345.231 51.5933C345.231 50.4995 345.429 49.5448 345.825 48.729C346.226 47.9132 346.782 47.2798 347.493 46.8286C348.209 46.3774 349.041 46.1519 349.989 46.1519C350.936 46.1519 351.766 46.3774 352.477 46.8286C353.192 47.2798 353.748 47.9132 354.145 48.729C354.546 49.5448 354.746 50.4995 354.746 51.5933C354.746 52.6779 354.546 53.6258 354.145 54.437C353.748 55.2482 353.192 55.8794 352.477 56.3306C351.766 56.7817 350.936 57.0073 349.989 57.0073ZM349.989 55.5581C350.709 55.5581 351.301 55.3735 351.766 55.0044C352.231 54.6353 352.575 54.1499 352.798 53.5483C353.021 52.9468 353.133 52.2951 353.133 51.5933C353.133 50.8914 353.021 50.2375 352.798 49.6313C352.575 49.0252 352.231 48.5353 351.766 48.1616C351.301 47.7879 350.709 47.6011 349.989 47.6011C349.268 47.6011 348.676 47.7879 348.211 48.1616C347.746 48.5353 347.402 49.0252 347.179 49.6313C346.956 50.2375 346.844 50.8914 346.844 51.5933C346.844 52.2951 346.956 52.9468 347.179 53.5483C347.402 54.1499 347.746 54.6353 348.211 55.0044C348.676 55.3735 349.268 55.5581 349.989 55.5581ZM356.279 56.7886V55.2847H356.662C356.977 55.2847 357.239 55.2231 357.448 55.1001C357.658 54.9725 357.826 54.7515 357.954 54.437C358.086 54.118 358.187 53.6759 358.255 53.1108C358.328 52.5412 358.38 51.8166 358.412 50.937L358.604 46.2886H365.604V56.7886H363.99V47.7925H360.135L359.971 51.5386C359.934 52.3999 359.857 53.1587 359.738 53.8149C359.624 54.4666 359.449 55.0135 359.212 55.4556C358.979 55.8976 358.67 56.2303 358.282 56.4536C357.895 56.6769 357.41 56.7886 356.826 56.7886H356.279ZM375.591 50.8003V52.3042H369.794V50.8003H375.591ZM370.177 46.2886V56.7886H368.563V46.2886H370.177ZM376.821 46.2886V56.7886H375.208V46.2886H376.821ZM381.381 54.4097L386.439 46.2886H388.299V56.7886H386.686V48.6675L381.654 56.7886H379.768V46.2886H381.381V54.4097ZM389.825 47.7925V46.2886H398.356V47.7925H394.911V56.7886H393.298V47.7925H389.825ZM404.567 57.0073C403.555 57.0073 402.682 56.784 401.948 56.3374C401.219 55.8862 400.656 55.2573 400.26 54.4507C399.868 53.6395 399.672 52.6961 399.672 51.6206C399.672 50.5451 399.868 49.5972 400.26 48.7769C400.656 47.952 401.208 47.3094 401.914 46.8491C402.625 46.3843 403.455 46.1519 404.403 46.1519C404.949 46.1519 405.49 46.243 406.023 46.4253C406.556 46.6076 407.041 46.9038 407.479 47.314C407.916 47.7196 408.265 48.2573 408.525 48.9272C408.784 49.5972 408.914 50.422 408.914 51.4019V52.0854H400.821V50.6909H407.274C407.274 50.0985 407.155 49.5698 406.918 49.105C406.686 48.6401 406.353 48.2733 405.92 48.0044C405.492 47.7355 404.986 47.6011 404.403 47.6011C403.76 47.6011 403.204 47.7606 402.735 48.0796C402.27 48.394 401.912 48.8042 401.661 49.3101C401.411 49.8159 401.285 50.3582 401.285 50.937V51.8667C401.285 52.6597 401.422 53.3319 401.696 53.8833C401.974 54.4302 402.359 54.8472 402.851 55.1343C403.343 55.4168 403.915 55.5581 404.567 55.5581C404.99 55.5581 405.373 55.4989 405.715 55.3804C406.061 55.2573 406.36 55.075 406.611 54.8335C406.861 54.5874 407.055 54.2821 407.192 53.9175L408.75 54.355C408.586 54.8836 408.31 55.3485 407.923 55.7495C407.536 56.146 407.057 56.4559 406.488 56.6792C405.918 56.8979 405.278 57.0073 404.567 57.0073ZM410.439 56.7886V55.2847H410.822C411.136 55.2847 411.398 55.2231 411.608 55.1001C411.817 54.9725 411.986 54.7515 412.114 54.437C412.246 54.118 412.346 53.6759 412.414 53.1108C412.487 52.5412 412.54 51.8166 412.572 50.937L412.763 46.2886H419.763V56.7886H418.15V47.7925H414.294L414.13 51.5386C414.094 52.3999 414.016 53.1587 413.898 53.8149C413.784 54.4666 413.608 55.0135 413.371 55.4556C413.139 55.8976 412.829 56.2303 412.442 56.4536C412.054 56.6769 411.569 56.7886 410.986 56.7886H410.439ZM427.754 50.8823V52.3862H422.203V50.8823H427.754ZM423.571 46.2886V56.7886H421.957V46.2886H423.571ZM430.981 57.0073C430.033 57.0073 429.201 56.7817 428.486 56.3306C427.775 55.8794 427.219 55.2482 426.818 54.437C426.421 53.6258 426.223 52.6779 426.223 51.5933C426.223 50.4995 426.421 49.5448 426.818 48.729C427.219 47.9132 427.775 47.2798 428.486 46.8286C429.201 46.3774 430.033 46.1519 430.981 46.1519C431.929 46.1519 432.758 46.3774 433.469 46.8286C434.184 47.2798 434.74 47.9132 435.137 48.729C435.538 49.5448 435.739 50.4995 435.739 51.5933C435.739 52.6779 435.538 53.6258 435.137 54.437C434.74 55.2482 434.184 55.8794 433.469 56.3306C432.758 56.7817 431.929 57.0073 430.981 57.0073ZM430.981 55.5581C431.701 55.5581 432.293 55.3735 432.758 55.0044C433.223 54.6353 433.567 54.1499 433.79 53.5483C434.014 52.9468 434.125 52.2951 434.125 51.5933C434.125 50.8914 434.014 50.2375 433.79 49.6313C433.567 49.0252 433.223 48.5353 432.758 48.1616C432.293 47.7879 431.701 47.6011 430.981 47.6011C430.261 47.6011 429.668 47.7879 429.203 48.1616C428.739 48.5353 428.394 49.0252 428.171 49.6313C427.948 50.2375 427.836 50.8914 427.836 51.5933C427.836 52.2951 427.948 52.9468 428.171 53.5483C428.394 54.1499 428.739 54.6353 429.203 55.0044C429.668 55.3735 430.261 55.5581 430.981 55.5581ZM439.539 56.8979C439.202 56.8979 438.913 56.7772 438.671 56.5356C438.43 56.2941 438.309 56.0047 438.309 55.6675C438.309 55.3302 438.43 55.0409 438.671 54.7993C438.913 54.5578 439.202 54.437 439.539 54.437C439.877 54.437 440.166 54.5578 440.407 54.7993C440.649 55.0409 440.77 55.3302 440.77 55.6675C440.77 55.8908 440.713 56.0959 440.599 56.2827C440.49 56.4696 440.341 56.62 440.155 56.7339C439.972 56.8433 439.767 56.8979 439.539 56.8979ZM444.841 56.8979C444.503 56.8979 444.214 56.7772 443.972 56.5356C443.731 56.2941 443.61 56.0047 443.61 55.6675C443.61 55.3302 443.731 55.0409 443.972 54.7993C444.214 54.5578 444.503 54.437 444.841 54.437C445.178 54.437 445.467 54.5578 445.709 54.7993C445.95 55.0409 446.071 55.3302 446.071 55.6675C446.071 55.8908 446.014 56.0959 445.9 56.2827C445.791 56.4696 445.643 56.62 445.456 56.7339C445.274 56.8433 445.068 56.8979 444.841 56.8979ZM450.142 56.8979C449.805 56.8979 449.515 56.7772 449.274 56.5356C449.032 56.2941 448.911 56.0047 448.911 55.6675C448.911 55.3302 449.032 55.0409 449.274 54.7993C449.515 54.5578 449.805 54.437 450.142 54.437C450.479 54.437 450.768 54.5578 451.01 54.7993C451.252 55.0409 451.372 55.3302 451.372 55.6675C451.372 55.8908 451.315 56.0959 451.201 56.2827C451.092 56.4696 450.944 56.62 450.757 56.7339C450.575 56.8433 450.37 56.8979 450.142 56.8979Z" fill="#111827" fill-opacity="0.5"/>
</g>
</g>
<defs>
<filter id="filter0_d_261_916" x="0" y="0" width="1380.51" height="112.998" filterUnits="userSpaceOnUse" color-interpolation-filters="sRGB">
<feFlood flood-opacity="0" result="BackgroundImageFix"/>
<feColorMatrix in="SourceAlpha" type="matrix" values="0 0 0 0 0 0 0 0 0 0 0 0 0 0 0 0 0 0 127 0" result="hardAlpha"/>
<feOffset dy="5.5"/>
<feGaussianBlur stdDeviation="9.625"/>
<feComposite in2="hardAlpha" operator="out"/>
<feColorMatrix type="matrix" values="0 0 0 0 0.180392 0 0 0 0 0.407843 0 0 0 0 0.960784 0 0 0 0.12 0"/>
<feBlend mode="normal" in2="BackgroundImageFix" result="effect1_dropShadow_261_916"/>
<feBlend mode="normal" in="SourceGraphic" in2="effect1_dropShadow_261_916" result="shape"/>
</filter>
<clipPath id="clip0_261_916">
<rect width="1255.11" height="27.4725" fill="white" transform="translate(82.623 37.2625)"/>
</clipPath>
</defs>
</svg>
